<svg xmlns="http://www.w3.org/2000/svg" xmlns:xlink="http://www.w3.org/1999/xlink" width="100%" height="100%" viewBox="0 0 500 1500"><g clip-rule="evenodd" fill-rule="evenodd" stroke-linecap="round" stroke-linejoin="round" stroke-miterlimit="1.5" transform="translate(250,801.4) translate(-210,-799.3)"><g transform="translate(200.8,777) translate(-202.8,-779.1)"><path id="RedStringJank" d="M221.8 231.6c-7.8-11.6-8-30.7-8.3-46.9c-0.7-39 26.2-77 63.6-40.1c7.2 7.2 12.7 16 17 25.1c25.1 54-8.6 86.9-52.4 115.5c-24.1 15.7-54.1 26.8-78.6 5.8c-32.3-27.8-40.4-91.3-20.5-127.7c13.5-24.7 37.3-42.7 57-62.3c16.3-16.4 50.2-66.9 77.6-59.5c16.3 4.5 7.5 44.5 4.7 56.7c-6.3 27.3-44.4 76.3-14.2 100.9c27.7 22.5 97-35.9 108 21.1c1.1 5.5 .9 11.1-0.5 16.6c-7.9 30.9-61.4 44.7-91.8 45.4c-17.4 .5-20.7-0.7-25.6-19c-8.6-32.1 28.4-66.5 43.2-91.5c4.2-7 9.1-14.8 10.2-23c3.5-28-28.8-71.7-41.5-94.8c-18.8-34.2-49.3 .4-90.9 17.8c-10.3 4.3-50.3-6.2-71.6 21.1c-21.3 27.3 55.1 54.1 73 91.5c10.9 22.6 .2 43.5-11.4 63c-5.4 9-10.7 18.2-19.8 24.1c-20 12.9-46.8 5.8-59.6-13.4c-18.8-28.2-24.4-70.3-30.2-103.3c-1.8-9.9 1.6-46.5-14-46.1c-17.4 .5-26.4 25.8-27.7 39.5c-3.1 34.3 14.5 78.3 46.2 94.7c26.8 13.8 33.5-24.4 36.2-42.8c6.8-48.1 13.2-95.3 43.3-135.5c9.6-12.8 29.3-35.2 48.1-29.2c29.4 9.4 15.5 68 8.5 87c-4.5 12.3-10 24.3-16 35.9c-5 9.5-10.4 18.7-15.9 27.8c-23.4 38.9-72.7 111.5-15.9 146.2c29.6 18.1 77.8 2.5 91.6-29.3c6-13.8 6.6-30.2 1.9-44.4c-3.5-10.7-11.3-21.6-9-33.3c6.8-34.9 41.1-42.8 66.3-59.6c9.4-6.2 17.2-14.6 24.5-23c9.4-10.7 20.4-33.7 35.8-36.6c13-2.5 17.6 15.3 19.7 24.6c7 30.9 3.6 65.4-1 96.3c-0.6 4.2-4.9 34.1-10.9 33.3c-4.3-0.5-6.4-10.7-7.2-13.8c-3.6-13.5-6-27.4-8.1-41.2c-6.2-42.4-0.9-110.4-13.5-119.7c-18-13.3-37.5 14.9-38.8 36.8c-3.5 59.1 17.8 91.6 18.3 150.2c.2 25.1-9.9 54.9-36.7 62.5c-39.2 11.1-83.7-9.9-116.5-29.8c-65-39.6-137.3-92.8-121.8-179.4c2.6-14.6 8.5-28.2 16.2-40.8c8.1-13.2 18.3-25.4 30.8-34.6c36.3-26.8 78.1-8.3 90 34c12.4 44.3-5.3 90.2-11.8 133.9c-2.3 15.4-6.8 40.3 3.6 53.9c10.7 13.9 34.2 26.4 50.3 27.3c37.8 2.2 130 .5 120.2-30.8c-2.1-6.6-57.2-18.9-77.9-20.1c-58.8-3.3-108.5 49.5-167.3 56c-65.6 7.2-44.3-145.7-15.2-167.4" fill="none" stroke="#f65c1b" stroke-width="4px" opacity="0" transform="translate(202,187.1) translate(-202,-187.1)"/><path id="RedString1" d="M124 1514c0 0-90-216 26-482c116-266 97.9-396.6 83-450.3c-15-53.7-28.5-102.2-30.4-192.8c-2.5-123.3 21.5-107.8 9.4-196.7c-4.8-35.2 27.8-88.4 65.2-51.5c7.2 7.1 12.6 19.9 16.9 29c25.1 54-8.6 86.9-52.4 115.5c-24.1 15.7-51.9 25-76.4 4c-32.3-27.8-40-86.2-20.1-122.6c13.5-24.7 41-45.9 60.6-65.6c16.4-16.3 44-66.9 71.4-59.5c16.3 4.5 9.9 46.2 7.1 58.4c-6.4 27.4-48.7 76.1-18.5 100.7c27.7 22.5 96.5-37.3 107.6 19.7c1 5.5 3.2 11 1.8 16.5c-7.9 30.9-59.9 42.4-90.3 43.2c-17.4 .4-18.6 2.1-23.5-16.3c-8.6-32.1 24.8-67 39.6-92c4.2-7 10.9-16.4 12-24.6c3.5-28-30.6-70.1-43.3-93.2c-18.8-34.2-45.6-5.8-87.1 11.5c-10.3 4.3-50.7 1.5-72 28.8c-21.2 27.3 51.7 52.7 69.6 90.1c10.9 22.6 .3 40.5-11.4 60c-5.4 9.1-10.7 21.2-19.8 27.1c-20 12.9-49.7 9-62.5-10.1c-18.8-28.2-19.1-74.3-25-107.2c-1.7-9.9-0.7-45.9-16.3-45.5c-17.4 .5-28.9 29.7-30.2 43.4c-3.1 34.2 17 74.3 48.7 90.8c26.8 13.8 30.8-26.4 33.4-44.9c6.8-48.1 16-93.2 46.1-133.4c9.6-12.8 28.5-31.2 47.3-25.2c29.5 9.4 16.3 64 9.3 83c-4.5 12.3-10 24.3-16 35.9c-5 9.5-13.4 16.1-18.9 25.3c-23.4 38.9-68.4 111.2-11.6 146c29.6 18.1 71.6 9.7 85.4-22.2c6-13.8 9.2-29.8 4.5-44.1c-3.5-10.7-9-26.3-6.7-38c6.8-34.9 41.1-42.8 66.3-59.6c9.4-6.2 17.2-14.6 24.5-23c9.4-10.7 20.1-36.7 35.4-39.7c13-2.5 18 18.4 20.1 27.7c7 30.9 5.6 66.4 1 97.3c-0.6 4.2-6.9 33.1-12.9 32.3c-4.3-0.5-6.4-10.7-7.2-13.8c-3.6-13.5-3.3-28.2-5.4-42c-6.3-42.4-5.7-106-18.3-115.3c-18-13.2-38.8 12.4-40.1 34.3c-3.6 59 18.6 90.6 19.1 149.1c.2 25.1-6.3 58-33 65.6c-39.2 11.2-86.2-10.2-118.9-30.2c-65.1-39.6-133.4-92.3-117.9-178.9c2.6-14.6 5.9-31.4 13.6-44c8.1-13.2 20.8-22.8 33.3-32c36.3-26.8 72.5-7.9 84.4 34.4c12.4 44.3 .8 86-5.7 129.7c-2.3 15.4-13.2 43.5-2.7 57c10.7 14 37.1 19.4 53.2 20.3c37.8 2.1 131.7 3.4 121.9-27.9c-2.1-6.5-58.6-19.8-79.3-21c-58.7-3.4-108 56.2-166.8 62.7c-65.6 7.2-44.7-149.3-15.6-171" fill="none" stroke="#f65c1b" stroke-width="4px" stroke-dashoffset="5300" stroke-dasharray="5300 8000" transform="translate(202.8,780.8) translate(-202.8,-780.8)"/></g></g><script xlink:href="keyshapejs-1.1.1.min.js"/><script><![CDATA[if(KeyshapeJS.version.indexOf('1.')!=0)throw Error('Expected KeyshapeJS v1.*.*');window.ks=document.ks=KeyshapeJS;(function(ks){
ks.animate("#RedStringJank",[{p:'opacity',t:[3000,3500,4000],v:[0,1,0],e:[[3,1],[3,1],[0]]}],
"#RedString1",[{p:'opacity',t:[3000,3500,4000],v:[1,0,1],e:[[3,1],[3,1],[0]]},{p:'strokeDashoffset',t:[0,3000,4000,7000],v:[5300,-1300,-1300,5300],e:[[1,.4,.6,.6,1],[0],[0],[0]]}],
{autoremove:false,markers:{"1":0,"1a":3000,"2":4000}}).range(0,7000);
if(document.location.search.substr(1).split('&').indexOf('global=paused')>=0)ks.globalPause()})(KeyshapeJS);
]]></script></svg>