<svg xmlns="http://www.w3.org/2000/svg" xmlns:xlink="http://www.w3.org/1999/xlink" width="100%" height="100%" viewBox="0 0 500 1500"><g clip-rule="evenodd" fill-rule="evenodd" stroke-linecap="round" stroke-linejoin="round" stroke-miterlimit="1.5" transform="translate(250,801.4) translate(-210,-799.3)"><g transform="translate(210,773.4) translate(-212,-775.5)"><path id="BlueStringJank" d="M64.9 236.1c-4.4-14.1-4.8-37.6 4.3-49.8c16-21.3 45.3-16.6 58.4 9.2c7.2 14.1 5.9 57.8-15 55c-20.6-2.9-16.4-30-10.1-45.9c12.3-30.7 39.9-54.3 71-36.8c19.1 10.7 11.6 40.2 6.9 57c-11.6 41.9-23.3 83 25.2 100.4c8.8 3.2 19.6 4.5 28.8 3.3c55.7-7.7 89.2-74.5 88.3-131.8c-0.8-43.2-26.1-86.5-69.9-71.8c-26.6 9-31.2 43.7-12.8 62.8c33.7 35 104.1 4.6 98.7-48.2c-6.4-62.4-83.9-81-129.7-74.4c-18.6 2.6-42.9 12.3-51.9 32.4c-8 17.7 1.5 35.7 12.9 48.6c19.6 22.3 58.1 41.9 61.1 76.7c2 23.8-20.8 47.2-40.1 51.5c-39.2 8.8-101.5-17.3-98.5-68.7c2.6-43 55.6-93.7 93.2-97.1c37.6-3.4 74.4 29 70.8 73c-1.2 15.1-6.8 29.1-13.1 42.4c-4.6 9.8-10.2 16.6-17.2 24.5c-21 23.9-58 24.7-80.4 5.1c-34.6-30.2-56.5-94-111-55.1c-20.3 14.5-15.9 42.4-5.9 63.5c18.4 38.9 67.5 78.2 102.5 38c6.1-7 11.3-13.2 14.6-22.1c7-18.6 14.2-43.6 6.4-63.1c-18.6-46.2-97.9-87.8-57.2-152.5c38.5-61.4 141.1-50.9 171.5 15.2c32.6 71-53.1 141.3-12.2 210c18.8 31.6 57.2 31.9 86.1 17.8c39.6-19.3 65.9-64.4 61.7-111.5c-2.5-28.1-39.4-47.4-56.9-26c-37.4 45.6-19.9 141.4-96.9 145.7c-31.3 1.7-73.1-2.7-97.2-26.4c-20.3-20-23.2-48.9 1.5-64.9c38.5-25 52.4 29.7 23.2 52.4c-52.5 40.8-122.9-21.7-137.7-78.5c-22.6-87 71.7-129.9 136.5-109.4c55.6 17.6 20.3 108.3 77.9 120c33.5 6.9 58.2-35.8 66-61.2c7.8-25.3-10.6-54-44.1-55.3c-31.1-1.2-65.5 4.4-78.5 35.5c-2.6 6.2-4.3 12.8-5.1 19.6c-2.3 18.2 2.1 37.3 9.5 54c4.1 9.3 12.1 18.7 12.8 29.1" fill="none" stroke="#007cbf" stroke-width="4px" opacity="0" transform="translate(211.6,175.2) translate(-211.6,-175.2)"/><path id="BlueString1" d="M228.7 1514.7c-33.4-78.7-2.7-420 30.6-513.4c33.4-93.3 69.4-377.3 14.7-516c-54.7-138.6-21.5-207.3-73.5-286.1c-12.5-18.8-11.8-35.8-9.5-54c.8-6.8 2.5-13.4 5.1-19.6c13-31.1 44.7-38.3 75.8-37.1c33.6 1.3 55.8 33.6 47.9 58.9c-7.8 25.4-33.6 66.1-67.1 59.2c-57.6-11.7-20.6-105.4-76.2-123c-64.9-20.5-163.7 25-141.1 112c14.8 56.8 87.1 117.5 139.6 76.7c29.2-22.7 18.8-79.2-19.7-54.2c-24.7 16-24.3 48.9-4 68.9c24.1 23.7 65.6 30.6 96.8 28.9c77-4.3 60.1-98.3 97.5-143.9c17.6-21.4 54.2-6.4 56.7 21.7c4.2 47.1-22.5 96-62.1 115.3c-28.9 14.1-69.1 11.9-87.9-19.8c-40.9-68.7 50.1-141.6 17.5-212.6c-30.4-66.1-138.6-76.7-177.1-15.2c-40.7 64.7 40 110 58.5 156.2c7.9 19.5 1.8 41.6-5.2 60.2c-3.3 8.9-7.4 17.2-13.5 24.2c-35 40.3-87.3-0.8-105.7-39.7c-10-21.1-12.3-49.4 8-63.9c54.5-38.9 76.4 24.9 111 55.1c22.4 19.6 59.9 22.1 80.8-1.8c7-8 12.2-18 16.8-27.8c6.3-13.3 11.9-27.3 13.1-42.4c3.6-44-33.5-71.8-71-68.4c-37.7 3.5-87.4 49.1-89.9 92.1c-3.1 51.4 56.1 76.4 95.4 67.6c19.2-4.3 44.5-25.6 42.5-49.4c-3-34.7-43.9-55-63.5-77.3c-11.4-12.9-20.9-30.9-12.9-48.6c9-20.1 32.9-26.2 51.5-28.9c45.8-6.6 120.4 8.3 126.8 70.7c5.4 52.8-61.7 83.4-95.4 48.4c-18.4-19.1-16.5-56 10.1-64.9c43.8-14.8 75.3 29.6 76 72.8c1 57.2-36.8 123.1-92.5 130.8c-9.2 1.3-18 .4-26.9-2.8c-48.4-17.4-37.9-56.9-26.3-98.8c4.7-16.8 13.2-47.9-5.8-58.7c-31.1-17.5-63.1 8.6-75.4 39.3c-6.3 15.9-7.2 42.2 13.4 45.1c20.9 2.8 24.4-41.4 17.2-55.6c-13.2-25.8-45-23.8-60.9-2.5c-9.2 12.2-8.4 29.6-4 43.7" fill="none" stroke="#007cbf" stroke-width="4px" stroke-dashoffset="5000" stroke-dasharray="5000 10000" transform="translate(211,399.6) translate(-211,-399.6)"/></g></g></svg>