<svg xmlns="http://www.w3.org/2000/svg" xmlns:xlink="http://www.w3.org/1999/xlink" width="100%" height="100%" viewBox="0 0 500 1500"><g clip-rule="evenodd" fill-rule="evenodd" stroke-linecap="round" stroke-linejoin="round" stroke-miterlimit="1.5" transform="translate(250,801.4) translate(-210,-799.3)"><g transform="translate(210,762.8) translate(-212,-765)"><path id="RedStringJank" d="M196.8 285.4c-17.2-17.8-9.3-39.5 2-59.7c6.8-12.1 10.9-22.9 19.5-33.4c12.3-15.1 22.2-32.1 18-51.4c-5.9-27.6-37.7-54.6-78.9-49.8c-14 1.7-31.8 55-4.2 66.6c12.1 5 25.2-5.8 36.4-9.4c28.1-9.1 74-1.8 68.8 38c-0.9 7.1-3.3 13.6-6.4 19.8c-4 7.9-10 17.1-17.5 22.2c-19.8 13.1-46.5-4.7-51-24.4c-5.9-26.4 17.4-49.7 41.4-55.4c41-9.8 46.6 48 73 66.8c18 12.8 46.9 12.4 62-7.2c12.5-16.5 22.7-47.2 9.3-65.8c-14.4-20-50.8-30.1-61.3-3.2c-11.4 29.3 11.7 64.3 21.7 90.3c12.2 31.5 3.2 58.1-20.6 81.6c-32.4 31.9-84.6 30.9-120.9 10.4c-16.8-9.5-37.4-20.2-39.6-41c-2.6-25.6 24.5-37.6 47.6-33.8c19.6 3.1 31.8 20.4 34.8 40.3c4.8 32.7-22 41-47.3 46.9c-44.9 10.6-95.4-24.5-121-60.1c-4.5-6.2-9.5-14.8-12.2-22c-13.5-36.5 20.6-58.4 43.3-79.2c27-24.7 78.1-56.5 60.6-109.7c-12.9-39-66.3-29.3-87.1-11.9c-17.6 14.7-23 40.9-21.3 62.1c4.5 55.6 48.3 92.5 106.3 77.3c40.8-10.8 65.1-47.3 67.9-87.9c.8-12.7-1.4-33.1-9.7-43.7c-3.8-4.7-19.3-8-21.7 .4c-5.3 18.1 25.6 15.1 33.5 11.5c16.2-7.4 32.5-15.6 50.5-18.7c36.5-6.2 75.7 11.2 87.6 48.2c8.6 26.6-14.9 40.3-32.1 53.3c-16 12-30.3 25.5-34.8 45.2c-8.5 36.7 24.2 56.9 57.7 57.5c26.6 .4 23.8 40.2 10.8 50.8c-22.9 18.5-50.1 21.5-78.3 27.7c-21.5 4.8-37 4.6-57-7.2c-25.5-15.1-46.6-34.3-45.7-65c.7-21.3 10.3-44.3 1.9-65.2c-13.1-32.5-58.5-25.7-82.8-8c-17.4 12.7-19.1 27.6-18.3 48.1c1.5 39.1 28.7 85.7 68.7 96.9c18.8 5.3 32.5 .3 50.1-6.3c19.7-7.3 40-21.5 56.9-34.5c19.6-15.3 39.6-41 54.8-60.3" fill="none" stroke="#f65c1b" stroke-width="4px" opacity="0" transform="translate(210.6,186.6) translate(-210.6,-186.6)"/><path id="RedString1" d="M274 1512.1c0 0 165-546.1 15-723c-167.4-197.6-171-278.9-166.7-331.7c4.3-52.9 13.6-68.7 24.8-86.1c26.5-41.1 60.2-87.8 64.3-150.9c3-44.9 29.1-60.2 24.9-79.5c-5.9-27.6-41.8-55.8-82.9-51c-14.1 1.7-27.8 56.2-0.2 67.8c12.1 5 24.9-3.3 36.1-6.9c28.1-9.1 76.8-2.4 71.6 37.4c-0.9 7.1-4.1 13.9-7.2 20.2c-4 7.8-9 17.1-16.6 22.1c-19.8 13.2-49.1-6.9-53.6-26.6c-5.9-26.4 17.4-49.7 41.4-55.4c41-9.8 46.6 48 73 66.8c18 12.8 48.5 16.6 63.5-3c12.6-16.4 21.2-51.4 7.8-70c-14.4-20-48.9-26.2-59.4 .7c-11.4 29.3 9.8 60.4 19.8 86.4c12.2 31.5 4.8 63.4-19 86.9c-32.4 31.9-86.2 25.6-122.5 5.1c-16.8-9.5-33.6-20-35.8-40.8c-2.7-25.7 20.7-37.8 43.8-34c19.6 3.1 36.3 18.9 39.3 38.8c4.8 32.7-26.5 42.5-51.8 48.4c-44.9 10.6-100.4-24.7-126-60.3c-4.5-6.2-8.9-12.9-11.5-20.1c-13.5-36.5 24.9-60.1 47.6-80.9c27-24.7 81.6-59.2 64.2-112.5c-12.9-38.9-69.9-26.5-90.7-9.1c-17.6 14.7-19.5 41.5-17.8 62.7c4.5 55.6 45.3 95.8 103.3 80.5c40.8-10.7 64.6-51.1 67.4-91.7c.8-12.7-1.4-33.1-9.7-43.7c-3.8-4.7-19.3-8-21.7 .4c-5.3 18.1 25.6 15.1 33.5 11.5c16.2-7.4 30.4-18.9 48.4-21.9c36.5-6.2 81.1 13.1 93.1 50.1c8.6 26.6-20.3 38.7-37.5 51.6c-16 12-28.3 28.5-32.8 48.2c-8.5 36.7 24.2 56.9 57.7 57.5c26.6 .4 23.6 36.3 10.5 47c-22.8 18.5-49.8 25.3-78 31.5c-21.5 4.8-40.1 9.5-60.1-2.3c-25.5-15.1-43.5-39.2-42.6-69.9c.7-21.3 10.3-44.3 1.9-65.2c-13.1-32.5-59.4-30.8-83.7-13c-17.4 12.7-22 33.1-21.2 53.7c1.5 39 26.5 86.4 66.4 97.6c18.8 5.2 38.6-1 56.2-7.6c19.7-7.3 39.8-15.7 56.6-28.7c19.6-15.2 39.9-46.8 55.1-66.1" fill="none" stroke="#f65c1b" stroke-width="4px" stroke-dashoffset="4000" stroke-dasharray="4000 10000" transform="translate(212,387.1) translate(-212,-387.1)"/></g></g></svg>