<svg xmlns="http://www.w3.org/2000/svg" xmlns:xlink="http://www.w3.org/1999/xlink" width="100%" height="100%" viewBox="0 0 500 800"><g transform="translate(250,198.6) translate(-210,-419.9)"><path id="Darktangle-1" d="M343 879c9.7-19.8 40.7-105-58.6-206c-99.2-101-87.7-183.1-85.6-213.4c1.3-19.2-0.1-47.1-15.7-59.1c-3.3-2.5-7.3-4.4-12-5.2c-14.8-2.8-27.2 2.9-41.5 4.3c-4.7 .4-15.5 1.1-20.1 .9c-13.1-0.7-9-12.7 4.1-14.2c13.4-1.5 36 7.9 39.1 24.9c5.8 32-29 69.7-57.6 55.4c-12.4-6.3-21.8-21.8-25.7-38.8c-3.7-15.7-2.8-32.6 4.5-44.7c14-23.2 50.2-36.4 74.7-27.3c36.2 13.3 7 72.8 7 103.7c0 23.2 19.3 41.6 39.6 39.5c4.8-0.5 10.5-4.2 14.4-7c12.1-8.5 20.5-27.2 18.4-43.3c-2.7-20.9-31.4-50.7 1.8-60.5c4.8-1.4 9.9-1.7 14.9-1.2c6.7 .5 13.5 3.6 19 7.6c54.7 40.3-26 85.3-16.7 126.7c4.2 18.6 22.2 22.4 37.4 20.4c20-2.6 44.6-30.4 53.5-48.4c4.5-9.1 3.8-19.5 2.9-29.3c-3.1-34.3-38.5-37.9-62.1-26.1c-53.3 26.5-57.1 89.2-134.7 99.3c-27.5 3.6-52.5-16.7-61.5-26.2c-16.3-17.1-9.1-38.4 12.6-44.4c25.3-7 51.8-5.3 77.1 1.2c9.1 2.3 17.4 12 15.6 22.9c-2.9 17.2-20 31-32.2 40.2c-13.1 9.8-29.1 21.6-45.5 22.9c-21 1.6-40.7-8-56.2-23.7c-19-19.1-31.7-47.3-33-74.4c-0.7-16.6-0.1-33.6 3.7-48.8c4.9-19.1 15-35.4 34.3-44.1c14.7-6.7 22.3-3.2 32.8-5.1c16.7-3.1 34-11.1 48.3-21c11.6-8.1 27.7-22.4 36.7-38.6c7.6-13.7 10.2-28.8 1.3-42.9c-17.6-27.8-69.9-14-85.6 10.4c-10.6 16.4-3 46.9 7.3 60.9c15.9 21.4 43.3 20.6 62.8 4.4c15.9-13.2 34.7-29.4 54.6-38.2c19.8-8.8 40.7-10.3 61 5.8c16.3 12.8 17.4 37.6 1.1 51.5c-10.6 9.2-24.8 12.4-35.2 21.6c-21.4 18.9-32.9 55.1-21.7 84.1c14.7 38.1 62.5 15 83.4-1.2c10.5-8.2 26.5-38.4 40.3-24.9c18.2 17.7-44.6 55.1-67.9 64.3c-10.8 4.3-42.6 14.2-63.4 27.3c-20.6 13-30.4 29.1 1.8 45.9c8.7 4.6 17 8 26.5 9.6c18.7 3.2 38.8-2.5 56.9-13c18.6-10.8 35.2-26.9 46.1-43.7c6.9-10.7 19.2-35.2 10.3-48.4c-10.5-15.5-35.7-10.9-49.4-4.4c-42.6 19.9-77.4 34.2-124.9 28c-28.5-3.7-45.1-63.9-35.7-89.1c7.1-18.7 27.9-34.6 43.8-42.7c20.5-10.5 40.1-12.8 60-5.7c10.7 3.7 23.3 20.1 40.1 32.2c10.2 7.3 21.9 13.1 35.6 13.6c24.8 1 25.3-21.9 40.9-30.5" fill="none" stroke="#2a4059" stroke-width="4px" stroke-dashoffset="4327.1" stroke-dasharray="4327.1" clip-rule="evenodd" stroke-linecap="round" stroke-linejoin="round" stroke-miterlimit="1.5" transform="translate(213.7,712.7) translate(-193.7,-559.4)"/><path id="Darktangle-2" d="M186.5 225.7c12.5-23.3 .5-63.2-26.3-68.2c-14.7-2.7-27.9 3.5-42.2 4.9c-4.6 .4-15.4 1.1-20.1 .9c-13-0.7-8.9-12.7 4.1-14.2c13.5-1.5 35.4 11.2 38.4 28.2c5.8 32-28.9 69.7-57.5 55.4c-23.9-12.1-38.8-60.6-23.6-85.7c14-23.3 52.6-34.2 77.1-25.1c36.1 13.3 2.2 74.3 2.2 105.3c0 23.1 24.1 40 44.4 37.9c4.7-0.4 10.5-4.2 14.4-7c12.1-8.5 20.5-27.2 18.4-43.3c-2.7-20.9-32.9-48.4 .2-58.2c4.9-1.4 10-1.7 15-1.3c6.7 .6 13.5 3.6 19 7.7c54.6 40.3-24.6 83-15.2 124.4c4.2 18.6 23.6 18.9 38.8 17c19.9-2.6 39.9-28.4 48.9-46.5c4.5-9 6.9-18 6.1-27.8c-3.1-34.3-40.6-40.9-64.3-29.2c-53.2 26.5-55.7 118.4-132.5 102.4c-8.8-1.8-18.3-3.1-26.5-7.6c-9.1-5.1-19.7-8.9-27.5-16.2c-3.4-3.3-6.8-7.7-9.7-11.5c-14.6-18.9-6.9-29.3 14.8-35.3c25.3-7 52.3-8.4 77.7-1.9c9.1 2.3 16.7 15.1 14.9 26c-2.8 17.2-20 31-32.2 40.2c-13.1 9.8-27.8 17.6-44.2 18.9c-46.8 3.7-88.9-40.9-91.2-90.1c-1.7-37.5 7.3-73.8 40-93c9.7-5.7 21.1-7.1 31.6-9c16.6-3.1 34-11.1 48.3-21c21.4-14.9 54.5-47.9 34.9-78.9c-17.6-27.8-66.9-16.5-82.6 7.8c-10.6 16.4 .6 44.6 11 58.6c15.8 21.5 39.7 22.9 59.1 6.7c31.9-26.4 72.5-61.4 113.3-29.2c16.2 12.9 19.7 34.4 3.5 48.3c-10.7 9.2-24.8 12.4-35.3 21.6c-21.3 18.9-32.9 55.1-21.7 84.1c14.8 38.1 62.3 14.7 83.5-1.2c5.4-4.1 26.5-38.4 40.3-24.9c18.2 17.7-34.3 38.2-45.3 47.1c-7.2 5.8-14.5 9.7-22.7 13c-21.6 8.5-127.5 45.3-62.8 79.2c8.6 4.5 18.4 9.3 27.9 10.9c38 6.5 81.5-26.7 102.8-59.8c6.9-10.7 19.3-35.2 10.4-48.4c-10.5-15.5-35.7-10.9-49.5-4.4c-42.5 19.9-77.3 34.2-124.8 28c-28.5-3.7-45.2-63.9-35.7-89.1c7-18.7 29.7-33.2 45.6-41.3c20.6-10.5 32-3.8 52.2 2.4c13 4.1 28.2 2.9 40.5 9.3c15.5 8.2 24.3 22.6 42.8 24c24.7 2 23.6-18.9 39.2-27.5" fill="none" stroke="#2a4059" stroke-width="4" clip-rule="evenodd" stroke-linecap="round" stroke-linejoin="round" stroke-miterlimit="1.5" opacity="0" transform="translate(207.9,542) translate(-175.2,-155.5)"/></g><g transform="translate(250,304.9) translate(-210,-95.1)"/><script xlink:href="keyshapejs-1.1.0.min.js"/><script><![CDATA[if(KeyshapeJS.version.indexOf('1.')!=0)throw Error('Expected KeyshapeJS v1.*.*');window.ks=document.ks=KeyshapeJS;(function(ks){
ks.animate("#Darktangle-1",[{p:'opacity',t:[1500,1875,2250],v:[1,0,1],e:[[3,1],[3,1],[0]]},{p:'strokeDashoffset',t:[0,1500,2250,3542],v:[4327.1,-400,-400,4322.3],e:[[1,0,0,.6,1],[1,0,0,.6,1],[1,0,0,.6,1],[0]]},{p:'d',t:[0,1500,2250,3542],v:["path('M343,879C352.7,859.2,383.7,774,284.4,673C185.2,572,196.7,489.9,198.8,459.6C200.1,440.4,198.7,412.5,183.1,400.5C179.8,398,175.8,396.1,171.1,395.3C156.3,392.5,143.9,398.2,129.6,399.6C124.9,400,114.1,400.7,109.5,400.5C96.4,399.8,100.5,387.8,113.6,386.3C127,384.8,149.6,394.2,152.7,411.2C158.5,443.2,123.7,480.9,95.1,466.6C82.7,460.3,73.3,444.8,69.4,427.8C65.7,412.1,66.6,395.2,73.9,383.1C87.9,359.9,124.1,346.7,148.6,355.8C184.8,369.1,155.6,428.6,155.6,459.5C155.6,482.7,174.9,501.1,195.2,499C200,498.5,205.7,494.8,209.6,492C221.7,483.5,230.1,464.8,228,448.7C225.3,427.8,196.6,398,229.8,388.2C234.6,386.8,239.7,386.5,244.7,387C251.4,387.5,258.2,390.6,263.7,394.6C318.4,434.9,237.7,479.9,247,521.3C251.2,539.9,269.2,543.7,284.4,541.7C304.4,539.1,329,511.3,337.9,493.3C342.4,484.2,341.7,473.8,340.8,464C337.7,429.7,302.3,426.1,278.7,437.9C225.4,464.4,221.6,527.1,144,537.2C116.5,540.8,91.5,520.5,82.5,511C66.2,493.9,73.4,472.6,95.1,466.6C120.4,459.6,146.9,461.3,172.2,467.8C181.3,470.1,189.6,479.8,187.8,490.7C184.9,507.9,167.8,521.7,155.6,530.9C142.5,540.7,126.5,552.5,110.1,553.8C89.1,555.4,69.4,545.8,53.9,530.1C34.9,511,22.2,482.8,20.9,455.7C20.2,439.1,20.8,422.1,24.6,406.9C29.5,387.8,39.6,371.5,58.9,362.8C73.6,356.1,81.2,359.6,91.7,357.7C108.4,354.6,125.7,346.6,140,336.7C151.6,328.6,167.7,314.3,176.7,298.1C184.3,284.4,186.9,269.3,178,255.2C160.4,227.4,108.1,241.2,92.4,265.6C81.8,282,89.4,312.5,99.7,326.5C115.6,347.9,143,347.1,162.5,330.9C178.4,317.7,197.2,301.5,217.1,292.7C236.9,283.9,257.8,282.4,278.1,298.5C294.4,311.3,295.5,336.1,279.2,350C268.6,359.2,254.4,362.4,244,371.6C222.6,390.5,211.1,426.7,222.3,455.7C237,493.8,284.8,470.7,305.7,454.5C316.2,446.3,332.2,416.1,346,429.6C364.2,447.3,301.4,484.7,278.1,493.9C267.3,498.2,235.5,508.1,214.7,521.2C194.1,534.2,184.3,550.3,216.5,567.1C225.2,571.7,233.5,575.1,243,576.7C261.7,579.9,281.8,574.2,299.9,563.7C318.5,552.9,335.1,536.8,346,520C352.9,509.3,365.2,484.8,356.3,471.6C345.8,456.1,320.6,460.7,306.9,467.2C264.3,487.1,229.5,501.4,182,495.2C153.5,491.5,136.9,431.3,146.3,406.1C153.4,387.4,174.2,371.5,190.1,363.4C210.6,352.9,230.2,350.6,250.1,357.7C260.8,361.4,273.4,377.8,290.2,389.9C300.4,397.2,312.1,403,325.8,403.5C350.6,404.5,351.1,381.6,366.7,373')","path('M68,884C77.7,864.2,79.7,809,128,688C176.3,567,196.7,489.9,198.8,459.6C200.1,440.4,198.7,412.5,183.1,400.5C179.8,398,175.8,396.1,171.1,395.3C156.3,392.5,143.9,398.2,129.6,399.6C124.9,400,124.6,400.4,119.9,400.2C106.8,399.4,111,387.4,124,386C137.5,384.5,149.6,394.2,152.7,411.2C158.5,443.2,123.7,480.9,95.1,466.6C82.7,460.3,73.3,444.8,69.4,427.8C65.7,412.1,66.6,395.2,73.9,383.1C87.9,359.9,124.1,346.7,148.6,355.8C184.8,369.1,155.6,428.6,155.6,459.5C155.6,482.7,174.9,501.1,195.2,499C200,498.5,205.7,494.8,209.6,492C221.7,483.5,230.1,464.8,228,448.7C225.3,427.8,183.4,414.4,216.6,404.6C221.4,403.2,226.5,402.9,231.5,403.4C238.2,403.9,245,407,250.5,411C305.2,451.3,237.2,473.1,246.6,514.5C250.8,533.1,268.8,536.9,284,534.9C303.9,532.3,328.5,504.5,337.5,486.5C340,479.5,341.7,473.8,340.8,464C337.7,429.7,302.3,426.1,278.7,437.9C225.4,464.4,221.6,527.1,144,537.2C116.5,540.8,91.5,520.5,82.5,511C66.2,493.9,73.4,472.6,95.1,466.6C120.4,459.6,146.9,461.3,172.2,467.8C181.3,470.1,189.6,479.8,187.8,490.7C184.9,507.9,167.8,521.7,155.6,530.9C142.5,540.7,126.5,552.5,110.1,553.8C89.1,555.4,77.5,546.6,62,531C43,511.8,30.3,483.7,29,456.6C28.3,440,28.9,423,32.7,407.8C37.6,388.6,39.6,371.5,58.9,362.8C73.6,356.1,81.2,359.6,91.7,357.7C108.4,354.6,125.7,346.6,140,336.7C151.6,328.6,151.5,331.8,160.5,315.5C168.1,301.9,172.9,287.1,164,273C146.4,245.2,108.2,252.7,92.5,277C81.9,293.4,89.4,312.5,99.7,326.5C115.6,347.9,143,347.1,162.5,330.9C178.4,317.7,193.8,316.3,213.7,307.5C233.5,298.7,254.3,297.3,274.7,313.3C290.9,326.2,295.5,336.1,279.2,350C268.6,359.2,254.4,362.4,244,371.6C222.6,390.5,211.1,426.7,222.3,455.7C237,493.8,272.7,475.6,293.7,459.4C304.1,451.3,320.2,421.1,334,434.5C352.1,452.2,303.4,484.5,280.2,493.7C269.4,498.1,235.5,508.1,214.7,521.2C194.1,534.2,184.3,550.3,216.5,567.1C225.2,571.7,233.5,575.1,243,576.7C261.7,579.9,281.8,574.2,299.9,563.7C318.5,552.9,335.1,536.8,346,520C352.9,509.3,365.2,484.8,356.3,471.6C345.8,456.1,320.6,460.7,306.9,467.2C264.3,487.1,229.5,501.4,182,495.2C153.5,491.5,136.9,431.3,146.3,406.1C153.4,387.4,174.2,371.5,190.1,363.4C210.6,352.9,220.5,352.4,240.5,359.5C251.1,363.3,253.6,382.9,270.5,395C280.7,402.3,292.4,408.1,306.1,408.6C330.8,409.6,331.3,386.7,346.9,378.1')","path('M68,884C77.7,864.2,79.7,809,128,688C176.3,567,196.7,489.9,198.8,459.6C200.1,440.4,198.7,412.5,183.1,400.5C179.8,398,175.8,396.1,171.1,395.3C156.3,392.5,143.9,398.2,129.6,399.6C124.9,400,124.6,400.4,119.9,400.2C106.8,399.4,111,387.4,124,386C137.5,384.5,149.6,394.2,152.7,411.2C158.5,443.2,123.7,480.9,95.1,466.6C82.7,460.3,73.3,444.8,69.4,427.8C65.7,412.1,66.6,395.2,73.9,383.1C87.9,359.9,124.1,346.7,148.6,355.8C184.8,369.1,155.6,428.6,155.6,459.5C155.6,482.7,174.9,501.1,195.2,499C200,498.5,205.7,494.8,209.6,492C221.7,483.5,230.1,464.8,228,448.7C225.3,427.8,183.4,414.4,216.6,404.6C221.4,403.2,226.5,402.9,231.5,403.4C238.2,403.9,245,407,250.5,411C305.2,451.3,237.2,473.1,246.6,514.5C250.8,533.1,268.8,536.9,284,534.9C303.9,532.3,328.5,504.5,337.5,486.5C340,479.5,341.7,473.8,340.8,464C337.7,429.7,302.3,426.1,278.7,437.9C225.4,464.4,221.6,527.1,144,537.2C116.5,540.8,91.5,520.5,82.5,511C66.2,493.9,73.4,472.6,95.1,466.6C120.4,459.6,146.9,461.3,172.2,467.8C181.3,470.1,189.6,479.8,187.8,490.7C184.9,507.9,167.8,521.7,155.6,530.9C142.5,540.7,126.5,552.5,110.1,553.8C89.1,555.4,77.5,546.6,62,531C43,511.8,30.3,483.7,29,456.6C28.3,440,28.9,423,32.7,407.8C37.6,388.6,39.6,371.5,58.9,362.8C73.6,356.1,81.2,359.6,91.7,357.7C108.4,354.6,125.7,346.6,140,336.7C151.6,328.6,151.5,331.8,160.5,315.5C168.1,301.9,172.9,287.1,164,273C146.4,245.2,108.2,252.7,92.5,277C81.9,293.4,89.4,312.5,99.7,326.5C115.6,347.9,143,347.1,162.5,330.9C178.4,317.7,193.8,316.3,213.7,307.5C233.5,298.7,254.3,297.3,274.7,313.3C290.9,326.2,295.5,336.1,279.2,350C268.6,359.2,254.4,362.4,244,371.6C222.6,390.5,211.1,426.7,222.3,455.7C237,493.8,272.7,475.6,293.7,459.4C304.1,451.3,320.2,421.1,334,434.5C352.1,452.2,303.4,484.5,280.2,493.7C269.4,498.1,235.5,508.1,214.7,521.2C194.1,534.2,184.3,550.3,216.5,567.1C225.2,571.7,233.5,575.1,243,576.7C261.7,579.9,281.8,574.2,299.9,563.7C318.5,552.9,335.1,536.8,346,520C352.9,509.3,365.2,484.8,356.3,471.6C345.8,456.1,320.6,460.7,306.9,467.2C264.3,487.1,229.5,501.4,182,495.2C153.5,491.5,136.9,431.3,146.3,406.1C153.4,387.4,174.2,371.5,190.1,363.4C210.6,352.9,220.5,352.4,240.5,359.5C251.1,363.3,253.6,382.9,270.5,395C280.7,402.3,292.4,408.1,306.1,408.6C330.8,409.6,331.3,386.7,346.9,378.1')","path('M343,879C352.7,859.2,383.7,774,284.4,673C185.2,572,196.7,489.9,198.8,459.6C200.1,440.4,198.7,412.5,183.1,400.5C179.8,398,175.8,396.1,171.1,395.3C156.3,392.5,143.9,398.2,129.6,399.6C124.9,400,114.1,400.7,109.5,400.5C96.4,399.8,100.5,387.8,113.6,386.3C127,384.8,149.6,394.2,152.7,411.2C158.5,443.2,123.7,480.9,95.1,466.6C82.7,460.3,73.3,444.8,69.4,427.8C65.7,412.1,66.6,395.2,73.9,383.1C87.9,359.9,124.1,346.7,148.6,355.8C184.8,369.1,155.6,428.6,155.6,459.5C155.6,482.7,174.9,501.1,195.2,499C200,498.5,205.7,494.8,209.6,492C221.7,483.5,230.1,464.8,228,448.7C225.3,427.8,196.6,398,229.8,388.2C234.6,386.8,239.7,386.5,244.7,387C251.4,387.5,258.2,390.6,263.7,394.6C318.4,434.9,237.7,479.9,247,521.3C251.2,539.9,269.2,543.7,284.4,541.7C304.4,539.1,329,511.3,337.9,493.3C342.4,484.2,341.7,473.8,340.8,464C337.7,429.7,302.3,426.1,278.7,437.9C225.4,464.4,221.6,527.1,144,537.2C116.5,540.8,91.5,520.5,82.5,511C66.2,493.9,73.4,472.6,95.1,466.6C120.4,459.6,146.9,461.3,172.2,467.8C181.3,470.1,189.6,479.8,187.8,490.7C184.9,507.9,167.8,521.7,155.6,530.9C142.5,540.7,126.5,552.5,110.1,553.8C89.1,555.4,69.4,545.8,53.9,530.1C34.9,511,22.2,482.8,20.9,455.7C20.2,439.1,20.8,422.1,24.6,406.9C29.5,387.8,39.6,371.5,58.9,362.8C73.6,356.1,81.2,359.6,91.7,357.7C108.4,354.6,125.7,346.6,140,336.7C151.6,328.6,167.7,314.3,176.7,298.1C184.3,284.4,186.9,269.3,178,255.2C160.4,227.4,108.1,241.2,92.4,265.6C81.8,282,89.4,312.5,99.7,326.5C115.6,347.9,143,347.1,162.5,330.9C178.4,317.7,197.2,301.5,217.1,292.7C236.9,283.9,257.8,282.4,278.1,298.5C294.4,311.3,295.5,336.1,279.2,350C268.6,359.2,254.4,362.4,244,371.6C222.6,390.5,211.1,426.7,222.3,455.7C237,493.8,284.8,470.7,305.7,454.5C316.2,446.3,332.2,416.1,346,429.6C364.2,447.3,301.4,484.7,278.1,493.9C267.3,498.2,235.5,508.1,214.7,521.2C194.1,534.2,184.3,550.3,216.5,567.1C225.2,571.7,233.5,575.1,243,576.7C261.7,579.9,281.8,574.2,299.9,563.7C318.5,552.9,335.1,536.8,346,520C352.9,509.3,365.2,484.8,356.3,471.6C345.8,456.1,320.6,460.7,306.9,467.2C264.3,487.1,229.5,501.4,182,495.2C153.5,491.5,136.9,431.3,146.3,406.1C153.4,387.4,174.2,371.5,190.1,363.4C210.6,352.9,230.2,350.6,250.1,357.7C260.8,361.4,273.4,377.8,290.2,389.9C300.4,397.2,312.1,403,325.8,403.5C350.6,404.5,351.1,381.6,366.7,373')"],e:[[1,.4,0,.6,1],[1,.4,0,.6,1],[1,.4,0,.6,1],[0]]}],
"#Darktangle-2",[{p:'opacity',t:[1500,1875,2250],v:[0,1,0],e:[[3,1],[3,1],[0]]}],
{autoremove:false,markers:{"1":0,"1a":1500,"2":2250}}).range(0,3542);
if(document.location.search.substr(1).split('&').indexOf('global=paused')>=0)ks.globalPause()})(KeyshapeJS);
]]></script></svg>