<svg xmlns="http://www.w3.org/2000/svg" xmlns:xlink="http://www.w3.org/1999/xlink" width="100%" height="100%" viewBox="0 0 500 800"><g transform="translate(250,198.6) translate(-210,-419.9)"><path id="Redtangle-1" d="M195.6 198.2c-26.8 274.9-93.5 242.5-138.9 327.5c-17.1 32-49 177.1 16.6 169.9c58.8-6.5 108.1-66.1 166.8-62.7c20.7 1.2 77.2 14.5 79.3 21c9.8 31.4-84.1 30-121.9 27.9c-16.1-0.9-42.5-6.3-53.2-20.2c-10.5-13.6 .4-41.7 2.7-57.1c6.5-43.7 18.1-85.4 5.7-129.7c-11.9-42.3-48.1-61.2-84.4-34.4c-12.5 9.2-25.2 18.8-33.3 32c-7.7 12.6-11 29.4-13.6 44c-15.5 86.6 52.8 139.4 117.9 178.9c32.7 20 79.7 41.4 118.9 30.2c26.7-7.6 33.2-40.5 33-65.5c-0.5-58.6-22.7-90.1-19.1-149.2c1.3-21.9 22.1-47.5 40.1-34.2c12.6 9.2 12 72.8 18.3 115.2c2.1 13.8 1.8 28.5 5.4 42c.8 3.1 2.9 13.3 7.2 13.9c6 .7 12.3-28.2 12.9-32.4c4.6-30.9 6-66.4-1-97.3c-2.1-9.3-7.1-30.2-20.1-27.7c-15.3 3-26 29-35.4 39.7c-7.3 8.4-15.1 16.8-24.5 23c-25.2 16.8-59.5 24.7-66.3 59.6c-2.3 11.7 3.2 27.3 6.7 38c4.7 14.3 1.5 30.3-4.5 44.1c-13.8 31.9-55.8 40.3-85.4 22.2c-56.8-34.7-11.8-107.1 11.6-146c5.5-9.2 13.9-15.8 18.9-25.3c6-11.6 11.5-23.6 16-35.8c7-19.1 20.2-73.7-9.3-83.1c-18.8-6-37.7 12.4-47.3 25.2c-30.1 40.2-39.3 85.3-46.1 133.5c-2.6 18.4-6.6 58.7-33.4 44.8c-31.7-16.4-51.8-56.5-48.7-90.8c1.2-13.7 12.8-42.9 30.2-43.4c15.6-0.4 14.6 35.6 16.3 45.5c5.9 32.9 6.2 79 25 107.2c12.8 19.2 42.5 23 62.5 10.1c9.1-5.9 14.4-18 19.8-27.1c11.6-19.4 22.3-37.4 11.4-60c-17.9-37.4-107.4-41.6-69.6-90.1c4.7-6 61.7-24.5 72-28.8c41.5-17.3 68.3-45.7 87.1-11.5c12.7 23.1 46.8 65.2 43.3 93.2c-1.1 8.2-7.8 17.6-12 24.6c-14.8 25-48.2 60-39.6 92c4.9 18.4 6.1 16.7 23.5 16.3c30.4-0.8 82.4-12.3 90.3-43.2c1.4-5.5-0.8-11-1.8-16.5c-11.1-57-79.9 2.8-107.6-19.7c-30.3-24.6 12.1-73.3 18.5-100.7c2.8-12.1 9.2-53.9-7.1-58.3c-27.4-7.5-55 43.1-71.4 59.4c-19.6 19.7-47.1 40.9-60.6 65.6c-19.9 36.4-12.2 94.9 20.1 122.6c24.5 21 52.3 11.7 76.4-4c43.8-28.6 77.5-61.5 52.4-115.5c-4.3-9.1-9.7-21.9-16.9-29c-37.4-36.9-62 3.8-61.2 42.9c.3 16.1-0.3 33.3 7.4 45" fill="none" stroke="#f65c1b" stroke-width="4px" stroke-dashoffset="5586.5" stroke-dasharray="5586.5" clip-rule="evenodd" stroke-linecap="round" stroke-linejoin="round" stroke-miterlimit="1.5" transform="translate(219.7,294.5) translate(-193.7,-295.2)"/><path id="Redtangle-2" d="M220.9 254.7c-12.4-14.7-17.9-36.4-18.2-52.6c-0.8-39.1 26.2-77 63.5-40.1c7.3 7.2 12.8 15.9 17.1 25.1c25.1 54-8.6 86.9-52.5 115.5c-24 15.6-54 26.8-78.5 5.7c-32.4-27.7-40.4-91.2-20.5-127.6c13.5-24.7 37.3-42.7 56.9-62.3c16.4-16.4 50.3-66.9 77.7-59.5c16.3 4.5 7.5 44.5 4.7 56.6c-6.4 27.4-44.5 76.4-14.2 101c27.7 22.5 96.9-35.9 108 21.1c1 5.5 .8 11.1-0.5 16.5c-7.9 31-61.4 44.8-91.8 45.5c-17.4 .5-20.7-0.7-25.6-19.1c-8.6-32 28.4-66.5 43.2-91.4c4.1-7 9.1-14.8 10.1-23c3.5-28-28.7-71.8-41.4-94.9c-18.8-34.1-49.4 .5-90.9 17.9c-10.3 4.3-66.9 15-71.6 21.1c-37.9 48.5 55.1 54.1 73 91.5c10.8 22.6 .1 43.4-11.5 62.9c-5.4 9.1-10.7 18.2-19.8 24.2c-19.9 12.9-46.7 5.7-59.5-13.5c-18.9-28.1-24.4-70.2-30.2-103.2c-1.8-9.9 1.6-46.5-14-46.1c-17.4 .5-26.5 25.8-27.7 39.5c-3.1 34.2 14.5 78.2 46.2 94.6c26.8 13.9 33.5-24.3 36.1-42.7c6.9-48.1 13.2-95.3 43.3-135.5c9.6-12.8 29.3-35.2 48.2-29.2c29.4 9.4 15.5 68 8.5 87c-4.5 12.3-10 24.2-16.1 35.8c-4.9 9.5-10.3 18.8-15.8 27.9c-23.4 38.9-72.7 111.5-15.9 146.2c29.5 18.1 77.8 2.5 91.6-29.4c6-13.8 6.6-30.1 1.9-44.3c-3.6-10.7-11.3-21.6-9-33.4c6.8-34.8 41-42.7 66.3-59.5c9.4-6.2 17.2-14.6 24.5-23c9.3-10.8 20.4-33.7 35.8-36.6c13-2.6 17.6 15.3 19.7 24.6c6.9 30.8 3.5 65.4-1.1 96.3c-0.6 4.2-4.9 34.1-10.8 33.3c-4.4-0.5-6.4-10.7-7.2-13.8c-3.7-13.5-6-27.4-8.1-41.2c-6.3-42.4-0.9-110.5-13.5-119.7c-18-13.3-37.5 14.9-38.8 36.8c-3.5 59.1 17.7 91.6 18.2 150.2c.2 25-9.8 54.8-36.6 62.5c-39.2 11.1-83.7-9.9-116.5-29.8c-65.1-39.6-137.3-92.8-121.8-179.4c2.6-14.6 8.5-28.2 16.2-40.8c8-13.2 18.3-25.4 30.7-34.6c36.4-26.8 78.2-8.3 90 34c12.5 44.3-5.3 90.2-11.8 133.9c-2.3 15.4-6.8 40.3 3.7 53.9c10.7 13.9 34.2 26.4 50.3 27.3c37.8 2.2 130 .5 120.2-30.8c-2.1-6.6-57.3-18.9-78-20.1c-58.7-3.3-108.4 49.5-167.2 56c-65.7 7.2-44.3-145.7-15.2-167.4" stroke="#f65c1b" fill="none" stroke-width="4" opacity="0" clip-rule="evenodd" transform="translate(199.5,518.4) translate(-191.1,-147.8)"/></g><g transform="translate(250,304.9) translate(-210,-95.1)"/><script xlink:href="keyshapejs-1.1.0.min.js"/><script><![CDATA[if(KeyshapeJS.version.indexOf('1.')!=0)throw Error('Expected KeyshapeJS v1.*.*');window.ks=document.ks=KeyshapeJS;(function(ks){
ks.animate("#Redtangle-1",[{p:'opacity',t:[1500,1875,2250],v:[1,0,1],e:[[3,1],[3,1],[0]]},{p:'strokeDashoffset',t:[0,1500,2250,3542],v:[5586.5,-400,-400,5586.5],e:[[1,0,0,.6,1],[1,.4,0,.6,1],[1,0,0,.6,1],[0]]},{p:'d',t:[0,1500,2250,3542],v:["path('M195.6,198.2C168.8,473.1,102.1,440.7,56.7,525.7C39.6,557.7,7.7,702.8,73.3,695.6C132.1,689.1,181.4,629.5,240.1,632.9C260.8,634.1,317.3,647.4,319.4,653.9C329.2,685.3,235.3,683.9,197.5,681.8C181.4,680.9,155,675.5,144.3,661.6C133.8,648,144.7,619.9,147,604.5C153.5,560.8,165.1,519.1,152.7,474.8C140.8,432.5,104.6,413.6,68.3,440.4C55.8,449.6,43.1,459.2,35,472.4C27.3,485,24,501.8,21.4,516.4C5.9,603,74.2,655.8,139.3,695.3C172,715.3,219,736.7,258.2,725.5C284.9,717.9,291.4,685,291.2,660C290.7,601.4,268.5,569.9,272.1,510.8C273.4,488.9,294.2,463.3,312.2,476.6C324.8,485.8,324.2,549.4,330.5,591.8C332.6,605.6,332.3,620.3,335.9,633.8C336.7,636.9,338.8,647.1,343.1,647.6C349.1,648.4,355.4,619.5,356,615.3C360.6,584.4,362,548.9,355,518C352.9,508.7,347.9,487.8,334.9,490.3C319.6,493.3,308.9,519.3,299.5,530C292.2,538.4,284.4,546.8,275,553C249.8,569.8,215.5,577.7,208.7,612.6C206.4,624.3,211.9,639.9,215.4,650.6C220.1,664.9,216.9,680.9,210.9,694.7C197.1,726.6,155.1,735,125.5,716.9C68.7,682.2,113.7,609.8,137.1,570.9C142.6,561.7,151,555.1,156,545.6C162,534,167.5,522,172,509.8C179,490.7,192.2,436.1,162.7,426.7C143.9,420.7,125,439.1,115.4,451.9C85.3,492.1,76.1,537.2,69.3,585.4C66.7,603.8,62.7,644.1,35.9,630.2C4.2,613.8,-15.9,573.7,-12.8,539.4C-11.6,525.7,0,496.5,17.4,496C33,495.6,32,531.6,33.7,541.5C39.6,574.4,39.9,620.5,58.7,648.7C71.5,667.9,101.2,671.7,121.2,658.8C130.3,652.9,135.6,640.8,141,631.7C152.6,612.3,163.3,594.3,152.4,571.7C134.5,534.3,45,530.1,82.8,481.6C87.5,475.6,144.5,457.1,154.8,452.8C196.3,435.5,223.1,407.1,241.9,441.3C254.6,464.4,288.7,506.5,285.2,534.5C284.1,542.7,277.4,552.1,273.2,559.1C258.4,584.1,225,619.1,233.6,651.1C238.5,669.5,239.7,667.8,257.1,667.4C287.5,666.6,339.5,655.1,347.4,624.2C348.8,618.7,346.6,613.2,345.6,607.7C334.5,550.7,265.7,610.5,238,588C207.7,563.4,250.1,514.7,256.5,487.3C259.3,475.2,265.7,433.4,249.4,429C222,421.5,194.4,472.1,178,488.4C158.4,508.1,130.9,529.3,117.4,554C97.5,590.4,105.2,648.9,137.5,676.6C162,697.6,189.8,688.3,213.9,672.6C257.7,644,291.4,611.1,266.3,557.1C262,548,256.6,535.2,249.4,528.1C212,491.2,187.4,531.9,188.2,571C188.5,587.1,187.9,604.3,195.6,616')","path('M66,219C39.1,493.8,51,466,43,536C35,606,11.4,686.2,77,679C135.8,672.5,181.4,629.5,240.1,632.9C260.8,634.1,317.3,647.4,319.4,653.9C329.2,685.3,235.3,683.9,197.5,681.8C181.4,680.9,155,675.5,144.3,661.6C133.8,648,144.7,619.9,147,604.5C153.5,560.8,165.1,519.1,152.7,474.8C140.8,432.5,104.6,413.6,68.3,440.4C55.8,449.6,43.1,459.2,35,472.4C27.3,485,22.1,514.4,19.5,529C4,615.6,74.2,655.8,139.3,695.3C172,715.3,208.3,724.7,247.5,713.5C274.3,705.9,291.4,685,291.2,660C290.7,601.4,268.5,569.9,272.1,510.8C273.4,488.9,294.2,463.3,312.2,476.6C324.8,485.8,318.6,543.3,324.9,585.6C326.9,599.4,326.6,614.2,330.2,627.7C331.1,630.8,333.1,641,337.5,641.5C343.4,642.2,349.7,613.3,350.3,609.2C354.9,578.2,362,548.9,355,518C352.9,508.7,347.9,487.8,334.9,490.3C319.6,493.3,308.9,519.3,299.5,530C292.2,538.4,284.4,546.8,275,553C249.8,569.8,215.5,577.7,208.7,612.6C206.4,624.3,211.9,639.9,215.4,650.6C220.1,664.9,216.9,680.9,210.9,694.7C197.1,726.6,142.1,719.6,112.5,701.5C55.7,666.8,113.7,609.8,137.1,570.9C142.6,561.7,151,555.1,156,545.6C162,534,167.5,522,172,509.8C179,490.7,192.2,436.1,162.7,426.7C143.9,420.7,108.6,438.7,99,451.5C68.9,491.7,76.1,537.2,69.3,585.4C66.7,603.8,62.7,644.1,35.9,630.2C4.2,613.8,-18.3,596.6,-15.2,562.4C-14,548.6,-2.4,519.5,15,519C30.6,518.6,29.5,554.5,31.3,564.5C37.1,597.4,39.9,620.5,58.7,648.7C71.5,667.9,101.2,671.7,121.2,658.8C130.3,652.9,135.6,640.8,141,631.7C152.6,612.3,163.3,594.3,152.4,571.7C134.5,534.3,83.1,541.1,121,492.5C125.7,486.5,144.5,457.1,154.8,452.8C196.3,435.5,223.1,407.1,241.9,441.3C254.6,464.4,288.7,506.5,285.2,534.5C284.1,542.7,277.4,552.1,273.2,559.1C258.4,584.1,225,619.1,233.6,651.1C238.5,669.5,239.7,667.8,257.1,667.4C287.5,666.6,335.1,657,343,626C344.4,620.6,342.2,615,341.2,609.5C330.1,552.5,265.7,610.5,238,588C207.7,563.4,231.1,517.4,237.5,490C240.3,477.8,238.9,448.9,222.5,444.5C195.1,437.1,194.4,472.1,178,488.4C158.4,508.1,130.9,529.3,117.4,554C97.5,590.4,105.2,648.9,137.5,676.6C162,697.6,189.8,688.3,213.9,672.6C257.7,644,291.4,611.1,266.3,557.1C262,548,256.6,535.2,249.4,528.1C212,491.2,187.4,531.9,188.2,571C188.5,587.1,187.9,604.3,195.6,616')","path('M66,219C39.1,493.8,51,466,43,536C35,606,11.4,686.2,77,679C135.8,672.5,181.4,629.5,240.1,632.9C260.8,634.1,317.3,647.4,319.4,653.9C329.2,685.3,235.3,683.9,197.5,681.8C181.4,680.9,155,675.5,144.3,661.6C133.8,648,144.7,619.9,147,604.5C153.5,560.8,165.1,519.1,152.7,474.8C140.8,432.5,104.6,413.6,68.3,440.4C55.8,449.6,43.1,459.2,35,472.4C27.3,485,22.1,514.4,19.5,529C4,615.6,74.2,655.8,139.3,695.3C172,715.3,208.3,724.7,247.5,713.5C274.3,705.9,291.4,685,291.2,660C290.7,601.4,268.5,569.9,272.1,510.8C273.4,488.9,294.2,463.3,312.2,476.6C324.8,485.8,318.6,543.3,324.9,585.6C326.9,599.4,326.6,614.2,330.2,627.7C331.1,630.8,333.1,641,337.5,641.5C343.4,642.2,349.7,613.3,350.3,609.2C354.9,578.2,362,548.9,355,518C352.9,508.7,347.9,487.8,334.9,490.3C319.6,493.3,308.9,519.3,299.5,530C292.2,538.4,284.4,546.8,275,553C249.8,569.8,215.5,577.7,208.7,612.6C206.4,624.3,211.9,639.9,215.4,650.6C220.1,664.9,216.9,680.9,210.9,694.7C197.1,726.6,142.1,719.6,112.5,701.5C55.7,666.8,113.7,609.8,137.1,570.9C142.6,561.7,151,555.1,156,545.6C162,534,167.5,522,172,509.8C179,490.7,192.2,436.1,162.7,426.7C143.9,420.7,108.6,438.7,99,451.5C68.9,491.7,76.1,537.2,69.3,585.4C66.7,603.8,62.7,644.1,35.9,630.2C4.2,613.8,-18.3,596.6,-15.2,562.4C-14,548.6,-2.4,519.5,15,519C30.6,518.6,29.5,554.5,31.3,564.5C37.1,597.4,39.9,620.5,58.7,648.7C71.5,667.9,101.2,671.7,121.2,658.8C130.3,652.9,135.6,640.8,141,631.7C152.6,612.3,163.3,594.3,152.4,571.7C134.5,534.3,83.1,541.1,121,492.5C125.7,486.5,144.5,457.1,154.8,452.8C196.3,435.5,223.1,407.1,241.9,441.3C254.6,464.4,288.7,506.5,285.2,534.5C284.1,542.7,277.4,552.1,273.2,559.1C258.4,584.1,225,619.1,233.6,651.1C238.5,669.5,239.7,667.8,257.1,667.4C287.5,666.6,335.1,657,343,626C344.4,620.6,342.2,615,341.2,609.5C330.1,552.5,265.7,610.5,238,588C207.7,563.4,231.1,517.4,237.5,490C240.3,477.8,238.9,448.9,222.5,444.5C195.1,437.1,194.4,472.1,178,488.4C158.4,508.1,130.9,529.3,117.4,554C97.5,590.4,105.2,648.9,137.5,676.6C162,697.6,189.8,688.3,213.9,672.6C257.7,644,291.4,611.1,266.3,557.1C262,548,256.6,535.2,249.4,528.1C212,491.2,187.4,531.9,188.2,571C188.5,587.1,187.9,604.3,195.6,616')","path('M195.6,198.2C168.8,473.1,102.1,440.7,56.7,525.7C39.6,557.7,7.7,702.8,73.3,695.6C132.1,689.1,181.4,629.5,240.1,632.9C260.8,634.1,317.3,647.4,319.4,653.9C329.2,685.3,235.3,683.9,197.5,681.8C181.4,680.9,155,675.5,144.3,661.6C133.8,648,144.7,619.9,147,604.5C153.5,560.8,165.1,519.1,152.7,474.8C140.8,432.5,104.6,413.6,68.3,440.4C55.8,449.6,43.1,459.2,35,472.4C27.3,485,24,501.8,21.4,516.4C5.9,603,74.2,655.8,139.3,695.3C172,715.3,219,736.7,258.2,725.5C284.9,717.9,291.4,685,291.2,660C290.7,601.4,268.5,569.9,272.1,510.8C273.4,488.9,294.2,463.3,312.2,476.6C324.8,485.8,324.2,549.4,330.5,591.8C332.6,605.6,332.3,620.3,335.9,633.8C336.7,636.9,338.8,647.1,343.1,647.6C349.1,648.4,355.4,619.5,356,615.3C360.6,584.4,362,548.9,355,518C352.9,508.7,347.9,487.8,334.9,490.3C319.6,493.3,308.9,519.3,299.5,530C292.2,538.4,284.4,546.8,275,553C249.8,569.8,215.5,577.7,208.7,612.6C206.4,624.3,211.9,639.9,215.4,650.6C220.1,664.9,216.9,680.9,210.9,694.7C197.1,726.6,155.1,735,125.5,716.9C68.7,682.2,113.7,609.8,137.1,570.9C142.6,561.7,151,555.1,156,545.6C162,534,167.5,522,172,509.8C179,490.7,192.2,436.1,162.7,426.7C143.9,420.7,125,439.1,115.4,451.9C85.3,492.1,76.1,537.2,69.3,585.4C66.7,603.8,62.7,644.1,35.9,630.2C4.2,613.8,-15.9,573.7,-12.8,539.4C-11.6,525.7,0,496.5,17.4,496C33,495.6,32,531.6,33.7,541.5C39.6,574.4,39.9,620.5,58.7,648.7C71.5,667.9,101.2,671.7,121.2,658.8C130.3,652.9,135.6,640.8,141,631.7C152.6,612.3,163.3,594.3,152.4,571.7C134.5,534.3,45,530.1,82.8,481.6C87.5,475.6,144.5,457.1,154.8,452.8C196.3,435.5,223.1,407.1,241.9,441.3C254.6,464.4,288.7,506.5,285.2,534.5C284.1,542.7,277.4,552.1,273.2,559.1C258.4,584.1,225,619.1,233.6,651.1C238.5,669.5,239.7,667.8,257.1,667.4C287.5,666.6,339.5,655.1,347.4,624.2C348.8,618.7,346.6,613.2,345.6,607.7C334.5,550.7,265.7,610.5,238,588C207.7,563.4,250.1,514.7,256.5,487.3C259.3,475.2,265.7,433.4,249.4,429C222,421.5,194.4,472.1,178,488.4C158.4,508.1,130.9,529.3,117.4,554C97.5,590.4,105.2,648.9,137.5,676.6C162,697.6,189.8,688.3,213.9,672.6C257.7,644,291.4,611.1,266.3,557.1C262,548,256.6,535.2,249.4,528.1C212,491.2,187.4,531.9,188.2,571C188.5,587.1,187.9,604.3,195.6,616')"],e:[[1,.4,0,.6,1],[1,.4,0,.6,1],[1,.4,0,.6,1],[0]]}],
"#Redtangle-2",[{p:'opacity',t:[1500,1875,2250],v:[0,1,0],e:[[3,1],[3,1],[0]]}],
{autoremove:false,markers:{"1":0,"1a":1500,"2":2250}}).range(0,3542);
if(document.location.search.substr(1).split('&').indexOf('global=paused')>=0)ks.globalPause()})(KeyshapeJS);
]]></script></svg>