<svg xmlns="http://www.w3.org/2000/svg" xmlns:xlink="http://www.w3.org/1999/xlink" width="100%" height="100%" viewBox="0 0 500 800"><g transform="translate(250,198.6) translate(-210,-419.9)"><path id="Darktangle-1" d="M343 879c9.7-19.8 40.7-105-58.6-206c-99.2-101-87.7-183.1-85.6-213.4c1.3-19.2-0.1-47.1-15.7-59.1c-3.3-2.5-7.3-4.4-12-5.2c-14.8-2.8-27.2 2.9-41.5 4.3c-4.7 .4-15.5 1.1-20.1 .9c-13.1-0.7-9-12.7 4.1-14.2c13.4-1.5 36 7.9 39.1 24.9c5.8 32-29 69.7-57.6 55.4c-12.4-6.3-21.8-21.8-25.7-38.8c-3.7-15.7-2.8-32.6 4.5-44.7c14-23.2 50.2-36.4 74.7-27.3c36.2 13.3 7 72.8 7 103.7c0 23.2 19.3 41.6 39.6 39.5c4.8-0.5 10.5-4.2 14.4-7c12.1-8.5 20.5-27.2 18.4-43.3c-2.7-20.9-31.4-50.7 1.8-60.5c4.8-1.4 9.9-1.7 14.9-1.2c6.7 .5 13.5 3.6 19 7.6c54.7 40.3-26 85.3-16.7 126.7c4.2 18.6 22.2 22.4 37.4 20.4c20-2.6 44.6-30.4 53.5-48.4c4.5-9.1 3.8-19.5 2.9-29.3c-3.1-34.3-38.5-37.9-62.1-26.1c-53.3 26.5-57.1 89.2-134.7 99.3c-27.5 3.6-52.5-16.7-61.5-26.2c-16.3-17.1-9.1-38.4 12.6-44.4c25.3-7 51.8-5.3 77.1 1.2c9.1 2.3 17.4 12 15.6 22.9c-2.9 17.2-20 31-32.2 40.2c-13.1 9.8-29.1 21.6-45.5 22.9c-21 1.6-40.7-8-56.2-23.7c-19-19.1-31.7-47.3-33-74.4c-0.7-16.6-0.1-33.6 3.7-48.8c4.9-19.1 15-35.4 34.3-44.1c14.7-6.7 22.3-3.2 32.8-5.1c16.7-3.1 34-11.1 48.3-21c11.6-8.1 27.7-22.4 36.7-38.6c7.6-13.7 10.2-28.8 1.3-42.9c-17.6-27.8-69.9-14-85.6 10.4c-10.6 16.4-3 46.9 7.3 60.9c15.9 21.4 43.3 20.6 62.8 4.4c15.9-13.2 34.7-29.4 54.6-38.2c19.8-8.8 40.7-10.3 61 5.8c16.3 12.8 17.4 37.6 1.1 51.5c-10.6 9.2-24.8 12.4-35.2 21.6c-21.4 18.9-32.9 55.1-21.7 84.1c14.7 38.1 62.5 15 83.4-1.2c10.5-8.2 26.5-38.4 40.3-24.9c18.2 17.7-44.6 55.1-67.9 64.3c-10.8 4.3-42.6 14.2-63.4 27.3c-20.6 13-30.4 29.1 1.8 45.9c8.7 4.6 17 8 26.5 9.6c18.7 3.2 38.8-2.5 56.9-13c18.6-10.8 35.2-26.9 46.1-43.7c6.9-10.7 19.2-35.2 10.3-48.4c-10.5-15.5-35.7-10.9-49.4-4.4c-42.6 19.9-77.4 34.2-124.9 28c-28.5-3.7-45.1-63.9-35.7-89.1c7.1-18.7 27.9-34.6 43.8-42.7c20.5-10.5 40.1-12.8 60-5.7c10.7 3.7 23.3 20.1 40.1 32.2c10.2 7.3 21.9 13.1 35.6 13.6c24.8 1 25.3-21.9 40.9-30.5" fill="none" stroke="#2a4059" stroke-width="4px" stroke-dashoffset="4327.1" stroke-dasharray="4327.1" clip-rule="evenodd" stroke-linecap="round" stroke-linejoin="round" stroke-miterlimit="1.5" transform="translate(213.7,712.7) translate(-193.7,-559.4)"/><path id="Darktangle-2" d="M186.5 225.7c12.5-23.3 .5-63.2-26.3-68.2c-14.7-2.7-27.9 3.5-42.2 4.9c-4.6 .4-15.4 1.1-20.1 .9c-13-0.7-8.9-12.7 4.1-14.2c13.5-1.5 35.4 11.2 38.4 28.2c5.8 32-28.9 69.7-57.5 55.4c-23.9-12.1-38.8-60.6-23.6-85.7c14-23.3 52.6-34.2 77.1-25.1c36.1 13.3 2.2 74.3 2.2 105.3c0 23.1 24.1 40 44.4 37.9c4.7-0.4 10.5-4.2 14.4-7c12.1-8.5 20.5-27.2 18.4-43.3c-2.7-20.9-32.9-48.4 .2-58.2c4.9-1.4 10-1.7 15-1.3c6.7 .6 13.5 3.6 19 7.7c54.6 40.3-24.6 83-15.2 124.4c4.2 18.6 23.6 18.9 38.8 17c19.9-2.6 39.9-28.4 48.9-46.5c4.5-9 6.9-18 6.1-27.8c-3.1-34.3-40.6-40.9-64.3-29.2c-53.2 26.5-55.7 118.4-132.5 102.4c-8.8-1.8-18.3-3.1-26.5-7.6c-9.1-5.1-19.7-8.9-27.5-16.2c-3.4-3.3-6.8-7.7-9.7-11.5c-14.6-18.9-6.9-29.3 14.8-35.3c25.3-7 52.3-8.4 77.7-1.9c9.1 2.3 16.7 15.1 14.9 26c-2.8 17.2-20 31-32.2 40.2c-13.1 9.8-27.8 17.6-44.2 18.9c-46.8 3.7-88.9-40.9-91.2-90.1c-1.7-37.5 7.3-73.8 40-93c9.7-5.7 21.1-7.1 31.6-9c16.6-3.1 34-11.1 48.3-21c21.4-14.9 54.5-47.9 34.9-78.9c-17.6-27.8-66.9-16.5-82.6 7.8c-10.6 16.4 .6 44.6 11 58.6c15.8 21.5 39.7 22.9 59.1 6.7c31.9-26.4 72.5-61.4 113.3-29.2c16.2 12.9 19.7 34.4 3.5 48.3c-10.7 9.2-24.8 12.4-35.3 21.6c-21.3 18.9-32.9 55.1-21.7 84.1c14.8 38.1 62.3 14.7 83.5-1.2c5.4-4.1 26.5-38.4 40.3-24.9c18.2 17.7-34.3 38.2-45.3 47.1c-7.2 5.8-14.5 9.7-22.7 13c-21.6 8.5-127.5 45.3-62.8 79.2c8.6 4.5 18.4 9.3 27.9 10.9c38 6.5 81.5-26.7 102.8-59.8c6.9-10.7 19.3-35.2 10.4-48.4c-10.5-15.5-35.7-10.9-49.5-4.4c-42.5 19.9-77.3 34.2-124.8 28c-28.5-3.7-45.2-63.9-35.7-89.1c7-18.7 29.7-33.2 45.6-41.3c20.6-10.5 32-3.8 52.2 2.4c13 4.1 28.2 2.9 40.5 9.3c15.5 8.2 24.3 22.6 42.8 24c24.7 2 23.6-18.9 39.2-27.5" fill="none" stroke="#2a4059" stroke-width="4" clip-rule="evenodd" stroke-linecap="round" stroke-linejoin="round" stroke-miterlimit="1.5" opacity="0" transform="translate(207.9,542) translate(-175.2,-155.5)"/></g><g transform="translate(250,304.9) translate(-210,-95.1)"/></svg>