<svg xmlns="http://www.w3.org/2000/svg" xmlns:xlink="http://www.w3.org/1999/xlink" width="100%" height="100%" viewBox="0 0 500 800"><g transform="translate(250,198.6) translate(-210,-419.9)"><path id="Redtangle-1" d="M195.6 198.2c-26.8 274.9-93.5 242.5-138.9 327.5c-17.1 32-49 177.1 16.6 169.9c58.8-6.5 108.1-66.1 166.8-62.7c20.7 1.2 77.2 14.5 79.3 21c9.8 31.4-84.1 30-121.9 27.9c-16.1-0.9-42.5-6.3-53.2-20.2c-10.5-13.6 .4-41.7 2.7-57.1c6.5-43.7 18.1-85.4 5.7-129.7c-11.9-42.3-48.1-61.2-84.4-34.4c-12.5 9.2-25.2 18.8-33.3 32c-7.7 12.6-11 29.4-13.6 44c-15.5 86.6 52.8 139.4 117.9 178.9c32.7 20 79.7 41.4 118.9 30.2c26.7-7.6 33.2-40.5 33-65.5c-0.5-58.6-22.7-90.1-19.1-149.2c1.3-21.9 22.1-47.5 40.1-34.2c12.6 9.2 12 72.8 18.3 115.2c2.1 13.8 1.8 28.5 5.4 42c.8 3.1 2.9 13.3 7.2 13.9c6 .7 12.3-28.2 12.9-32.4c4.6-30.9 6-66.4-1-97.3c-2.1-9.3-7.1-30.2-20.1-27.7c-15.3 3-26 29-35.4 39.7c-7.3 8.4-15.1 16.8-24.5 23c-25.2 16.8-59.5 24.7-66.3 59.6c-2.3 11.7 3.2 27.3 6.7 38c4.7 14.3 1.5 30.3-4.5 44.1c-13.8 31.9-55.8 40.3-85.4 22.2c-56.8-34.7-11.8-107.1 11.6-146c5.5-9.2 13.9-15.8 18.9-25.3c6-11.6 11.5-23.6 16-35.8c7-19.1 20.2-73.7-9.3-83.1c-18.8-6-37.7 12.4-47.3 25.2c-30.1 40.2-39.3 85.3-46.1 133.5c-2.6 18.4-6.6 58.7-33.4 44.8c-31.7-16.4-51.8-56.5-48.7-90.8c1.2-13.7 12.8-42.9 30.2-43.4c15.6-0.4 14.6 35.6 16.3 45.5c5.9 32.9 6.2 79 25 107.2c12.8 19.2 42.5 23 62.5 10.1c9.1-5.9 14.4-18 19.8-27.1c11.6-19.4 22.3-37.4 11.4-60c-17.9-37.4-107.4-41.6-69.6-90.1c4.7-6 61.7-24.5 72-28.8c41.5-17.3 68.3-45.7 87.1-11.5c12.7 23.1 46.8 65.2 43.3 93.2c-1.1 8.2-7.8 17.6-12 24.6c-14.8 25-48.2 60-39.6 92c4.9 18.4 6.1 16.7 23.5 16.3c30.4-0.8 82.4-12.3 90.3-43.2c1.4-5.5-0.8-11-1.8-16.5c-11.1-57-79.9 2.8-107.6-19.7c-30.3-24.6 12.1-73.3 18.5-100.7c2.8-12.1 9.2-53.9-7.1-58.3c-27.4-7.5-55 43.1-71.4 59.4c-19.6 19.7-47.1 40.9-60.6 65.6c-19.9 36.4-12.2 94.9 20.1 122.6c24.5 21 52.3 11.7 76.4-4c43.8-28.6 77.5-61.5 52.4-115.5c-4.3-9.1-9.7-21.9-16.9-29c-37.4-36.9-62 3.8-61.2 42.9c.3 16.1-0.3 33.3 7.4 45" fill="none" stroke="#f65c1b" stroke-width="4px" stroke-dashoffset="5586.5" stroke-dasharray="5586.5" clip-rule="evenodd" stroke-linecap="round" stroke-linejoin="round" stroke-miterlimit="1.5" transform="translate(219.7,294.5) translate(-193.7,-295.2)"/><path id="Redtangle-2" d="M220.9 254.7c-12.4-14.7-17.9-36.4-18.2-52.6c-0.8-39.1 26.2-77 63.5-40.1c7.3 7.2 12.8 15.9 17.1 25.1c25.1 54-8.6 86.9-52.5 115.5c-24 15.6-54 26.8-78.5 5.7c-32.4-27.7-40.4-91.2-20.5-127.6c13.5-24.7 37.3-42.7 56.9-62.3c16.4-16.4 50.3-66.9 77.7-59.5c16.3 4.5 7.5 44.5 4.7 56.6c-6.4 27.4-44.5 76.4-14.2 101c27.7 22.5 96.9-35.9 108 21.1c1 5.5 .8 11.1-0.5 16.5c-7.9 31-61.4 44.8-91.8 45.5c-17.4 .5-20.7-0.7-25.6-19.1c-8.6-32 28.4-66.5 43.2-91.4c4.1-7 9.1-14.8 10.1-23c3.5-28-28.7-71.8-41.4-94.9c-18.8-34.1-49.4 .5-90.9 17.9c-10.3 4.3-66.9 15-71.6 21.1c-37.9 48.5 55.1 54.1 73 91.5c10.8 22.6 .1 43.4-11.5 62.9c-5.4 9.1-10.7 18.2-19.8 24.2c-19.9 12.9-46.7 5.7-59.5-13.5c-18.9-28.1-24.4-70.2-30.2-103.2c-1.8-9.9 1.6-46.5-14-46.1c-17.4 .5-26.5 25.8-27.7 39.5c-3.1 34.2 14.5 78.2 46.2 94.6c26.8 13.9 33.5-24.3 36.1-42.7c6.9-48.1 13.2-95.3 43.3-135.5c9.6-12.8 29.3-35.2 48.2-29.2c29.4 9.4 15.5 68 8.5 87c-4.5 12.3-10 24.2-16.1 35.8c-4.9 9.5-10.3 18.8-15.8 27.9c-23.4 38.9-72.7 111.5-15.9 146.2c29.5 18.1 77.8 2.5 91.6-29.4c6-13.8 6.6-30.1 1.9-44.3c-3.6-10.7-11.3-21.6-9-33.4c6.8-34.8 41-42.7 66.3-59.5c9.4-6.2 17.2-14.6 24.5-23c9.3-10.8 20.4-33.7 35.8-36.6c13-2.6 17.6 15.3 19.7 24.6c6.9 30.8 3.5 65.4-1.1 96.3c-0.6 4.2-4.9 34.1-10.8 33.3c-4.4-0.5-6.4-10.7-7.2-13.8c-3.7-13.5-6-27.4-8.1-41.2c-6.3-42.4-0.9-110.5-13.5-119.7c-18-13.3-37.5 14.9-38.8 36.8c-3.5 59.1 17.7 91.6 18.2 150.2c.2 25-9.8 54.8-36.6 62.5c-39.2 11.1-83.7-9.9-116.5-29.8c-65.1-39.6-137.3-92.8-121.8-179.4c2.6-14.6 8.5-28.2 16.2-40.8c8-13.2 18.3-25.4 30.7-34.6c36.4-26.8 78.2-8.3 90 34c12.5 44.3-5.3 90.2-11.8 133.9c-2.3 15.4-6.8 40.3 3.7 53.9c10.7 13.9 34.2 26.4 50.3 27.3c37.8 2.2 130 .5 120.2-30.8c-2.1-6.6-57.3-18.9-78-20.1c-58.7-3.3-108.4 49.5-167.2 56c-65.7 7.2-44.3-145.7-15.2-167.4" stroke="#f65c1b" fill="none" stroke-width="4" opacity="0" clip-rule="evenodd" transform="translate(199.5,518.4) translate(-191.1,-147.8)"/></g><g transform="translate(250,304.9) translate(-210,-95.1)"/></svg>