<svg xmlns="http://www.w3.org/2000/svg" xmlns:xlink="http://www.w3.org/1999/xlink" width="100%" height="100%" viewBox="0 0 500 800"><g transform="translate(250,198.6) translate(-210,-419.9)"><path id="Greentangle-1" d="M84.9 14c30.3 87.6 61.1 80.4 77.2 234.9c17.2 165.5 164.9 70.9 154.2 34.3c-3.1-10.6-11.5-17.5-18.4-20.5c-14.2-6.1-30.6-8.3-46.3-7.2c-24.5 1.7-39.7 26.2-36.6 49.1c1.3 9.5 3 19.5 8 27.7c5.7 9.2 16.9 14.7 26.7 18c23.2 7.8 48.1 7 71.6 13.2c34.5 9.1 54.8 37.3 57.6 72.5c1.1 13.1-2.7 26.5-7 38.7c-6.1 17.9-15.1 34.4-26.5 49.5c-9.6 12.8-20.4 25.5-33.1 35.4c-8.3 6.5-17.4 11.1-27.6 13.6c-36.1 9.1-70.7-14-87.8-44.4c-14.4-25.6-30.2-64-63.6-69.6c-24.2-4.1-38.8 12.4-42.7 34.7c-3.7 21.7 5.8 49.1 24.1 62c27.7 19.6 58.3-5.5 76.8-25.7c26.4-29 43.4-71.3 52.6-109c6.3-26 8.8-53.5 19.8-78.2c11.1-25 48.6-57.4 76.7-35.7c7.5 5.8 10.1 14.7 12.7 23.5c5 17.1 8.2 34.5 9 52.3c1.4 31.9-1.5 73.5-20.3 100.6c-9.3 13.4-24.5 22-38.7 29.4c-31.4 16.4-75.9 31.2-110.1 13.3c-53-27.7-26.3-102.8 6.9-133.9c14.6-13.7 42.6-30.3 61.8-15.5c22.1 17.1 5.7 62-7 79.2c-26.3 35.4-72.6 60.2-111.4 28.7c-6.2-5-12-10.8-16.8-17.3c-32.2-43.6-17.2-99.5-6.2-147.5c6.1-26.7 16.9-60.1-14.6-74.1c-14.1-6.3-29.3-4.6-42.5 2.9c-10.1 5.8-20 13.6-26.7 23.2c-19 26.9-14.5 64.5-20.3 95.4c-3.4 17.5-9.5 35.3-7.9 53.3c3.5 38 47.7 85.1 88.6 73.8c10.9-3 20-11.1 27.4-19.4c4.9-5.5 9-11.9 11.6-18.8c2.1-5.8 3-12.1 2.7-18.2c-2.1-35-39.9-42.1-67.4-49.7c-11.6-3.2-23.5-6.6-31.2-16.4c-24.8-31.3-2.9-83.6 35.9-88.9c4.3-0.6 8.5-0.3 12.8 .5c29.6 5.4 33.8 34.6 25.5 59.5c-6.3 18.7-24.5 31.5-29.5 50.1c-1.8 6.7-0.3 13.8 1.5 20.4c8 30.7 37 48.8 67.7 51.3c29.7 2.5 62.5-14.3 77.3-39.9c5.7-9.8 16.4-31.1 9.7-41.9c-7.4-11.7-25.2 1.7-34.9 4.6c-6.8 2-13.8 3-20.8 2c-44.6-6.2-57.2-71.2-26.1-99.4c27.5-24.9 87.1-42.2 116.1-11.7c17.3 18.3 14.6 48-11.7 56.4c-7.8 2.5-17.4-1.5-11.8-10.8c9.5-15.4 34.6-4.3 42.7 6.4c13.4 17.7 10.2 48.3 3.1 67.8c-7.5 20.3-25.1 39.3-46.2 45.6c-6.8 2.1-52.3 6.4-41.6-18.5c4.6-10.9 32.7-24.6 25.1-34.1c-11.1-14-37.9 6.5-51.4 10.8c-3.1 1-15.3 4.7-21.5-5.9c-2.9-4.8-8.6-39.4 22.5-42.6c15.7-1.6 17.1 26.3 20.2 51.4c1.4 12.1-4.4 54.1-10.2 64.4" fill="none" stroke="#007b52" stroke-width="4px" stroke-dashoffset="4838.9" stroke-dasharray="4838.9" clip-rule="evenodd" stroke-linecap="round" stroke-linejoin="round" stroke-miterlimit="1.5" transform="translate(213.7,447.9) translate(-193.7,-294.6)"/><path id="Greentangle-2" d="M201 280.5c5.8-10.3 8.3-51.1 6.9-63.1c-3.1-25.2 .3-52.2-15.3-50.6c-31.2 3.2-27 35.6-24.1 40.5c6.2 10.5 17.3 2.3 20.4 1.3c13.5-4.3 41.4-20.2 52.5-6.2c7.6 9.5-18.5 21.8-23.1 32.7c-10.6 24.9 31 24.9 37.8 22.9c21.2-6.4 39.1-32.7 46.5-53c7.2-19.6 11.8-45.7-1.6-63.4c-8.1-10.7-33.2-21.9-42.7-6.4c-5.7 9.2 4 13.3 11.8 10.8c26.3-8.4 29-38.1 11.7-56.4c-29-30.5-89.5-16.3-117 8.6c-31.1 28.2-17.7 96.3 27 102.5c7 .9 14 0 20.8-2c9.7-2.9 27.5-16.3 34.9-4.6c6.7 10.7-7 30.5-12.7 40.3c-14.8 25.6-44.9 39.6-74.6 37.2c-30.6-2.6-59.4-16.3-67.5-47c-1.7-6.6-3.3-13.7-1.4-20.4c5-18.6 23.2-31.5 29.5-50.2c8.3-24.8 4.1-54.1-25.6-59.4c-4.2-0.8-8.5-1.1-12.7-0.5c-38.8 5.2-60.7 57.6-36 88.8c7.8 9.9 19.7 13.3 31.3 16.5c27.5 7.6 68.7 14.4 70.8 49.4c.3 6.1-2.9 16.3-5 22.1c-2.6 6.9-7.8 9.7-12.7 15.2c-7.4 8.3-16.5 16.4-27.4 19.4c-40.9 11.3-85.1-35.9-88.6-73.8c-1.6-18.1 3.4-37.8 6.7-55.3c5.9-30.9-0.4-65.3 18.5-92.3c6.7-9.6 18-22.2 28.1-27.9c13.2-7.6 30-5.6 44.1 .7c31.5 14 23.8 46.9 17.6 73.6c-11 48-29 104.3 3.2 148c4.8 6.5 10.4 16.4 16.6 21.5c38.7 31.4 85.3 2.5 111.6-32.9c12.7-17.2 29.1-62.1 7-79.2c-19.2-14.9-47.2 1.8-61.8 15.5c-33.2 31.1-59.9 106.2-6.9 133.9c34.2 17.8 79.5 4.2 110.9-12.3c14.2-7.4 28.6-17 37.9-30.4c18.8-27.1 19-66.9 17.5-98.8c-0.8-17.8-3.6-33.7-8.6-50.8c-2.6-8.8-4.9-18.4-12.5-24.3c-28-21.7-63.5 8.1-74.6 33.2c-10.9 24.7-11.1 52.1-17.5 78.1c-9.1 37.7-28.4 80.1-54.9 109.1c-18.5 20.2-46.3 44.1-74 24.5c-18.3-12.9-31.8-41.1-28-62.7c3.9-22.3 19.7-36.9 43.9-32.8c33.4 5.6 50 38.1 64.4 63.7c17.2 30.4 50.9 59.4 86.9 50.3c10.3-2.6 19.4-7.1 27.7-13.6c12.7-9.9 25.7-21.4 35.3-34.1c11.4-15.1 20.3-30.5 26.5-48.3c4.2-12.3 9.6-28.9 8.6-42c-2.9-35.2-26.9-62.6-61.4-71.7c-23.5-6.3-46.1-9.4-69.2-17.2c-9.9-3.3-19.4-5.5-25.1-14.7c-5-8.3-8-15.2-9.3-24.6c-3.1-22.9 10.7-46.9 35.2-48.6c15.7-1.1 29.7 2.1 43.8 8.2c6.9 3 15 6.2 20 12.1" stroke="#007b52" opacity="0" stroke-width="4" fill="none" clip-rule="evenodd" stroke-linecap="round" stroke-linejoin="round" stroke-miterlimit="1.5" transform="translate(212.8,525) translate(-198.4,-183.4)"/></g><g transform="translate(250,304.9) translate(-210,-95.1)"/><script xlink:href="keyshapejs-1.1.0.min.js"/><script><![CDATA[if(KeyshapeJS.version.indexOf('1.')!=0)throw Error('Expected KeyshapeJS v1.*.*');window.ks=document.ks=KeyshapeJS;(function(ks){
ks.animate("#Greentangle-1",[{p:'opacity',t:[1500,1875,2250],v:[1,0,1],e:[[3,1],[3,1],[0]]},{p:'strokeDashoffset',t:[0,1500,2250,3542],v:[4838.9,-300,-300,4838.9],e:[[1,0,0,.6,1],[1,.4,0,.6,1],[1,0,0,.6,1],[0]]},{p:'d',t:[0,1500,2250,3542],v:["path('M84.9,14C115.2,101.6,146,94.4,162.1,248.9C179.3,414.4,327,319.8,316.3,283.2C313.2,272.6,304.8,265.7,297.9,262.7C283.7,256.6,267.3,254.4,251.6,255.5C227.1,257.2,211.9,281.7,215,304.6C216.3,314.1,218,324.1,223,332.3C228.7,341.5,239.9,347,249.7,350.3C272.9,358.1,297.8,357.3,321.3,363.5C355.8,372.6,376.1,400.8,378.9,436C380,449.1,376.2,462.5,371.9,474.7C365.8,492.6,356.8,509.1,345.4,524.2C335.8,537,325,549.7,312.3,559.6C304,566.1,294.9,570.7,284.7,573.2C248.6,582.3,214,559.2,196.9,528.8C182.5,503.2,166.7,464.8,133.3,459.2C109.1,455.1,94.5,471.6,90.6,493.9C86.9,515.6,96.4,543,114.7,555.9C142.4,575.5,173,550.4,191.5,530.2C217.9,501.2,234.9,458.9,244.1,421.2C250.4,395.2,252.9,367.7,263.9,343C275,318,312.5,285.6,340.6,307.3C348.1,313.1,350.7,322,353.3,330.8C358.3,347.9,361.5,365.3,362.3,383.1C363.7,415,360.8,456.6,342,483.7C332.7,497.1,317.5,505.7,303.3,513.1C271.9,529.5,227.4,544.3,193.2,526.4C140.2,498.7,166.9,423.6,200.1,392.5C214.7,378.8,242.7,362.2,261.9,377C284,394.1,267.6,439,254.9,456.2C228.6,491.6,182.3,516.4,143.5,484.9C137.3,479.9,131.5,474.1,126.7,467.6C94.5,424,109.5,368.1,120.5,320.1C126.6,293.4,137.4,260,105.9,246C91.8,239.7,76.6,241.4,63.4,248.9C53.3,254.7,43.4,262.5,36.7,272.1C17.7,299,22.2,336.6,16.4,367.5C13,385,6.9,402.8,8.5,420.8C12,458.8,56.2,505.9,97.1,494.6C108,491.6,117.1,483.5,124.5,475.2C129.4,469.7,133.5,463.3,136.1,456.4C138.2,450.6,139.1,444.3,138.8,438.2C136.7,403.2,98.9,396.1,71.4,388.5C59.8,385.3,47.9,381.9,40.1,372.1C15.4,340.8,37.3,288.5,76.1,283.2C80.4,282.6,84.6,282.9,88.9,283.7C118.5,289.1,122.7,318.3,114.4,343.2C108.1,361.9,89.9,374.7,84.9,393.3C83.1,400,84.6,407.1,86.4,413.7C94.4,444.4,123.4,462.5,154.1,465C183.8,467.5,216.6,450.7,231.4,425.1C237.1,415.3,247.8,394,241.1,383.2C233.7,371.5,215.9,384.9,206.2,387.8C199.4,389.8,192.4,390.8,185.4,389.8C140.8,383.6,128.2,318.6,159.3,290.4C186.8,265.5,246.4,248.2,275.4,278.7C292.7,297,290,326.7,263.7,335.1C255.9,337.6,246.3,333.6,251.9,324.3C261.4,308.9,286.5,320,294.6,330.7C308,348.4,304.8,379,297.7,398.5C290.2,418.8,272.6,437.8,251.5,444.1C244.7,446.2,199.2,450.5,209.9,425.6C214.5,414.7,242.6,401,235,391.5C223.9,377.5,197.1,398,183.6,402.3C180.5,403.3,168.3,407,162.1,396.4C159.2,391.6,153.5,357,184.6,353.8C200.3,352.2,201.7,380.1,204.8,405.2C206.2,417.3,200.4,459.3,194.6,469.6')","path('M286,19C255,174,175,181,178,238C195.2,403.5,316,334.5,305.3,298C302.2,287.4,293.8,280.5,286.9,277.5C272.8,271.4,267.3,254.4,251.6,255.5C227.1,257.2,211.9,281.7,215,304.6C216.3,314.1,218,324.1,223,332.3C228.7,341.5,239.9,347,249.7,350.3C272.9,358.1,297.8,357.3,321.3,363.5C355.8,372.6,376.1,400.8,378.9,436C380,449.1,376.2,462.5,371.9,474.7C365.8,492.6,356.1,495.6,344.7,510.7C335,523.4,318.6,536.1,306,546C297.7,552.5,288.5,557.1,278.3,559.6C242.3,568.7,214,559.2,196.9,528.8C182.5,503.2,166.7,464.8,133.3,459.2C109.1,455.1,94.5,471.6,90.6,493.9C86.9,515.6,100.4,535.8,118.7,548.7C146.4,568.3,173,550.4,191.5,530.2C217.9,501.2,234.9,458.9,244.1,421.2C250.4,395.2,252.9,367.7,263.9,343C275,318,306.6,306.8,334.6,328.5C342.1,334.3,344.8,343.2,347.3,352C352.3,369.1,352.5,380.8,353.3,398.7C354.8,430.6,360.8,456.6,342,483.7C332.7,497.1,317.5,505.7,303.3,513.1C271.9,529.5,227.4,544.3,193.2,526.4C140.2,498.7,166.9,423.6,200.1,392.5C214.7,378.8,242.7,362.2,261.9,377C284,394.1,267.6,439,254.9,456.2C228.6,491.6,182.3,516.4,143.5,484.9C137.3,479.9,131.5,474.1,126.7,467.6C94.5,424,109.5,368.1,120.5,320.1C126.6,293.4,137.4,260,105.9,246C91.8,239.7,76.6,241.4,63.4,248.9C53.3,254.7,43.4,262.5,36.7,272.1C17.7,299,22.2,336.6,16.4,367.5C13,385,15.7,404,17.3,422C20.8,460,56.2,505.9,97.1,494.6C108,491.6,117.1,483.5,124.5,475.2C129.4,469.7,133.5,463.3,136.1,456.4C138.2,450.6,139.1,444.3,138.8,438.2C136.7,403.2,109.5,396.2,82,388.7C70.4,385.5,63.8,384.5,56,374.7C31.3,343.4,32.4,310.8,71.2,305.5C75.5,305,79.8,305.2,84,306C113.7,311.4,122.7,318.3,114.4,343.2C108.1,361.9,89.9,374.7,84.9,393.3C83.1,400,84.6,407.1,86.4,413.7C94.4,444.4,123.4,462.5,154.1,465C183.8,467.5,216.6,450.7,231.4,425.1C237.1,415.3,247.8,394,241.1,383.2C233.7,371.5,215.9,384.9,206.2,387.8C199.4,389.8,192.4,390.8,185.4,389.8C140.8,383.6,128.2,318.6,159.3,290.4C186.8,265.5,246.4,248.2,275.4,278.7C292.7,297,290,326.7,263.7,335.1C255.9,337.6,246.3,333.6,251.9,324.3C261.4,308.9,286.5,320,294.6,330.7C308,348.4,304.8,379,297.7,398.5C290.2,418.8,272.6,437.8,251.5,444.1C244.7,446.2,199.2,450.5,209.9,425.6C214.5,414.7,242.6,401,235,391.5C223.9,377.5,197.1,398,183.6,402.3C180.5,403.3,168.3,407,162.1,396.4C159.2,391.6,153.5,367.9,184.7,364.7C200.3,363.1,201.7,380.1,204.8,405.2C206.2,417.3,200.4,459.3,194.6,469.6')","path('M286,19C255,174,175,181,178,238C195.2,403.5,316,334.5,305.3,298C302.2,287.4,293.8,280.5,286.9,277.5C272.8,271.4,267.3,254.4,251.6,255.5C227.1,257.2,211.9,281.7,215,304.6C216.3,314.1,218,324.1,223,332.3C228.7,341.5,239.9,347,249.7,350.3C272.9,358.1,297.8,357.3,321.3,363.5C355.8,372.6,376.1,400.8,378.9,436C380,449.1,376.2,462.5,371.9,474.7C365.8,492.6,356.1,495.6,344.7,510.7C335,523.4,318.6,536.1,306,546C297.7,552.5,288.5,557.1,278.3,559.6C242.3,568.7,214,559.2,196.9,528.8C182.5,503.2,166.7,464.8,133.3,459.2C109.1,455.1,94.5,471.6,90.6,493.9C86.9,515.6,100.4,535.8,118.7,548.7C146.4,568.3,173,550.4,191.5,530.2C217.9,501.2,234.9,458.9,244.1,421.2C250.4,395.2,252.9,367.7,263.9,343C275,318,306.6,306.8,334.6,328.5C342.1,334.3,344.8,343.2,347.3,352C352.3,369.1,352.5,380.8,353.3,398.7C354.8,430.6,360.8,456.6,342,483.7C332.7,497.1,317.5,505.7,303.3,513.1C271.9,529.5,227.4,544.3,193.2,526.4C140.2,498.7,166.9,423.6,200.1,392.5C214.7,378.8,242.7,362.2,261.9,377C284,394.1,267.6,439,254.9,456.2C228.6,491.6,182.3,516.4,143.5,484.9C137.3,479.9,131.5,474.1,126.7,467.6C94.5,424,109.5,368.1,120.5,320.1C126.6,293.4,137.4,260,105.9,246C91.8,239.7,76.6,241.4,63.4,248.9C53.3,254.7,43.4,262.5,36.7,272.1C17.7,299,22.2,336.6,16.4,367.5C13,385,15.7,404,17.3,422C20.8,460,56.2,505.9,97.1,494.6C108,491.6,117.1,483.5,124.5,475.2C129.4,469.7,133.5,463.3,136.1,456.4C138.2,450.6,139.1,444.3,138.8,438.2C136.7,403.2,109.5,396.2,82,388.7C70.4,385.5,63.8,384.5,56,374.7C31.3,343.4,32.4,310.8,71.2,305.5C75.5,305,79.8,305.2,84,306C113.7,311.4,122.7,318.3,114.4,343.2C108.1,361.9,89.9,374.7,84.9,393.3C83.1,400,84.6,407.1,86.4,413.7C94.4,444.4,123.4,462.5,154.1,465C183.8,467.5,216.6,450.7,231.4,425.1C237.1,415.3,247.8,394,241.1,383.2C233.7,371.5,215.9,384.9,206.2,387.8C199.4,389.8,192.4,390.8,185.4,389.8C140.8,383.6,128.2,318.6,159.3,290.4C186.8,265.5,246.4,248.2,275.4,278.7C292.7,297,290,326.7,263.7,335.1C255.9,337.6,246.3,333.6,251.9,324.3C261.4,308.9,286.5,320,294.6,330.7C308,348.4,304.8,379,297.7,398.5C290.2,418.8,272.6,437.8,251.5,444.1C244.7,446.2,199.2,450.5,209.9,425.6C214.5,414.7,242.6,401,235,391.5C223.9,377.5,197.1,398,183.6,402.3C180.5,403.3,168.3,407,162.1,396.4C159.2,391.6,153.5,367.9,184.7,364.7C200.3,363.1,201.7,380.1,204.8,405.2C206.2,417.3,200.4,459.3,194.6,469.6')","path('M84.9,14C115.2,101.6,146,94.4,162.1,248.9C179.3,414.4,327,319.8,316.3,283.2C313.2,272.6,304.8,265.7,297.9,262.7C283.7,256.6,267.3,254.4,251.6,255.5C227.1,257.2,211.9,281.7,215,304.6C216.3,314.1,218,324.1,223,332.3C228.7,341.5,239.9,347,249.7,350.3C272.9,358.1,297.8,357.3,321.3,363.5C355.8,372.6,376.1,400.8,378.9,436C380,449.1,376.2,462.5,371.9,474.7C365.8,492.6,356.8,509.1,345.4,524.2C335.8,537,325,549.7,312.3,559.6C304,566.1,294.9,570.7,284.7,573.2C248.6,582.3,214,559.2,196.9,528.8C182.5,503.2,166.7,464.8,133.3,459.2C109.1,455.1,94.5,471.6,90.6,493.9C86.9,515.6,96.4,543,114.7,555.9C142.4,575.5,173,550.4,191.5,530.2C217.9,501.2,234.9,458.9,244.1,421.2C250.4,395.2,252.9,367.7,263.9,343C275,318,312.5,285.6,340.6,307.3C348.1,313.1,350.7,322,353.3,330.8C358.3,347.9,361.5,365.3,362.3,383.1C363.7,415,360.8,456.6,342,483.7C332.7,497.1,317.5,505.7,303.3,513.1C271.9,529.5,227.4,544.3,193.2,526.4C140.2,498.7,166.9,423.6,200.1,392.5C214.7,378.8,242.7,362.2,261.9,377C284,394.1,267.6,439,254.9,456.2C228.6,491.6,182.3,516.4,143.5,484.9C137.3,479.9,131.5,474.1,126.7,467.6C94.5,424,109.5,368.1,120.5,320.1C126.6,293.4,137.4,260,105.9,246C91.8,239.7,76.6,241.4,63.4,248.9C53.3,254.7,43.4,262.5,36.7,272.1C17.7,299,22.2,336.6,16.4,367.5C13,385,6.9,402.8,8.5,420.8C12,458.8,56.2,505.9,97.1,494.6C108,491.6,117.1,483.5,124.5,475.2C129.4,469.7,133.5,463.3,136.1,456.4C138.2,450.6,139.1,444.3,138.8,438.2C136.7,403.2,98.9,396.1,71.4,388.5C59.8,385.3,47.9,381.9,40.1,372.1C15.4,340.8,37.3,288.5,76.1,283.2C80.4,282.6,84.6,282.9,88.9,283.7C118.5,289.1,122.7,318.3,114.4,343.2C108.1,361.9,89.9,374.7,84.9,393.3C83.1,400,84.6,407.1,86.4,413.7C94.4,444.4,123.4,462.5,154.1,465C183.8,467.5,216.6,450.7,231.4,425.1C237.1,415.3,247.8,394,241.1,383.2C233.7,371.5,215.9,384.9,206.2,387.8C199.4,389.8,192.4,390.8,185.4,389.8C140.8,383.6,128.2,318.6,159.3,290.4C186.8,265.5,246.4,248.2,275.4,278.7C292.7,297,290,326.7,263.7,335.1C255.9,337.6,246.3,333.6,251.9,324.3C261.4,308.9,286.5,320,294.6,330.7C308,348.4,304.8,379,297.7,398.5C290.2,418.8,272.6,437.8,251.5,444.1C244.7,446.2,199.2,450.5,209.9,425.6C214.5,414.7,242.6,401,235,391.5C223.9,377.5,197.1,398,183.6,402.3C180.5,403.3,168.3,407,162.1,396.4C159.2,391.6,153.5,357,184.6,353.8C200.3,352.2,201.7,380.1,204.8,405.2C206.2,417.3,200.4,459.3,194.6,469.6')"],e:[[1,.4,0,.6,1],[1,.4,0,.6,1],[1,.4,0,.6,1],[0]]}],
"#Greentangle-2",[{p:'opacity',t:[1500,1875,2250],v:[0,1,0],e:[[3,1],[3,1],[0]]}],
{autoremove:false,markers:{"1":0,"1a":1500,"2":2250}}).range(0,3542);
if(document.location.search.substr(1).split('&').indexOf('global=paused')>=0)ks.globalPause()})(KeyshapeJS);
]]></script></svg>