<svg xmlns="http://www.w3.org/2000/svg" xmlns:xlink="http://www.w3.org/1999/xlink" width="100%" height="100%" viewBox="0 0 500 800"><g transform="translate(250,198.6) translate(-210,-419.9)"><path id="Greentangle-1" d="M84.9 14c30.3 87.6 61.1 80.4 77.2 234.9c17.2 165.5 164.9 70.9 154.2 34.3c-3.1-10.6-11.5-17.5-18.4-20.5c-14.2-6.1-30.6-8.3-46.3-7.2c-24.5 1.7-39.7 26.2-36.6 49.1c1.3 9.5 3 19.5 8 27.7c5.7 9.2 16.9 14.7 26.7 18c23.2 7.8 48.1 7 71.6 13.2c34.5 9.1 54.8 37.3 57.6 72.5c1.1 13.1-2.7 26.5-7 38.7c-6.1 17.9-15.1 34.4-26.5 49.5c-9.6 12.8-20.4 25.5-33.1 35.4c-8.3 6.5-17.4 11.1-27.6 13.6c-36.1 9.1-70.7-14-87.8-44.4c-14.4-25.6-30.2-64-63.6-69.6c-24.2-4.1-38.8 12.4-42.7 34.7c-3.7 21.7 5.8 49.1 24.1 62c27.7 19.6 58.3-5.5 76.8-25.7c26.4-29 43.4-71.3 52.6-109c6.3-26 8.8-53.5 19.8-78.2c11.1-25 48.6-57.4 76.7-35.7c7.5 5.8 10.1 14.7 12.7 23.5c5 17.1 8.2 34.5 9 52.3c1.4 31.9-1.5 73.5-20.3 100.6c-9.3 13.4-24.5 22-38.7 29.4c-31.4 16.4-75.9 31.2-110.1 13.3c-53-27.7-26.3-102.8 6.9-133.9c14.6-13.7 42.6-30.3 61.8-15.5c22.1 17.1 5.7 62-7 79.2c-26.3 35.4-72.6 60.2-111.4 28.7c-6.2-5-12-10.8-16.8-17.3c-32.2-43.6-17.2-99.5-6.2-147.5c6.1-26.7 16.9-60.1-14.6-74.1c-14.1-6.3-29.3-4.6-42.5 2.9c-10.1 5.8-20 13.6-26.7 23.2c-19 26.9-14.5 64.5-20.3 95.4c-3.4 17.5-9.5 35.3-7.9 53.3c3.5 38 47.7 85.1 88.6 73.8c10.9-3 20-11.1 27.4-19.4c4.9-5.5 9-11.9 11.6-18.8c2.1-5.8 3-12.1 2.7-18.2c-2.1-35-39.9-42.1-67.4-49.7c-11.6-3.2-23.5-6.6-31.2-16.4c-24.8-31.3-2.9-83.6 35.9-88.9c4.3-0.6 8.5-0.3 12.8 .5c29.6 5.4 33.8 34.6 25.5 59.5c-6.3 18.7-24.5 31.5-29.5 50.1c-1.8 6.7-0.3 13.8 1.5 20.4c8 30.7 37 48.8 67.7 51.3c29.7 2.5 62.5-14.3 77.3-39.9c5.7-9.8 16.4-31.1 9.7-41.9c-7.4-11.7-25.2 1.7-34.9 4.6c-6.8 2-13.8 3-20.8 2c-44.6-6.2-57.2-71.2-26.1-99.4c27.5-24.9 87.1-42.2 116.1-11.7c17.3 18.3 14.6 48-11.7 56.4c-7.8 2.5-17.4-1.5-11.8-10.8c9.5-15.4 34.6-4.3 42.7 6.4c13.4 17.7 10.2 48.3 3.1 67.8c-7.5 20.3-25.1 39.3-46.2 45.6c-6.8 2.1-52.3 6.4-41.6-18.5c4.6-10.9 32.7-24.6 25.1-34.1c-11.1-14-37.9 6.5-51.4 10.8c-3.1 1-15.3 4.7-21.5-5.9c-2.9-4.8-8.6-39.4 22.5-42.6c15.7-1.6 17.1 26.3 20.2 51.4c1.4 12.1-4.4 54.1-10.2 64.4" fill="none" stroke="#007b52" stroke-width="4px" stroke-dashoffset="4838.9" stroke-dasharray="4838.9" clip-rule="evenodd" stroke-linecap="round" stroke-linejoin="round" stroke-miterlimit="1.5" transform="translate(213.7,447.9) translate(-193.7,-294.6)"/><path id="Greentangle-2" d="M201 280.5c5.8-10.3 8.3-51.1 6.9-63.1c-3.1-25.2 .3-52.2-15.3-50.6c-31.2 3.2-27 35.6-24.1 40.5c6.2 10.5 17.3 2.3 20.4 1.3c13.5-4.3 41.4-20.2 52.5-6.2c7.6 9.5-18.5 21.8-23.1 32.7c-10.6 24.9 31 24.9 37.8 22.9c21.2-6.4 39.1-32.7 46.5-53c7.2-19.6 11.8-45.7-1.6-63.4c-8.1-10.7-33.2-21.9-42.7-6.4c-5.7 9.2 4 13.3 11.8 10.8c26.3-8.4 29-38.1 11.7-56.4c-29-30.5-89.5-16.3-117 8.6c-31.1 28.2-17.7 96.3 27 102.5c7 .9 14 0 20.8-2c9.7-2.9 27.5-16.3 34.9-4.6c6.7 10.7-7 30.5-12.7 40.3c-14.8 25.6-44.9 39.6-74.6 37.2c-30.6-2.6-59.4-16.3-67.5-47c-1.7-6.6-3.3-13.7-1.4-20.4c5-18.6 23.2-31.5 29.5-50.2c8.3-24.8 4.1-54.1-25.6-59.4c-4.2-0.8-8.5-1.1-12.7-0.5c-38.8 5.2-60.7 57.6-36 88.8c7.8 9.9 19.7 13.3 31.3 16.5c27.5 7.6 68.7 14.4 70.8 49.4c.3 6.1-2.9 16.3-5 22.1c-2.6 6.9-7.8 9.7-12.7 15.2c-7.4 8.3-16.5 16.4-27.4 19.4c-40.9 11.3-85.1-35.9-88.6-73.8c-1.6-18.1 3.4-37.8 6.7-55.3c5.9-30.9-0.4-65.3 18.5-92.3c6.7-9.6 18-22.2 28.1-27.9c13.2-7.6 30-5.6 44.1 .7c31.5 14 23.8 46.9 17.6 73.6c-11 48-29 104.3 3.2 148c4.8 6.5 10.4 16.4 16.6 21.5c38.7 31.4 85.3 2.5 111.6-32.9c12.7-17.2 29.1-62.1 7-79.2c-19.2-14.9-47.2 1.8-61.8 15.5c-33.2 31.1-59.9 106.2-6.9 133.9c34.2 17.8 79.5 4.2 110.9-12.3c14.2-7.4 28.6-17 37.9-30.4c18.8-27.1 19-66.9 17.5-98.8c-0.8-17.8-3.6-33.7-8.6-50.8c-2.6-8.8-4.9-18.4-12.5-24.3c-28-21.7-63.5 8.1-74.6 33.2c-10.9 24.7-11.1 52.1-17.5 78.1c-9.1 37.7-28.4 80.1-54.9 109.1c-18.5 20.2-46.3 44.1-74 24.5c-18.3-12.9-31.8-41.1-28-62.7c3.9-22.3 19.7-36.9 43.9-32.8c33.4 5.6 50 38.1 64.4 63.7c17.2 30.4 50.9 59.4 86.9 50.3c10.3-2.6 19.4-7.1 27.7-13.6c12.7-9.9 25.7-21.4 35.3-34.1c11.4-15.1 20.3-30.5 26.5-48.3c4.2-12.3 9.6-28.9 8.6-42c-2.9-35.2-26.9-62.6-61.4-71.7c-23.5-6.3-46.1-9.4-69.2-17.2c-9.9-3.3-19.4-5.5-25.1-14.7c-5-8.3-8-15.2-9.3-24.6c-3.1-22.9 10.7-46.9 35.2-48.6c15.7-1.1 29.7 2.1 43.8 8.2c6.9 3 15 6.2 20 12.1" stroke="#007b52" opacity="0" stroke-width="4" fill="none" clip-rule="evenodd" stroke-linecap="round" stroke-linejoin="round" stroke-miterlimit="1.5" transform="translate(212.8,525) translate(-198.4,-183.4)"/></g><g transform="translate(250,304.9) translate(-210,-95.1)"/></svg>