<svg xmlns="http://www.w3.org/2000/svg" xmlns:xlink="http://www.w3.org/1999/xlink" width="100%" height="100%" viewBox="0 0 500 800"><g transform="translate(250,198.6) translate(-210,-419.9)"><path id="Yellowtangle-1" d="M259 2c-2.4 15.9-14.9 35.8 25.3 143c40.2 107.2 46.4 220.2 14.3 295.9c-11.3 26.4-35.5 50.9-55.1 66.1c-16.8 13.1-36.9 21.4-56.7 28.8c-17.6 6.5-37.3 12.8-56.1 7.5c-39.9-11.2-65-58.6-66.5-97.6c-0.7-20.6 3.9-41 21.3-53.7c24.3-17.8 70.6-19.5 83.7 13.1c8.4 20.8-1.2 43.9-1.9 65.1c-0.9 30.7 17.1 54.8 42.6 69.9c19.9 11.8 38.5 7.1 60.1 2.4c28.2-6.2 55.2-13 78-31.6c13.1-10.6 16-46.6-10.5-47c-33.5-0.6-66.2-20.8-57.7-57.5c4.5-19.7 16.8-36.1 32.8-48.1c17.2-13 46.1-25 37.5-51.6c-12-37-56.6-56.4-93.1-50.2c-18 3.1-32.2 14.5-48.4 21.9c-7.9 3.7-38.8 6.7-33.5-11.5c2.4-8.4 17.9-5.1 21.7-0.3c8.3 10.5 10.5 30.9 9.6 43.6c-2.7 40.6-26.5 81-67.3 91.8c-58.1 15.2-98.8-25-103.3-80.6c-1.7-21.2 .2-48 17.8-62.7c20.7-17.3 77.8-29.8 90.6 9.2c17.5 53.2-37.1 87.7-64.1 112.5c-22.7 20.7-61.1 44.3-47.6 80.8c2.6 7.2 7 13.9 11.5 20.1c25.6 35.6 81.1 71 126 60.4c25.3-6 56.6-15.8 51.8-48.5c-3-19.8-19.7-35.6-39.3-38.8c-23.1-3.8-46.5 8.4-43.8 34c2.2 20.8 18.9 31.3 35.7 40.8c36.4 20.5 90.2 26.9 122.6-5.1c23.8-23.5 31.2-55.4 19-86.9c-10-25.9-31.2-57.1-19.8-86.4c10.5-26.9 45-20.6 59.4-0.6c13.4 18.5 4.8 53.5-7.8 69.9c-15 19.7-45.5 15.8-63.5 3c-26.4-18.8-32-76.5-73-66.8c-24 5.7-47.3 29-41.4 55.4c4.5 19.8 33.8 39.8 53.6 26.7c7.5-5.1 12.6-14.4 16.5-22.2c3.2-6.3 6.4-13.1 7.3-20.2c5.2-39.8-43.5-46.4-71.6-37.3c-11.2 3.6-24.1 11.9-36.1 6.8c-27.6-11.6-13.9-66.1 .2-67.7c41.1-4.9 77 23.3 82.9 50.9c4.2 19.4-2.9 39.5-15.3 54.6c-8.6 10.5-19.1 18.3-25.9 30.4c-11.3 20.3-15.5 41.7 1.7 59.5" fill="none" stroke="#ff8f00" stroke-width="4px" stroke-dashoffset="4235.8" stroke-dasharray="4235.8" clip-rule="evenodd" stroke-linecap="round" stroke-linejoin="round" stroke-miterlimit="1.5" transform="translate(216,428.1) translate(-196,-274.8)"/><path id="Yellowtangle-2" d="M179.6 258.4c-17.3-17.9-9.4-39.5 2-59.8c6.7-12.1 10.8-22.8 19.4-33.3c12.4-15.1 22.2-32.1 18.1-51.4c-6-27.7-37.8-54.6-79-49.8c-14 1.7-31.7 55-4.2 66.5c12.1 5.1 25.2-5.7 36.4-9.3c28.1-9.1 74.1-1.8 68.8 38c-0.9 7-3.3 13.5-6.4 19.8c-3.9 7.8-9.9 17.1-17.5 22.1c-19.8 13.2-46.5-4.6-50.9-24.4c-6-26.3 17.3-49.6 41.4-55.4c40.9-9.7 46.5 48.1 73 66.9c18 12.8 46.9 12.4 61.9-7.3c12.6-16.4 22.7-47.2 9.3-65.7c-14.4-20-50.7-30.1-61.2-3.2c-11.5 29.3 11.7 64.3 21.7 90.3c12.1 31.4 3.2 58.1-20.7 81.6c-32.4 31.9-84.6 30.9-120.9 10.3c-16.8-9.5-37.4-20.1-39.5-40.9c-2.7-25.6 24.4-37.6 47.6-33.9c19.5 3.2 31.8 20.5 34.7 40.4c4.8 32.6-22 41-47.2 46.9c-45 10.6-95.4-24.6-121.1-60.1c-4.5-6.2-9.5-14.8-12.2-22c-13.4-36.5 20.6-58.5 43.3-79.2c27.1-24.7 78.1-56.5 60.6-109.7c-12.8-39-63-25.8-83.7-8.4c-17.6 14.7-26.3 37.4-24.6 58.5c4.4 55.7 48.2 92.6 106.2 77.3c40.9-10.7 65.1-47.2 67.9-87.8c.9-12.7-1.4-33.1-9.7-43.7c-3.7-4.7-19.2-8-21.7 .4c-5.2 18.1 25.6 15.1 33.6 11.5c16.2-7.5 32.5-15.7 50.4-18.7c36.5-6.2 75.7 11.2 87.7 48.2c8.6 26.6-15 40.3-32.2 53.3c-16 11.9-30.2 25.5-34.8 45.2c-8.4 36.6 24.2 56.9 57.7 57.4c26.6 .5 23.9 40.2 10.8 50.8c-22.8 18.6-50.1 21.6-78.3 27.8c-21.5 4.7-37 4.6-56.9-7.2c-25.5-15.1-46.7-34.3-45.7-65c.6-21.3 10.3-44.4 1.9-65.2c-13.2-32.5-58.6-25.8-82.9-8c-17.4 12.7-19 27.6-18.2 48.1c1.5 39.1 28.7 85.7 68.6 96.9c18.8 5.3 32.5 .3 50.1-6.3c19.8-7.4 40.1-21.5 56.9-34.6c19.6-15.2 39.7-40.9 54.8-60.3" stroke="#ff8f00" opacity="0" stroke-width="4" fill="none" clip-rule="evenodd" stroke-linecap="round" stroke-linejoin="round" stroke-miterlimit="1.5" transform="translate(217.9,574.3) translate(-194.6,-187.4)"/></g><g transform="translate(250,304.9) translate(-210,-95.1)"/></svg>