<svg xmlns="http://www.w3.org/2000/svg" xmlns:xlink="http://www.w3.org/1999/xlink" width="100%" height="100%" viewBox="0 0 500 1500"><g clip-rule="evenodd" fill-rule="evenodd" stroke-linecap="round" stroke-linejoin="round" stroke-miterlimit="1.5" transform="translate(250,801.4) translate(-210,-799.3)"><g transform="translate(210,805) translate(-212,-807.1)"><path id="BlueStringJank" d="M216.3 242.9c5.8-10.3 8.4-51.2 6.9-63.2c-3.1-25.1 .3-52.1-15.3-50.5c-31.1 3.1-26.9 35.6-24.1 40.5c6.2 10.5 17.3 2.2 20.4 1.2c13.5-4.2 41.5-20.1 52.6-6.1c7.5 9.5-18.5 21.8-23.2 32.7c-10.6 24.9 31.1 24.9 37.9 22.8c21.1-6.3 39-32.7 46.5-53c7.1-19.5 11.7-45.6-1.6-63.3c-8.1-10.8-33.3-21.9-42.8-6.5c-5.6 9.3 4 13.4 11.8 10.9c26.3-8.4 29.1-38.2 11.7-56.5c-28.9-30.5-89.5-16.2-117 8.7c-31 28.2-17.6 96.2 27 102.4c7.1 1 14 .1 20.8-1.9c9.8-2.9 27.5-16.3 34.9-4.6c6.8 10.7-7 30.5-12.6 40.2c-14.9 25.7-44.9 39.7-74.6 37.2c-30.7-2.5-59.5-16.3-67.5-47c-1.7-6.6-3.3-13.6-1.5-20.3c5-18.6 23.2-31.5 29.5-50.2c8.4-24.8 4.2-54.1-25.5-59.5c-4.2-0.7-8.5-1-12.8-0.4c-38.8 5.2-60.7 57.5-35.9 88.8c7.7 9.8 19.6 13.3 31.2 16.5c27.5 7.6 68.8 14.4 70.8 49.4c.4 6.1-2.9 16.3-5 22c-2.6 7-7.8 9.8-12.7 15.3c-7.3 8.3-16.5 16.4-27.4 19.4c-40.9 11.3-85.1-35.9-88.5-73.9c-1.7-18 3.3-37.8 6.6-55.3c5.9-30.9-0.4-65.3 18.5-92.2c6.8-9.6 18-22.2 28.2-28c13.2-7.5 29.9-5.5 44 .7c31.5 14.1 23.8 47 17.7 73.7c-11.1 48-29.1 104.3 3.1 148c4.8 6.5 10.4 16.4 16.6 21.4c38.8 31.5 85.4 2.6 111.6-32.8c12.8-17.3 29.2-62.2 7-79.3c-19.2-14.8-47.2 1.9-61.8 15.5c-33.2 31.2-59.9 106.3-6.9 133.9c34.2 17.9 79.6 4.2 111-12.2c14.1-7.4 28.5-17 37.8-30.5c18.8-27.1 19-66.8 17.5-98.7c-0.8-17.9-3.6-33.7-8.6-50.9c-2.6-8.8-4.9-18.4-12.4-24.2c-28.1-21.7-63.5 8.1-74.6 33.2c-11 24.7-11.2 52.1-17.5 78.1c-9.2 37.7-28.4 80.1-54.9 109c-18.5 20.3-46.4 44.1-74.1 24.5c-18.2-12.8-31.7-41.1-28-62.7c3.9-22.3 19.7-36.8 43.9-32.8c33.4 5.6 50.1 38.2 64.5 63.7c17.1 30.5 50.9 59.5 86.9 50.4c10.2-2.6 19.4-7.1 27.7-13.7c12.6-9.9 25.6-21.3 35.3-34.1c11.4-15.1 20.2-30.4 26.4-48.3c4.3-12.2 9.7-28.8 8.6-41.9c-2.9-35.2-26.9-62.6-61.4-71.8c-23.4-6.2-46-9.4-69.2-17.1c-9.8-3.3-19.4-5.6-25-14.8c-5.1-8.2-8.1-15.1-9.4-24.6c-3.1-22.9 10.7-46.9 35.2-48.6c15.8-1 29.7 2.1 43.9 8.3c6.9 2.9 14.9 6.2 19.9 12.1" fill="none" stroke="#007cbf" stroke-width="4px" opacity="0" transform="translate(217.2,180.9) translate(-217.2,-180.9)"/><path id="BlueString1" d="M13.3 1575.3c0 0 98-194 175.4-304c31.7-45.1 246.6-411.3 141.3-592.6c-112.4-193.5-113.7-379.1-109.3-424.1c4.3-45.1 7.3-51.1 5.8-76.1c-3.1-25.1-4.5-53-20.1-51.4c-31.2 3.2-25.4 37.7-22.6 42.6c6.2 10.5 18.4 6.8 21.5 5.8c13.5-4.2 40.4-24.7 51.5-10.7c7.5 9.5-20.6 23.1-25.2 34.1c-10.6 24.8 34.8 20.5 41.6 18.5c21.1-6.4 38.8-25.4 46.2-45.7c7.1-19.5 10.3-50-3-67.7c-8.1-10.8-33.3-21.9-42.8-6.5c-5.6 9.3 4 13.4 11.8 10.9c26.3-8.4 29.1-38.2 11.7-56.5c-28.9-30.5-88.6-13.2-116.1 11.8c-31 28.2-18.5 93.1 26.1 99.3c7.1 1 14 .1 20.8-1.9c9.8-2.9 27.5-16.3 34.9-4.6c6.8 10.7-4 32.1-9.6 41.8c-14.9 25.7-47.7 42.4-77.4 40c-30.7-2.6-59.7-20.7-67.7-51.4c-1.7-6.6-3.3-13.6-1.5-20.3c5-18.6 23.2-31.5 29.5-50.2c8.4-24.8 4.2-54.1-25.5-59.5c-4.2-0.7-8.5-1-12.8-0.4c-38.8 5.2-60.7 57.5-35.9 88.8c7.7 9.8 19.6 13.3 31.2 16.5c27.5 7.6 65.3 14.7 67.4 49.7c.3 6.1-0.6 12.4-2.7 18.1c-2.5 7-6.7 13.4-11.6 18.9c-7.3 8.3-16.5 16.4-27.4 19.4c-40.9 11.3-85.1-35.9-88.5-73.9c-1.7-18 4.4-35.8 7.8-53.3c5.9-30.9 1.4-68.4 20.3-95.4c6.7-9.6 16.6-17.4 26.7-23.1c13.2-7.5 28.4-9.2 42.5-3c31.5 14.1 20.7 47.4 14.6 74.1c-11 48-26 103.9 6.2 147.6c4.8 6.5 10.6 12.2 16.9 17.3c38.7 31.4 85.1 6.7 111.3-28.7c12.8-17.3 29.2-62.2 7-79.3c-19.2-14.8-47.2 1.9-61.8 15.5c-33.2 31.2-59.9 106.3-6.9 133.9c34.2 17.9 78.7 3.1 110.1-13.3c14.2-7.4 29.4-15.9 38.7-29.4c18.8-27.1 21.7-68.6 20.3-100.5c-0.8-17.9-4-35.2-9-52.3c-2.6-8.8-5.2-17.7-12.7-23.6c-28-21.7-65.6 10.7-76.7 35.8c-11 24.7-13.4 52.2-19.8 78.2c-9.2 37.7-26.1 80-52.6 108.9c-18.5 20.3-49.1 45.3-76.8 25.7c-18.3-12.8-27.8-40.3-24-61.9c3.8-22.3 18.4-38.8 42.6-34.8c33.4 5.6 49.2 44.1 63.6 69.6c17.2 30.4 51.8 53.6 87.8 44.5c10.2-2.6 19.4-7.1 27.7-13.7c12.6-9.8 23.4-22.6 33-35.3c11.4-15.1 20.4-31.6 26.6-49.5c4.2-12.3 8-25.7 7-38.8c-2.9-35.2-23.2-63.3-57.7-72.5c-23.4-6.2-48.4-5.4-71.5-13.2c-9.9-3.3-21.1-8.7-26.7-17.9c-5.1-8.3-6.8-18.3-8.1-27.7c-3.1-22.9 12.1-47.5 36.6-49.2c15.7-1.1 32.2 1.2 46.3 7.3c6.9 3 13.8 10.1 18.8 16" fill="none" stroke="#007cbf" stroke-width="4px" stroke-dashoffset="4500" stroke-dasharray="4500 10000" transform="translate(226,344.8) translate(-226,-344.8)"/></g><g transform="translate(210,762.8) translate(-212,-765)"><path id="RedStringJank" d="M196.8 285.4c-17.2-17.8-9.3-39.5 2-59.7c6.8-12.1 10.9-22.9 19.5-33.4c12.3-15.1 22.2-32.1 18-51.4c-5.9-27.6-37.7-54.6-78.9-49.8c-14 1.7-31.8 55-4.2 66.6c12.1 5 25.2-5.8 36.4-9.4c28.1-9.1 74-1.8 68.8 38c-0.9 7.1-3.3 13.6-6.4 19.8c-4 7.9-10 17.1-17.5 22.2c-19.8 13.1-46.5-4.7-51-24.4c-5.9-26.4 17.4-49.7 41.4-55.4c41-9.8 46.6 48 73 66.8c18 12.8 46.9 12.4 62-7.2c12.5-16.5 22.7-47.2 9.3-65.8c-14.4-20-50.8-30.1-61.3-3.2c-11.4 29.3 11.7 64.3 21.7 90.3c12.2 31.5 3.2 58.1-20.6 81.6c-32.4 31.9-84.6 30.9-120.9 10.4c-16.8-9.5-37.4-20.2-39.6-41c-2.6-25.6 24.5-37.6 47.6-33.8c19.6 3.1 31.8 20.4 34.8 40.3c4.8 32.7-22 41-47.3 46.9c-44.9 10.6-95.4-24.5-121-60.1c-4.5-6.2-9.5-14.8-12.2-22c-13.5-36.5 20.6-58.4 43.3-79.2c27-24.7 78.1-56.5 60.6-109.7c-12.9-39-66.3-29.3-87.1-11.9c-17.6 14.7-23 40.9-21.3 62.1c4.5 55.6 48.3 92.5 106.3 77.3c40.8-10.8 65.1-47.3 67.9-87.9c.8-12.7-1.4-33.1-9.7-43.7c-3.8-4.7-19.3-8-21.7 .4c-5.3 18.1 25.6 15.1 33.5 11.5c16.2-7.4 32.5-15.6 50.5-18.7c36.5-6.2 75.7 11.2 87.6 48.2c8.6 26.6-14.9 40.3-32.1 53.3c-16 12-30.3 25.5-34.8 45.2c-8.5 36.7 24.2 56.9 57.7 57.5c26.6 .4 23.8 40.2 10.8 50.8c-22.9 18.5-50.1 21.5-78.3 27.7c-21.5 4.8-37 4.6-57-7.2c-25.5-15.1-46.6-34.3-45.7-65c.7-21.3 10.3-44.3 1.9-65.2c-13.1-32.5-58.5-25.7-82.8-8c-17.4 12.7-19.1 27.6-18.3 48.1c1.5 39.1 28.7 85.7 68.7 96.9c18.8 5.3 32.5 .3 50.1-6.3c19.7-7.3 40-21.5 56.9-34.5c19.6-15.3 39.6-41 54.8-60.3" fill="none" stroke="#f65c1b" stroke-width="4px" opacity="0" transform="translate(210.6,186.6) translate(-210.6,-186.6)"/><path id="RedString1" d="M274 1512.1c0 0 165-546.1 15-723c-167.4-197.6-171-278.9-166.7-331.7c4.3-52.9 13.6-68.7 24.8-86.1c26.5-41.1 60.2-87.8 64.3-150.9c3-44.9 29.1-60.2 24.9-79.5c-5.9-27.6-41.8-55.8-82.9-51c-14.1 1.7-27.8 56.2-0.2 67.8c12.1 5 24.9-3.3 36.1-6.9c28.1-9.1 76.8-2.4 71.6 37.4c-0.9 7.1-4.1 13.9-7.2 20.2c-4 7.8-9 17.1-16.6 22.1c-19.8 13.2-49.1-6.9-53.6-26.6c-5.9-26.4 17.4-49.7 41.4-55.4c41-9.8 46.6 48 73 66.8c18 12.8 48.5 16.6 63.5-3c12.6-16.4 21.2-51.4 7.8-70c-14.4-20-48.9-26.2-59.4 .7c-11.4 29.3 9.8 60.4 19.8 86.4c12.2 31.5 4.8 63.4-19 86.9c-32.4 31.9-86.2 25.6-122.5 5.1c-16.8-9.5-33.6-20-35.8-40.8c-2.7-25.7 20.7-37.8 43.8-34c19.6 3.1 36.3 18.9 39.3 38.8c4.8 32.7-26.5 42.5-51.8 48.4c-44.9 10.6-100.4-24.7-126-60.3c-4.5-6.2-8.9-12.9-11.5-20.1c-13.5-36.5 24.9-60.1 47.6-80.9c27-24.7 81.6-59.2 64.2-112.5c-12.9-38.9-69.9-26.5-90.7-9.1c-17.6 14.7-19.5 41.5-17.8 62.7c4.5 55.6 45.3 95.8 103.3 80.5c40.8-10.7 64.6-51.1 67.4-91.7c.8-12.7-1.4-33.1-9.7-43.7c-3.8-4.7-19.3-8-21.7 .4c-5.3 18.1 25.6 15.1 33.5 11.5c16.2-7.4 30.4-18.9 48.4-21.9c36.5-6.2 81.1 13.1 93.1 50.1c8.6 26.6-20.3 38.7-37.5 51.6c-16 12-28.3 28.5-32.8 48.2c-8.5 36.7 24.2 56.9 57.7 57.5c26.6 .4 23.6 36.3 10.5 47c-22.8 18.5-49.8 25.3-78 31.5c-21.5 4.8-40.1 9.5-60.1-2.3c-25.5-15.1-43.5-39.2-42.6-69.9c.7-21.3 10.3-44.3 1.9-65.2c-13.1-32.5-59.4-30.8-83.7-13c-17.4 12.7-22 33.1-21.2 53.7c1.5 39 26.5 86.4 66.4 97.6c18.8 5.2 38.6-1 56.2-7.6c19.7-7.3 39.8-15.7 56.6-28.7c19.6-15.2 39.9-46.8 55.1-66.1" fill="none" stroke="#f65c1b" stroke-width="4px" stroke-dashoffset="4000" stroke-dasharray="4000 10000" transform="translate(212,387.1) translate(-212,-387.1)"/></g><g transform="translate(212.9,772) translate(-214.9,-774.1)"><path id="GreenStringJank" d="M222.3 221.9c12.5-23.3 .5-63.2-26.3-68.2c-14.8-2.7-27.9 3.6-42.2 4.9c-4.6 .4-15.4 1.2-20.1 .9c-13.1-0.7-8.9-12.7 4.1-14.2c13.5-1.5 35.4 11.2 38.4 28.2c5.8 32-29 69.7-57.5 55.4c-23.9-12.1-38.8-60.6-23.6-85.7c14-23.3 52.6-34.2 77.1-25.1c36.1 13.3 2.1 74.3 2.1 105.3c0 23.1 24.1 40 44.5 37.9c4.7-0.4 10.4-4.2 14.4-7c12-8.5 20.5-27.2 18.4-43.3c-2.7-20.9-32.9-48.4 .2-58.2c4.9-1.4 9.9-1.7 15-1.3c6.6 .6 13.5 3.6 19 7.7c54.6 40.3-24.6 83-15.2 124.4c4.2 18.6 23.6 18.9 38.8 17c19.9-2.6 39.9-28.4 48.9-46.4c4.5-9.1 6.9-18 6-27.9c-3.1-34.3-40.5-40.9-64.2-29.1c-53.2 26.5-55.7 118.3-132.5 102.3c-8.8-1.8-18.4-3.1-26.5-7.6c-9.1-5-19.8-8.9-27.5-16.2c-3.4-3.3-6.8-7.7-9.7-11.5c-14.7-18.9-7-29.3 14.8-35.3c25.3-7 52.3-8.3 77.7-1.9c9.1 2.3 16.7 15.1 14.9 26.1c-2.8 17.2-20 30.9-32.2 40.1c-13.1 9.8-27.8 17.6-44.2 18.9c-46.8 3.7-89-40.9-91.2-90.1c-1.7-37.5 7.2-73.8 40-93c9.7-5.7 21.1-7.1 31.5-9c16.7-3.1 34.1-11.1 48.4-21c21.3-14.9 54.5-47.9 34.9-78.9c-17.6-27.8-66.9-16.5-82.6 7.8c-10.6 16.4 .6 44.6 11 58.6c15.8 21.5 39.6 22.9 59.1 6.8c31.9-26.5 72.5-61.5 113.2-29.3c16.3 12.9 19.8 34.4 3.6 48.4c-10.7 9.2-24.8 12.3-35.3 21.5c-21.3 18.9-32.9 55.2-21.7 84.1c14.8 38.2 62.3 14.7 83.4-1.2c5.5-4.1 26.6-38.3 40.4-24.9c18.1 17.7-34.3 38.2-45.4 47.1c-7.1 5.8-14.4 9.7-22.6 13c-21.6 8.5-127.5 45.3-62.8 79.2c8.6 4.5 18.3 9.3 27.9 10.9c38 6.5 81.5-26.7 102.8-59.8c6.9-10.6 19.3-35.2 10.4-48.3c-10.5-15.6-35.7-10.9-49.5-4.5c-42.5 19.9-77.3 34.2-124.8 28c-28.5-3.7-45.2-63.9-35.7-89.1c7-18.7 29.7-33.2 45.6-41.3c20.6-10.5 32-3.8 52.2 2.4c13 4.1 28.1 2.9 40.4 9.4c15.6 8.1 24.4 22.5 42.9 24c24.7 1.9 23.6-19 39.2-27.6" fill="none" stroke="#007b52" stroke-width="4px" opacity="0" transform="translate(216.9,173.4) translate(-216.9,-173.4)"/><path id="GreenString1" d="M135 1552c20-24-88.3-362-67-526c21.3-164 105.7-278.7 31-412c-74.7-133.3-34.6-207.2 12-243c46.6-35.8 118.4-90.6 118.1-149.8c0-7.5-9.9-59.4-34.5-63.6c-14.7-2.6-27.2 3-41.5 4.3c-4.6 .4-15.4 1.2-20.1 .9c-13.1-0.7-8.9-12.7 4.1-14.2c13.5-1.4 36.1 7.9 39.1 24.9c5.8 32-29 69.7-57.5 55.4c-23.9-12.1-36.4-58.3-21.3-83.4c14-23.3 50.3-36.5 74.8-27.4c36.1 13.3 6.9 72.8 6.9 103.8c0 23.1 19.3 41.5 39.7 39.4c4.7-0.4 10.4-4.2 14.4-7c12-8.5 20.5-27.2 18.4-43.3c-2.7-20.9-31.4-50.7 1.7-60.4c4.9-1.5 9.9-1.7 15-1.3c6.6 .5 13.5 3.6 19 7.6c54.6 40.3-26.1 85.3-16.7 126.7c4.2 18.6 22.1 22.4 37.4 20.4c19.9-2.6 44.5-30.4 53.5-48.4c4.5-9 3.7-19.4 2.8-29.3c-3.1-34.3-38.4-37.9-62.1-26.1c-53.2 26.5-57.8 115.3-134.6 99.3c-8.8-1.8-18.4-3.1-26.5-7.6c-9.1-5-17.6-11.8-25.3-19.1c-3.4-3.3-6.8-7.7-9.8-11.5c-14.6-18.8-9.1-26.4 12.7-32.4c25.3-7 51.7-5.2 77.1 1.2c9 2.4 17.3 12 15.5 23c-2.8 17.2-20 30.9-32.2 40.1c-13.1 9.8-29.1 21.6-45.5 22.9c-46.8 3.7-86.9-48.8-89.1-98.1c-1.7-37.5 5.2-73.7 37.9-92.9c9.7-5.7 22.4-3.2 32.8-5.1c16.7-3.1 34.1-11.1 48.4-21c21.3-14.9 57.5-50.5 37.9-81.5c-17.6-27.8-69.9-13.9-85.6 10.4c-10.6 16.4-3 46.9 7.4 60.9c15.9 21.5 43.2 20.6 62.7 4.5c31.9-26.5 74.9-64.7 115.6-32.5c16.3 12.8 17.4 37.6 1.2 51.6c-10.7 9.2-24.8 12.3-35.3 21.5c-21.3 18.9-32.9 55.2-21.7 84.1c14.8 38.2 62.3 14.7 83.4-1.2c5.5-4.1 26.6-38.3 40.4-24.9c18.1 17.7-33.9 42.7-45 51.6c-7.1 5.8-14.7 9.5-23 12.7c-21.5 8.6-126.2 39.4-61.5 73.3c8.6 4.5 16.9 7.9 26.4 9.5c38.1 6.5 81.7-23.6 103-56.7c6.9-10.6 19.3-35.2 10.4-48.3c-10.5-15.6-35.7-10.9-49.5-4.5c-42.5 19.9-77.3 34.2-124.8 28c-28.5-3.7-45.2-63.9-35.7-89.1c7-18.7 27.8-34.6 43.7-42.7c20.6-10.5 33.9-2.4 54.1 3.8c13 4.1 26.8 6.3 39.1 12.8c15.5 8.2 24.1 22.1 42.6 23.5c24.6 2 25.2-21.9 40.8-30.5" fill="none" stroke="#007b52" stroke-width="4px" stroke-dasharray="3850 7500" stroke-dashoffset="3850" transform="translate(222.7,410.4) translate(-222.7,-410.4)"/></g><g transform="translate(210,773.4) translate(-212,-775.5)"><path id="DarkStringJank" d="M64.9 236.1c-4.4-14.1-4.8-37.6 4.3-49.8c16-21.3 45.3-16.6 58.4 9.2c7.2 14.1 5.9 57.8-15 55c-20.6-2.9-16.4-30-10.1-45.9c12.3-30.7 39.9-54.3 71-36.8c19.1 10.7 11.6 40.2 6.9 57c-11.6 41.9-23.3 83 25.2 100.4c8.8 3.2 19.6 4.5 28.8 3.3c55.7-7.7 89.2-74.5 88.3-131.8c-0.8-43.2-26.1-86.5-69.9-71.8c-26.6 9-31.2 43.7-12.8 62.8c33.7 35 104.1 4.6 98.7-48.2c-6.4-62.4-83.9-81-129.7-74.4c-18.6 2.6-42.9 12.3-51.9 32.4c-8 17.7 1.5 35.7 12.9 48.6c19.6 22.3 58.1 41.9 61.1 76.7c2 23.8-20.8 47.2-40.1 51.5c-39.2 8.8-101.5-17.3-98.5-68.7c2.6-43 55.6-93.7 93.2-97.1c37.6-3.4 74.4 29 70.8 73c-1.2 15.1-6.8 29.1-13.1 42.4c-4.6 9.8-10.2 16.6-17.2 24.5c-21 23.9-58 24.7-80.4 5.1c-34.6-30.2-56.5-94-111-55.1c-20.3 14.5-15.9 42.4-5.9 63.5c18.4 38.9 67.5 78.2 102.5 38c6.1-7 11.3-13.2 14.6-22.1c7-18.6 14.2-43.6 6.4-63.1c-18.6-46.2-97.9-87.8-57.2-152.5c38.5-61.4 141.1-50.9 171.5 15.2c32.6 71-53.1 141.3-12.2 210c18.8 31.6 57.2 31.9 86.1 17.8c39.6-19.3 65.9-64.4 61.7-111.5c-2.5-28.1-39.4-47.4-56.9-26c-37.4 45.6-19.9 141.4-96.9 145.7c-31.3 1.7-73.1-2.7-97.2-26.4c-20.3-20-23.2-48.9 1.5-64.9c38.5-25 52.4 29.7 23.2 52.4c-52.5 40.8-122.9-21.7-137.7-78.5c-22.6-87 71.7-129.9 136.5-109.4c55.6 17.6 20.3 108.3 77.9 120c33.5 6.9 58.2-35.8 66-61.2c7.8-25.3-10.6-54-44.1-55.3c-31.1-1.2-65.5 4.4-78.5 35.5c-2.6 6.2-4.3 12.8-5.1 19.6c-2.3 18.2 2.1 37.3 9.5 54c4.1 9.3 12.1 18.7 12.8 29.1" fill="none" stroke="#2a4059" stroke-width="4px" opacity="0" transform="translate(211.6,175.2) translate(-211.6,-175.2)"/><path id="DarkString1" d="M228.7 1514.7c-33.4-78.7-2.7-420 30.6-513.4c33.4-93.3 69.4-377.3 14.7-516c-54.7-138.6-21.5-207.3-73.5-286.1c-12.5-18.8-11.8-35.8-9.5-54c.8-6.8 2.5-13.4 5.1-19.6c13-31.1 44.7-38.3 75.8-37.1c33.6 1.3 55.8 33.6 47.9 58.9c-7.8 25.4-33.6 66.1-67.1 59.2c-57.6-11.7-20.6-105.4-76.2-123c-64.9-20.5-163.7 25-141.1 112c14.8 56.8 87.1 117.5 139.6 76.7c29.2-22.7 18.8-79.2-19.7-54.2c-24.7 16-24.3 48.9-4 68.9c24.1 23.7 65.6 30.6 96.8 28.9c77-4.3 60.1-98.3 97.5-143.9c17.6-21.4 54.2-6.4 56.7 21.7c4.2 47.1-22.5 96-62.1 115.3c-28.9 14.1-69.1 11.9-87.9-19.8c-40.9-68.7 50.1-141.6 17.5-212.6c-30.4-66.1-138.6-76.7-177.1-15.2c-40.7 64.7 40 110 58.5 156.2c7.9 19.5 1.8 41.6-5.2 60.2c-3.3 8.9-7.4 17.2-13.5 24.2c-35 40.3-87.3-0.8-105.7-39.7c-10-21.1-12.3-49.4 8-63.9c54.5-38.9 76.4 24.9 111 55.1c22.4 19.6 59.9 22.1 80.8-1.8c7-8 12.2-18 16.8-27.8c6.3-13.3 11.9-27.3 13.1-42.4c3.6-44-33.5-71.8-71-68.4c-37.7 3.5-87.4 49.1-89.9 92.1c-3.1 51.4 56.1 76.4 95.4 67.6c19.2-4.3 44.5-25.6 42.5-49.4c-3-34.7-43.9-55-63.5-77.3c-11.4-12.9-20.9-30.9-12.9-48.6c9-20.1 32.9-26.2 51.5-28.9c45.8-6.6 120.4 8.3 126.8 70.7c5.4 52.8-61.7 83.4-95.4 48.4c-18.4-19.1-16.5-56 10.1-64.9c43.8-14.8 75.3 29.6 76 72.8c1 57.2-36.8 123.1-92.5 130.8c-9.2 1.3-18 .4-26.9-2.8c-48.4-17.4-37.9-56.9-26.3-98.8c4.7-16.8 13.2-47.9-5.8-58.7c-31.1-17.5-63.1 8.6-75.4 39.3c-6.3 15.9-7.2 42.2 13.4 45.1c20.9 2.8 24.4-41.4 17.2-55.6c-13.2-25.8-45-23.8-60.9-2.5c-9.2 12.2-8.4 29.6-4 43.7" fill="none" stroke="#2a4059" stroke-width="4px" stroke-dashoffset="5000" stroke-dasharray="5000 10000" transform="translate(211,399.6) translate(-211,-399.6)"/></g></g><script xlink:href="keyshapejs-1.1.1.min.js"/><script><![CDATA[if(KeyshapeJS.version.indexOf('1.')!=0)throw Error('Expected KeyshapeJS v1.*.*');window.ks=document.ks=KeyshapeJS;(function(ks){
ks.animate("#BlueStringJank",[{p:'opacity',t:[3000,3500,4000],v:[0,1,0],e:[[3,1],[3,1],[0]]}],
"#BlueString1",[{p:'opacity',t:[3000,3500,4000],v:[1,0,1],e:[[3,1],[3,1],[0]]},{p:'strokeDashoffset',t:[0,3000,4000,7000],v:[4500,-1440,-1440,4500],e:[[1,.4,.6,.6,1],[0],[1,.6,0,.4,1],[0]]}],
"#RedStringJank",[{p:'opacity',t:[3000,3500,4000],v:[0,1,0],e:[[3,1],[3,1],[0]]}],
"#RedString1",[{p:'opacity',t:[3000,3500,4000],v:[1,0,1],e:[[3,1],[3,1],[0]]},{p:'strokeDashoffset',t:[0,3000,4000,7000],v:[4000,-1320,-1320,4000],e:[[1,.2,.6,.4,1],[0],[1,.4,.1,.6,.9],[0]]}],
"#GreenStringJank",[{p:'opacity',t:[3000,3500,4000],v:[0,1,0],e:[[3,1],[3,1],[0]]}],
"#GreenString1",[{p:'opacity',t:[3000,3500,4000],v:[1,0,1],e:[[3,1],[3,1],[0]]},{p:'strokeDashoffset',t:[0,3000,4000,7000],v:[3850,-1420,-1420,3850],e:[[1,.4,.1,.6,.9],[0],[1,.6,0,.4,1],[0]]}],
"#DarkStringJank",[{p:'opacity',t:[3000,3500,4000],v:[0,1,0],e:[[3,1],[3,1],[0]]}],
"#DarkString1",[{p:'opacity',t:[3000,3500,4000],v:[1,0,1],e:[[3,1],[3,1],[0]]},{p:'strokeDashoffset',t:[0,3000,4000,7000],v:[5000,-1300,-1300,5000],e:[[1,.6,0,.4,1],[0],[1,.4,.1,.6,.9],[0]]}],
{autoremove:false,markers:{"1":0,"1a":3000,"2":4000}}).range(0,7000);
if(document.location.search.substr(1).split('&').indexOf('global=paused')>=0)ks.globalPause()})(KeyshapeJS);
]]></script></svg>