<svg xmlns="http://www.w3.org/2000/svg" xmlns:xlink="http://www.w3.org/1999/xlink" width="100%" height="100%" viewBox="0 0 500 1500"><g clip-rule="evenodd" fill-rule="evenodd" stroke-linecap="round" stroke-linejoin="round" stroke-miterlimit="1.5" transform="translate(250,801.4) translate(-210,-799.3)"><g transform="translate(212.9,772) translate(-214.9,-774.1)"><path id="DarkStringJank" d="M222.3 221.9c12.5-23.3 .5-63.2-26.3-68.2c-14.8-2.7-27.9 3.6-42.2 4.9c-4.6 .4-15.4 1.2-20.1 .9c-13.1-0.7-8.9-12.7 4.1-14.2c13.5-1.5 35.4 11.2 38.4 28.2c5.8 32-29 69.7-57.5 55.4c-23.9-12.1-38.8-60.6-23.6-85.7c14-23.3 52.6-34.2 77.1-25.1c36.1 13.3 2.1 74.3 2.1 105.3c0 23.1 24.1 40 44.5 37.9c4.7-0.4 10.4-4.2 14.4-7c12-8.5 20.5-27.2 18.4-43.3c-2.7-20.9-32.9-48.4 .2-58.2c4.9-1.4 9.9-1.7 15-1.3c6.6 .6 13.5 3.6 19 7.7c54.6 40.3-24.6 83-15.2 124.4c4.2 18.6 23.6 18.9 38.8 17c19.9-2.6 39.9-28.4 48.9-46.4c4.5-9.1 6.9-18 6-27.9c-3.1-34.3-40.5-40.9-64.2-29.1c-53.2 26.5-55.7 118.3-132.5 102.3c-8.8-1.8-18.4-3.1-26.5-7.6c-9.1-5-19.8-8.9-27.5-16.2c-3.4-3.3-6.8-7.7-9.7-11.5c-14.7-18.9-7-29.3 14.8-35.3c25.3-7 52.3-8.3 77.7-1.9c9.1 2.3 16.7 15.1 14.9 26.1c-2.8 17.2-20 30.9-32.2 40.1c-13.1 9.8-27.8 17.6-44.2 18.9c-46.8 3.7-89-40.9-91.2-90.1c-1.7-37.5 7.2-73.8 40-93c9.7-5.7 21.1-7.1 31.5-9c16.7-3.1 34.1-11.1 48.4-21c21.3-14.9 54.5-47.9 34.9-78.9c-17.6-27.8-66.9-16.5-82.6 7.8c-10.6 16.4 .6 44.6 11 58.6c15.8 21.5 39.6 22.9 59.1 6.8c31.9-26.5 72.5-61.5 113.2-29.3c16.3 12.9 19.8 34.4 3.6 48.4c-10.7 9.2-24.8 12.3-35.3 21.5c-21.3 18.9-32.9 55.2-21.7 84.1c14.8 38.2 62.3 14.7 83.4-1.2c5.5-4.1 26.6-38.3 40.4-24.9c18.1 17.7-34.3 38.2-45.4 47.1c-7.1 5.8-14.4 9.7-22.6 13c-21.6 8.5-127.5 45.3-62.8 79.2c8.6 4.5 18.3 9.3 27.9 10.9c38 6.5 81.5-26.7 102.8-59.8c6.9-10.6 19.3-35.2 10.4-48.3c-10.5-15.6-35.7-10.9-49.5-4.5c-42.5 19.9-77.3 34.2-124.8 28c-28.5-3.7-45.2-63.9-35.7-89.1c7-18.7 29.7-33.2 45.6-41.3c20.6-10.5 32-3.8 52.2 2.4c13 4.1 28.1 2.9 40.4 9.4c15.6 8.1 24.4 22.5 42.9 24c24.7 1.9 23.6-19 39.2-27.6" fill="none" stroke="#2a4059" stroke-width="4px" opacity="0" transform="translate(216.9,173.4) translate(-216.9,-173.4)"/><path id="DarkString1" d="M135 1552c20-24-88.3-362-67-526c21.3-164 105.7-278.7 31-412c-74.7-133.3-34.6-207.2 12-243c46.6-35.8 118.4-90.6 118.1-149.8c0-7.5-9.9-59.4-34.5-63.6c-14.7-2.6-27.2 3-41.5 4.3c-4.6 .4-15.4 1.2-20.1 .9c-13.1-0.7-8.9-12.7 4.1-14.2c13.5-1.4 36.1 7.9 39.1 24.9c5.8 32-29 69.7-57.5 55.4c-23.9-12.1-36.4-58.3-21.3-83.4c14-23.3 50.3-36.5 74.8-27.4c36.1 13.3 6.9 72.8 6.9 103.8c0 23.1 19.3 41.5 39.7 39.4c4.7-0.4 10.4-4.2 14.4-7c12-8.5 20.5-27.2 18.4-43.3c-2.7-20.9-31.4-50.7 1.7-60.4c4.9-1.5 9.9-1.7 15-1.3c6.6 .5 13.5 3.6 19 7.6c54.6 40.3-26.1 85.3-16.7 126.7c4.2 18.6 22.1 22.4 37.4 20.4c19.9-2.6 44.5-30.4 53.5-48.4c4.5-9 3.7-19.4 2.8-29.3c-3.1-34.3-38.4-37.9-62.1-26.1c-53.2 26.5-57.8 115.3-134.6 99.3c-8.8-1.8-18.4-3.1-26.5-7.6c-9.1-5-17.6-11.8-25.3-19.1c-3.4-3.3-6.8-7.7-9.8-11.5c-14.6-18.8-9.1-26.4 12.7-32.4c25.3-7 51.7-5.2 77.1 1.2c9 2.4 17.3 12 15.5 23c-2.8 17.2-20 30.9-32.2 40.1c-13.1 9.8-29.1 21.6-45.5 22.9c-46.8 3.7-86.9-48.8-89.1-98.1c-1.7-37.5 5.2-73.7 37.9-92.9c9.7-5.7 22.4-3.2 32.8-5.1c16.7-3.1 34.1-11.1 48.4-21c21.3-14.9 57.5-50.5 37.9-81.5c-17.6-27.8-69.9-13.9-85.6 10.4c-10.6 16.4-3 46.9 7.4 60.9c15.9 21.5 43.2 20.6 62.7 4.5c31.9-26.5 74.9-64.7 115.6-32.5c16.3 12.8 17.4 37.6 1.2 51.6c-10.7 9.2-24.8 12.3-35.3 21.5c-21.3 18.9-32.9 55.2-21.7 84.1c14.8 38.2 62.3 14.7 83.4-1.2c5.5-4.1 26.6-38.3 40.4-24.9c18.1 17.7-33.9 42.7-45 51.6c-7.1 5.8-14.7 9.5-23 12.7c-21.5 8.6-126.2 39.4-61.5 73.3c8.6 4.5 16.9 7.9 26.4 9.5c38.1 6.5 81.7-23.6 103-56.7c6.9-10.6 19.3-35.2 10.4-48.3c-10.5-15.6-35.7-10.9-49.5-4.5c-42.5 19.9-77.3 34.2-124.8 28c-28.5-3.7-45.2-63.9-35.7-89.1c7-18.7 27.8-34.6 43.7-42.7c20.6-10.5 33.9-2.4 54.1 3.8c13 4.1 26.8 6.3 39.1 12.8c15.5 8.2 24.1 22.1 42.6 23.5c24.6 2 25.2-21.9 40.8-30.5" fill="none" stroke="#2a4059" stroke-width="4px" stroke-dasharray="3850 7500" stroke-dashoffset="-1550" transform="translate(222.7,410.4) translate(-222.7,-410.4)"/></g></g><script xlink:href="keyshapejs-1.1.1.min.js"/><script><![CDATA[if(KeyshapeJS.version.indexOf('1.')!=0)throw Error('Expected KeyshapeJS v1.*.*');window.ks=document.ks=KeyshapeJS;(function(ks){
ks.animate("#DarkStringJank",[{p:'opacity',t:[3000,3500,4000],v:[0,1,0],e:[[3,1],[3,1],[0]]}],
"#DarkString1",[{p:'opacity',t:[3000,3500,4000],v:[1,0,1],e:[[3,1],[3,1],[0]]},{p:'strokeDashoffset',t:[0,3000,4000,7000],v:[3850,-1550,-1550,3850],e:[[1,.4,.1,.6,.9],[0],[0],[1,.4,.1,.6,.9]]}],
{autoremove:false,markers:{"1":0,"1a":3000,"2":4000}}).range(3000,4000).time(3000);
if(document.location.search.substr(1).split('&').indexOf('global=paused')>=0)ks.globalPause()})(KeyshapeJS);
]]></script></svg>