<svg xmlns="http://www.w3.org/2000/svg" xmlns:xlink="http://www.w3.org/1999/xlink" width="100%" height="100%" viewBox="0 0 500 800"><g transform="translate(250,198.6) translate(-210,-419.9)"><path id="Bluetangle-1" d="M81 861c-18.4-77.9 26.2-122.9 31.4-184c5.7-65.9-52-171.1-64.9-206.1c-5-13.6-5.1-31.5 4.1-43.7c15.9-21.2 47.7-23.2 60.8 2.6c7.2 14.1 3.8 58.4-17.1 55.5c-20.6-2.8-19.7-29.1-13.4-45c12.3-30.7 44.2-56.8 75.4-39.3c19 10.7 10.4 41.9 5.8 58.7c-11.6 41.8-22.1 81.4 26.3 98.8c8.9 3.1 17.7 4.1 26.9 2.8c55.7-7.7 93.5-73.7 92.5-130.9c-0.8-43.2-32.2-87.5-76-72.8c-26.6 9-28.5 45.9-10.1 65c33.7 35 100.8 4.4 95.4-48.4c-6.5-62.4-81-77.3-126.8-70.7c-18.6 2.6-42.5 8.8-51.5 28.9c-8 17.7 1.5 35.6 12.9 48.5c19.6 22.4 60.5 42.6 63.5 77.4c2 23.8-23.3 45-42.6 49.3c-39.2 8.8-98.4-16.1-95.3-67.5c2.5-43.1 52.2-88.7 89.8-92.1c37.6-3.4 74.7 24.3 71.1 68.4c-1.2 15-6.8 29.1-13.1 42.4c-4.6 9.7-9.8 19.8-16.8 27.8c-21 23.8-58.4 21.4-80.8 1.8c-34.7-30.3-56.5-94.1-111-55.1c-20.3 14.5-18 42.7-8 63.9c18.3 38.8 70.7 79.9 105.7 39.7c6.1-7 10.2-15.3 13.5-24.2c7-18.7 13.1-40.8 5.2-60.3c-18.5-46.1-99.2-91.4-58.5-156.2c38.5-61.4 146.7-50.8 177.1 15.3c32.6 70.9-58.4 143.9-17.6 212.6c18.9 31.6 59.1 33.8 88 19.8c39.6-19.3 66.2-68.3 62-115.3c-2.5-28.1-39-43.2-56.6-21.7c-37.4 45.5-20.5 139.6-97.5 143.9c-31.2 1.7-72.7-5.3-96.8-28.9c-20.3-20-20.7-52.9 4-69c38.5-24.9 48.9 31.6 19.7 54.3c-52.5 40.8-124.8-20-139.6-76.8c-22.6-86.9 76.2-132.4 141.1-111.9c55.6 17.5 18.6 111.2 76.2 123c33.5 6.9 57.7-28.8 67.1-59.2c6.3-20.3-14.4-57.7-47.9-59c-31.1-1.2-62.8 6.1-75.8 37.1c-2.6 6.3-4.3 12.9-5.1 19.6c-2.3 18.3 2.1 37.4 9.5 54.1c4.1 9.2 12.1 18.7 12.8 29" fill="none" stroke="#007cbf" stroke-width="4px" stroke-dasharray="5225.4" stroke-dashoffset="5225.4" clip-rule="evenodd" stroke-linecap="round" stroke-linejoin="round" stroke-miterlimit="1.5" transform="translate(213.7,711.6) translate(-193.7,-558.3)"/><path id="Bluetangle-2" d="M47.5 235.5c-4.3-14.1-4.8-37.6 4.4-49.8c15.9-21.3 45.2-16.6 58.4 9.2c7.2 14.1 5.9 57.8-15 55c-20.7-2.9-16.4-30-10.1-45.9c12.3-30.7 39.9-54.3 71-36.8c19 10.7 11.5 40.2 6.9 57c-11.6 41.9-23.3 83 25.1 100.4c8.9 3.2 19.7 4.5 28.9 3.3c55.6-7.7 89.2-74.5 88.2-131.8c-0.7-43.1-26.1-86.5-69.8-71.8c-26.6 9-31.2 43.7-12.8 62.8c33.7 35 104.1 4.6 98.6-48.2c-6.4-62.3-83.9-81-129.7-74.4c-18.5 2.6-42.8 12.3-51.9 32.4c-7.9 17.7 1.6 35.7 13 48.6c19.6 22.3 58.1 42 61 76.7c2.1 23.8-20.7 47.2-40 51.5c-39.3 8.8-101.6-17.3-98.5-68.7c2.5-43 55.5-93.7 93.2-97.1c37.5-3.4 74.4 29 70.8 73c-1.2 15.1-6.9 29.1-13.2 42.4c-4.6 9.8-10.1 16.6-17.1 24.5c-21 23.9-58 24.7-80.4 5.1c-34.7-30.2-56.6-94-111.1-55.1c-20.3 14.5-15.8 42.4-5.8 63.5c18.4 38.9 67.5 78.2 102.5 38c6.1-7 11.3-13.2 14.6-22.1c6.9-18.6 14.2-43.6 6.4-63.1c-18.6-46.2-97.9-87.8-57.3-152.5c38.6-61.4 141.2-50.9 171.6 15.3c32.6 70.9-53.1 141.2-12.3 209.9c18.9 31.6 57.3 31.9 86.2 17.8c39.6-19.3 65.8-64.4 61.6-111.5c-2.5-28.1-39.3-47.4-56.9-26c-37.4 45.6-19.9 141.5-96.8 145.7c-31.3 1.7-73.1-2.7-97.2-26.4c-20.4-20-23.2-48.9 1.5-64.9c38.4-25 52.4 29.7 23.2 52.4c-52.5 40.8-123-21.7-137.7-78.5c-22.6-87 71.6-129.9 136.5-109.4c55.6 17.6 20.3 108.3 77.9 120.1c33.5 6.8 56.6-30.9 66-61.3c6.2-20.3-10.6-54-44.2-55.3c-31-1.2-65.4 4.4-78.4 35.5c-2.6 6.2-4.3 12.8-5.2 19.6c-2.2 18.2 22.2 38.5 20.2 66.5" stroke="#007cbf" opacity="0" stroke-width="4" fill="none" clip-rule="evenodd" stroke-linecap="round" stroke-linejoin="round" stroke-miterlimit="1.5" transform="translate(223.6,563.4) translate(-204.1,-172.6)"/></g><g transform="translate(250,304.9) translate(-210,-95.1)"/><script xlink:href="keyshapejs-1.1.0.min.js"/><script><![CDATA[if(KeyshapeJS.version.indexOf('1.')!=0)throw Error('Expected KeyshapeJS v1.*.*');window.ks=document.ks=KeyshapeJS;(function(ks){
ks.animate("#Bluetangle-1",[{p:'opacity',t:[1500,1875,2250],v:[1,0,1],e:[[3,1],[3,1],[0]]},{p:'strokeDashoffset',t:[0,1500,2250,3542],v:[5225.4,-400,-400,5225.4],e:[[1,0,0,.6,1],[1,.4,0,.6,1],[1,0,0,.6,1],[0]]},{p:'d',t:[0,1500,2250,3542],v:["path('M81,861C62.6,783.1,107.2,738.1,112.4,677C118.1,611.1,60.4,505.9,47.5,470.9C42.5,457.3,42.4,439.4,51.6,427.2C67.5,406,99.3,404,112.4,429.8C119.6,443.9,116.2,488.2,95.3,485.3C74.7,482.5,75.6,456.2,81.9,440.3C94.2,409.6,126.1,383.5,157.3,401C176.3,411.7,167.7,442.9,163.1,459.7C151.5,501.5,141,541.1,189.4,558.5C198.3,561.6,207.1,562.6,216.3,561.3C272,553.6,309.8,487.6,308.8,430.4C308,387.2,276.6,342.9,232.8,357.6C206.2,366.6,204.3,403.5,222.7,422.6C256.4,457.6,323.5,427,318.1,374.2C311.6,311.8,237.1,296.9,191.3,303.5C172.7,306.1,148.8,312.3,139.8,332.4C131.8,350.1,141.3,368,152.7,380.9C172.3,403.3,213.2,423.5,216.2,458.3C218.2,482.1,192.9,503.3,173.6,507.6C134.4,516.4,75.2,491.5,78.3,440.1C80.8,397,130.5,351.4,168.1,348C205.7,344.6,242.8,372.3,239.2,416.4C238,431.4,232.4,445.5,226.1,458.8C221.5,468.5,216.3,478.6,209.3,486.6C188.3,510.4,150.9,508,128.5,488.4C93.8,458.1,72,394.3,17.5,433.3C-2.8,447.8,-0.5,476,9.5,497.2C27.8,536,80.2,577.1,115.2,536.9C121.3,529.9,125.4,521.6,128.7,512.7C135.7,494,141.8,471.9,133.9,452.4C115.4,406.3,34.7,361,75.4,296.2C113.9,234.8,222.1,245.4,252.5,311.5C285.1,382.4,194.1,455.4,234.9,524.1C253.8,555.7,294,557.9,322.9,543.9C362.5,524.6,389.1,475.6,384.9,428.6C382.4,400.5,345.9,385.4,328.3,406.9C290.9,452.4,307.8,546.5,230.8,550.8C199.6,552.5,158.1,545.5,134,521.9C113.7,501.9,113.3,469,138,452.9C176.5,427.9,186.9,484.5,157.7,507.2C105.2,548,32.9,487.2,18.1,430.4C-4.5,343.5,94.3,298,159.2,318.5C214.8,336,177.8,429.7,235.4,441.5C268.9,448.4,293.1,412.7,302.5,382.3C308.8,362,288.1,324.6,254.6,323.3C223.5,322.1,191.8,329.4,178.8,360.4C176.2,366.7,174.5,373.3,173.7,380C171.4,398.3,175.8,417.4,183.2,434.1C187.3,443.3,195.3,452.8,196,463.1')","path('M182,875C163.6,797.1,164,740,112.4,677C60.9,614,60.4,505.9,47.5,470.9C42.5,457.3,42.4,439.4,51.6,427.2C67.5,406,99.3,404,112.4,429.8C119.6,443.9,116.2,488.2,95.3,485.3C74.7,482.5,75.6,456.2,81.9,440.3C94.2,409.6,126.1,383.5,157.3,401C176.3,411.7,167.7,442.9,163.1,459.7C151.5,501.5,141,541.1,189.4,558.5C198.3,561.6,207.1,562.6,216.3,561.3C272,553.6,309.8,487.6,308.8,430.4C308,387.2,285.8,350.3,242,365C215.4,374,209.6,395.9,228,415C261.7,450,323.5,427,318.1,374.2C311.6,311.8,264.8,297.9,219,304.5C200.4,307.2,153,316.9,144,337C136.1,354.7,141.3,368,152.7,380.9C172.3,403.3,213.2,423.5,216.2,458.3C218.2,482.1,192.9,503.3,173.6,507.6C134.4,516.4,75.2,491.5,78.3,440.1C80.8,397,103.9,350.4,141.5,347C179.1,343.6,242.8,372.3,239.2,416.4C238,431.4,232.4,445.5,226.1,458.8C221.5,468.5,216.3,478.6,209.3,486.6C188.3,510.4,150.9,508,128.5,488.4C93.8,458.1,72,394.3,17.5,433.3C-2.8,447.8,5.5,463.3,15.5,484.5C33.9,523.3,86.2,564.5,121.2,524.2C127.3,517.2,125.4,521.6,128.7,512.7C135.7,494,141.8,471.9,133.9,452.4C115.4,406.3,35.9,382.7,76.5,318C115.1,256.6,222.1,245.4,252.5,311.5C285.1,382.4,194.1,455.4,234.9,524.1C253.8,555.7,294,557.9,322.9,543.9C362.5,524.6,370.7,473.1,366.5,426C364,397.9,345.9,385.4,328.3,406.9C290.9,452.4,307.8,546.5,230.8,550.8C199.6,552.5,158.1,545.5,134,521.9C113.7,501.9,117.8,476.5,142.5,460.5C181,435.5,186.9,484.5,157.7,507.2C105.2,548,32.9,487.2,18.1,430.4C-4.5,343.5,94.3,298,159.2,318.5C214.8,336,177.8,429.7,235.4,441.5C268.9,448.4,293.1,412.7,302.5,382.3C308.8,362,288.1,324.6,254.6,323.3C223.5,322.1,191.8,329.4,178.8,360.4C176.2,366.7,174.5,373.3,173.7,380C171.4,398.3,183.8,417.2,191.2,434C195.3,443.2,203.3,452.6,204,463')","path('M182,875C163.6,797.1,164,740,112.4,677C60.9,614,60.4,505.9,47.5,470.9C42.5,457.3,42.4,439.4,51.6,427.2C67.5,406,99.3,404,112.4,429.8C119.6,443.9,116.2,488.2,95.3,485.3C74.7,482.5,75.6,456.2,81.9,440.3C94.2,409.6,126.1,383.5,157.3,401C176.3,411.7,167.7,442.9,163.1,459.7C151.5,501.5,141,541.1,189.4,558.5C198.3,561.6,207.1,562.6,216.3,561.3C272,553.6,309.8,487.6,308.8,430.4C308,387.2,285.8,350.3,242,365C215.4,374,209.6,395.9,228,415C261.7,450,323.5,427,318.1,374.2C311.6,311.8,264.8,297.9,219,304.5C200.4,307.2,153,316.9,144,337C136.1,354.7,141.3,368,152.7,380.9C172.3,403.3,213.2,423.5,216.2,458.3C218.2,482.1,192.9,503.3,173.6,507.6C134.4,516.4,75.2,491.5,78.3,440.1C80.8,397,103.9,350.4,141.5,347C179.1,343.6,242.8,372.3,239.2,416.4C238,431.4,232.4,445.5,226.1,458.8C221.5,468.5,216.3,478.6,209.3,486.6C188.3,510.4,150.9,508,128.5,488.4C93.8,458.1,72,394.3,17.5,433.3C-2.8,447.8,5.5,463.3,15.5,484.5C33.9,523.3,86.2,564.5,121.2,524.2C127.3,517.2,125.4,521.6,128.7,512.7C135.7,494,141.8,471.9,133.9,452.4C115.4,406.3,35.9,382.7,76.5,318C115.1,256.6,222.1,245.4,252.5,311.5C285.1,382.4,194.1,455.4,234.9,524.1C253.8,555.7,294,557.9,322.9,543.9C362.5,524.6,370.7,473.1,366.5,426C364,397.9,345.9,385.4,328.3,406.9C290.9,452.4,307.8,546.5,230.8,550.8C199.6,552.5,158.1,545.5,134,521.9C113.7,501.9,117.8,476.5,142.5,460.5C181,435.5,186.9,484.5,157.7,507.2C105.2,548,32.9,487.2,18.1,430.4C-4.5,343.5,94.3,298,159.2,318.5C214.8,336,177.8,429.7,235.4,441.5C268.9,448.4,293.1,412.7,302.5,382.3C308.8,362,288.1,324.6,254.6,323.3C223.5,322.1,191.8,329.4,178.8,360.4C176.2,366.7,174.5,373.3,173.7,380C171.4,398.3,183.8,417.2,191.2,434C195.3,443.2,203.3,452.6,204,463')","path('M81,861C62.6,783.1,107.2,738.1,112.4,677C118.1,611.1,60.4,505.9,47.5,470.9C42.5,457.3,42.4,439.4,51.6,427.2C67.5,406,99.3,404,112.4,429.8C119.6,443.9,116.2,488.2,95.3,485.3C74.7,482.5,75.6,456.2,81.9,440.3C94.2,409.6,126.1,383.5,157.3,401C176.3,411.7,167.7,442.9,163.1,459.7C151.5,501.5,141,541.1,189.4,558.5C198.3,561.6,207.1,562.6,216.3,561.3C272,553.6,309.8,487.6,308.8,430.4C308,387.2,276.6,342.9,232.8,357.6C206.2,366.6,204.3,403.5,222.7,422.6C256.4,457.6,323.5,427,318.1,374.2C311.6,311.8,237.1,296.9,191.3,303.5C172.7,306.1,148.8,312.3,139.8,332.4C131.8,350.1,141.3,368,152.7,380.9C172.3,403.3,213.2,423.5,216.2,458.3C218.2,482.1,192.9,503.3,173.6,507.6C134.4,516.4,75.2,491.5,78.3,440.1C80.8,397,130.5,351.4,168.1,348C205.7,344.6,242.8,372.3,239.2,416.4C238,431.4,232.4,445.5,226.1,458.8C221.5,468.5,216.3,478.6,209.3,486.6C188.3,510.4,150.9,508,128.5,488.4C93.8,458.1,72,394.3,17.5,433.3C-2.8,447.8,-0.5,476,9.5,497.2C27.8,536,80.2,577.1,115.2,536.9C121.3,529.9,125.4,521.6,128.7,512.7C135.7,494,141.8,471.9,133.9,452.4C115.4,406.3,34.7,361,75.4,296.2C113.9,234.8,222.1,245.4,252.5,311.5C285.1,382.4,194.1,455.4,234.9,524.1C253.8,555.7,294,557.9,322.9,543.9C362.5,524.6,389.1,475.6,384.9,428.6C382.4,400.5,345.9,385.4,328.3,406.9C290.9,452.4,307.8,546.5,230.8,550.8C199.6,552.5,158.1,545.5,134,521.9C113.7,501.9,113.3,469,138,452.9C176.5,427.9,186.9,484.5,157.7,507.2C105.2,548,32.9,487.2,18.1,430.4C-4.5,343.5,94.3,298,159.2,318.5C214.8,336,177.8,429.7,235.4,441.5C268.9,448.4,293.1,412.7,302.5,382.3C308.8,362,288.1,324.6,254.6,323.3C223.5,322.1,191.8,329.4,178.8,360.4C176.2,366.7,174.5,373.3,173.7,380C171.4,398.3,175.8,417.4,183.2,434.1C187.3,443.3,195.3,452.8,196,463.1')"],e:[[1,.4,0,.6,1],[1,.4,0,.6,1],[1,.4,0,.6,1],[0]]}],
"#Bluetangle-2",[{p:'opacity',t:[1500,1875,2250],v:[0,1,0],e:[[3,1],[3,1],[0]]}],
{autoremove:false,markers:{"1":0,"1a":1500,"2":2250}}).range(0,3542);
if(document.location.search.substr(1).split('&').indexOf('global=paused')>=0)ks.globalPause()})(KeyshapeJS);
]]></script></svg>