<svg xmlns="http://www.w3.org/2000/svg" xmlns:xlink="http://www.w3.org/1999/xlink" width="100%" height="100%" viewBox="0 0 500 1500"><g clip-rule="evenodd" fill-rule="evenodd" stroke-linecap="round" stroke-linejoin="round" stroke-miterlimit="1.5" transform="translate(250,801.4) translate(-210,-799.3)"><g transform="translate(210,805) translate(-212,-807.1)"><path id="BlueStringJank" d="M216.3 242.9c5.8-10.3 8.4-51.2 6.9-63.2c-3.1-25.1 .3-52.1-15.3-50.5c-31.1 3.1-26.9 35.6-24.1 40.5c6.2 10.5 17.3 2.2 20.4 1.2c13.5-4.2 41.5-20.1 52.6-6.1c7.5 9.5-18.5 21.8-23.2 32.7c-10.6 24.9 31.1 24.9 37.9 22.8c21.1-6.3 39-32.7 46.5-53c7.1-19.5 11.7-45.6-1.6-63.3c-8.1-10.8-33.3-21.9-42.8-6.5c-5.6 9.3 4 13.4 11.8 10.9c26.3-8.4 29.1-38.2 11.7-56.5c-28.9-30.5-89.5-16.2-117 8.7c-31 28.2-17.6 96.2 27 102.4c7.1 1 14 .1 20.8-1.9c9.8-2.9 27.5-16.3 34.9-4.6c6.8 10.7-7 30.5-12.6 40.2c-14.9 25.7-44.9 39.7-74.6 37.2c-30.7-2.5-59.5-16.3-67.5-47c-1.7-6.6-3.3-13.6-1.5-20.3c5-18.6 23.2-31.5 29.5-50.2c8.4-24.8 4.2-54.1-25.5-59.5c-4.2-0.7-8.5-1-12.8-0.4c-38.8 5.2-60.7 57.5-35.9 88.8c7.7 9.8 19.6 13.3 31.2 16.5c27.5 7.6 68.8 14.4 70.8 49.4c.4 6.1-2.9 16.3-5 22c-2.6 7-7.8 9.8-12.7 15.3c-7.3 8.3-16.5 16.4-27.4 19.4c-40.9 11.3-85.1-35.9-88.5-73.9c-1.7-18 3.3-37.8 6.6-55.3c5.9-30.9-0.4-65.3 18.5-92.2c6.8-9.6 18-22.2 28.2-28c13.2-7.5 29.9-5.5 44 .7c31.5 14.1 23.8 47 17.7 73.7c-11.1 48-29.1 104.3 3.1 148c4.8 6.5 10.4 16.4 16.6 21.4c38.8 31.5 85.4 2.6 111.6-32.8c12.8-17.3 29.2-62.2 7-79.3c-19.2-14.8-47.2 1.9-61.8 15.5c-33.2 31.2-59.9 106.3-6.9 133.9c34.2 17.9 79.6 4.2 111-12.2c14.1-7.4 28.5-17 37.8-30.5c18.8-27.1 19-66.8 17.5-98.7c-0.8-17.9-3.6-33.7-8.6-50.9c-2.6-8.8-4.9-18.4-12.4-24.2c-28.1-21.7-63.5 8.1-74.6 33.2c-11 24.7-11.2 52.1-17.5 78.1c-9.2 37.7-28.4 80.1-54.9 109c-18.5 20.3-46.4 44.1-74.1 24.5c-18.2-12.8-31.7-41.1-28-62.7c3.9-22.3 19.7-36.8 43.9-32.8c33.4 5.6 50.1 38.2 64.5 63.7c17.1 30.5 50.9 59.5 86.9 50.4c10.2-2.6 19.4-7.1 27.7-13.7c12.6-9.9 25.6-21.3 35.3-34.1c11.4-15.1 20.2-30.4 26.4-48.3c4.3-12.2 9.7-28.8 8.6-41.9c-2.9-35.2-26.9-62.6-61.4-71.8c-23.4-6.2-46-9.4-69.2-17.1c-9.8-3.3-19.4-5.6-25-14.8c-5.1-8.2-8.1-15.1-9.4-24.6c-3.1-22.9 10.7-46.9 35.2-48.6c15.8-1 29.7 2.1 43.9 8.3c6.9 2.9 14.9 6.2 19.9 12.1" fill="none" stroke="#007cbf" stroke-width="4px" opacity="0" transform="translate(217.2,180.9) translate(-217.2,-180.9)"/><path id="BlueString1" d="M365.1 671.2c-24.7-6.8 2.2-18.7 27-18.7c21.7 0 30.1 3.4 29.9 6.2c-0.2 3.5-13.8 6.6-29.9 6c-21.1-0.8-33.1-13.4-36.3-19.5c-10.5-19.9 9.5-31.8 3.3-54.3c-5.2-18.9-24.6-27.9-24.2-27.8c-1.1 2.2-3.2 4-5.9 4.6c3.9-0.8 6.7-4.3 6.7-8.3c0-4.8-3.8-8.6-8.6-8.6c-1.6 0-2.7 .4-4.1 1c-5.6-11.5-30.6-38.5-42.4-42.4c-11.8-3.9-31.8-7.4-75.7-6.6c-24.3 .4-42.1 2-53 6.4c-3.7 1.8-12.1 10.4-12.6 10.6c5.6-3.3 31.8-6.8 54.1-6.9c23.1-0.1 53 1.2 65.7 3.8c.4 .1-2.5 3.3-4.6 12.8c-1.9 8.2-2.5 22.3-2.6 23.4c0 .1 15.3 4.6 15.3 4.6c0-4.5 .2-38.3 6.6-41.7c6.8-3.6 14 2.9 16.5 4.5c4.8 3.3 25.4 26.1 23.7 27.8c-0.8 1-6.7 2.5-11.7 2.9c-8.1-0.8-28.3 2.5-28.3 2.5c0 0-3.4-2.3-0.9-6l4.2-0.2c0 0-0.2-5.3 1.5-8.2c1.8-2.9 17.7-1.4 20.7-0.7c4.2 .9 7.1 3.9 7.2 5.9c0 2 0 5.5-2.3 6.3c-2.3 .8-10.1 .1-15.1 1c-6.2 1.2-22.1 5.9-22.1 5.9c0 0-14.9-4.5-15.3-4.6c-8.1-1.2-32.1-7.7-97.1-7.1c-24.5 .2-49.5 4.7-49.5 4.7c0 0 20.5-22.9 34-30.7c.6-0.2 8.9-8.8 12.6-10.6c10.9-4.4 28.7-6 53-6.4c43.9-0.8 63.9 2.7 75.7 6.6c11.8 3.9 34.8 28.6 42.4 42.4c-2.4 1.5-4.4 4.4-4.4 7.6c0 4.7 3.8 8.5 8.5 8.5c.7 0 1.3 0 1.9-0.2c3.9-0.8 6.2 25 6.7 40.3c.4 9.9-1.9-22.5-10.6-20.5c-8.2 1.8-6.6 38-6.4 41.1c-1.3 .6-14.7 5.7-25.6 10c.8 5.9 2.1 9.5 3.5 9.5c.8 0 28.6 .5 28.6 .5c2.7 .1 5.2-12.8 5.5-28.6c.3-15.9-1.7-28.8-4.5-28.9c-2.8 0-5.3 12.8-5.6 28.7c-0.2 15.8 1.8 28.8 4.6 28.8c0 0-27.8-0.5-28.6-0.5c-1.4 0-2.7-3.6-3.5-9.5c-7.8 3.2-13.6 5.8-14.4 6.2c0 .1-0.2-54.2-13.8-52.4c-15.1 2-14 54.8-14.2 60.6c-0.1 1.9-15.2 2-30.3 1.7c1.7 10.7 5 18.8 8.7 18.9l35 .6c-4.3-0.1-7.6-16.3-7.2-36.3c.4-20 4.2-36.1 8.5-36c4.4 0 7.6 16.3 7.3 36.3c-0.4 20-4.2 36.1-8.6 36l-35-0.6c-3.7-0.1-7-8.2-8.7-18.9c-15.2-0.3-30.5-1.1-30.5-1.1c0 0-14.7-11.8-18.1-12.3c-3.4-0.6-44.5-1.2-51.8-1.3c0 0-39.9-0.7-39.9-0.6c.8 16.4 3.5 28.3 8.4 28.4c0 0-29.1-0.7-34.8-0.7c-5.8 0-8.6-17.5-8.6-17.5l8-0.1c0 0 8.3-9.8 11.8-10.1c2.1-0.2 19.5 0 34.4 .3c-1.6 15.9-6 28.2-10.8 28.1l-34.8-0.7c-3.8 0-6.9-6.9-8.6-17.5c-3.5 0-7.1-0.2-8.8-0.5c-4.1-0.8-2.4-45.4-1.2-52.6c.4-2.1 1-5.4 2.1-9c1.7-5.5 4.7-12.8 8.9-16.7c1.2-1.1 2.8-2.1 4.7-3c-1.9 .9-3.5 1.9-4.7 3c-4.2 3.9-6.8 9.9-8.5 15.3c8.1 4.2 19.5 13.9 19.5 13.9l12.5-17.4c0 0-12.8 17-12.5 17.4c2.6 2.8 7.1 9.9 10 14.3c3.4 5.2 6.2 12.9 12.8 13.2c6.7 .2 72.7 1.9 78.1 .5c5.4-1.4 19.4-17.1 22.7-21.9c2.9-4.3 11.1-7.5 19.5-9.1l-18.1-14.4l18.1 14.4c1.2-0.2 2.5-0.5 3.7-0.6c9.6-1.4 32.6-4.2 38.4-8.6c8.8-6.8 5.5-20.5 2.2-19.9c-3.2 .7-10.5 1.5-27 5.5c-16.5 4.1-25.8 8.4-35.1 9.2c-4.7 .4-32.2 2.7-58.4 2.6c-26.1-0.1-50.8-2.5-54.4-2.6c-7.2-0.1-18.8-14.8-18.8-14.8c6.2-2.9 14.7-4.4 16.4-4.6c0 0 6.5-6.1 11.6-8.5c5.2-2.4 12.2-3.5 17.8-6.5c2.8-1.6-2.6-5.4-2.4-9.2c.1-3.4 3.6-4.3 5.2-5.9c2.3-2.2 15.3-0.2 17.5-2.4c4.3-4.5 127.5-125.4 103.8-276.1c-7-44.3 7.3-64.1 5.8-76.1c-3.1-25.1-4.5-53-20.1-51.4c-31.2 3.2-25.4 37.7-22.6 42.6c6.2 10.5 18.4 6.8 21.5 5.8c13.5-4.2 40.4-24.7 51.5-10.7c7.5 9.5-20.5 23.1-25.2 34.1c-10.6 24.8 34.8 20.5 41.6 18.5c21.1-6.4 38.8-25.4 46.2-45.7c7.1-19.5 10.3-50-3-67.7c-8.1-10.8-33.3-21.9-42.8-6.5c-5.6 9.3 4 13.4 11.8 10.9c26.3-8.4 29.1-38.2 11.7-56.5c-28.9-30.5-88.6-13.2-116.1 11.8c-31 28.2-18.5 93.1 26.1 99.3c7.1 1 14 .1 20.8-1.9c9.8-2.9 27.5-16.3 34.9-4.6c6.8 10.7-4 32.1-9.6 41.8c-14.9 25.7-47.7 42.4-77.4 40c-30.7-2.6-59.7-20.7-67.7-51.4c-1.7-6.6-3.3-13.6-1.5-20.3c5-18.6 23.2-31.5 29.5-50.2c8.4-24.8 4.2-54.1-25.5-59.5c-4.2-0.7-8.5-1-12.8-0.4c-38.8 5.2-60.7 57.5-35.9 88.8c7.7 9.8 19.6 13.3 31.2 16.5c27.5 7.6 65.3 14.7 67.4 49.7c.3 6.1-0.6 12.4-2.7 18.1c-2.5 7-6.7 13.4-11.6 18.9c-7.3 8.3-16.5 16.4-27.4 19.4c-40.9 11.3-85.1-35.9-88.5-73.9c-1.7-18 4.4-35.8 7.8-53.3c5.9-30.9 1.4-68.4 20.3-95.4c6.7-9.6 16.6-17.4 26.7-23.1c13.2-7.5 28.4-9.2 42.5-3c31.5 14.1 20.7 47.4 14.6 74.1c-11 48-26 103.9 6.2 147.6c4.8 6.5 10.6 12.2 16.9 17.3c38.7 31.4 85.1 6.7 111.3-28.7c12.8-17.3 29.2-62.2 7-79.3c-19.2-14.8-47.2 1.9-61.8 15.5c-33.2 31.2-59.9 106.3-6.9 133.9c34.2 17.9 78.7 3.1 110.1-13.3c14.2-7.4 29.4-15.9 38.7-29.4c18.8-27.1 21.7-68.6 20.3-100.5c-0.8-17.9-4-35.2-9-52.3c-2.6-8.8-5.2-17.7-12.7-23.6c-28-21.7-65.6 10.7-76.7 35.8c-11 24.7-13.4 52.2-19.8 78.2c-9.2 37.7-26.1 80-52.6 108.9c-18.5 20.3-49.1 45.3-76.8 25.7c-18.3-12.8-27.8-40.3-24-61.9c3.8-22.3 18.4-38.8 42.6-34.8c33.4 5.6 49.2 44.1 63.6 69.6c17.2 30.4 51.8 53.6 87.8 44.5c10.2-2.6 19.4-7.1 27.7-13.7c12.6-9.8 23.4-22.6 33-35.3c11.4-15.1 20.4-31.6 26.6-49.5c4.2-12.3 8-25.7 7-38.8c-2.9-35.2-23.2-63.3-57.7-72.5c-23.4-6.2-48.4-5.4-71.5-13.2c-9.9-3.3-21.1-8.7-26.7-17.9c-5.1-8.3-6.8-18.3-8.1-27.7c-3.1-22.9 12.1-47.5 36.6-49.2c15.7-1.1 32.2 1.2 46.3 7.3c6.9 3 13.8 10.1 18.8 16" fill="none" stroke="#007cbf" stroke-width="4px" stroke-dashoffset="-3550" stroke-dasharray="4500 10000" transform="translate(226,344.8) translate(-226,-344.8)"/><path id="BlueString2" d="M365.1 671.2c-9.2-2.5-11.2-5.8-8.9-8.9c2-2.5 6.8-4.9 13.1-6.7c1.8-0.5 3.7-1 5.7-1.4c2.6-0.5 5.2-0.9 7.9-1.2c3-0.3 6.1-0.5 9.2-0.5c5 0 9.2 .2 12.9 .5c3.9 .3 7 .8 9.5 1.4c5.3 1.2 7.6 2.8 7.5 4.3c-0.1 1.3-2 2.6-5.2 3.6c-2 .6-4.5 1.2-7.4 1.6c-2.9 .4-6.3 .7-9.9 .8c-2.4 .1-4.9 .1-7.4 0c-3.5-0.1-6.7-0.6-9.7-1.3c-3.6-0.8-6.8-2-9.7-3.4c-4.3-2-7.9-4.6-10.6-7.1c-3.1-2.8-5.2-5.6-6.3-7.7c-1.4-2.6-2.3-5.1-2.7-7.5c-0.5-2.5-0.5-4.9-0.2-7.2c.4-4.2 1.8-8.3 3.3-12.5c.9-2.4 1.8-4.9 2.5-7.5c.5-1.8 1-3.8 1.3-5.8c.6-4.2 .5-8.8-0.9-13.8c-1-3.7-2.5-7-4.3-9.9c-2-3.1-4.3-5.9-6.6-8.2c-2-2-4.1-3.6-5.9-5c-4.3-3.2-7.6-4.8-7.4-4.7c-1.1 2.2-3.2 4-5.9 4.6c3.9-0.8 6.7-4.3 6.7-8.3c0-4.8-3.8-8.6-8.6-8.6c-1.6 0-2.7 .4-4.1 1c-2.1-4.3-6.8-10.7-12.6-17.3c-9.7-11.1-22.4-22.6-29.8-25.1c-5.7-1.9-13.3-3.7-24.6-5c-12.1-1.3-28.4-2.1-51.1-1.6c-4.9 .1-9.5 .2-13.9 .4c-3.4 .1-6.8 .3-9.9 .6c-5.6 .4-10.6 .9-15.1 1.7c-5.5 .9-10.2 2.1-14.1 3.7c-1.3 .6-3.2 2.1-5.1 3.7c-3.5 3.1-7.1 6.8-7.5 6.9c1.7-1 5.3-2.1 10.2-3c1.8-0.4 3.9-0.7 6.1-1.1c3.2-0.4 6.7-0.9 10.4-1.3c2-0.2 4-0.4 6-0.6c3.5-0.2 7-0.5 10.6-0.6c3.6-0.2 7.2-0.3 10.8-0.3c4.5-0.1 9.3 0 14.1 .1c2.5 0 5 .1 7.5 .2c2.8 0 5.7 .1 8.5 .3c4.7 .2 9.2 .4 13.5 .7c4.7 .3 9.1 .7 13 1.1c3.6 .4 6.7 .9 9.1 1.4c.4 .1-2.5 3.3-4.6 12.8c-0.8 3.3-1.3 7.5-1.7 11.5c-0.6 5.9-0.8 11.3-0.9 11.9c0 .1 3 1 6.3 2c4.2 1.2 9 2.6 9 2.6c0-2.5 0-14.2 1.2-24.6c.4-3.2 .8-6.3 1.4-8.9c1-4.2 2.2-7.3 4-8.2c2.6-1.4 5.4-1.3 7.9-0.5c3.9 1.3 7.1 4 8.6 5c1.7 1.2 5.5 4.9 9.6 9.3c2.4 2.6 4.9 5.4 7.1 8c4.4 5.2 7.8 9.8 7 10.6c-0.8 .9-6.7 2.4-11.7 2.8c-8.1-0.8-28.3 2.5-28.3 2.5c0 0-3.4-2.3-0.9-6l4.2-0.2c0 0-0.2-5.3 1.5-8.2c.9-1.4 5.2-1.8 9.7-1.7c4.6 .1 9.5 .6 11 1c4.2 .9 7.1 3.9 7.2 5.9c0 2 0 5.5-2.3 6.3c-2.3 .8-10.1 .1-15.1 1c-3 .6-8.3 2-13 3.3c-4.9 1.4-9.1 2.6-9.1 2.6c0 0-14.9-4.5-15.3-4.6c-2-0.3-5-0.9-9.3-1.7c-2.5-0.4-5.6-0.9-9.1-1.4c-3.5-0.5-7.4-1-12-1.5c-4.4-0.4-9.4-0.9-15-1.3c-4.3-0.2-9-0.5-14-0.7c-3.2-0.1-6.5-0.2-10-0.3c-4-0.1-8.1-0.2-12.5-0.2c-4.8-0.1-9.8-0.1-15.2 0c-3.1 0-6.2 .1-9.3 .2c-3.6 .2-7.1 .5-10.5 .7c-5.4 .5-10.5 1.1-14.8 1.6c-2.5 .3-4.7 .6-6.6 .9c-5.2 .8-8.3 1.3-8.3 1.3c0 0 3.1-3.4 7.6-8.1c2.2-2.2 4.7-4.7 7.3-7.2c2.2-2.1 4.5-4.2 6.8-6.2c1.8-1.6 3.7-3.1 5.5-4.5c2.3-1.9 4.7-3.5 6.8-4.7c.5-0.2 8.9-8.8 12.6-10.6c2.4-1 5.2-1.8 8.2-2.5c10.9-2.6 25.9-3.6 44.8-3.9c2.6-0.1 5.2-0.1 7.6-0.1c2.6-0.1 5.1-0.1 7.5 0c5.4 0 10.4 .1 15 .3c3.2 .1 6.2 .2 9 .4c10.2 .7 18.1 1.7 24.4 2.9c4.9 .9 8.9 2 12.2 3.1c3.6 1.2 8.2 4.3 13.1 8.4c2.7 2.2 5.4 4.8 8.1 7.5c1.9 1.8 3.8 3.8 5.6 5.8c3 3.4 5.9 6.8 8.5 10.1c1.2 1.6 2.3 3.1 3.4 4.6c1.5 2.2 2.7 4.2 3.7 6c-2.4 1.5-4.5 4.4-4.5 7.6c0 4.7 3.9 8.5 8.6 8.5c.7 0 1.3 0 1.9-0.2c1.4-0.3 2.5 2.7 3.5 7.4c.5 2.5 1 5.4 1.4 8.5c.3 2.5 .6 5.3 .8 8c.2 2.5 .4 5 .6 7.4c.2 3.2 .3 6.2 .4 9c.2 6.6-0.7-5.8-4-14.1c-1.6-4-3.7-7.1-6.6-6.4c-2.4 .5-3.9 4-5 8.6c-0.5 2.6-0.9 5.4-1.1 8.4c-0.9 10.5-0.4 22.4-0.3 24.1c-0.6 .2-3.6 1.4-7.7 3c-2.4 1-5.3 2.1-8.4 3.3c-3.1 1.2-6.4 2.5-9.5 3.7c.8 5.9 2.1 9.5 3.5 9.5c.3 0 3.1 .1 6.9 .1c1.8 .1 3.9 .1 6 .1c2.2 .1 4.4 .1 6.5 .2c5.1 .1 9.2 .1 9.2 .1c1.3 0 2.6-3.1 3.6-8.1c.4-1.7 .6-3.5 .9-5.5c.5-4.4 .9-9.5 1-15c.1-4.5 0-8.8-0.3-12.5c-0.6-9.7-2.2-16.4-4.2-16.4c-1.9 0-3.7 6-4.7 14.8c-0.5 4.1-0.8 8.9-0.9 13.9c-0.1 6 .2 11.6 .6 16.2c.2 2.1 .5 3.9 .8 5.6c.8 4.4 1.9 7 3.2 7c0 0-27.8-0.5-28.6-0.5c-1.4 0-2.7-3.6-3.5-9.5c-2.5 1.1-4.8 2-6.8 2.9c-4.2 1.7-7 3-7.6 3.3c0 .1 0-3.5-0.3-8.8c-0.1-2.8-0.3-6-0.6-9.5c-0.4-4.3-0.9-8.9-1.6-13.3c-0.9-5.4-2.1-10.4-3.7-14.2c-1.9-4.3-4.4-7-7.6-6.6c-3.9 .5-6.8 4.6-8.9 10.3c-1.5 4.4-2.6 9.8-3.4 15.5c-0.8 5.8-1.3 11.9-1.5 17.3c-0.5 8.6-0.4 15.6-0.4 17.5c-0.1 .9-3.7 1.4-9.2 1.7c-2.2 .1-4.8 .1-7.5 .1c-4.2 .1-8.9 0-13.6-0.1c.7 4.1 1.5 7.8 2.6 10.8c.7 2.2 1.6 4 2.5 5.3c1.1 1.8 2.4 2.8 3.6 2.8l6.9 .1l8 .2l20.1 .3c-2.6 0-4.8-5.8-6-14.7c-0.9-6-1.4-13.5-1.2-21.6c.1-7.1 .7-13.8 1.6-19.4c1.6-10 4.1-16.7 6.9-16.6c3 0 5.5 7.8 6.6 19.1c.2 1.7 .4 3.6 .5 5.5c.2 3.6 .2 7.6 .2 11.7c-0.1 3.2-0.2 6.3-0.5 9.3c-0.2 3-0.5 5.9-0.9 8.6c-0.5 3.4-1.1 6.5-1.8 9.1c-1.5 5.7-3.4 9.1-5.4 9l-13.1-0.2l-21.9-0.4c-3.7-0.1-7-8.2-8.7-18.9c-2.8 0-5.6-0.1-8.4-0.2c-2.4-0.1-4.8-0.1-7-0.2c-2.6-0.1-5-0.2-7-0.3c-4.9-0.2-8.1-0.4-8.1-0.4c0 0-4.2-3.4-8.7-6.6c-3.9-2.8-7.8-5.5-9.4-5.7c-0.9-0.2-4.4-0.3-9.3-0.5c-2.7 0-5.8-0.1-9-0.2c-3.9-0.1-8-0.2-12-0.2c-4.1-0.1-8.1-0.2-11.5-0.2c-4.6-0.1-8.3-0.1-10-0.2c0 0-4.8 0-11-0.1c-6.5-0.2-14.5-0.3-20.5-0.4c-4.9-0.1-8.4-0.1-8.4-0.1c.1 2.6 .3 5.2 .5 7.5c.3 2.8 .7 5.4 1.1 7.8c.4 2.5 .9 4.7 1.5 6.5c1.4 4.1 3.1 6.5 5.3 6.6c0 0-5.1-0.1-11.5-0.3c-2.9 0-6-0.1-9-0.1c-6.3-0.2-12.1-0.3-14.3-0.3c-2.6 0-4.6-3.5-6-7.5c-1.7-4.7-2.6-10-2.6-10l8-0.1c0 0 8.3-9.8 11.8-10.1c.7-0.1 3.4-0.1 7.1-0.1c6.9 .1 17.6 .2 27.3 .4c-0.3 2.1-0.5 4.2-0.8 6.2c-0.5 3-1 5.7-1.7 8.2c-0.6 2.6-1.4 5-2.2 6.9c-1.8 4.3-3.9 6.8-6.1 6.8l-27-0.5l-7.8-0.2c-3.8 0-6.9-6.9-8.6-17.5c-3.5 0-7.1-0.2-8.8-0.5c-1.1-0.2-1.8-3.4-2.2-8.1c-0.1-1.7-0.2-3.6-0.3-5.6c-0.1-2.1-0.1-4.5-0.1-6.9c0-1.8 0-3.6 0-5.5c.1-3.7 .2-7.5 .3-11c.1-3.1 .3-6 .4-8.5c.3-3.2 .5-5.7 .7-7c.4-2.1 1-5.4 2.1-9c.9-2.9 2.2-6.4 3.8-9.5c1.4-2.8 3.1-5.4 5.1-7.2c1.2-1.1 2.8-2.1 4.7-3c-1.9 .9-3.5 1.9-4.7 3c-4.2 3.9-6.8 9.9-8.5 15.3c1.7 .9 3.5 2 5.3 3.2c1.7 1.1 3.4 2.3 4.9 3.4c5.1 3.7 9.3 7.3 9.3 7.3l6.2-8.6l6.3-8.8c0 0-12.8 17-12.5 17.4c1 1.1 2.4 2.9 3.8 4.9c2.1 3.1 4.4 6.8 6.2 9.4c1.2 1.9 2.4 4.1 3.7 6.2c2.3 3.6 4.9 6.8 9.1 7c1.3 0 5 .1 10.1 .3c2.6 0 5.7 .1 9 .2c4.2 .1 8.8 .2 13.5 .2c3.6 .1 7.3 .2 11 .2c2.7 .1 5.4 .1 8 .1c5.1 .1 9.9 .1 14 0c6.5 0 11.2-0.2 12.5-0.5c1.5-0.4 3.5-1.7 5.8-3.7c1.9-1.5 3.9-3.5 6-5.6c4.7-4.8 9.2-10.1 10.9-12.6c1.7-2.5 5.2-4.6 9.4-6.3c3.1-1.2 6.6-2.1 10.1-2.8l-9.9-7.9l-8.2-6.5l18.1 14.4c1.2-0.2 2.5-0.5 3.7-0.6c3.5-0.5 8.8-1.2 14.5-2.1c4.4-0.7 9-1.5 13.1-2.5c1.4-0.3 2.7-0.7 3.9-1.1c3.1-0.9 5.5-1.8 6.9-2.9c2.2-1.7 3.6-3.7 4.5-5.9c1.3-3.2 1.4-6.7 .9-9.4c-0.6-2.9-1.9-4.8-3.2-4.6c-1.9 .4-5.4 .8-11.4 2c-4 .8-9.1 1.9-15.6 3.5c-3.3 .8-6.3 1.6-9 2.4c-2.9 .9-5.5 1.7-7.9 2.4c-3.4 1-6.4 2-9.2 2.7c-3.2 .9-6.1 1.5-9 1.7c-1 .1-2.8 .3-5.4 .5c-2.6 .2-5.8 .4-9.5 .6c-2.7 .2-5.8 .4-9 .6c-2.1 .1-4.2 .2-6.5 .3c-4.1 .2-8.5 .3-13 .4c-2 .1-4 .1-6 .2c-3 0-6 0-9 0c-3 0-6 0-9-0.1c-2.1 0-4.1-0.1-6-0.2c-4.6-0.1-8.9-0.3-13-0.5c-2.8-0.2-5.5-0.3-8.1-0.5c-2.5-0.2-4.8-0.3-6.9-0.5c-6-0.4-10.1-0.8-11.4-0.8c-3.1-0.1-7.2-2.9-10.7-6.1c-1.9-1.8-3.8-3.7-5.2-5.2c-1.8-2-2.9-3.5-2.9-3.5c2.5-1.2 5.4-2.1 8.1-2.8c3.9-1.1 7.3-1.6 8.3-1.8c0 0 2.6-2.4 5.7-4.8c1.9-1.4 4-2.8 5.9-3.7c2.7-1.2 5.9-2.1 9.1-3.1c3-1 6-2 8.7-3.4c2.8-1.6-2.6-5.4-2.4-9.2c.1-3.4 3.6-4.3 5.2-5.9c2.3-2.2 15.3-0.2 17.5-2.4c3.3-3.4 73.7-72.6 98.4-170.8c8.1-32.4 11.2-68 5.4-105.3c-7-44.3 7.3-64.1 5.8-76.1c-3.1-25.1-4.5-53-20.1-51.4c-31.2 3.2-25.4 37.7-22.6 42.6c6.2 10.5 18.4 6.8 21.5 5.8" fill="none" stroke="#007cbf" stroke-width="4px" opacity="0" stroke-dasharray="5000 4200" transform="translate(226,344.8) translate(-226,-344.8)"/><path id="BlueString3" d="M81.4 1600.6c74-103.7-13.4-301.5 128.4-488.3c39.1-51.6 99.7-74.7 87.3-146c-18.1-103.3-108.7-53.7-161.9-154.2c-24.4-46.2-8.4-88.3 2.4-173.3c5.4-42.7 1.9-47.4 2.7-89.1c1.7-83.4 0-83.4 0-83.4l89.8-9.5l4.3 12.8v102.6h24.2v-4.9h-16.8v-68h31.8v28.6h-5.6v-22.1h-5.6v43.9h5.6v-21.8h5.6v39.4h-15v4.9h22.1c0 0 .1-107.4 .1-107.4h-0.1l-46.3 4.8v22.5v-22.5v22.5v-22.5l.1 22.5h46.2h-46.2l-4.7-10.7l-0.1 10.5h-81.5l-0.3 78.5h37.6l.3-78.5l-0.3 78.5h35.9l.2-78.5h8.1v84.3v-84.3l.1-10.5h-81.6l.1-15.9l-8 .8v32.7l-31.1 2.8l-49.2-11.8v37.1v-47.4l-4.6 .6v7.6c0 0-53.3-14.4-53.3-14.4l-0.1-7.3l223.6-25.8l-223.6 25.8l.1 7.3l53.3 14.4v40.8c-0.7 .8-4.8 .1-5.5 .8c-0.5 .5-1.6 .8-1.6 1.8c-0.1 1.2 1.6 2.5 .7 2.9c-1.7 1-4 1.4-5.6 2.1c-1.6 .8-3.7 2.7-3.7 2.7c-0.5 .1-3.2 .5-5.2 1.5c0 0 3.7 4.6 6 4.7c1.1 0 8.9 .8 17.2 .8c8.3 0 17-0.7 18.5-0.8c3-0.3 5.9-1.7 11.1-3c5.3-1.2 7.5-1.5 8.6-1.7c1-0.2 2.1 4.1-0.7 6.3c-1.9 1.4-9.2 2.3-12.2 2.7c-0.4 .1-0.8 .1-1.2 .2l-5.7-4.5l5.7 4.5c-2.6 .5-5.2 1.5-6.1 2.9c-1.1 1.5-5.5 6.5-7.2 6.9c-1.7 .5-22.7-0.1-24.8-0.1c-2.1-0.1-2.9-2.6-4-4.2c-0.9-1.4-2.4-3.7-3.2-4.6c-0.1-0.1 4-5.4 4-5.4l-4 5.4c0 0-3.6-3-6.2-4.3c.6-1.8 1.4-3.7 2.7-4.9c.4-0.3 .9-0.7 1.5-0.9c-0.6 .2-1.1 .6-1.5 .9c-1.3 1.2-2.3 3.6-2.8 5.3c-0.3 1.1-0.5 2.2-0.6 2.8c-0.4 2.3-1 16.5 .3 16.7c.6 .1 1.7 .2 2.8 .2c.5 3.3 1.5 5.5 2.7 5.5l11.1 .2c1.5 0 2.9-3.8 3.4-8.9c-4.7-0.1-10.2-0.1-10.9-0.1c-1.1 .1-3.7 3.2-3.7 3.2l-2.6 .1c0 0 .9 5.5 2.7 5.5c1.9 0 11.1 .2 11.1 .2c-1.6 0-2.4-3.8-2.7-9c0 0 12.6 .2 12.6 .2c2.4 .1 15.4 .2 16.4 .4c1.1 .2 5.8 3.9 5.8 3.9c0 0 4.8 .3 9.6 .4c.6 3.4 1.6 5.9 2.8 6l11.1 .2c1.4 0 2.6-5.1 2.7-11.5c.1-6.3-0.9-11.4-2.3-11.5c-1.4 0-2.6 5.1-2.7 11.5c-0.1 6.3 .9 11.4 2.3 11.5l-11.1-0.2c-1.2-0.1-2.2-2.6-2.8-6c4.8 .1 9.6 0 9.6-0.6c.1-1.8-0.3-18.5 4.5-19.1c4.3-0.6 4.4 16.6 4.4 16.6c.3-0.2 2.1-1 4.6-2c.2 1.9 .6 3 1.1 3c.2 0 9 .2 9 .2c-0.9-0.1-1.5-4.2-1.4-9.2c.1-5 .9-9.1 1.7-9.1c.9 .1 1.6 4.1 1.5 9.2c-0.1 5-0.9 9.1-1.8 9.1c0 0-8.8-0.2-9-0.2c-0.5 0-0.9-1.1-1.1-3c3.4-1.4 7.7-3 8.1-3.2c-0.1-1-0.6-12.4 2-13c2.8-0.6 3.5 9.6 3.4 6.5c-0.2-4.9-1-13-2.2-12.8c-0.2 .1-0.4 .1-0.6 .1c-1.5 0-2.7-1.2-2.7-2.7c0-1 .7-1.9 1.4-2.4c-2.4-4.4-9.7-12.2-13.4-13.4c-3.7-1.3-10.1-2.4-24-2.1c-7.7 .1-13.3 .6-16.8 2c-1.1 .6-3.8 3.3-4 3.3c-4.2 2.5-10.7 9.8-10.7 9.8c0 0 7.9-1.5 15.7-1.5c20.5-0.2 28.1 1.9 30.7 2.2c.1 .1 4.8 1.5 4.8 1.5c0 0 5.1-1.5 7.1-1.9c1.5-0.3 4 0 4.7-0.3c.8-0.2 .8-1.4 .8-2c-0.1-0.6-1-1.6-2.3-1.9c-1-0.2-6-0.6-6.6 .3c-0.5 .9-0.4 2.6-0.4 2.6h-1.4c-0.8 1.2 .3 1.9 .3 1.9c0 0 6.4-1 9-0.8c1.6-0.1 3.4-0.6 3.7-0.9c.5-0.5-6-7.8-7.5-8.8c-0.8-0.5-3.1-2.5-5.3-1.4c-2 1.1-2.1 11.8-2.1 13.2c0 0-4.8-1.4-4.8-1.5c.1-0.3 .2-4.8 .8-7.4c.7-3 1.6-4 1.5-4c-4-0.8-13.5-1.3-20.8-1.2c-7.1 0-15.4 1.1-17.2 2.1c.2 0 2.9-2.7 4-3.3c3.5-1.4 9.1-1.9 16.8-2c13.9-0.3 20.3 .8 24 2.1c3.7 1.2 11.7 9.7 13.4 13.4c.5-0.2 .8-0.3 1.3-0.3c1.5 0 2.8 1.2 2.8 2.7c0 1.3-0.9 2.4-2.2 2.6c.9-0.2 1.5-0.7 1.9-1.4c-0.1-0.1 6 2.8 7.7 8.8c1.9 7.1 4.7 14.1 8.1 14.3v14.5c0 0 89.4-0.4 89.4-0.4l55.2 .4v-124.9v-0.1l-4.2 13.2l4.2-13.2l-4.2 13.2l4.2-13.2l70.7-8.6l-60.3 7.4l-0.1 111.9c0 0 9.8 0 9.9 0c-2.8-7.1-2.7-3-5.2-10.7c-0.5-1.7 .1-5.5 .7-8.5c.2-0.9 .4-2 .6-3.1h-5.9h5.9c.4-2.1 .9-4.5 1.7-6.1c1-1.8 1.6-1.1 2.1-3.4c.3-1.1 0-2.5 .3-3.6c.9-3.1 2.9-4.7 3.4-8.1c.8-4.6-0.6-9.6 1.2-14c.4-1 1.8-0.4 2.3-1.3c.9-1.5 .8-3.6 1.5-5.3c.1-0.2 .3 .5 .5 .3c1-1.2 2-2.5 2.6-4.1c.3-0.7 .5-1.7 .6-2.5h-21.3h21.3c.1-0.9 .3-1.9 .6-2.6c.2-0.5 1.1 .3 1.2-0.2c.5-1.7 2.2-7.1 2.2-7.1c0 0 1.5 5.8 1.9 7.8c.1 .8 .3 1.6 .4 2.1h1.7l.1-45.3l30.1-3.6l29.6-3.6l-29.6 3.6l.1 48.9h-32c.8 2.9 1.7 1.8 2.6 6.6c.8 3.8 2.2 7.6 2.8 12.8c.3 2.7 2.7 4.3 2.7 7.4c.1 3.4-1 9.5-0.4 11.5c.3 1.3 2.2 1.2 2.5 2.5c.6 2.3-0.3 5 0 7.3h10h-10c0 .1 0 .3 0 .4c.3 1.2 1.5 1.6 1.9 2.7c.3 1-0.3 2.2-0.1 3.2c.2 1.3 1.3 2.2 1.4 3.5c.2 2.1-1.8 4-2.4 5.6c-0.5 1.5-0.6 3.3-1.2 4.7c-0.3 .8-1.5 1.3-1.5 2.2h15.3c-4.8-2.4-5.2-10.9-4.8-16.3c.2-2.6 1.5-4.9 1.6-7.4c.3-3.9-2-3.3-1.7-7.2c.5-5.5 2.7-6.8 4-11.8c.3-1.3-0.4-2.8 .1-3.9c.8-1.8 2.6-2.6 3.4-4.4c1.3-2.7 2.1-5.7 2.9-8.7c.6-2.5-0.7-2.9 .4-5.3c1.6-3.2 2.7-2 4.2-5.2c1.8-4.2 .2-5.1 2.8-8.8c.3-0.3 .7 .8 .9 .5c.6-0.9 .9-3.2 .9-3.2c0 0 .3 1 .4 1.5c.1 .9 .2 1.7 .3 2.5c.2 1.9-0.2 4.2 .7 5.8c1.8 3.3 3.3 4.8 4 10.5c.3 2.4 1.1 5.4 1.2 8.2c.2 2.7 2.4 7 4.2 7.5c.7 .1 1.8-1.5 1.9-0.6c.2 1.8-0.3 3.7-0.2 5.6c.2 4.8 1.2 4.5 1.1 9.4c-0.1 1.9-0.9 3.8-0.7 5.7c.1 2 3.2 7.3 3.2 9.3c0 2.7-1.3 5.2-1.7 7.8c-0.3 1.9 .6 8.4-2.2 8.4l10.9-0.1c0 0 0-22.1 .1-22.1h-9.2h9.2c0 0 0-48.1 .1-48.1h-21h21l.1-52.5c0 0 9.8-9.9 12.1-12.1l-395.4 46.2l411.6-48.2l-16.2 2l-0.1 134.8c0 0 7.9 0 7.9 0v14.5v-14.5c-40.1 .3-80.4 .3-120.4 .1v14.4l19 20.9l-93.2-0.3l19-21l-68.7 75.9l17-18.7l159.2 .6l16.5 18.1l-68.8-75.5l68.8 75.5l-68.8-75.5h128.8v-143.8c0 0 8.3-8.4 8.3-8.4c0 0-8.3 .9-8.3 .9v7.5c0 0 8.3-8.4 8.3-8.4v-6.7l-196.4 22.7c0 0-43.2-51.7-27.8-114.6c11.3-46.6 16.4-50.5 22.9-71.2c7.5-23.9 7.3-64.1 5.8-76.1c-3.1-25.1-4.5-53-20.1-51.4c-31.2 3.2-25.4 37.7-22.6 42.6c6.2 10.5 18.4 6.8 21.5 5.8" fill="none" stroke="#007cbf" stroke-width="4px" opacity="0" stroke-dashoffset="-1192" stroke-dasharray="7900 10000" transform="translate(212,808) translate(-212,-808)"/></g><g transform="translate(210,762.8) translate(-212,-765)"><path id="RedStringJank" d="M196.8 285.4c-17.2-17.8-9.3-39.5 2-59.7c6.8-12.1 10.9-22.9 19.5-33.4c12.3-15.1 22.2-32.1 18-51.4c-5.9-27.6-37.7-54.6-78.9-49.8c-14 1.7-31.8 55-4.2 66.6c12.1 5 25.2-5.8 36.4-9.4c28.1-9.1 74-1.8 68.8 38c-0.9 7.1-3.3 13.6-6.4 19.8c-4 7.9-10 17.1-17.5 22.2c-19.8 13.1-46.5-4.7-51-24.4c-5.9-26.4 17.4-49.7 41.4-55.4c41-9.8 46.6 48 73 66.8c18 12.8 46.9 12.4 62-7.2c12.5-16.5 22.7-47.2 9.3-65.8c-14.4-20-50.8-30.1-61.3-3.2c-11.4 29.3 11.7 64.3 21.7 90.3c12.2 31.5 3.2 58.1-20.6 81.6c-32.4 31.9-84.6 30.9-120.9 10.4c-16.8-9.5-37.4-20.2-39.6-41c-2.6-25.6 24.5-37.6 47.6-33.8c19.6 3.1 31.8 20.4 34.8 40.3c4.8 32.7-22 41-47.3 46.9c-44.9 10.6-95.4-24.5-121-60.1c-4.5-6.2-9.5-14.8-12.2-22c-13.5-36.5 20.6-58.4 43.3-79.2c27-24.7 78.1-56.5 60.6-109.7c-12.9-39-66.3-29.3-87.1-11.9c-17.6 14.7-23 40.9-21.3 62.1c4.5 55.6 48.3 92.5 106.3 77.3c40.8-10.8 65.1-47.3 67.9-87.9c.8-12.7-1.4-33.1-9.7-43.7c-3.8-4.7-19.3-8-21.7 .4c-5.3 18.1 25.6 15.1 33.5 11.5c16.2-7.4 32.5-15.6 50.5-18.7c36.5-6.2 75.7 11.2 87.6 48.2c8.6 26.6-14.9 40.3-32.1 53.3c-16 12-30.3 25.5-34.8 45.2c-8.5 36.7 24.2 56.9 57.7 57.5c26.6 .4 23.8 40.2 10.8 50.8c-22.9 18.5-50.1 21.5-78.3 27.7c-21.5 4.8-37 4.6-57-7.2c-25.5-15.1-46.6-34.3-45.7-65c.7-21.3 10.3-44.3 1.9-65.2c-13.1-32.5-58.5-25.7-82.8-8c-17.4 12.7-19.1 27.6-18.3 48.1c1.5 39.1 28.7 85.7 68.7 96.9c18.8 5.3 32.5 .3 50.1-6.3c19.7-7.3 40-21.5 56.9-34.5c19.6-15.3 39.6-41 54.8-60.3" fill="none" stroke="#f65c1b" stroke-width="4px" opacity="0" transform="translate(210.6,186.6) translate(-210.6,-186.6)"/><path id="RedString1" d="M358.9 644.8c0 0-4.9-63.1-8.4-106.8c-0.2-2.9-2.5-5.1-5.3-5.3c-2.9-0.2-5.4 1.8-6 4.6c0 0 0 0 0 0c-1.4 6.9-0.8 14.1 1.7 20.7c2.4 6.4 5.6 15 8.4 22.3c3.8 10.2 3 21.5-2.1 31.1c-7.7 14.2-18 33.4-18 33.4l11.6-147.7c0 0 5 25.5 7.9 40.3c1.4 6.8 .8 13.7-1.5 20.2c-2.4 6.6-5.7 15.6-8.5 23.2c-3.7 10.1-2.8 21.3 2.3 30.7c7.6 14.2 17.9 33.3 17.9 33.3l-11.6-147.7h-6.5l-1.7 16.6h-43.1l41.1 12.4h15l40.1-12.4v15c0 0-40.7 28.7-92.1 27.8c-64.6-1.1-98.8-24.9-98.8-24.9l.2-23l-0.2 23c0 0 34.2 23.8 98.8 24.9c51.4 .9 92.1-27.8 92.1-27.8l-3.7-15h-92.5v15c0 0-57.3 35.5-128.1 35.5c-88.8 0-136.1-33.9-136.1-33.9v-21.7h169.7l-74.8 23h-20.4l-74.5-23h76.6l2.3-29.4h11.2c0 0-10.8 55.4-15.6 79.1c-1.4 6.9-0.8 14 1.7 20.6c5.5 14.7 15.7 42 22.3 59.5c3.8 10.1 3 21.4-2.1 31c-13.2 24.5-37.9 70.5-37.9 70.5l20.4-260.7c0 0 0-0.3 0 0c1 4.9 12.4 49.2 16 76.9c1.3 10.6-1.3 20.5-1.9 22.3c-5.4 14.8-15.7 43-22.1 60.7c-3.7 10.1-2.9 21.3 2.2 30.7c13.2 24.4 37.8 70.1 37.8 70.1l-20.8-260.7c0 0-0.5-11 .4-21.8c4.3-52.9 13.6-68.7 24.8-86.1c26.5-41.1 60.2-87.8 64.3-150.9c3-44.9 29.1-60.2 24.9-79.5c-5.9-27.6-41.8-55.8-82.9-51c-14.1 1.7-27.8 56.2-0.2 67.8c12.1 5 24.9-3.3 36.1-6.9c28.1-9.1 76.8-2.4 71.6 37.4c-0.9 7.1-4.1 13.9-7.2 20.2c-4 7.8-9 17.1-16.6 22.1c-19.8 13.2-49.1-6.9-53.6-26.6c-5.9-26.4 17.4-49.7 41.4-55.4c41-9.8 46.6 48 73 66.8c18 12.8 48.5 16.6 63.5-3c12.6-16.4 21.2-51.4 7.8-70c-14.4-20-48.9-26.2-59.4 .7c-11.4 29.3 9.8 60.4 19.8 86.4c12.2 31.5 4.8 63.4-19 86.9c-32.4 31.9-86.2 25.6-122.5 5.1c-16.8-9.5-33.6-20-35.8-40.8c-2.7-25.7 20.7-37.8 43.8-34c19.6 3.1 36.3 18.9 39.3 38.8c4.8 32.7-26.5 42.5-51.8 48.4c-44.9 10.6-100.4-24.7-126-60.3c-4.5-6.2-8.9-12.9-11.5-20.1c-13.5-36.5 24.9-60.1 47.6-80.9c27-24.7 81.6-59.2 64.2-112.5c-12.9-38.9-69.9-26.5-90.7-9.1c-17.6 14.7-19.5 41.5-17.8 62.7c4.5 55.6 45.3 95.8 103.3 80.5c40.8-10.7 64.6-51.1 67.4-91.7c.8-12.7-1.4-33.1-9.7-43.7c-3.8-4.7-19.3-8-21.7 .4c-5.3 18.1 25.6 15.1 33.5 11.5c16.2-7.4 30.4-18.9 48.4-21.9c36.5-6.2 81.1 13.1 93.1 50.1c8.6 26.6-20.3 38.7-37.5 51.6c-16 12-28.3 28.5-32.8 48.2c-8.5 36.7 24.2 56.9 57.7 57.5c26.6 .4 23.6 36.3 10.5 47c-22.8 18.5-49.8 25.3-78 31.5c-21.5 4.8-40.1 9.5-60.1-2.3c-25.5-15.1-43.5-39.2-42.6-69.9c.7-21.3 10.3-44.3 1.9-65.2c-13.1-32.5-59.4-30.8-83.7-13c-17.4 12.7-22 33.1-21.2 53.7c1.5 39 26.5 86.4 66.4 97.6c18.8 5.2 38.6-1 56.2-7.6c19.7-7.3 39.8-15.7 56.6-28.7c19.6-15.2 39.9-46.8 55.1-66.1" fill="none" stroke="#f65c1b" stroke-width="4px" stroke-dashoffset="-3500" stroke-dasharray="4000 10000" transform="translate(212,387.1) translate(-212,-387.1)"/><path id="RedString2" d="M358.9 644.8c0 0-0.1-1-0.2-2.9c-0.1-1.6-0.3-3.8-0.5-6.5c-0.2-2.8-0.5-6.1-0.8-9.9c-0.3-4.3-0.7-9.1-1.1-14.3c-0.4-4.4-0.7-9.1-1.1-13.9c-0.4-4.5-0.7-9.2-1.1-13.9c-1.2-15.3-2.5-31.4-3.6-45.4c0-0.3 0-0.6-0.1-0.9c0-0.1-0.1-0.3-0.1-0.5c-0.1-0.1-0.1-0.3-0.2-0.4c0-0.1-0.1-0.2-0.2-0.3c0-0.2-0.1-0.3-0.1-0.4c-0.1-0.2-0.2-0.3-0.3-0.4c-0.1-0.1-0.2-0.2-0.3-0.3c0-0.1 0-0.1-0.1-0.2c0 0-0.1-0.1-0.1-0.1c-0.1-0.1-0.2-0.2-0.3-0.3c0 0-0.1-0.1-0.1-0.1c-0.1-0.1-0.1-0.1-0.2-0.1c0-0.1-0.1-0.1-0.2-0.2c-0.1-0.1-0.2-0.1-0.3-0.2c-0.1-0.1-0.1-0.1-0.2-0.1c-0.1-0.1-0.2-0.1-0.2-0.2c-0.2 0-0.3-0.1-0.4-0.2c-0.2 0-0.3-0.1-0.5-0.1c-0.1-0.1-0.2-0.1-0.3-0.1c-0.1-0.1-0.2-0.1-0.3-0.1c-0.1 0-0.3 0-0.4-0.1c-0.2 0-0.3 0-0.4 0c-0.2 0-0.4 0-0.6 0c-0.2 0-0.3 0-0.4 0c-0.2 0-0.3 .1-0.4 .1c-0.2 0-0.4 0-0.5 .1c-0.2 0-0.3 .1-0.5 .1c-0.1 .1-0.3 .1-0.4 .2c-0.1 .1-0.2 .1-0.4 .2c-0.1 .1-0.3 .2-0.4 .3c-0.1 .1-0.3 .1-0.4 .2c-0.1 .2-0.2 .3-0.4 .4c0 0-0.1 .1-0.1 .2c-0.1 .1-0.2 .2-0.3 .3c-0.1 0-0.1 .1-0.2 .2c-0.1 .2-0.2 .3-0.3 .4c-0.1 .2-0.1 .3-0.2 .4c-0.1 .2-0.1 .3-0.2 .5c-0.1 .3-0.2 .6-0.3 1c0 0 0 0 0 0c0 0 0 0 0 0c0 0 0 0 0 0c0 0 0 0 0 0c0 0 0 0 0 0c-0.2 1.2-0.4 2.5-0.6 3.7c-0.2 2.1-0.2 4.3-0.1 6.4c.2 2.8 .8 5.6 1.6 8.3c.2 .7 .5 1.5 .8 2.3c2.4 6.4 5.6 15 8.4 22.3c3.8 10.2 3 21.5-2.1 31.1c-7.7 14.2-18 33.4-18 33.4l4.8-60.7l6.8-87c0 0 1.8 9.3 3.9 19.9c1.4 7 2.9 14.6 4 20.4c1.4 6.8 .8 13.7-1.5 20.2c-2.4 6.6-5.7 15.6-8.5 23.2c-3.7 10.1-2.8 21.3 2.3 30.7c7.6 14.2 17.9 33.3 17.9 33.3l-4.7-59.4l-6.9-88.3h-6.5l-1.7 16.6h-43.1l41.1 12.4h15l40.1-12.4v15c0 0-11.7 8.3-30.5 15.8c-16.3 6.5-37.8 12.4-61.6 12c-14.3-0.2-27.1-1.6-38.3-3.6c-39.7-6.9-60.5-21.3-60.5-21.3l.2-23l-0.1 10.6l-0.1 12.4c0 0 34.2 23.8 98.8 24.9c51.4 .9 92.1-27.8 92.1-27.8l-3.7-15h-92.5v15c0 0-28 17.4-69 27.8c-10.1 2.6-20.9 4.7-32.3 6.1c-8.6 1-17.6 1.6-26.8 1.6c-19.2 0-36.6-1.6-51.9-4.1c-21.6-3.5-39.2-8.8-52.6-14c-20.9-8.1-31.6-15.8-31.6-15.8v-21.7h39.5h86h44.2l-74.8 23h-20.4l-74.5-23h76.6l2.3-29.4h11.2c0 0-10.8 55.4-15.6 79.1c-1.4 6.9-0.8 14 1.7 20.6c5.5 14.7 15.7 42 22.3 59.5c2.1 5.5 2.8 11.4 2.2 17.2c-0.5 4.7-2 9.4-4.3 13.8c-13.2 24.5-37.9 70.5-37.9 70.5l7-89.8l13.4-170.9c0 0 0-0.3 0 0c.3 1.1 1 4 2 8.3c.6 2.7 1.4 5.8 2.2 9.3c1.9 8 4.1 17.9 6.2 28c2.3 10.9 4.4 22 5.6 31.3c.8 6.7 .1 13.1-0.7 17.4c-0.2 .9-0.3 1.7-0.5 2.3c-0.1 .6-0.2 1-0.4 1.4c-0.1 .6-0.2 1-0.3 1.2c-0.8 2.1-1.7 4.5-2.6 7.1c-0.6 1.8-1.3 3.7-2.1 5.7c-1 2.8-2.1 5.8-3.2 8.9c-0.9 2.4-1.8 5-2.7 7.5c-1.1 3-2.2 6.1-3.3 9.1c-1 2.7-2 5.4-3 8c-0.9 2.5-1.8 5-2.6 7.3c-0.9 2.5-1.8 4.9-2.6 7.1c-0.6 1.6-1 3.1-1.4 4.7c-0.3 1.4-0.5 2.7-0.7 4.1c-0.1 1.5-0.2 3.1-0.2 4.6c0 1.3 .1 2.7 .3 4c.2 1.8 .6 3.6 1.1 5.4c.3 1.4 .8 2.7 1.3 4c.5 1.3 1.1 2.6 1.8 3.9c3.6 6.6 8 14.8 12.6 23.2c2.3 4.3 4.6 8.7 6.9 12.9c3.2 5.9 6.3 11.6 9 16.6c2.1 3.9 3.9 7.3 5.4 10.1c2.4 4.5 3.9 7.3 3.9 7.3l-7.5-93.8l-13.3-166.9c0 0 0-0.1 0-0.4c0-0.1 0-0.4 0-0.7c-0.1-0.2-0.1-0.5-0.1-0.8c0-0.1 0-0.3 0-0.5c0-0.3 0-0.6 0-0.9c0-0.3 0-0.7 0-1c0-0.4 0-0.7 0-1.1c0-0.2 0-0.5 0-0.7c0-0.4 0-0.8 0-1.1c0-0.4 0-0.7 0-1.1c0-0.3 0-0.7 0-1.1c0-0.3 0-0.7 0-1c0-0.7 0-1.4 0-2.1c0-0.5 0-1 .1-1.6c0-0.6 0-1.3 0-1.9c.1-0.6 .1-1.1 .1-1.7c.1-1.4 .2-2.8 .3-4.1c.2-3.1 .5-6.4 .9-9.8c.2-1.8 .4-3.7 .7-5.7c.2-1.9 .5-3.9 .8-6c.2-1 .4-2.1 .5-3.1c.2-1.1 .4-2.2 .6-3.2c.2-1.3 .4-2.6 .7-3.9c.2-1 .4-2 .6-3.1c.3-1.5 .7-3.1 1.1-4.7c.5-2.1 1-4.3 1.6-6.4c.4-1.6 .9-3.1 1.3-4.7c.6-2 1.2-4 1.9-5.9c3.5-10.2 8.1-20.3 14.1-29.6c15.3-23.6 32.9-49.2 45.9-78.6c9.6-21.7 16.7-45.5 18.4-72.3c3-44.9 29.1-60.2 24.9-79.5c-5.9-27.6-41.8-55.8-82.9-51" fill="none" stroke="#f65c1b" stroke-width="4px" opacity="0" transform="translate(212,387.1) translate(-212,-387.1)"/><path id="RedString3" d="M214 1544c-124-142 242-574 46-702c-120.8-78.9-263.6 54.3-200 142c63.6 87.6 219.4 45.2 194-68c-28-125-173-50.5-231-192c-58-141.5 50.9-182.1 50.9-182.1c10.5-4.5 47.7-5.8 79.8-5.6v47.8c0 0 0-47.8 0-47.8c2.3 0 4.6 0 6.9 0l-0.1 56.6l.1-56.6c1.9 .1 5.9 .1 5.9 .1l-0.3 70.4c0 0 .3-70.4 .3-70.4c2 .1 4 .1 5.9 .2c.1 0 .1 32.6 0 47.6c.1-15 0-47.6 0-47.6c10.1 .3 20 .8 28.9 1.5l-0.3 61.5l.3-61.5c2.2 .2 4.2 .3 6.3 .5c0 0-0.4 77.5-0.4 77.6c0 0 .4-77.6 .4-77.6c0 0 6.7 .7 6.7 .7c.1-0.6-0.4 76-0.4 75.9l.4-75.9c2.2 .3 4.3 .5 6.6 .8c0 0-0.4 61.5-0.4 61.5c0 0 .4-61.5 .4-61.5c3.5 .5 7.3 1 11 1.6c0 0-0.1 33.6-0.1 33.6l.1-33.6c32.8 5.2 72.7 15.2 105.3 28.2c.2 0 0-0.2 0-0.1c0 6.9 0 5.6 0 7.7v13.9v-13.9c0 1.6 1.4 3 3 3c1.7 0 3.1-1.4 3.1-3v17v-17c0 0 0-5.2 0-5.2c3 1.3 6 2.7 8.9 4c-2.9-1.3-5.9-2.7-8.9-4v-9.8c3 1.2 5.9 2.5 8.7 3.7c-2.8-1.2-5.7-2.5-8.7-3.7c0 0 0 0 0 0l-0.1-9.7c3 1.1 6 2.2 8.8 3.4c-2.8-1.2-5.8-2.3-8.8-3.4c0 0 0 0 0 0v-5.8c0 0 16.3-20.5 25-31.4c.4-0.4 1-0.6 1.6-0.4c.6 .2 .9 .7 1 1.3c0 2.9 0 5.9 .1 9.1c2.1-2.7 4.2-5.3 6.1-7.7c0-0.5-0.2-1-0.2-1.5c0-3.2-2.1-6-5.1-7c-3-1-6.3-0.1-8.3 2.4c-8.9 11.2-24.6 31.1-26.2 33.1c0 .6 0 2.7 0 5.5c0 .1-0.1 1.2 0 0c-38.1-13.4-82.2-22.9-117.4-26.8c35.2 3.9 79.3 13.4 117.4 26.8c-0.1 1.8 0 6.3 0 9.7c-38.7-14.9-86.7-25.6-120.8-29.2c-48-5.1-134.1-3.6-146.8 6.2c-9.6 7.3 50.2 7.4 50 37.3c-0.1 21.2-15.6 25.9-15.3 37.7c.4 20.7 108.5 34.2 170.9 33.7c43.9-0.3 126.9-12.2 127.3-33.7c.3-15.7-17.9-30.6-44.2-43.1c-0.1 0 0 3.9 0 0c0-3.4 0-7.2-0.1-10.3c.1 3.1 .1 18 0 20.4c24 12 40.3 26.1 40.3 40.7c0-14.6-16.3-28.7-40.3-40.7c0 0 0 2 0 2.4c0 0 .1 17 .1 17l-0.1-17c0 1.7-1.3 2.9-3 2.9c-1.7 0-3-1.3-3-3v11.2v-11.2c-0.1-3.2-0.2-25-0.2-32c2.4-3 9.9-12.4 17.2-21.7c3.2-4.1 6.5-8.1 9.2-11.6c.5-0.6 1.1-1.1 1.8-1.6c.7-0.4 1.5-0.8 2.3-1c1.4-0.3 2.8-0.3 4.2 .2c3 1 5 3.8 5.1 7c.2 14.1 .2 34.7 .2 34.7c0 1.7-1.3 3.1-3 3.1c-1.7 .1-3.1-1.3-3.1-3c0 0 .1-20.6-0.2-34.7c0-0.6-0.4-1.1-1-1.3c-0.5-0.2-1.2 0-1.5 .4c-1.8 2.3-3.8 4.7-5.8 7.3c-0.1 0-6.5 7.9-6.5 8.1c.1 8.7 0 15.9 0 15.9c.1 1.7 1.5 3 3.1 3c1.7 0 3.1-1.4 3-3.1c0 0 .1-23.6 .1-23.6c-7.8 9.8-16.5 20.7-18.9 23.9c0 1.3 0 4.1 0 7.3c37 15.6 64.1 35 63.8 56c-0.4 30.6-80.9 45.8-142.5 45.8c-72.4 .1-185-13.9-194.7-44.9c-4.9-15.6 21.5-18.3 21.3-42.7c-0.4-29.3-72.1-29.6-60.9-38.1c3.6-2.7 11.9-5.2 23.3-7.4c-1.6 8.7-6.5 35.3-8 37.5c.6-0.8 2.3-7.4 2.9-11c18 1.1 31.2 5.3 31.3 10.3c0 20.1-19.8 29.8-41.1 29.8c-21.4 0-41.2-10.1-41.3-29.8c0-1.6 12.8 10.7 41.3 10.4c22.7 0 41.2-4.6 41.2-10.4c0-3.8-18.5-6.9-41.2-6.9c-22.7 0-38.7 4.4-41.2 6.9c0-4.9 13-9 30.5-10.2c.2 1.5 2.3 8.9 3.7 11.4c-3.9-6.8-6.6-27.1-6.7-34c-0.1-2.1-0.1-8.1-0.7-8.4c-0.7-0.4-1.7 2.2-1.9 2.5c-1.7 3.3-2.6 6.6-4.3 9.9c-2.8 5.6-10.1 7.9-16 5.8c-1.7-0.6-3-2.1-4.5-3c-1.8-1-3.9-1.6-5.5-2.9c-4.2-3.4-6-8-4.4-13.2c.6-1.7 4.9-7.8 5.6-9.1c1.6-3.3 2.3-8.5 5.6-10.9c3.4-2.4 9.9-3 13.9-1.9c1.8 .4 5.2 3.1 8.3 4.4c.2 .1-8 6.7-13.6 14.3c-4.4 5.9-6.5 13.2-6.2 13.3c.1 0 1.7-6.1 6.3-12.2c5.5-7.5 14.2-15.2 14.4-15.2c3.9 0 12.1-2.3 15.6 2.3c4 5-6.1 8.1-8.7 10.9c-1.1 1.1-2.8 2.3-2.8 4c0 3.1 .1 2.2 .4 9.3c1 22.3 8.6 33.3 8.6 33.2c-1.7-7.3 0-37.8 .1-41.3c0-4.8-2.9-28.8-3.1-28.2c-0.3 .8 0 .3 0 0c-8.9 7.5-19 6.6-20.7-1.8c-0.3-1.7-0.2-3.6 .1-5.3c2.8-13.6 14.7-12.2 24.8-15.8c3.6-1.2 11.1-8.3 15.6-5.2c7.4 4.9 2.8 11.3 1.5 16.4c-1.8 6.8 .8 17-8.8 18.6c-1.2 .2-10.3-0.4-12-7.1c.1-0.7 .2-4.9 5.4-10.2c3.9-3.9 8.3-6.5 10.3-9.6c-2 3.1-6.4 5.7-10.3 9.6c-5.2 5.3-5.3 9.5-5.4 10.2c0 .2 3.8 23.6 4 28.5c.2 3.5 .6 32.8 2.6 40c4.6-4.8 12.1-31.6 13.6-38c.9-4.1 3.4-17.1 3.4-17.1c-1.3 .1-9.9 5.7-9.9 5.7c-0.2 0 3.3-3.7 3.9-4.6c1.8-2.6 2.4-4.9 4.7-7c3.1-2.8 7.3-4.2 11.4-3.1c2 .5 3.7 1.7 5.6 2.5c1.6 .6 3.3 .9 5 1c4.3 .3 8.4-2 12.6-2c3.9 0 9.8 2.5 8.9 4.7c-0.3 .7-9.7 1.5-13 1.2c-2.2-0.2-6.5-0.7-8.7-0.9c-2.2-0.2-13.3 .4-16.5 2c-2.6 1.4-6.6 19.7-6.6 19.7c32-6 88.9-9 138.5-5.1c1.2 .1 61.7-114.5 23.7-244.3c-5.7-19.3-13.7-60 6-130.3c10.4-37.4-51.7-69-83.7-57.4" fill="none" stroke="#f65c1b" stroke-width="4px" opacity="0" stroke-dashoffset="-1895" stroke-dasharray="5650 8000" transform="translate(212,387.1) translate(-212,-387.1)"/></g><g transform="translate(212.9,772) translate(-214.9,-774.1)"><path id="GreenStringJank" d="M222.3 221.9c12.5-23.3 .5-63.2-26.3-68.2c-14.8-2.7-27.9 3.6-42.2 4.9c-4.6 .4-15.4 1.2-20.1 .9c-13.1-0.7-8.9-12.7 4.1-14.2c13.5-1.5 35.4 11.2 38.4 28.2c5.8 32-29 69.7-57.5 55.4c-23.9-12.1-38.8-60.6-23.6-85.7c14-23.3 52.6-34.2 77.1-25.1c36.1 13.3 2.1 74.3 2.1 105.3c0 23.1 24.1 40 44.5 37.9c4.7-0.4 10.4-4.2 14.4-7c12-8.5 20.5-27.2 18.4-43.3c-2.7-20.9-32.9-48.4 .2-58.2c4.9-1.4 9.9-1.7 15-1.3c6.6 .6 13.5 3.6 19 7.7c54.6 40.3-24.6 83-15.2 124.4c4.2 18.6 23.6 18.9 38.8 17c19.9-2.6 39.9-28.4 48.9-46.4c4.5-9.1 6.9-18 6-27.9c-3.1-34.3-40.5-40.9-64.2-29.1c-53.2 26.5-55.7 118.3-132.5 102.3c-8.8-1.8-18.4-3.1-26.5-7.6c-9.1-5-19.8-8.9-27.5-16.2c-3.4-3.3-6.8-7.7-9.7-11.5c-14.7-18.9-7-29.3 14.8-35.3c25.3-7 52.3-8.3 77.7-1.9c9.1 2.3 16.7 15.1 14.9 26.1c-2.8 17.2-20 30.9-32.2 40.1c-13.1 9.8-27.8 17.6-44.2 18.9c-46.8 3.7-89-40.9-91.2-90.1c-1.7-37.5 7.2-73.8 40-93c9.7-5.7 21.1-7.1 31.5-9c16.7-3.1 34.1-11.1 48.4-21c21.3-14.9 54.5-47.9 34.9-78.9c-17.6-27.8-66.9-16.5-82.6 7.8c-10.6 16.4 .6 44.6 11 58.6c15.8 21.5 39.6 22.9 59.1 6.8c31.9-26.5 72.5-61.5 113.2-29.3c16.3 12.9 19.8 34.4 3.6 48.4c-10.7 9.2-24.8 12.3-35.3 21.5c-21.3 18.9-32.9 55.2-21.7 84.1c14.8 38.2 62.3 14.7 83.4-1.2c5.5-4.1 26.6-38.3 40.4-24.9c18.1 17.7-34.3 38.2-45.4 47.1c-7.1 5.8-14.4 9.7-22.6 13c-21.6 8.5-127.5 45.3-62.8 79.2c8.6 4.5 18.3 9.3 27.9 10.9c38 6.5 81.5-26.7 102.8-59.8c6.9-10.6 19.3-35.2 10.4-48.3c-10.5-15.6-35.7-10.9-49.5-4.5c-42.5 19.9-77.3 34.2-124.8 28c-28.5-3.7-45.2-63.9-35.7-89.1c7-18.7 29.7-33.2 45.6-41.3c20.6-10.5 32-3.8 52.2 2.4c13 4.1 28.1 2.9 40.4 9.4c15.6 8.1 24.4 22.5 42.9 24c24.7 1.9 23.6-19 39.2-27.6" fill="none" stroke="#007b52" stroke-width="4px" opacity="0" transform="translate(216.9,173.4) translate(-216.9,-173.4)"/><path id="GreenString1" d="M17.8 688.4c18.6-19.6 29.6-41.2 29.4-68.5c0-14.5-4.7-29.4-2.5-43.7c2-13.6 12.9-32.4 18.3-44.5c4.8-10.8 4.1-15.7 13.8-23.7c13.5-11.1 46.6-3.7 61.1-0.6c47.8 10.2 82.9-2.6 96.9 1.2c19 5.2 34.6 22.6 31.3 43c-1.4 8.9-4.7 17.3-7.1 25.9c-5.5 18.7-1.2 39.2-21.3 47.8c-7.4 3.2-27.7 6.6-35.6 6.1c-8.9-0.5-13.7-14.8-20.9-13.9c-4.6 .5-5.2 9.4-5.7 12.8c-0.1 .6-3.1 1.8-3.4 1.1c-1.2-3-4.5-15-9.3-13.8c-5.2 1.3-2.1 13.5-3.3 20.4c-0.3 1.9-3.9 .9-4.6 0c-2.5-3.5-3.5-16.7-8.5-11.3c-3.1 3.3 .3 56.2 3.2 66.3c.8 3 8.4 12.5 4.6 14c-5.3 2-15.9 2.6-18.7-2.4c-2.6-4.7-5.3-12.8-4.2-18.4c2.2-10.9-3.6-59.7-12-62.8c-15.4-5.7-16.2 19-17.1 28c-1.2 13.5 2.1 37 4.9 50.4c1.1 4.9 8.9 6.4 5.3 14.1c-1.1 2.5-19 2-20.4-0.3c-2.5-4.2-9.6-12.5-7.5-19.2c2.8-9.1 1.5-19 .6-24.9c-2.8-19.3-8.2-48.8-13.5-67.7c-3.1-11.1-7.5-22.1-7.3-33.8c.3-13.1 3.6-28.6 12.9-38.3c17.6-18.1 42.9-9.8 62.3-0.3c46.5 22.6 80.5 70.7 89.7 119.7c1.1 6.3 7.2 12.9 8.1 21.7c1 10.6 1.2 19 1.7 26.9c.2 3.8-1.7 13.8 2.3 16.3c2.5 1.5 16 3.1 16.6-1.2c.5-4.1-3-9.7-3.2-14.7c-0.2-8-1.1-17.7-0.1-27.5c.9-9.3 2.8-16.8 3.9-24.5c.9-5.5 1.6-21 8-24c17.7-8.5 13.6 24.7 14.7 27.8c2.2 6.2 1.8 11.4 2.2 18.4c.6 10-1.4 16.1 .4 24.9c.7 3.6 .2 12.6 3 15.2c1.7 1.6 11.7 1 13.6 .3c8.1-2.6-1.3-13-2.5-18c-1.9-7.3-0.5-25.6 1.3-39.6c.9-7.9 2.4-14.7 3.3-17.2c2.5-7.3 .9-15.4 9.4-21.6c8.8-6.3 11.5-14.6 12.1-28c.8-14.6 10-23.5 10.7-23.8c1-0.5 13.3-13.4 5.9-12.9c-3.7 .3-3.5 7.6 6.6 7.3c10.3-0.2 10.5-7.7 5.4-7.1c-6 .6 .3 8.1 4.4 6.1c14-6.7 1.5-17.2-1-25.7c-1.3-4.5 .5-11 3.4-16.1c.9-1.7 3.6-4.7 6.2-4c2.9 .8-0.5 7-6.9 9.4c-7.6 2.8-19 2.3-24.4-0.7c-3.1-1.7-8-7.2-6.2-8.9c1.8-1.7 3.9-0.8 5.3 1.2c7.5 11.1 .5 23.6-0.3 30c-0.6 5.1-5 18 4.1 19.7c3.5 .6 18.3 .9 21.2-1c9.4-6-3.8-13.8-1.5-22c2.8-9.8 9.1-13.8 11.8-23.7c2.1-7.7 0-20.6 10-24c9.9-3.2 19.1-0.8 22.2-0.1c5.3 1.2 6.9 4.7 3.4 9c-4.5 5.6-14.4 11.2-21.5 11.5c-2.3 .1-4.6-1-6.5-2.3c-12.2-8.9-4.4-17.9 1.2-28.5c.6-1.1 4.9-6.5 2.7-7.1c-1.6-0.5-10.3 12.8-33 12.8c-20.5 .1-30.7-14.5-32.1-13.1c-3.7 3.7 6.6 12.2 7.4 13.7c2.6 5.3-0.1 7.5-0.5 12.7c-0.4 4.9 3 7.8 7.3 3.8c4-3.8 6.2-13.2 12.5-14.5c8.6-1.8 10.1 2.1 17.4 5c1.5 .6 8.1 1.9 6.8-2.7c-3.3-11.5-17.2-16.5-28.4-12.5c-3.4 1.2-7.3 6.1-8.9 9.7c-4.9 11.4-13.4 17.7-17.5 17.9c-7.4 .5-18.2-4.6-22.8-12.5c-2.6-4.4-0.2-9.1 4.1-8.8c1.9 .1 18.1-1.3 24.5 6c2.1 2.4 5.5 11.6 2.9 14.4c-3.3 3.3-12.3 5.3-16.7 5.1c-9.9-0.4-75.4 14.7-88.9 3.8c-29.7-23.9 18.1-237.3 14.8-292.2c-1.5-24.7-9.9-59.4-34.5-63.6c-14.7-2.6-27.2 3-41.5 4.3c-4.6 .4-15.4 1.2-20.1 .9c-13.1-0.7-8.9-12.7 4.1-14.2c13.5-1.4 36.1 7.9 39.1 24.9c5.8 32-29 69.7-57.5 55.4c-23.9-12.1-36.4-58.3-21.3-83.4c14-23.3 50.3-36.5 74.8-27.4c36.1 13.3 6.9 72.8 6.9 103.8c0 23.1 19.3 41.5 39.7 39.4c4.7-0.4 10.4-4.2 14.4-7c12.1-8.5 20.5-27.2 18.4-43.3c-2.7-20.9-31.4-50.7 1.7-60.4c4.9-1.5 9.9-1.7 15-1.3c6.6 .5 13.5 3.6 19 7.6c54.6 40.3-26.1 85.3-16.7 126.7c4.2 18.6 22.1 22.4 37.4 20.4c19.9-2.6 44.5-30.4 53.5-48.4c4.5-9 3.7-19.4 2.8-29.3c-3.1-34.3-38.4-37.9-62.1-26.1c-53.2 26.5-57.8 115.3-134.6 99.3c-8.8-1.8-18.4-3.1-26.5-7.6c-9.1-5-17.6-11.8-25.3-19.1c-3.4-3.3-6.8-7.7-9.8-11.5c-14.6-18.8-9.1-26.4 12.7-32.4c25.3-7 51.7-5.2 77.1 1.2c9 2.4 17.3 12 15.5 23c-2.8 17.2-20 30.9-32.2 40.1c-13.1 9.8-29.1 21.6-45.5 22.9c-46.8 3.7-86.9-48.8-89.1-98.1c-1.7-37.5 5.2-73.7 37.9-92.9c9.7-5.7 22.4-3.2 32.8-5.1c16.7-3.1 34.1-11.1 48.4-21c21.3-14.9 57.5-50.5 37.9-81.5c-17.6-27.8-69.9-13.9-85.6 10.4c-10.6 16.4-3 46.9 7.4 60.9c15.9 21.5 43.3 20.6 62.7 4.5c31.9-26.5 74.9-64.7 115.6-32.5c16.3 12.8 17.4 37.6 1.2 51.6c-10.7 9.2-24.8 12.3-35.3 21.5c-21.3 18.9-32.9 55.2-21.7 84.1c14.8 38.2 62.3 14.7 83.4-1.2c5.5-4.1 26.6-38.3 40.4-24.9c18.1 17.7-33.9 42.7-45 51.6c-7.1 5.8-14.7 9.5-23 12.7c-21.5 8.6-126.2 39.4-61.5 73.3c8.6 4.5 16.9 7.9 26.4 9.5c38.1 6.5 81.7-23.6 103-56.7c6.9-10.6 19.3-35.2 10.4-48.3c-10.5-15.6-35.7-10.9-49.5-4.5c-42.5 19.9-77.3 34.2-124.8 28c-28.5-3.7-45.2-63.9-35.7-89.1c7-18.7 27.8-34.6 43.7-42.7c20.6-10.5 33.9-2.4 54.1 3.8c13 4.1 26.8 6.3 39.1 12.8c15.5 8.2 24.1 22.1 42.6 23.5c24.6 2 25.2-21.9 40.8-30.5" fill="none" stroke="#007b52" stroke-width="4px" stroke-dashoffset="-2959" stroke-dasharray="3900 10000" transform="translate(212,359.8) translate(-212,-359.8)"/><path id="GreenString2" d="M17.8 688.4c9.3-9.8 16.7-20.1 21.8-31.4c5-11.2 7.7-23.5 7.6-37.1c0-4.3-0.4-8.6-0.9-13c-0.7-5.7-1.6-11.4-2-17.1c-0.3-4.5-0.3-9.1 .4-13.6c.4-2.9 1.2-6 2.3-9.3c1.9-5.4 4.4-11.2 7.1-16.8c3.2-6.7 6.6-13.2 8.9-18.4c1.2-2.7 2.1-5.1 2.8-7.2c1.3-3.6 2.4-6.5 4.4-9.5c1.5-2.2 3.5-4.4 6.6-7c7.3-5.9 20.2-6.6 32.9-5.4c10.9 1.1 21.5 3.4 28.2 4.8c26.4 5.6 48.8 4.2 66.1 2.5c14-1.4 24.5-3 30.8-1.3c8.6 2.3 16.6 7.2 22.3 13.8c7 7.9 10.8 18.1 9 29.2c-0.6 3.9-1.6 7.6-2.6 11.3c-1.5 4.9-3.1 9.7-4.5 14.6c-0.7 2.1-1.1 4.2-1.6 6.3c-0.4 2.4-0.8 4.8-1.1 7.1c-1.3 8.5-2.2 16.8-6 23.4c-2.5 4.6-6.4 8.4-12.6 11c-3.3 1.4-9.2 2.9-15.4 4.1c-7.7 1.4-15.9 2.3-20.2 2c-2.7-0.1-5-1.5-7.1-3.4c-1-0.9-2-1.9-3-2.9c-1.6-1.8-3.1-3.6-4.7-5c-1.9-1.7-3.9-2.9-6.1-2.6c-0.7 .1-1.3 .3-1.8 .7c-0.5 .4-0.9 1-1.3 1.6c-0.6 .9-1 2-1.4 3.2c-0.7 2.6-1 5.6-1.2 7.3c0 .3-0.6 .6-1.2 .9c-0.4 .2-0.8 .3-1.2 .4c-0.2 0-0.5 .1-0.7 0c-0.1 0-0.3-0.1-0.3-0.2c-0.8-2.1-2.7-8.7-5.5-12c-1.1-1.3-2.4-2.1-3.8-1.8c-2 .5-2.8 2.7-3 5.6c-0.2 1.5-0.2 3.3-0.1 5.1c0 2 .1 4 .1 5.9c0 1.3-0.1 2.7-0.3 3.8c-0.1 .8-0.9 1.1-1.7 1.1c-1.2 0-2.5-0.6-2.9-1.1c-2.5-3.5-3.5-16.7-8.5-11.4c-1.9 2.1-1.3 23.2 .1 41.4c.8 11.1 2 21.1 3.1 25c.4 1.4 2.4 4.5 3.9 7.4c1.6 3 2.7 5.8 .7 6.6c-1.2 .5-2.9 .9-4.6 1.1c-2.9 .5-6.1 .5-8.8-0.1c-2.4-0.6-4.3-1.6-5.3-3.4c-0.7-1.3-1.5-2.9-2.1-4.7c-0.4-0.9-0.7-1.8-1-2.8c-0.3-0.9-0.5-1.8-0.7-2.7c-0.2-0.9-0.3-1.8-0.5-2.7c0-0.7-0.1-1.4-0.1-2.1c-0.1-1.2 0-2.3 .2-3.4c.8-3.7 .6-11.7-0.3-20.9c-0.7-7.2-1.9-15.1-3.3-22.1c-1.2-5.5-2.6-10.5-4.2-14.1c-1.3-3.1-2.7-5.2-4.2-5.7c-4.8-1.8-8.1-0.7-10.5 2c-5.4 6-6 19.8-6.6 26c-0.5 6-0.2 14 .6 22.2c.4 3.8 .9 7.7 1.4 11.5c.5 3.2 1 6.3 1.5 9.2c.5 2.7 1 5.2 1.4 7.5c.2 .9 .6 1.7 1.2 2.4c.5 .7 1.1 1.3 1.7 1.9c1 1.1 2.1 2.2 2.8 3.6c.8 1.6 .9 3.5-0.4 6.2c-0.5 1.1-4.4 1.7-8.6 1.7c-3 0-6.1-0.2-8.4-0.7c-1.8-0.3-3.1-0.8-3.4-1.3c-0.9-1.5-2.3-3.5-3.7-5.7c-2.6-4.1-5.2-9.1-3.8-13.5c1.4-4.5 1.7-9.2 1.7-13.5c0-1.8-0.1-3.5-0.3-5.1c-0.1-1.3-0.2-2.5-0.4-3.6c-0.1-1-0.2-1.8-0.4-2.7c-2.8-19.3-8.2-48.8-13.5-67.7c-1.6-5.9-3.7-11.8-5.2-17.8c-1.3-5.3-2.2-10.6-2.1-16c.1-2.6 .3-5.3 .6-8c.3-3.1 .9-6.2 1.6-9.2c.7-2.7 1.5-5.3 2.5-7.8c1.9-5 4.6-9.6 8.2-13.3c5.6-5.7 12-8.8 18.7-10.1c3.6-0.6 7.2-0.7 10.9-0.5c2.9 .3 5.8 .7 8.7 1.4c3.8 .8 7.5 2 11.2 3.3c4.4 1.7 8.8 3.6 12.8 5.6c11.1 5.4 21.5 12.2 31 20.2c7.3 6.1 14.1 12.9 20.3 20.2c19.5 23 33.1 51 38.4 79.3c.8 4.3 3.8 8.7 6 13.9c1 2.4 1.8 5 2.1 7.8c.3 3.8 .6 7.4 .8 10.7c.4 5.9 .6 11.2 .9 16.2c.1 1.7-0.3 4.6-0.3 7.6c0 3.7 .4 7.3 2.6 8.7c.8 .5 2.8 1 5.1 1.3c2.2 .3 4.7 .4 6.9 .1c2.4-0.3 4.4-1 4.6-2.6c.3-2.4-0.8-5.3-1.7-8.2c-0.7-2.2-1.4-4.4-1.5-6.5c-0.1-2.9-0.2-6.1-0.4-9.4c-0.2-5.8-0.3-11.9 .3-18.1c.3-2.8 .6-5.4 1-8c.3-1.7 .6-3.4 .9-5.1c.3-1.4 .5-2.8 .8-4.2c.5-2.4 .9-4.8 1.2-7.2c.5-2.7 .8-7.8 1.9-12.6c1.1-5.1 2.9-9.9 6.1-11.4c7.9-3.8 11.5 .7 13.1 7.1c.7 3.1 1.1 6.5 1.2 9.7c.2 5.3 0 9.9 .4 11c1 3 1.5 5.8 1.7 8.6c.3 3.1 .3 6.2 .5 9.8c.3 4.9 0 8.8-0.2 12.6c-0.1 1.7-0.2 3.4-0.2 5.1c.1 2.3 .3 4.6 .8 7.2c.4 1.8 .4 5.1 .7 8.2c.3 3 .9 5.8 2.3 7c.6 .6 2.4 .9 4.5 1c1 0 2.1 0 3.2 0c1.3-0.1 2.5-0.2 3.6-0.3c1-0.1 1.9-0.2 2.3-0.4c3.7-1.2 3.7-3.9 2.6-7c-1.3-3.9-4.5-8.3-5.1-11c-1.4-5.2-1-16.3-0.1-27.3c.4-4.2 .9-8.4 1.4-12.3c.5-4.1 1.1-7.8 1.7-10.9c.6-2.8 1.2-5 1.6-6.3c2.5-7.3 .9-15.4 9.4-21.6c8.8-6.3 11.5-14.6 12.1-28c.4-8.4 3.7-14.9 6.5-19c2.1-3 3.9-4.7 4.2-4.8c.4-0.2 2.6-2.4 4.6-4.9c3.1-3.8 5.8-8.3 1.3-8c-1.5 .1-2.4 1.5-2.1 3c.1 .9 .7 1.9 1.8 2.7c1.4 1 3.6 1.7 6.9 1.6c4.5-0.1 7.1-1.6 8.1-3.2c1.3-2 .1-4.2-2.7-3.9c-2.5 .2-2.8 1.7-2.1 3.1c1 2.1 4.1 4.2 6.5 3c6.6-3.2 7.3-7.2 5.9-11.4c-1.5-4.8-5.6-9.8-6.9-14.3c-0.6-2.1-0.5-4.7 0-7.3c.6-3 1.9-6.1 3.4-8.8c.9-1.7 3.6-4.7 6.2-4c2.9 .8-0.5 7-6.9 9.4c-2.2 .8-4.9 1.4-7.6 1.6c-3 .4-6.1 .3-9 0c-3.1-0.4-5.8-1.2-7.8-2.3c-3.1-1.7-8-7.2-6.2-8.9c.7-0.7 1.5-0.9 2.3-0.9c1.1 .1 2.2 .9 3 2.1c2.6 3.8 3.5 7.8 3.5 11.7c-0.1 2.5-0.4 5-1 7.4c-0.4 1.9-0.9 3.7-1.4 5.3c-0.6 2.2-1.2 4.1-1.4 5.6c-0.2 2.3-1.3 6-1.5 9.7c-0.3 4.6 .5 9 5.6 10c1.9 .3 6.8 .5 11.5 .4c1.8 0 3.6-0.1 5.2-0.3c2-0.2 3.7-0.6 4.5-1.1c4.4-2.8 3.8-6 2.2-9.5c-1.8-3.9-4.9-8.2-3.7-12.5c1.2-4.3 3.1-7.5 5.1-10.6c2.6-3.9 5.2-7.6 6.7-13.1c1.1-4 1.1-9.5 2.2-14.3c1-4.3 3.1-8.1 7.8-9.7c4.3-1.4 8.5-1.7 12.2-1.6c4.6 .2 8.3 1.1 10 1.5c5.3 1.2 6.9 4.7 3.4 9c-4.5 5.6-14.4 11.2-21.5 11.5c-0.6 0-1.2 0-1.8-0.2c-0.6-0.1-1.2-0.2-1.7-0.5c-0.4-0.1-0.8-0.3-1.1-0.5c-0.7-0.3-1.3-0.7-1.9-1.1c-3.2-2.3-5-4.7-5.8-7c-0.8-2.1-0.8-4.3-0.3-6.4c.3-1.4 .8-2.8 1.5-4.2c1.5-3.5 3.8-7.1 5.8-10.9c.2-0.4 .7-1.1 1.3-2.1c.5-0.6 1-1.4 1.3-2.1c.3-0.6 .6-1.2 .7-1.7c.1-0.6-0.1-1.1-0.6-1.2c-0.5-0.2-1.8 1.1-4.1 3c-1.4 1.1-3.1 2.4-5.3 3.7c-1.5 .9-3.2 1.8-5.2 2.6c-4.7 2-10.8 3.5-18.4 3.5c-6 .1-11.2-1.2-15.4-2.9c-5.7-2.3-9.8-5.5-12.6-7.7c-2.3-1.8-3.6-3-4.1-2.5c-1.6 1.6-0.6 4.1 1.2 6.6c1.1 1.5 2.5 3.1 3.7 4.3c1.2 1.4 2.2 2.4 2.5 2.8c.7 1.6 1 2.9 1.1 4.1c0 1.3-0.3 2.6-0.6 3.9c-0.4 1.3-0.8 2.8-1 4.7c-0.2 2 .3 3.8 1.3 4.8c.7 .7 1.6 1 2.6 .9c1-0.2 2.2-0.8 3.4-1.9c1-0.9 1.9-2.2 2.8-3.7c.7-1.2 1.5-2.6 2.2-3.9c1-1.6 2.1-3.2 3.3-4.4c1.2-1.2 2.6-2.1 4.2-2.5c3.2-0.6 5.4-0.5 7.2 0c1 .3 2 .7 2.9 1.2c2 1.1 4.1 2.5 7.3 3.8c.7 .2 2.2 .6 3.7 .6c.8 0 1.6-0.1 2.3-0.4c.8-0.5 1.2-1.3 .8-2.9c-2.2-7.7-9.2-12.5-17-13.6c-3.8-0.5-7.7-0.2-11.4 1.1c-1.6 .6-3.3 2-4.8 3.6c-1.7 1.9-3.2 4.2-4.1 6.1c-1.5 3.6-3.4 6.7-5.4 9.2c-1.2 1.6-2.5 2.9-3.7 4c-1.4 1.3-2.7 2.3-4 3c-1.7 1.1-3.2 1.7-4.4 1.7c-4.2 .3-9.4-1.2-14-3.9c-3.6-2.2-6.8-5.1-8.8-8.6c-0.5-0.9-0.8-1.8-1-2.7c-0.1-1-0.1-1.9 .2-2.8c.4-1.2 1.2-2.2 2.3-2.8c.7-0.4 1.6-0.6 2.6-0.5c.5 0 2.1 0 4.2 0c1.3 0 2.7 0 4.3 .1c5.6 .4 12.4 1.7 16 5.9c1 1.2 2.4 4.1 3.2 7.1c.8 2.9 1 5.9-0.3 7.3c-1.5 1.5-4.1 2.7-6.9 3.6c-3.5 1-7.4 1.6-9.8 1.5c-0.9-0.1-2.3 0-4 .2c-2.8 .3-6.6 .9-11.1 1.6c-4.8 .7-10.3 1.6-16.2 2.4c-5.7 .9-11.8 1.7-17.7 2.3c-5.2 .6-10.4 1-15.2 1.2c-11.1 .4-20.5-0.5-24.7-3.9c-29.7-23.9 18.1-237.3 14.8-292.2c-1.5-24.7-9.9-59.4-34.5-63.6c-14.7-2.6-27.2 3-41.5 4.3c-4.6 .4-15.4 1.2-20.1 .9c-13.1-0.7-8.9-12.7 4.1-14.2c13.5-1.4 36.1 7.9 39.1 24.9c5.8 32-29 69.7-57.5 55.4c-23.9-12.1-36.4-58.3-21.3-83.4c14-23.3 50.3-36.5 74.8-27.4c36.1 13.3 6.9 72.8 6.9 103.8c0 23.1 19.3 41.5 39.7 39.4c4.7-0.4 10.4-4.2 14.4-7c12.1-8.5 20.5-27.2 18.4-43.3c-2.7-20.9-31.4-50.7 1.7-60.4" fill="none" stroke="#007b52" stroke-width="4px" opacity="0" stroke-dasharray="7890 4200" transform="translate(212,359.8) translate(-212,-359.8)"/><path id="GreenString3" d="M28.3 1433.1c62.6-36.9 113-86.2 157.6-143.1c27-34.6 54.6-69.8 73.3-109.8c52.9-112.9 33-248.9-30.7-352.8c-24.5-39.8-53.5-75.4-87-107.9c-56.9-55.2-137.8-210.4-92.8-312.9c34.4-78.4 88.7-82.7 132.4-83.1c37.5-0.3 24.3 44 24.3 44l-47.9 72.3l5.5-8.2l-21.7 1.2l21.7-1.2l33.5-50.6l14.8-1.7l-14.8 1.7l8.9-13.5l-101.4 12.9l-11.3 16.6l96.7-9.8l-96.7 9.8l-13.8 19.8l96.2-7.8l-96.2 7.8l-14.6 20.8l49.4-3.1l-49.4 3.1l-15.6 22.3l36.8-2.1l-36.8 2.1l-14.8 21.2l57-2l-57 2l-15.2 21.8l79.6-1.2l-79.6 1.2l-16.7 23.8l94.4-0.7c.9-7.6 2.9-20.1 1.5-27.6c-1.7-8.7-7.6-15.5-7.6-24.6c0-2.9-0.1-5.9 1.3-8.5c.5-1 2.5-2.9 1.6-4.2c-0.8-1.1-2.8-1.6-4.1-2.1c-3.4-1.2-6.9-2.2-10.2-3.4c-1.5-0.6-4.7-1.5-4.6-3.5c.1-5 10.8-5.1 14.2-5.4c.9-0.1 3.3-0.4 3.6-0.6c2.7 3 .3 8.9 4.4 13.3c3.8 4 11.6 2.4 8.9-2.9c-1.7-3.2-5.8 1.3-5.5 3.6c.4 2.9 5.4 4 6.7 7.1c4.3 10.6-6.7 27.2 8.1 33.1c4.8 1.9 10 1.1 13.8-2.2c.9-0.8 3.5-3.2 2.7-4.6c-1.4-2.7-7.5 1.2-9.9-0.4c-1.8-1.1-10.4-11.8-6.9-12.6c2.2-0.5 2.7 2.3 4.2 2.7c2.1 .6 3.6-3.4 6.8-1.9c4 1.8-4.2 6.6-4.7 7.9c-0.6 1.2 .7 2.8-0.3 3.8c-2.9 2.8-9-2.3-9.7 2.5c-0.1 1.4 .4 2.7 1.5 3.7c2.7 2.7 14.1 2 16.6-0.9c1.2-1.3 2.5-7.9 2.8-9.6c.3-1.3 .3-7.4 2.1-7.7c1.2-0.2 .3 2.5 .2 3.1c-0.4 2.3-1.8 4-2.7 6c-1.7 4-2 9.3 2.1 6.2c10.3-7.9 1.9-22.1 4.7-31.8c.4-1.4-0.1-4 .6-5.2c.8-1.4 6.3-6.4 6.9-1.7c.3 2-4.5 5.6-5.8 3.1c-0.5-0.9 .4-3.2 1.2-3.8c.5-0.3 4.5-1.7 5.1-2.3c3.1-2.5 7.3-7.2 6.9-10.1c-0.4-2.6-2.6-5-4.4-6.9c-9.1-9.3-26.5-6.6-37.3-2.1c-4.3 1.8-7.6 4.3-10.6 7.7c-0.1 .1-2.6 3.2-2.5 3.3c.2 .1 1.1-0.8 1.1-0.9c2-1.7 4-3.4 6.3-4.7c4.8-2.9 11.2-4.1 16.8-4.7c15.5-1.8 20.4 7.4 33.1 10.7c4.6 1.2 11.1-1.3 15.1 .6c3.3 1.5 2.4 5.7 .4 7.8c-3.5 3.7-9.6 6.9-15 6.6c-1.8-0.1-7.3-3.9-4.9-6.1c.8-0.8 3.4 2.6 3.6 3c2.1 3.7 1.2 9.1 1.8 13.2c.7 5 4.9 6.9 6.8 11.1c2 4.4 1.9 10 2.5 14.7c.9 7.7-1.6 13.5-4 20.6c-1.9 5.5-3.4 10.3-4.2 15.9c-1.9 14.1 8 26.8-0.6 49c-2.9 10.1-11.4 18.4-13.1 29.1c-0.3 2.4 0 4.8-0.1 7.3c0 3.3-0.5 6.7 0 10c.8 5.2 2.3 11.2 .2 16.2c-0.4 .9-1 1.6-1.8 2.2c.3 .2 .6 .3 .7 .3c4.5-0.2 5-7.2 5.2-7.1c.3 0 11.8 8.6 13.7 8.6c-1.9 0-13.4-8.6-13.7-8.6c-0.2-0.1-0.7 6.9-5.2 7.1c-1.6 0-8.3-7.8-8.1-7.8c.1 0-1.9 6.4-5.6 8.2c-0.6 .3-1.3 .4-2 .4c-1.3-0.1-1.9-7.6-2.4-7.5c-0.5 0-8.1 7.4-8.1 7.5c0-0.1 7.6-7.5 8.1-7.5c.5-0.1 1.1 7.4 2.4 7.5c.7 0 1.4-0.1 2-0.4c-0.8-1.1-1-2.7-1.2-3.9c-0.8-5 2.2-9.6 2.5-14.6c.1-3 .6-6.5-0.5-9.4c-0.7-2-2.3-3.5-3.5-5.1c-1.5-1.9-2.7-4.2-3.6-6.4c-2.3-6.1-2.2-12.3-5.5-18.1c-3.2-5.7-7-11.2-11-16.3c-3.9-5.1-8.6-10.5-10.7-16.6c-1.3-3.7-1-8-1.2-11.9c-0.3-4.3-0.8-8.4-0.1-12.7c.1-0.3 .5-3.7 1-3.7c.5 0 .5 2.6 .5 2.9c0 3.1-1.3 5.9-1.2 9.1c.2 5.9-0.9 12.1 .2 17.9c.6 3.3 2.1 6.5 3.9 9.3c8.7 13.7 26.4 19.8 41.7 22.9c4.1 .8 10.8 .6 14.6 1.5c3.1 .7 3.7 2.3 8.6 3.8c4 1.3 11.7 .8 14 5.5c2.5 5.1 7.6 29 8.8 36.8c-2 2.5-4.5 5-4.5 4.9c0 .1 2.5-2.4 4.5-4.9c1.2-1.5 2.2-3 2.5-4c0 0 .9 8.8 2.3 8.8c4.4-0.1 5.8-8.8 5.7-8.8c0 0 3.1 9.8 4.8 9.8c1.4 0 2.5-0.9 3.2-2.3c-1.2-4.1-6.2-9-6.4-13.1c-0.3-5.2 6-21.7 7.4-26.8c2.9-10.6 11.6-18.2 12.2-29.9c.1-3.3-2.7-21.5-8.5-20.5c-3.6 .6-1.4 23.6-1.4 27c0 8.1 6.7 15.2 8.4 21.7c2 8.1-5.3 17.3-5.2 21.8c-1.6 2-4.2 4.7-6.8 4.6c4.1 .1 8.2-6.8 8.6-6.7c.6 .1 2 6.7 6.1 6.7c7.2 .1 4-6.4 4.5-6.2c.4 .1 2.2 1.7 3.6 3.4c2.6-5 5.4-11.8 6.5-30.7c.2-3.1 10-38.2 4-24.4c-2.7 6.1-0.8 24.6-1.3 39.4c-0.2 6-1.6 11.5-2.5 15.3c0 0 2.1 9.3 9.6 9.4c6.2 .1 4.9-10.4 4.9-10.4c.2 0 .9 1.3 2 2.9c1.9 2.6 4.9 6.3 8.7 7.4c-3.8-1.1-6.8-4.8-8.7-7.4c.2-0.9 .4-1.9 .5-2.9c1.8-13.2 1.7-16.5 4-25c5.1-18.2 17.2-20 23.9-33.6c2.7-5.5 3.6-9 5.2-14.8c1.9-7.3 1.5-4.4 2.6-10c.4-2 5.3-5 5.8-11.5c.2-3.3 .3-3.9 0-7.2c.2 2.7 .2 3.8 .1 5.2l31.2 2.5l-8.5-0.6v16.4c-1.5 2.6-3.4 5.3-3.4 5.2c0 .1 4.5-6.1 5-8.9c0 0 .7 8.8 1.7 8.8c3.1-0.1 4.1-8.8 4.1-8.8c0 0 .4 2.1 1.1 4.6c.8 2.6 1.7 5.2 2.3 5.2c-0.6 0-1.6-2.6-2.3-5.2v-16.7l25.6 2.2l72.5-99l-64.1 2.6l-5.8 7.6l-11.1-0.1l11.1 .1l-2.6 3.3l63.2-1l-63.2 1l-9.6 12.3l63 .1l-63-0.1l-10 12.8l62.6 1.6l-62.6-1.6l-10.8 13.9l63.6 1.6l-63.6-1.6l-10.2 13.1l63.4 3.3l-63.4-3.3l-10.4 13.5l62.5 4.7l-62.5-4.7l-6 7.2c-0.8-15.2-7.6-28.2-19.3-40.7c-3.9-4.2-8.4-7.1-13.3-9.1c4.9 2 9.4 4.9 13.3 9.1c8.9 9.5 14.9 19.5 17.7 30.1c0 .1 8.1-10.6 8.1-10.6l-12.3-0.6l12.3 .6l10.3-13.5l-31.6-0.8l31.6 .8l9.6-12.6l-57-1.6l57 1.6l9.9-13l-60.4-0.4l60.4 .4l9.4-12.3l-60.4 .7l60.4-0.7l8.8-11.4l-61.1 2.2l-26 32c-1.3-0.5-2.5-1-3.8-1.4c-16.1-5.1-35.8-2.2-52.1-2.1c-9.6 0-16.4 3.6-24.9 7c-1.9 .7-4.3 1.8-6.4 .9c-1.2-0.5-3.8-3.3-2.9-2.4c-0.9-0.9 1.7 1.9 2.9 2.4c2.1 .9 4.5-0.2 6.4-0.9c8.5-3.4 15.3-7 24.9-7c16.3-0.1 36-3 52.1 2.1l13.1-20.9l-97 6.4l97-6.4l15.2-24.2l-103.3 6.6l103.3-6.6l15.9-25.1l-104 9l104-9l14.9-23.7l-104.4 11l104.4-11l14-22.1l-105.5 13.9l-54.5 81.2l54.5-81.2l-54.5 81.2l54.5-81.2c0 0-1.3-37.4 0-56.8c1.4-19.3 11.6-167.1 9.8-200.7c-1.3-23.6-9.9-59.4-34.5-63.6c-14.8-2.5-27.2 3-41.5 4.3c-4.6 .5-15.4 1.2-20.1 1c-13.1-0.8-8.9-12.8 4.1-14.2c13.5-1.5 36.1 7.9 39.1 24.8c5.8 32-29 69.8-57.5 55.4c-23.9-12-36.4-58.3-21.3-83.4c14-23.3 50.3-36.4 74.8-27.4c36.1 13.3 6.9 72.8 6.9 103.8c0 23.1 19.3 41.5 39.7 39.5c4.7-0.5 10.4-4.3 14.4-7c12.1-8.5 20.5-27.3 18.4-43.3c-2.7-21-31.4-50.7 1.7-60.5" fill="none" stroke="#007b52" stroke-width="4px" opacity="0" stroke-dashoffset="-1430" stroke-dasharray="8000 10000" transform="translate(195.2,887) translate(-199.5,-774.1)"/></g><g transform="translate(210,773.4) translate(-212,-775.5)"><path id="DarkStringJank" d="M64.9 236.1c-4.4-14.1-4.8-37.6 4.3-49.8c16-21.3 45.3-16.6 58.4 9.2c7.2 14.1 5.9 57.8-15 55c-20.6-2.9-16.4-30-10.1-45.9c12.3-30.7 39.9-54.3 71-36.8c19.1 10.7 11.6 40.2 6.9 57c-11.6 41.9-23.3 83 25.2 100.4c8.8 3.2 19.6 4.5 28.8 3.3c55.7-7.7 89.2-74.5 88.3-131.8c-0.8-43.2-26.1-86.5-69.9-71.8c-26.6 9-31.2 43.7-12.8 62.8c33.7 35 104.1 4.6 98.7-48.2c-6.4-62.4-83.9-81-129.7-74.4c-18.6 2.6-42.9 12.3-51.9 32.4c-8 17.7 1.5 35.7 12.9 48.6c19.6 22.3 58.1 41.9 61.1 76.7c2 23.8-20.8 47.2-40.1 51.5c-39.2 8.8-101.5-17.3-98.5-68.7c2.6-43 55.6-93.7 93.2-97.1c37.6-3.4 74.4 29 70.8 73c-1.2 15.1-6.8 29.1-13.1 42.4c-4.6 9.8-10.2 16.6-17.2 24.5c-21 23.9-58 24.7-80.4 5.1c-34.6-30.2-56.5-94-111-55.1c-20.3 14.5-15.9 42.4-5.9 63.5c18.4 38.9 67.5 78.2 102.5 38c6.1-7 11.3-13.2 14.6-22.1c7-18.6 14.2-43.6 6.4-63.1c-18.6-46.2-97.9-87.8-57.2-152.5c38.5-61.4 141.1-50.9 171.5 15.2c32.6 71-53.1 141.3-12.2 210c18.8 31.6 57.2 31.9 86.1 17.8c39.6-19.3 65.9-64.4 61.7-111.5c-2.5-28.1-39.4-47.4-56.9-26c-37.4 45.6-19.9 141.4-96.9 145.7c-31.3 1.7-73.1-2.7-97.2-26.4c-20.3-20-23.2-48.9 1.5-64.9c38.5-25 52.4 29.7 23.2 52.4c-52.5 40.8-122.9-21.7-137.7-78.5c-22.6-87 71.7-129.9 136.5-109.4c55.6 17.6 20.3 108.3 77.9 120c33.5 6.9 58.2-35.8 66-61.2c7.8-25.3-10.6-54-44.1-55.3c-31.1-1.2-65.5 4.4-78.5 35.5c-2.6 6.2-4.3 12.8-5.1 19.6c-2.3 18.2 2.1 37.3 9.5 54c4.1 9.3 12.1 18.7 12.8 29.1" fill="none" stroke="#2a4059" stroke-width="4px" opacity="0" transform="translate(211.6,175.2) translate(-211.6,-175.2)"/><path id="DarkString1" d="M272.8 748.1c-8.3 19-22.6 20.2-31.5 36.2c-1.5 2.7-7.6 13.9-2.9 15.9c9.6 4.3 22.2-24.1 19.5-32.4c-1.8-5.6-9-7.9-9.7-11.6c-0.4-2.5 1-11.8 5.3-9.6c4.3 2.2-4.8 12.4-6.8 13.4c-24.6 12.6-35.4 31.4-28.1 35c7.9 3.8 15.1-15.9 15-22.6c-0.1-9.9-6.4-9.5-8.9-16.5c-1-2.6 .1-9.8 4.3-8.3c3.3 1.3-4.5 9.6-5.8 10.8c-6 5.8-17.3 17.4-26.5 13.1c-10-4.7-1.8-18.3 3.4-22.1c4.8-3.6 10.6-1.7 8 3.8c-3.8 8.4-20.6 22-32.3 19.2c-4.4-1 3.7-19.3-2.1-21.1c-6.7-2.1-19.3 22.9-19.7 24c-0.7 1.7 9.6-25.7 2.4-27c-0.2 0-0.5 0-0.7 0c-9.3 1.1-20.3 31.7-20.4 31.3c-1-5.1 13.9-44.2-4.1-42.4c-13.1 1.3-23.1 13.6-34.7 19.3c-20 9.8-48.4 6.7-60.5-3.1c-15.8-12.7-14.7-35.7-12.4-43.1c5.6-18.1 19.3-34.8 30.2-31.9c1.7 .4 2.9 4.3 .3 9.7c.3-0.7 3.5-8.1-0.3-9.7c-2.8-1.2-6.6 .4-9 1.8c-6.1 3.8-18.7 24.1-4.9 28.9c7.9 2.7 18.1-12.3 29.6-28c20.1-27.3 40.5-61.5 31.8-64.8c-18.5-7.2-41.6 90-32.8 97.4c6.1 5 18.2-18.9 23.6-33.4c1.3-3.1 7.1-5.8 7.6-8.1c.6-2.2-1.7-5.6-5.1-5.6c-3.5 .1-5.4 2.9-5.1 4.6c.5 2.7 4.6 2.8 2.6 9.1c-1.3 3.5-10.6 32.5-1.7 30.7c8.7-1.7 23.4-21.8 24.4-28.9c.1-0.2-6.3 30.3-6.4 30c0-0.5 11.5-31.1 20.4-30.1c10.6 1.2-1.7 28.3-1.6 27.9c3.8-7.6 12.5-27.7 21-25.6c6.7 1.6-1.8 21.1 1.8 22.9c1.7 .9 11-14.6 15.9-18.6c10.8-8.5 18-9.2 17.9-9.1c-0.5 .1-7.2 1.9-9.3 3.5c-4.4 3.4-14.6 17.8-8.6 23.4c8.6 7.9 23.8-27 24.2-27.3c.3-0.2-12.1 28.1-6.2 28.5c10.9 .6 23.4-20.9 27.3-31.2c5.3-14.1 19.2-55.7 14.9-56.2c-3.5-0.4-13.5 36.9-12.2 38.6c1.1 1.5 33.3-0.6 33.4-1c0-0.2-64.1 .3-65.4 .9c-0.5 .2 33.5-1.4 34.5 .5c.6 1-13.8 42.3-11.6 45.9c4 6.4 40.7-11.9 34.9-22.9c-1.9-3.7-9.4 1.9-11.3 3.5c-7.3 5.8-11.5 24.9 3.7 20.4c42.7-12.9 71.8-83.3 44.2-112.6c-24.4-26.1-70.7 13.4-73.9 15.3c-13.2 7.7-21.6 .9-20.9-5.2c1.6-12.1 16.5-21.4 19.1-17.5c8.3 12.6-27.4 26.9-31.1 26.8c-6.6-0.3-0.4-19.1-6.5-19.2c-5.9-0.1-16.6 22.3-16.8 22c-0.4-0.9 8.5-56.9 17.5-74.4c2.9-5.7 10.1-22.4 14.9-20.6c6.3 2.6-4.8 34.4-8.3 41.7c-4.7 10-36.4 51.2-39.4 50.6c-5.7-1.1 8.1-54.6 4.9-54.1c-9.7 1.5-37.6 3.9-37.6 .4c.1-5.4 69.8-1.2 69.7-1.1c-1.8 1.8-27.3 5.1-28.4 2.3c-0.8-1.9 6.6-44 12-43.4c3.4 .4-12.7 50-22.7 64.5c-13.5 19.8-23.3 22.2-32.3 23.5c-20.3 3.1-23-25.5-20.3-39.1c4.8-24.7 26.5-45 48.4-55.7c28.7-14 59-7.9 88.9-1.1c39.5 9 80.9 19.6 121.9 16.8c36.4-2.5 81.1-36.4 65.2-56.9c-8.5-11.1-38.3 15.8-48.1 26.7c-8.7 9.8-35.4 51.3-20.6 62c8.6 6.2 30.8-13.4 32-76.7c.1-6.2-0.1-10.3 1.7-16.5c.3-1.2 2.1-7.2 4-6.9c2.4 .4-0.1 6.7-0.6 7.9c-2.4 5.7-17.1 19.3-21.7 16c-6.1-4.4 2.7-21.7 9.2-25.6c7.3-4.5 15.1-2.3 14.9-2.3c-0.4-0.2-8.2-1.2-14.9 2.5c-8.7 4.7-15.5 25.8-25.8 25.9c-4.6 0 3.8-25.1-1.3-26.1c-9.9-2-18.8 27.9-18.8 27.8c0-4.4 11.3-47.4-0.5-25.4c-2.5 4.7-10.2 25-17.6 24c-5.1-0.6 .9-24.6 1.5-28c0-0.6 2.1-4.7 1.4-5.7c-1.4-1.9-4-4.3-3.9-7.6c.2-7.1 12.2-5.9 10.5 .9c-0.5 2.3-4.3 5.4-5.8 7.1c-0.7 .9-2.1 5.1-2.2 5.3c-14.4 37-23.3 31.2-24.1 15.3c-1.9-35.9 18.5-82.5 30.3-78.4c13.5 4.8-16.6 54.3-36.3 73.5c-23.2 25.3-42 35.3-50 64.1c-2 7.4-5.9 30.8 3.8 34.7c8.2 3.3 18.7-16.8 22.3-27.4c7.7-23.3 5-55.7 5.3-60.5c.3-5.2 2.6-17.4 6.6-17c4.4 .6-11.7 28.5-20.2 22.9c-2.6-1.7-2.9-7.5-2.8-10.4c.6-9.6 12.7-19.4 22.1-17.1c1.3 .3-4.7-2.2-14 4.1c-5.6 3.7-14.3 23.7-21.3 22.9c-9.9-1.1 4.4-24-4.3-24.9c-10.6-1.1-19.1 29.3-19.2 28.9c-0.3-1.7 8.2-32 7.9-32.3c-0.1-0.1-12 31.3-24.7 30.7c-10.8-0.5 4.4-30 4.4-30c.2 .2-15.7 30.8-23 26.8c-6.4-3.4 1.4-18.7 7-22.8c4.4-3.2 10.3-3.8 11-3.9c1.5-0.3-5.7 .7-11 3.9c-4.3 2.6-20.6 22.8-23 24.1c-4.7 2.6 13-51.1 5.5-51c-6.9 .1-28.3 5.2-28.1 2.3c.3-6.1 63.8-3 63.6-3.2c-0.2-0.2-30.5 2.2-31.7 .5c-1.5-1.9 1.4-16.8 1.9-18.9c1.6-8.2 7.6-23.2 7.8-22.7c3.4 7.8-11.3 61.3-20.8 78.3c-4.4 7.7-13.7 21.9-16.8 11c-1.6-5.9 7.2-22.3-1.7-21.2c-12.3 1.6-19.7 31.9-19.6 31.8c.2-0.6 6.7-27.8 7.8-36.3c-4.7 11.4-15.2 37.7-29.9 34c-10.4-2.5-10.1-34.7-0.6-60.5c2.6-7 11.3-26.8 13.4-25.9c1.9 .8-3.4 18.2-6 26.1c-14.9 45-36.3 64.2-44.6 63.9c-22.9-0.7-7.8-45.4-8-60.9c0-5-0.4-18.1-8.1-18.8c-10.4-0.8-24.5 38.7-13.4 38.6c17.4-0.3 10.9-62.8 68.1-97.1c74.9-44.9 130.4-18.7 133.6-93.3c1.2-27.7-25.6-67.8-29.7-77.1c-7.4-16.7-11.8-35.8-9.5-54c.8-6.8 2.5-13.4 5.1-19.6c13-31.1 44.7-38.3 75.8-37.1c33.6 1.3 54.2 38.6 47.9 58.9c-9.4 30.4-33.6 66.1-67.1 59.2c-57.6-11.7-20.6-105.4-76.2-123c-64.9-20.5-163.7 25-141.1 112c14.8 56.8 87.1 117.5 139.6 76.7c29.2-22.7 18.8-79.2-19.7-54.2c-24.7 16-24.3 48.9-4 68.9c24.1 23.7 65.6 30.6 96.8 28.9c77-4.3 60.1-98.3 97.5-143.9c17.6-21.4 54.2-6.4 56.7 21.7c4.2 47.1-22.5 96-62.1 115.3c-28.9 14.1-69.1 11.9-87.9-19.8c-40.9-68.7 50.1-141.6 17.5-212.6c-30.4-66.1-138.6-76.7-177.1-15.2c-40.7 64.7 40 110 58.5 156.2c7.9 19.5 1.8 41.6-5.2 60.2c-3.3 8.9-7.4 17.2-13.5 24.2c-35 40.3-87.3-0.8-105.7-39.7c-10-21.1-12.3-49.4 8-63.9c54.5-38.9 76.4 24.9 111 55.1c22.4 19.6 59.9 22.1 80.8-1.8c7-8 12.2-18 16.8-27.8c6.3-13.3 11.9-27.3 13.1-42.4c3.6-44-33.5-71.8-71-68.4c-37.7 3.5-87.4 49.1-89.9 92.1c-3.1 51.4 56.1 76.4 95.4 67.6c19.2-4.3 44.5-25.6 42.5-49.4c-3-34.7-43.9-55-63.5-77.3c-11.4-12.9-20.9-30.9-12.9-48.6c9-20.1 32.9-26.2 51.5-28.9c45.8-6.6 120.4 8.3 126.8 70.7c5.4 52.8-61.7 83.4-95.4 48.4c-18.4-19.1-16.5-56 10.1-64.9c43.8-14.8 75.3 29.6 76 72.8c1 57.2-36.8 123.1-92.5 130.8c-9.2 1.3-18 .4-26.9-2.8c-48.4-17.4-37.9-56.9-26.3-98.8c4.7-16.8 13.2-47.9-5.8-58.7c-31.1-17.5-63.1 8.6-75.4 39.3c-6.3 15.9-7.2 42.2 13.4 45.1c20.9 2.8 24.4-41.4 17.2-55.6c-13.2-25.8-45-23.8-60.9-2.5c-9.2 12.2-8.4 29.6-4 43.7" fill="none" stroke="#2a4059" stroke-width="4px" stroke-dashoffset="-5930" stroke-dasharray="4900 9000" transform="translate(220.1,419.7) translate(-203.1,-401.7)"/><path id="DarkString2" d="M316.1 742.3c0-6.1 1.2-13.7-2.6-52.6c-2.4-24.4-14.4-32.4-26.6-36.5c3-14.7 2.8-37.1-2.3-68.8c-10.3-64.9-27-85.9-38.6-83.4c11.6-2.5 28.3 18.5 38.6 83.4c5.1 31.7 5.3 54.1 2.3 68.8c-10.8-3.5-21.6-4-25.9-9.9c.4 .8 1.3 3.2 2.7 6c3.7 1.5 4.9 2.8 10.9 4.5c10.1 2.9 22.1 4 29.8 22.3c4.7 11 6.9 80.1 7 86.2c-0.1-6.1-2.3-75.2-7-86.2c-7.7-18.3-19.7-19.4-29.8-22.3c-6-1.7-7.2-3-10.9-4.5c1 1.9 2.1 4 3.4 5.9c1.5 1.2 6.5 3.4 11.5 4.9c7.5 2.2 12.9 3 18.2 12.7c6.1 11.1 7.6 77.1 7.6 77.1c0 0-1.5-66-7.6-77.1c-5.3-9.7-10.7-10.5-18.2-12.7c-5-1.5-10-3.7-11.5-4.9c-1-0.7-7.6-15.5-6.1-11.9c.4 .8 1.3 3.2 2.7 6c1 1.9 2.1 4 3.4 5.9c1.4 2.1 2.9 4 4.6 5.4c8 4.1 21.8 4.2 23.9 33.4c3.8 51.8 3.8 81.1 3.8 81.1c0 0 0-29.3-3.8-81.1c-2.1-29.2-15.9-29.3-23.9-33.4c-9.1-7.2-18.6-35.3-24.3-69.8c-5.8-35.5-4.9-66.2 1.6-74.8c1.2-1.5 2.4-2.2 3.4-2.3c1.9-0.3 3.9 .7 6 2.8c3.4-4.7 4.6-13.8 1.8-32.4c-0.6-3.9-1.9-11.1 1-19.5c-2.9 8.4-1.6 15.6-1 19.5c2.8 18.6 1.6 27.7-1.8 32.4c1.6 1.7 3.2 4 4.9 6.8c3.1-1.5 9-6.5 8.4-19.2c-1-23.2 2.2-23.6 3.6-28.4c-1.4 4.8-4.6 5.2-3.6 28.4c.6 12.7-5.3 17.7-8.4 19.2c1.4 2.5 2.9 5.4 4.3 8.8c5.5 13 10.7 31.8 14.2 53.1c4.6 28.1 5 53.2 1.8 66.7c3.2-13.5 2.8-38.6-1.8-66.7c-3.5-21.3-8.7-40.1-14.2-53.1c6-1.6 12.5-9.3 13.5-20.2c.6-6.6 .2-13.4 3.3-23c4.8-14.5 17.7-11.2 21-28.5c2-10.3-7.8-17.6-12.6-16.4c-2.5 .7-5.2 1-7.9 .8c15 .7 27.6-11 28.2-26c.5-11.8-6.7-22.1-17.1-26.2c-2.8-1.1-5.7-1.8-8.9-2c-5.5-0.2-10.7 1.3-15.1 3.9c4.4-2.6 9.6-4.1 15.1-3.9c3.2 .2 6.1 .9 8.9 2c9-16.2 3.1-36.6-13-45.6c-16.2-9-36.6-3.2-45.6 13c-5.6 10.1-5.5 21.9-0.6 31.4c2.9 5.8 7.5 10.8 13.6 14.2c-6.1-3.4-10.7-8.4-13.6-14.2c-9.7 1.3-16.6 10.1-15.6 19.9c.8 7 5.6 12.7 11.8 14.9c2.5 .9-6.3-2.2 0 0c2.5 .9 5.3 1.3 8.1 1c-2.8 .3-5.6-0.1-8.1-1c-0.5 1.9-0.8 4-0.7 6.2c.2 9.7 6.1 16 8.3 17.4c1.4-4.6 4.6-8.9 10.8-11.1c-14.3 5.1-12.3 20.8-10.5 27.1c2.5 8.6 9.2 15.1 10.7 24.2c1 5.9 2.4 18.7-2.6 26c-6.5 8.5-7.4 39.2-1.6 74.8c5.7 34.5 15.2 62.6 24.3 69.8c3.2 1.6 7.2 2.6 11.1 5c-2.1 4.2-4.6 7.2-7.6 9.1c3-1.9 5.5-4.9 7.6-9.1c0 0-0.8 17.2-13.7 17.6c-2.9 .1-5.8-1.9-8.8-5.4c3 3.5 5.9 5.5 8.8 5.4c2.7-0.1 4.9-0.9 6.7-2.1c-15.9 4.5-35.1-56.2-40-88.1c-4.6-30-9.8-95.8 8.3-97.5c6.8 1 11.6 8.3 11.6 8.3c0 0-4.8-7.3-11.6-8.3c-1.5-0.2-3.3-0.1-5 .5c-3.1 1.1-5.5 4-7.3 8.3c-11.1 2.5-17.9 4-32.2 7.5c14.3-3.5 21.1-5 32.2-7.5c-8 18.8-3.6 63.6-0.4 89.2c8.7 56.6 28.9 84.3 28.9 84.3c0 0-15.8 1.5-31.1 2.9c4.2-0.4 7.8-0.7 10.9-1c.1 0-0.6 4.6-4.7 7.5c-20.4 7.2-39.6-55.8-43.5-87.8c-3.8-31.5-10.6-96.3 11.7-97c4.8 1.1 8.4 4.2 10 5.8c-2.4-2.3-8.9-7.8-17-5.8c-4.7 1.2-8.1 5.5-10.5 12.6l-0.7-48.4l-23.6-11.7l23.6 11.7l11.1-1.4l.3 37.2c.8-0.2 1.5-0.3 2.3-0.4c-0.1-4.1-0.6-43.3-0.6-43.3l-17.3-9.7l17.3 9.7c0 0 .1 3.6 .1 7.7l-40.4-22c0 0-0.1-8.2-0.1-8.2c0 0 1.1 129 .8 132.6c-0.7 8.4-9.9 15.7-15.7 20.4c1.4-0.6 2.9-1 4.5-1c.5-0.1 1.1-0.1 1.6 0c-0.5-0.1-1.1-0.1-1.6 0c-6.1 .2-10.8 5-10.6 10.6c.3 5.6 5.4 9.9 11.4 9.7c6.1-0.3 10.8-5.1 10.6-10.7c0-0.3 0-0.5-0.1-0.7c2-4 4-8.9 5-13.3c1.2-5 14.3-9.4 10.6 8.8c-4.9 24.3-12.1 30.7-27.9 31.2c-11.2 .4-23.4-10.8-23.1-28.4c.3-15.6 11.4-21.4 16.2-27.7c4.8-6.2 4.8-17.1 4.8-17.1l-0.1-24.8l-12.4 3.1l12.4-3.1v-2.7l.1 27.5c0 0 0 10.9-4.8 17.1c-4.8 6.3-15.9 12.1-16.2 27.7c-0.3 17.6 11.9 28.5 23.1 28.4c14.4-0.1 26-1.1 31.6-30.8c3.5-18.3-13.1-14.2-14.3-9.2c-1 4.4-3 9.3-5 13.3c-0.6-4.8-4.6-8.4-9.6-8.9c5.6-4.7 12.4-11.1 13.1-18.5c.1-1 0-0.7-0.1-15.8c-0.5-107.5-0.7-107.5-0.7-107.5l.6 74.5c0 0 3.3-0.7 4.8-1.1c6-1.5 12.3-3.1 19-4.8c-6.8 20.7-3.3 61-0.4 84.7c3.1 25.6 15.8 65.5 29 82.4c4.1 5.3 0 .1 0 .1c4.1 5.2 8.2 8.2 12.1 8c12-0.8 13.3-10.5 13.3-10.5c0 0-1.3 9.7-13.3 10.5c-3.9 .2-8-2.8-12.1-8l-49.5 3.7c3.2-0.2 6.3-0.4 9.3-0.7c-0.6 2.9-2.5 5.4-5.5 7.1c-19.8 2.2-38.7-52.5-42.5-82.1c-2-4.1-3-9.2-2.9-14.8c.1-2 .3-3.9 .6-5.6c-2.8-30.5-3.4-69.6 12.7-69.6c-1.8-0.2-3.7-0.2-5.8 .3c-19.4 4.6-14.5 60.9-10.7 90.1c3 23.9 15.8 61.3 29 76.8c3.9 4.5 7.8 7.2 11.6 7c7.8-0.5 12.4-4.3 13.5-9.2c-1.1 4.9-5.7 8.7-13.5 9.2c-3.8 .2-7.7-2.5-11.6-7c-21.8 1.5-37.7 2.4-43.6 1.8c-9-0.9-32-20.7-39-72.1c-6.6-49.2 2.1-71.6 12-74.4c9.8-2.8 25.2-6.7 42.2-11.1c2.2-6 5.5-10 10.1-11.1c5.8-1.4 10.4 .4 13.4 2.5l-0.5-83.1l14.1-3.7l15.6 8.7c0 0-21.7-48.7 36-161.3c25.7-50.1-13.6-76.4-26.1-102.8c-7.8-16.5-11.8-35.8-9.5-54.1c.8-6.7 2.5-13.3 5.1-19.6c13-31 44.7-38.3 75.8-37.1c35.3 1.1 55.8 35.7 47.9 59c-9.8 29.9-35.1 65.2-67.1 59.2c-57.6-11.8-20.6-105.5-76.2-123c-64.9-20.6-163.7 24.9-141.1 111.9c14.8 56.8 87.1 117.6 139.6 76.8c29.2-22.7 18.8-79.3-19.7-54.3c-24.7 16.1-24.3 49-4 69c24.1 23.6 65.6 30.6 96.8 28.9c77-4.3 60.1-98.4 97.5-143.9c17.6-21.5 54.2-6.4 56.7 21.7c4.2 47-22.5 96-62.1 115.2c-28.9 14.1-69.1 11.9-87.9-19.7c-40.9-68.7 50.1-141.7 17.5-212.6c-30.4-66.1-138.6-76.7-177.1-15.3c-40.7 64.7 40 110 58.5 156.2c7.9 19.5 1.8 41.6-5.2 60.3c-3.3 8.9-7.4 17.2-13.5 24.2c-35 40.2-87.3-0.9-105.7-39.7c-10-21.2-12.3-49.4 8-63.9c54.5-39 76.4 24.8 111 55.1c22.4 19.6 59.9 22 80.8-1.9c7-7.9 12.2-18 16.8-27.7c6.3-13.3 11.9-27.4 13.1-42.4c3.6-44.1-33.5-71.8-71.1-68.4c-37.6 3.4-87.3 49-89.8 92.1c-3.1 51.4 56.1 76.3 95.4 67.5c19.2-4.3 44.5-25.5 42.5-49.3c-3-34.8-43.9-55-63.5-77.4c-11.4-12.9-20.9-30.8-12.9-48.5c9-20.2 32.9-26.3 51.5-28.9c45.8-6.6 120.4 8.3 126.8 70.6c5.4 52.9-61.7 83.4-95.4 48.5c-18.4-19.1-16.5-56 10.1-65c43.8-14.7 75.3 29.6 76 72.8c1 57.2-36.8 123.2-92.5 130.9c-9.2 1.3-18 .3-26.9-2.8c-48.4-17.4-37.9-57-26.3-98.8c4.6-16.8 13.2-48-5.8-58.7c-31.1-17.5-63.1 8.6-75.4 39.3c-6.3 15.9-7.2 42.2 13.4 45c20.9 2.9 24.4-41.4 17.1-55.5c-13.1-25.8-44.9-23.9-60.8-2.6c-9.2 12.2-8.4 29.7-4 43.7" fill="none" stroke="#2a4059" stroke-width="4px" opacity="0" stroke-dashoffset="-6170" stroke-dasharray="4815 10000" transform="translate(213.8,772.7) translate(-196.9,-754.3)"/><path id="DarkStringJank-2" d="M315.1 742.3c0-6.1 1.2-13.7-2.6-52.6c-2.4-24.4-14.4-32.4-26.6-36.5c3-14.7 2.8-37.1-2.3-68.8c-10.3-64.9-27-85.9-38.6-83.4c11.6-2.5 28.3 18.5 38.6 83.4c5.1 31.7 5.3 54.1 2.3 68.8c-10.8-3.5-21.6-4-25.9-9.9c.4 .8 1.3 3.2 2.7 6c3.7 1.5 4.9 2.8 10.9 4.5c10.1 2.9 22.1 4 29.8 22.3c4.7 11 6.9 80.1 7 86.2c-0.1-6.1-2.3-75.2-7-86.2c-7.7-18.3-19.7-19.4-29.8-22.3c-6-1.7-7.2-3-10.9-4.5c1 1.9 2.1 4 3.4 5.9c1.5 1.2 6.5 3.4 11.5 4.9c7.5 2.2 12.9 3 18.2 12.7c6.1 11.1 7.6 77.1 7.6 77.1c0 0-1.5-66-7.6-77.1c-5.3-9.7-10.7-10.5-18.2-12.7c-5-1.5-10-3.7-11.5-4.9c-1-0.7-7.6-15.5-6.1-11.9c.4 .8 1.3 3.2 2.7 6c1 1.9 2.1 4 3.4 5.9c1.4 2.1 2.9 4 4.6 5.4c8 4.1 21.8 4.2 23.9 33.4c3.8 51.8 3.8 81.1 3.8 81.1c0 0 0-29.3-3.8-81.1c-2.1-29.2-15.9-29.3-23.9-33.4c-9.1-7.2-18.6-35.3-24.3-69.8c-5.8-35.5-4.9-66.2 1.6-74.8c1.2-1.5 2.4-2.2 3.4-2.3c1.9-0.3 3.9 .7 6 2.8c3.4-4.7 4.6-13.8 1.8-32.4c-0.6-3.9-1.9-11.1 1-19.5c-2.9 8.4-1.6 15.6-1 19.5c2.8 18.6 1.6 27.7-1.8 32.4c1.6 1.7 3.2 4 4.9 6.8c3.1-1.5 9-6.5 8.4-19.2c-1-23.2 2.2-23.6 3.6-28.4c-1.4 4.8-4.6 5.2-3.6 28.4c.6 12.7-5.3 17.7-8.4 19.2c1.4 2.5 2.9 5.4 4.3 8.8c5.5 13 10.7 31.8 14.2 53.1c4.6 28.1 5 53.2 1.8 66.7c3.2-13.5 2.8-38.6-1.8-66.7c-3.5-21.3-8.7-40.1-14.2-53.1c6-1.6 12.5-9.3 13.5-20.2c.6-6.6 .2-13.4 3.3-23c4.8-14.5 17.7-11.2 21-28.5c2-10.3-7.8-17.6-12.6-16.4c-2.5 .7-5.2 1-7.9 .8c15 .7 27.6-11 28.2-26c.5-11.8-6.7-22.1-17.1-26.2c-2.8-1.1-5.7-1.8-8.9-2c-5.5-0.2-10.7 1.3-15.1 3.9c4.4-2.6 9.6-4.1 15.1-3.9c3.2 .2 6.1 .9 8.9 2c9-16.2 3.1-36.6-13-45.6c-16.2-9-36.6-3.2-45.6 13c-5.6 10.1-5.5 21.9-0.6 31.4c2.9 5.8 7.5 10.8 13.6 14.2c-6.1-3.4-10.7-8.4-13.6-14.2c-9.7 1.3-16.6 10.1-15.6 19.9c.8 7 5.6 12.7 11.8 14.9c2.5 .9-6.3-2.2 0 0c2.5 .9 5.3 1.3 8.1 1c-2.8 .3-5.6-0.1-8.1-1c-0.5 1.9-0.8 4-0.7 6.2c.2 9.7 6.1 16 8.3 17.4c1.4-4.6 4.6-8.9 10.8-11.1c-14.3 5.1-12.3 20.8-10.5 27.1c2.5 8.6 9.2 15.1 10.7 24.2c1 5.9 2.4 18.7-2.6 26c-6.5 8.5-7.4 39.2-1.6 74.8c5.7 34.5 15.2 62.6 24.3 69.8c3.2 1.6 7.2 2.6 11.1 5c-2.1 4.2-4.6 7.2-7.6 9.1c3-1.9 5.5-4.9 7.6-9.1c0 0-0.8 17.2-13.7 17.6c-2.9 .1-5.8-1.9-8.8-5.4c3 3.5 5.9 5.5 8.8 5.4c2.7-0.1 4.9-0.9 6.7-2.1c-15.9 4.5-35.1-56.2-40-88.1c-4.6-30-9.8-95.8 8.3-97.5c6.8 1 11.6 8.3 11.6 8.3c0 0-4.8-7.3-11.6-8.3c-1.5-0.2-3.3-0.1-5 .5c-3.1 1.1-5.5 4-7.3 8.3c-11.1 2.5-17.9 4-32.2 7.5c14.3-3.5 21.1-5 32.2-7.5c-8 18.8-3.6 63.6-0.4 89.2c8.7 56.6 28.9 84.3 28.9 84.3c0 0-15.8 1.5-31.1 2.9c4.2-0.4 7.8-0.7 10.9-1c.1 0-0.6 4.6-4.7 7.5c-20.4 7.2-39.6-55.8-43.5-87.8c-3.8-31.5-10.6-96.3 11.7-97c4.8 1.1 8.4 4.2 10 5.8c-2.4-2.3-8.9-7.8-17-5.8c-4.7 1.2-8.1 5.5-10.5 12.6l-0.7-48.4l-23.6-11.7l23.6 11.7l11.1-1.4l.3 37.2c.8-0.2 1.5-0.3 2.3-0.4c-0.1-4.1-0.6-43.3-0.6-43.3l-17.3-9.7l17.3 9.7c0 0 .1 3.6 .1 7.7l-40.4-22c0 0-0.1-8.2-0.1-8.2c0 0 1.1 129 .8 132.6c-0.7 8.4-9.9 15.7-15.7 20.4c1.4-0.6 2.9-1 4.5-1c.5-0.1 1.1-0.1 1.6 0c-0.5-0.1-1.1-0.1-1.6 0c-6.1 .2-10.8 5-10.6 10.6c.3 5.6 5.4 9.9 11.4 9.7c6.1-0.3 10.8-5.1 10.6-10.7c0-0.3 0-0.5-0.1-0.7c2-4 4-8.9 5-13.3c1.2-5 14.3-9.4 10.6 8.8c-4.9 24.3-12.1 30.7-27.9 31.2c-11.2 .4-23.4-10.8-23.1-28.4c.3-15.6 11.4-21.4 16.2-27.7c4.8-6.2 4.8-17.1 4.8-17.1l-0.1-24.8l-12.4 3.1l12.4-3.1v-2.7l.1 27.5c0 0 0 10.9-4.8 17.1c-4.8 6.3-15.9 12.1-16.2 27.7c-0.3 17.6 11.9 28.5 23.1 28.4c14.4-0.1 26-1.1 31.6-30.8c3.5-18.3-13.1-14.2-14.3-9.2c-1 4.4-3 9.3-5 13.3c-0.6-4.8-4.6-8.4-9.6-8.9c5.6-4.7 12.4-11.1 13.1-18.5c.1-1 0-0.7-0.1-15.8c-0.5-107.5-0.7-107.5-0.7-107.5l.6 74.5c0 0 3.3-0.7 4.8-1.1c6-1.5 12.3-3.1 19-4.8c-6.8 20.7-3.3 61-0.4 84.7c3.1 25.6 15.8 65.5 29 82.4c4.1 5.3 0 .1 0 .1c4.1 5.2 8.2 8.2 12.1 8c12-0.8 13.3-10.5 13.3-10.5c0 0-1.3 9.7-13.3 10.5c-3.9 .2-8-2.8-12.1-8l-49.5 3.7c3.2-0.2 6.3-0.4 9.3-0.7c-0.6 2.9-2.5 5.4-5.5 7.1c-19.8 2.2-38.7-52.5-42.5-82.1c-2-4.1-3-9.2-2.9-14.8c.1-2 .3-3.9 .6-5.6c-2.8-30.5-3.4-69.6 12.7-69.6c-1.8-0.2-3.7-0.2-5.8 .3c-19.4 4.6-14.5 60.9-10.7 90.1c3 23.9 15.8 61.3 29 76.8c3.9 4.5 7.8 7.2 11.6 7c7.8-0.5 12.4-4.3 13.5-9.2c-1.1 4.9-5.7 8.7-13.5 9.2c-3.8 .2-7.7-2.5-11.6-7c-21.8 1.5-37.7 2.4-43.6 1.8c-9-0.9-32-20.7-39-72.1c-6.6-49.2 2.1-71.6 12-74.4c9.8-2.8 25.2-6.7 42.2-11.1c2.2-6 5.5-10 10.1-11.1c5.8-1.4 10.4 .4 13.4 2.5l-0.5-83.1l14.1-3.7l15.6 8.7c0 0-21.3-48.7 36.4-161.3c25.6-50.1-13.7-76.4-26.1-102.8c-7.8-16.5-11.8-35.8-9.6-54.1c.9-6.7 2.6-13.3 5.2-19.6c13-31 45.8-36.8 76.9-35.5c35.3 1 54.1 30.9 46.2 54.2c-9.8 29.9-34.6 68.4-66.5 62.4c-57.6-11.8-21.6-102.3-77.2-119.9c-64.9-20.5-159.9 22.5-137.3 109.5c14.8 56.8 85.7 118.6 138.3 77.8c29.2-22.7 14.4-77-24-52c-24.7 16-21.6 45-1.2 65c24.1 23.6 65.6 28.2 96.9 26.5c77-4.3 60.1-100 97.5-145.5c17.6-21.5 54-2.4 56.5 25.7c4.2 47-21.9 92.2-61.5 111.5c-28.9 14.1-67.4 13.9-86.2-17.7c-40.9-68.7 44.8-139.9 12.2-210.8c-30.4-66.1-132.9-76.2-171.5-14.7c-40.6 64.7 39.5 107.3 58 153.5c7.9 19.4-0.2 43.6-7.2 62.3c-3.3 8.9-8.7 15.4-14.8 22.4c-35 40.3-84.3-0.7-102.7-39.5c-10-21.1-14-47.8 6.2-62.3c54.5-39 76.4 24.8 111.1 55.1c22.4 19.6 59.8 22 80.8-1.9c7-7.9 12.1-18 16.7-27.7c6.3-13.3 12-27.4 13.2-42.4c3.6-44.1-33.5-71.8-71.1-68.4c-37.6 3.4-87.3 49-89.8 92.1c-3.1 51.4 56.1 76.3 95.3 67.5c19.3-4.3 44.6-25.5 42.6-49.3c-3-34.8-43.9-55-63.5-77.4c-11.4-12.9-20.9-30.8-12.9-48.5c9-20.2 32.9-26.3 51.5-28.9c45.8-6.6 120.3 8.3 126.7 70.6c5.5 52.9-61.6 83.4-95.3 48.5c-18.4-19.1-16.5-56 10.1-65c43.8-14.7 75.2 29.6 76 72.8c.9 57.2-36.9 123.2-92.5 130.9c-9.2 1.3-18.1 .3-26.9-2.8c-48.5-17.4-37.9-57-26.3-98.8c4.6-16.8 13.2-48-5.9-58.7c-31.1-17.5-63 8.6-75.3 39.3c-6.3 15.9-7.3 42.2 13.4 45c20.9 2.9 24.3-41.4 17.1-55.5c-13.1-25.8-44.9-23.9-60.8-2.6c-9.2 12.2-8.4 29.7-4.1 43.7" fill="none" stroke="#2a4059" stroke-width="4px" opacity="0" stroke-dasharray="7500 10000" transform="translate(214.8,772.7) translate(-196.9,-754.3)"/><path id="DarkString3" d="M316.1 742.3c0-6.1 1.2-13.7-2.6-52.6c-2.4-24.4-14.4-32.4-26.6-36.5c3-14.7 2.8-37.1-2.3-68.8c-10.3-64.9-27-85.9-38.6-83.4c11.6-2.5 28.3 18.5 38.6 83.4c5.1 31.7 5.3 54.1 2.3 68.8c-10.8-3.5-21.6-4-25.9-9.9c.4 .8 1.3 3.2 2.7 6c3.7 1.5 4.9 2.8 10.9 4.5c10.1 2.9 22.1 4 29.8 22.3c4.7 11 6.9 80.1 7 86.2c-0.1-6.1-2.3-75.2-7-86.2c-7.7-18.3-19.7-19.4-29.8-22.3c-6-1.7-7.2-3-10.9-4.5c1 1.9 2.1 4 3.4 5.9c1.5 1.2 6.5 3.4 11.5 4.9c7.5 2.2 12.9 3 18.2 12.7c6.1 11.1 7.6 77.1 7.6 77.1c0 0-1.5-66-7.6-77.1c-5.3-9.7-10.7-10.5-18.2-12.7c-5-1.5-10-3.7-11.5-4.9c-1-0.7-7.6-15.5-6.1-11.9c.4 .8 1.3 3.2 2.7 6c1 1.9 2.1 4 3.4 5.9c1.4 2.1 2.9 4 4.6 5.4c8 4.1 21.8 4.2 23.9 33.4c3.8 51.8 3.8 81.1 3.8 81.1c0 0 0-29.3-3.8-81.1c-2.1-29.2-15.9-29.3-23.9-33.4c-9.1-7.2-18.6-35.3-24.3-69.8c-5.8-35.5-4.9-66.2 1.6-74.8c1.2-1.5 2.4-2.2 3.4-2.3c1.9-0.3 3.9 .7 6 2.8c3.4-4.7 4.6-13.8 1.8-32.4c-0.6-3.9-1.9-11.1 1-19.5c-2.9 8.4-1.6 15.6-1 19.5c2.8 18.6 1.6 27.7-1.8 32.4c1.6 1.7 3.2 4 4.9 6.8c3.1-1.5 9-6.5 8.4-19.2c-1-23.2 2.2-23.6 3.6-28.4c-1.4 4.8-4.6 5.2-3.6 28.4c.6 12.7-5.3 17.7-8.4 19.2c1.4 2.5 2.9 5.4 4.3 8.8c5.5 13 10.7 31.8 14.2 53.1c4.6 28.1 5 53.2 1.8 66.7c3.2-13.5 2.8-38.6-1.8-66.7c-3.5-21.3-8.7-40.1-14.2-53.1c6-1.6 12.5-9.3 13.5-20.2c.6-6.6 .2-13.4 3.3-23c4.8-14.5 17.7-11.2 21-28.5c2-10.3-7.8-17.6-12.6-16.4c-2.5 .7-5.2 1-7.9 .8c15 .7 27.6-11 28.2-26c.5-11.8-6.7-22.1-17.1-26.2c-2.8-1.1-5.7-1.8-8.9-2c-5.5-0.2-10.7 1.3-15.1 3.9c4.4-2.6 9.6-4.1 15.1-3.9c3.2 .2 6.1 .9 8.9 2c9-16.2 3.1-36.6-13-45.6c-16.2-9-36.6-3.2-45.6 13c-5.6 10.1-5.5 21.9-0.6 31.4c2.9 5.8 7.5 10.8 13.6 14.2c-6.1-3.4-10.7-8.4-13.6-14.2c-9.7 1.3-16.6 10.1-15.6 19.9c.8 7 5.6 12.7 11.8 14.9c2.5 .9-6.3-2.2 0 0c2.5 .9 5.3 1.3 8.1 1c-2.8 .3-5.6-0.1-8.1-1c-0.5 1.9-0.8 4-0.7 6.2c.2 9.7 6.1 16 8.3 17.4c1.4-4.6 4.6-8.9 10.8-11.1c-14.3 5.1-12.3 20.8-10.5 27.1c2.5 8.6 9.2 15.1 10.7 24.2c1 5.9 2.4 18.7-2.6 26c-6.5 8.5-7.4 39.2-1.6 74.8c5.7 34.5 15.2 62.6 24.3 69.8c3.2 1.6 7.2 2.6 11.1 5c-2.1 4.2-4.6 7.2-7.6 9.1c3-1.9 5.5-4.9 7.6-9.1c0 0-0.8 17.2-13.7 17.6c-2.9 .1-5.8-1.9-8.8-5.4c3 3.5 5.9 5.5 8.8 5.4c2.7-0.1 4.9-0.9 6.7-2.1c-15.9 4.5-35.1-56.2-40-88.1c-4.6-30-9.8-95.8 8.3-97.5c6.8 1 11.6 8.3 11.6 8.3c0 0-4.8-7.3-11.6-8.3c-1.5-0.2-3.3-0.1-5 .5c-3.1 1.1-5.5 4-7.3 8.3c-11.1 2.5-17.9 4-32.2 7.5c14.3-3.5 21.1-5 32.2-7.5c-8 18.8-3.6 63.6-0.4 89.2c8.7 56.6 28.9 84.3 28.9 84.3c0 0-15.8 1.5-31.1 2.9c4.2-0.4 7.8-0.7 10.9-1c.1 0-0.6 4.6-4.7 7.5c-20.4 7.2-39.6-55.8-43.5-87.8c-3.8-31.5-10.6-96.3 11.7-97c4.8 1.1 8.4 4.2 10 5.8c-2.4-2.3-8.9-7.8-17-5.8c-4.7 1.2-8.1 5.5-10.5 12.6l-0.7-48.4l-23.6-11.7l23.6 11.7l11.1-1.4l.3 37.2c.8-0.2 1.5-0.3 2.3-0.4c-0.1-4.1-0.6-43.3-0.6-43.3l-17.3-9.7l17.3 9.7c0 0 .1 3.6 .1 7.7l-40.4-22c0 0-0.1-8.2-0.1-8.2c0 0 1.1 129 .8 132.6c-0.7 8.4-9.9 15.7-15.7 20.4c1.4-0.6 2.9-1 4.5-1c.5-0.1 1.1-0.1 1.6 0c-0.5-0.1-1.1-0.1-1.6 0c-6.1 .2-10.8 5-10.6 10.6c.3 5.6 5.4 9.9 11.4 9.7c6.1-0.3 10.8-5.1 10.6-10.7c0-0.3 0-0.5-0.1-0.7c2-4 4-8.9 5-13.3c1.2-5 14.3-9.4 10.6 8.8c-4.9 24.3-12.1 30.7-27.9 31.2c-11.2 .4-23.4-10.8-23.1-28.4c.3-15.6 11.4-21.4 16.2-27.7c4.8-6.2 4.8-17.1 4.8-17.1l-0.1-24.8l-12.4 3.1l12.4-3.1v-2.7l.1 27.5c0 0 0 10.9-4.8 17.1c-4.8 6.3-15.9 12.1-16.2 27.7c-0.3 17.6 11.9 28.5 23.1 28.4c14.4-0.1 26-1.1 31.6-30.8c3.5-18.3-13.1-14.2-14.3-9.2c-1 4.4-3 9.3-5 13.3c-0.6-4.8-4.6-8.4-9.6-8.9c5.6-4.7 12.4-11.1 13.1-18.5c.1-1 0-0.7-0.1-15.8c-0.5-107.5-0.7-107.5-0.7-107.5l.6 74.5c0 0 3.3-0.7 4.8-1.1c6-1.5 12.3-3.1 19-4.8c-6.8 20.7-3.3 61-0.4 84.7c3.1 25.6 15.8 65.5 29 82.4c4.1 5.3 0 .1 0 .1c4.1 5.2 8.2 8.2 12.1 8c12-0.8 13.3-10.5 13.3-10.5c0 0-1.3 9.7-13.3 10.5c-3.9 .2-8-2.8-12.1-8l-49.5 3.7c3.2-0.2 6.3-0.4 9.3-0.7c-0.6 2.9-2.5 5.4-5.5 7.1c-19.8 2.2-38.7-52.5-42.5-82.1c-2-4.1-3-9.2-2.9-14.8c.1-2 .3-3.9 .6-5.6c-2.8-30.5-3.4-69.6 12.7-69.6c-1.8-0.2-3.7-0.2-5.8 .3c-19.4 4.6-14.5 60.9-10.7 90.1c3 23.9 15.8 61.3 29 76.8c3.9 4.5 7.8 7.2 11.6 7c7.8-0.5 12.4-4.3 13.5-9.2c-1.1 4.9-5.7 8.7-13.5 9.2c-3.8 .2-7.7-2.5-11.6-7c-21.8 1.5-37.7 2.4-43.6 1.8c-9-0.9-32-20.7-39-72.1c-6.6-49.2 2.1-71.6 12-74.4c9.8-2.8 25.2-6.7 42.2-11.1c2.2-6 5.5-10 10.1-11.1c5.8-1.4 10.4 .4 13.4 2.5l-0.5-83.1l14.1-3.7l15.6 8.7c0 0-21.7-48.7 36-161.3c25.7-50.1-13.6-76.4-26.1-102.8c-7.8-16.5-11.8-35.8-9.5-54.1c.8-6.7 2.5-13.3 5.1-19.6c13-31 44.7-38.3 75.8-37.1c35.3 1.1 55.8 35.7 47.9 59c-9.8 29.9-35.1 65.2-67.1 59.2c-57.6-11.8-20.6-105.5-76.2-123c-64.9-20.6-163.7 24.9-141.1 111.9c14.8 56.8 87.1 117.6 139.6 76.8c29.2-22.7 18.8-79.3-19.7-54.3c-24.7 16.1-24.3 49-4 69c24.1 23.6 65.6 30.6 96.8 28.9c48-2.7 59.5-40.2 70.4-79.1" fill="none" stroke="#2a4059" stroke-width="4px" opacity="0" stroke-dasharray="7500 10000" transform="translate(213.8,772.7) translate(-196.9,-754.3)"/><path id="DarkStringJank-3" d="M210.1 560.4c-1.5-0.8-3.3-1.7-5.3-2.7c-2-0.9-4.3-2-6.7-3c-2.6-1.1-5.4-2.3-8.1-3.4c-4.2-1.7-8.3-3.3-11.9-4.7c-6.9-2.6-12-4.5-12-4.5c.4-3.3 .7-6.8 .7-10.2c0-5.1-0.5-10.1-1.4-14.9c-0.9-5.1-2.3-10-4.1-14.7c-1.2-3-2.5-5.9-4-8.8c-1.4-2.6-2.9-5.1-4.5-7.5c-2.2-3.2-4.6-6.3-7.2-9.2c-2.5-2.7-5.1-5.3-7.9-7.6c-2.4-2-4.9-3.9-7.4-5.6c-2.7-1.8-5.4-3.4-8.2-4.9c-2.9-1.5-5.8-2.8-8.9-3.9c-2.8-1.1-5.8-2-8.8-2.7c-3.4-0.9-6.9-1.5-10.5-1.9c-3-0.4-6.2-0.5-9.3-0.5c-2.6 0-5.1 .1-7.6 .3c-3.9 .4-7.8 1-11.6 1.9c-2.7 .7-5.4 1.5-8.1 2.4c-2.7 .9-5.3 2-7.9 3.3c-3.2 1.5-6.3 3.2-9.2 5.1c-3.3 2.1-6.4 4.4-9.4 7c-2.4 2.1-4.7 4.3-6.9 6.7c-2.4 2.6-4.6 5.4-6.7 8.3c-2.4 3.4-4.5 7-6.4 10.8c-1.7 3.4-3.1 6.9-4.3 10.6c-1.2 3.4-2.1 7-2.8 10.7c-0.5 3-0.9 6.1-1.2 9.3c.1 0 0 0 0 0h61.7v-23.1h14.5v20.6h16.5v-20.3h14.5v56.8h-14.5v-20.3h-16.5v20.6h-14.5v-22.8h-61.7c.4 4.8 1.1 9.5 2.3 14.1c1.5 6.2 3.7 12.1 6.6 17.7c1.7 3.3 3.6 6.5 5.7 9.5c2.3 3.3 4.8 6.4 7.6 9.3c2.8 3 5.9 5.8 9.2 8.4c3.9 3.1 8.2 5.8 12.7 8.2c4.1 2.2 8.5 4 13 5.4c4.5 1.5 9.2 2.5 14.1 3.2c3.5 .4 7.2 .7 10.9 .7c5.2 0 10.3-0.5 15.3-1.4c2.7-0.6 5.4-1.2 8.1-2c3.3-1 6.6-2.2 9.7-3.6c3.2-1.4 6.4-3.1 9.4-4.9c3.9-2.3 7.5-5 10.9-7.9c3.5-3 6.7-6.3 9.7-9.8c3-3.6 5.8-7.5 8.1-11.7c1.7-2.8 3.1-5.8 4.4-8.8c1.5-3.5 2.8-7.2 3.8-11l10 4.2c0 0-1.5 4.6-2.6 7.3c-1 2.5-3.8 8.7-3.8 8.7l12.7 4.5l12.1 4.4l12.8 4.6l12 4.3l13.7 4.9l13.8 5l9.6 3.4c1.5-4.2 4.3-12.8 4.3-12.8c0 0 9 3 8.9 3.9c-0.5 2.8-1 6.1-1.5 9.3c-0.6 5-1.2 9.6-1.2 10.9c0 5.4 .8 10.5 2.1 15.4c1.3 4.8 3.2 9.4 5.6 13.7c1.2 2 2.4 3.8 3.7 5.7c2.2 3 4.7 5.8 7.5 8.3c3.9 3.7 8.4 6.8 13.3 9.3c3.9 2 8.1 3.6 12.4 4.6c4.6 1.2 9.3 1.8 14.2 1.8c3.8 0 7.6-0.4 11.3-1.1c4.7-1 9.2-2.4 13.4-4.4c3.3-1.5 6.4-3.3 9.3-5.4c4-2.9 7.6-6.2 10.7-9.9c2-2.3 3.8-4.8 5.4-7.4c1.6-2.7 3.1-5.5 4.2-8.4c2-4.9 3.4-10.1 4-15.6c0 .1-6.8 .1-14.9 .1c-2.7 0-5.6 0-8.5 0c-3 0-5.9 0-8.5 0c-5.4-0.1-9.3-0.1-9.3-0.1v15.6h-10.9v-15.6h-12.5v15.3h-10.9v-42.8h10.9v15.3h12.5v-15.6h10.9v15.6c0 0 7.1-0.1 15.3-0.1c3.3 0 6.7 0 10 0c3.8 0 7.3 0 10 0c3.6 0 6 0 6 .1c-0.4-3.6-1-7.1-2-10.5c-1.3-4.6-3.2-9-5.5-13.1c-1.7-2.9-3.7-5.7-5.8-8.3c-1.8-2.2-3.8-4.2-5.9-6.1c-4.1-3.7-8.8-6.9-13.9-9.3c-4.7-2.3-9.7-3.9-14.9-4.8c-3.4-0.6-6.9-1-10.4-1c-3.3 0-6.6 .3-9.7 .8c-3.8 .7-7.4 1.6-11 3c-5.5 2-10.6 4.9-15.2 8.4c-3 2.3-5.7 4.9-8.2 7.8c-2.5 2.8-4.8 5.9-6.7 9.2l-10.9-4.4l-12.5-5.2l-12.9-5.2l-6.6-2.7l-7.5-3.1c0-2.5-0.1-5.2-0.4-8c-0.3-3.1-0.7-6.5-1.4-10c-0.4-2.4-0.9-5-1.5-7.7c-0.8-4.1-1.9-8.4-3-12.9c-1.6-6.6-3.4-13.6-5.3-20.9c-0.8-3.2-1.7-6.4-2.5-9.7c-0.7-2.6-1.3-5.1-2-7.8c-1.2-4.9-2.4-10-3.6-15.2c-1.6-7.2-3.2-14.7-4.6-22.4c-1.7-9.6-3.2-19.5-4.2-29.6c-4.5-42.8-4-90 19.5-135.8c25.6-50-13.6-76.5-26-102.9c-7.8-16.5-11.8-35.8-9.6-54c.9-6.8 2.6-13.4 5.2-19.6c13-31.1 45.8-36.8 76.9-35.6c35.3 1 54.1 31 46.2 54.2c-9.8 29.9-34.6 68.5-66.5 62.4c-57.6-11.8-21.6-102.3-77.2-119.9c-64.9-20.5-159.9 22.6-137.3 109.5c14.8 56.8 85.7 118.6 138.3 77.8c29.2-22.7 14.4-77-24-52c-24.7 16-21.6 45-1.2 65c24.1 23.7 65.6 28.2 96.9 26.5c46.8-2.6 58.9-38.9 69.6-77.2" fill="none" stroke="#2a4059" stroke-width="4px" opacity="0" stroke-dasharray="7500 10000" transform="translate(208.4,771.3) translate(-196.9,-754.3)"/><path id="DarkString4" d="M307.6 218.4c-10.9 39.1-22.3 76.8-70.5 79.5c-31.2 1.7-72.7-5.2-96.8-28.9c-20.3-20-20.7-52.9 4-68.9c38.5-25 48.9 31.5 19.7 54.2c-52.5 40.8-124.8-19.9-139.6-76.7c-22.6-87 76.2-132.5 141.1-112c55.6 17.6 18.6 111.3 76.2 123c32 6.1 57.3-29.3 67.1-59.2c7.9-23.2-12.6-57.9-47.9-58.9c-31.1-1.2-62.8 6-75.8 37.1c-2.6 6.2-4.3 12.8-5.1 19.6c-2.3 18.2 1.7 37.5 9.5 54c12.5 26.5 51.8 52.8 26.1 102.8c-57.7 112.6 7.3 231.5 6.4 279.7c0 0 50.4 20.6 50.4 20.6c10.2-17.5 29.1-29.2 50.7-29.2c30.5 0 55.6 23.3 58.5 53c0-0.1-41.3 0-41.3 0v-15.5h-10.9v15.5h-12.6v-15.2h-10.8v42.8h10.8v-15.3h12.6v15.5h10.9v-15.5c0 0 41.2 .2 41.2 0c-3.3 29.3-28.2 52.1-58.4 52.1c-32.4 0-58.7-26.3-58.7-58.7c0-2.3 1.4-13.1 2.7-20.2c.1-0.9-8.9-3.9-8.9-3.9c0 0-2.8 8.6-4.3 12.8l-86.8-31.1c0 0 2.9-6.2 3.9-8.7c1.1-2.7 2.6-7.4 2.6-7.4c0 0-10-4.2-10-4.2c-9.3 35.2-41.4 61.2-79.5 61.2c-43.4 0-79-33.8-82-76.5h61.7v22.8h14.4v-20.6h16.6v20.2h14.4v-56.7c0 0-14.4 0-14.4 0v20.3h-16.6v-20.6h-14.4v23.1c0 0-61.7 0-61.7 0c0 0 .1 0 0 0c3-42.7 38.6-76.5 82-76.5c45.4 0 82.2 36.9 82.2 82.3c0 3.4-0.2 6.8-0.6 10.2c0 0 31.5 11.4 44 18.3c12.4 8.2 16.2 32.3 18 46.3c4 33.2 .2 58.9-10.2 87.6c-35.2 96.9-181.2 231.2-53.2 320.2c128.4 89.3 233.6-139 101.4-176.9c-16.5-4.7-33.9-5.9-50.9-4c-21 2.2-41.7 7.6-59.8 18.7c-23.5 14.4-43.3 35.8-53.5 61.6c-10.6 26.4-12.2 55.9-13.1 84c-1.1 30.7-1.6 62.5 7 92.3c7.3 25.5 22.7 47.3 35.4 70.3c24.9 44.7 51.8 92.1 67.7 140.8c21.3 65.6 1.5 167.7-61.4 206.3" fill="none" stroke="#2a4059" stroke-width="4px" opacity="0" stroke-dasharray="3470 10000" transform="translate(207.9,772.3) translate(-196.9,-754.3)"/></g></g></svg>