<svg xmlns="http://www.w3.org/2000/svg" xmlns:xlink="http://www.w3.org/1999/xlink" width="100%" height="100%" viewBox="0 0 500 800"><g transform="translate(250,198.6) translate(-210,-419.9)"><g id="Tangles" fill="none" stroke-width="4" fill-rule="evenodd" clip-rule="evenodd" stroke-linecap="round" stroke-linejoin="round" stroke-miterlimit="1.5" transform="translate(210,565.3) translate(0,0) translate(-193.8,-176.1)"><path id="Yellowtangle-1" d="M181.8 260.9c-17.2-17.8-13-39.2-1.6-59.5c6.7-12.1 17.3-19.9 25.9-30.4c12.3-15.1 19.4-35.3 15.2-54.6c-5.9-27.6-41.8-55.8-82.9-50.9c-14.1 1.6-27.8 56.1-0.2 67.7c12.1 5 24.9-3.2 36.1-6.9c28.1-9.1 76.8-2.4 71.6 37.4c-0.9 7.1-4.1 13.9-7.2 20.2c-4 7.8-9 17.1-16.6 22.1c-19.8 13.2-49.1-6.8-53.6-26.6c-5.9-26.4 17.4-49.7 41.4-55.4c41-9.8 46.6 48 73 66.8c18 12.8 48.5 16.7 63.5-3c12.6-16.4 21.2-51.4 7.8-70c-14.4-20-48.9-26.2-59.4 .7c-11.4 29.3 9.8 60.4 19.8 86.4c12.2 31.5 4.8 63.4-19 86.9c-32.4 31.9-86.2 25.6-122.5 5.1c-16.8-9.5-33.6-20-35.8-40.8c-2.7-25.6 20.7-37.8 43.8-34c19.6 3.2 36.3 18.9 39.3 38.8c4.8 32.7-26.5 42.5-51.8 48.5c-44.9 10.6-100.4-24.8-126-60.4c-4.5-6.2-8.9-12.9-11.5-20.1c-13.5-36.5 24.9-60.1 47.6-80.9c27-24.7 81.6-59.2 64.2-112.4c-12.9-39-64.9-16.9-85.6 .4c-17.6 14.8-24.6 31.9-22.9 53.1c4.5 55.6 45.3 95.8 103.3 80.6c40.8-10.8 64.6-51.2 67.4-91.8c.8-12.7-1.4-33.1-9.7-43.6c-3.8-4.8-19.3-8.1-21.7 .3c-5.3 18.1 25.6 15.2 33.5 11.5c16.2-7.4 30.4-18.9 48.4-21.9c36.5-6.2 81.1 13.2 93.1 50.2c8.6 26.5-20.3 38.6-37.5 51.6c-16 11.9-28.3 28.4-32.8 48.1c-8.5 36.7 24.2 56.9 57.7 57.5c26.6 .4 23.6 36.4 10.5 47c-22.8 18.5-49.8 25.4-78 31.6c-21.5 4.7-40.1 9.4-60.1-2.4c-25.5-15.1-43.5-39.2-42.6-69.9c.7-21.2 10.3-44.3 1.9-65.1c-13.1-32.6-59.4-30.9-83.7-13.1c-17.4 12.7-22 33.1-21.2 53.7c1.5 39 26.5 86.4 66.4 97.6c18.8 5.2 38.6-1 56.2-7.5c19.7-7.4 39.8-15.7 56.6-28.8c19.6-15.2 39.9-46.8 55.1-66.1" stroke="#ff8f00" transform="translate(204.5,180.2) translate(0,0) translate(-194.6,-187.4)"/><path id="Yellowtangle-2" d="M179.6 258.4c-17.3-17.9-9.4-39.5 2-59.8c6.7-12.1 10.8-22.8 19.4-33.3c12.4-15.1 22.2-32.1 18.1-51.4c-6-27.7-37.8-54.6-79-49.8c-14 1.7-31.7 55-4.2 66.5c12.1 5.1 25.2-5.7 36.4-9.3c28.1-9.1 74.1-1.8 68.8 38c-0.9 7-3.3 13.5-6.4 19.8c-3.9 7.8-9.9 17.1-17.5 22.1c-19.8 13.2-46.5-4.6-50.9-24.4c-6-26.3 17.3-49.6 41.4-55.4c40.9-9.7 46.5 48.1 73 66.9c18 12.8 46.9 12.4 61.9-7.3c12.6-16.4 22.7-47.2 9.3-65.7c-14.4-20-50.7-30.1-61.2-3.2c-11.5 29.3 11.7 64.3 21.7 90.3c12.1 31.4 3.2 58.1-20.7 81.6c-32.4 31.9-84.6 30.9-120.9 10.3c-16.8-9.5-37.4-20.1-39.5-40.9c-2.7-25.6 24.4-37.6 47.6-33.9c19.5 3.2 31.8 20.5 34.7 40.4c4.8 32.6-22 41-47.2 46.9c-45 10.6-95.4-24.6-121.1-60.1c-4.5-6.2-9.5-14.8-12.2-22c-13.4-36.5 20.6-58.5 43.3-79.2c27.1-24.7 78.1-56.5 60.6-109.7c-12.8-39-63-25.8-83.7-8.4c-17.6 14.7-26.3 37.4-24.6 58.5c4.4 55.7 48.2 92.6 106.2 77.3c40.9-10.7 65.1-47.2 67.9-87.8c.9-12.7-1.4-33.1-9.7-43.7c-3.7-4.7-19.2-8-21.7 .4c-5.2 18.1 25.6 15.1 33.6 11.5c16.2-7.5 32.5-15.7 50.4-18.7c36.5-6.2 75.7 11.2 87.7 48.2c8.6 26.6-15 40.3-32.2 53.3c-16 11.9-30.2 25.5-34.8 45.2c-8.4 36.6 24.2 56.9 57.7 57.4c26.6 .5 23.9 40.2 10.8 50.8c-22.8 18.6-50.1 21.6-78.3 27.8c-21.5 4.7-37 4.6-56.9-7.2c-25.5-15.1-46.7-34.3-45.7-65c.6-21.3 10.3-44.4 1.9-65.2c-13.2-32.5-58.6-25.8-82.9-8c-17.4 12.7-19 27.6-18.2 48.1c1.5 39.1 28.7 85.7 68.6 96.9c18.8 5.3 32.5 .3 50.1-6.3c19.8-7.4 40.1-21.5 56.9-34.6c19.6-15.2 39.7-40.9 54.8-60.3" stroke="#ff8f00" opacity="0" transform="translate(207.5,182.7) translate(0,0) translate(-194.6,-187.4)"/><path id="Greentangle-1" d="M201.3 283.7c5.8-10.4 11.7-52.4 10.2-64.4c-3.1-25.1-4.5-53-20.1-51.4c-31.2 3.2-25.4 37.7-22.6 42.5c6.2 10.6 18.4 6.9 21.5 5.9c13.5-4.2 40.4-24.8 51.5-10.8c7.5 9.6-20.6 23.2-25.2 34.2c-10.6 24.8 34.8 20.5 41.6 18.5c21.1-6.4 38.8-25.4 46.2-45.7c7.1-19.5 10.3-50-3-67.8c-8.1-10.7-33.3-21.8-42.8-6.4c-5.6 9.3 4 13.4 11.8 10.9c26.3-8.4 29.1-38.2 11.7-56.5c-28.9-30.5-88.6-13.2-116.1 11.8c-31 28.2-18.5 93.1 26.1 99.3c7.1 1 14 .1 20.8-1.9c9.8-2.9 27.5-16.4 34.9-4.6c6.8 10.7-4 32.1-9.6 41.8c-14.9 25.7-47.7 42.4-77.4 40c-30.7-2.6-59.7-20.7-67.7-51.4c-1.7-6.6-3.3-13.6-1.5-20.4c5-18.5 23.2-31.4 29.5-50.1c8.4-24.9 4.2-54.1-25.5-59.5c-4.2-0.8-8.5-1-12.8-0.5c-38.8 5.3-60.7 57.6-35.9 88.9c7.7 9.8 19.6 13.3 31.2 16.5c27.5 7.5 65.3 14.7 67.4 49.6c.3 6.1-0.6 12.5-2.7 18.2c-2.5 7-6.7 13.3-11.6 18.9c-7.3 8.2-16.5 16.4-27.4 19.4c-40.9 11.3-85.1-35.9-88.5-73.9c-1.7-18 4.4-35.8 7.8-53.3c5.9-30.9 1.4-68.4 20.3-95.4c6.7-9.6 16.6-17.4 26.7-23.1c13.2-7.6 28.4-9.3 42.5-3c31.5 14 20.7 47.4 14.6 74.1c-11 48-26 103.9 6.2 147.6c4.8 6.5 10.6 12.2 16.9 17.2c38.7 31.5 85.1 6.7 111.3-28.7c12.8-17.2 29.2-62.1 7-79.2c-19.2-14.8-47.2 1.9-61.8 15.5c-33.2 31.2-59.9 106.3-6.9 133.9c34.2 17.9 78.7 3.1 110.1-13.3c14.2-7.4 29.4-15.9 38.7-29.4c18.8-27.1 21.7-68.7 20.3-100.5c-0.8-17.9-4-35.2-9-52.3c-2.6-8.9-5.2-17.7-12.7-23.6c-28-21.7-65.6 10.7-76.7 35.8c-11 24.7-13.4 52.2-19.8 78.2c-9.2 37.7-26.1 80-52.6 108.9c-18.5 20.3-49.1 45.3-76.8 25.7c-18.3-12.8-27.8-40.3-24-61.9c3.8-22.3 18.4-38.9 42.6-34.8c33.4 5.6 49.2 44 63.6 69.6c17.2 30.4 51.8 53.6 87.8 44.5c10.2-2.6 19.4-7.2 27.7-13.7c12.6-9.9 23.4-22.6 33-35.3c11.4-15.1 20.4-31.6 26.6-49.5c4.2-12.3 8-25.7 7-38.8c-2.9-35.2-23.2-63.3-57.7-72.5c-23.4-6.2-48.4-5.4-71.5-13.2c-9.9-3.3-21.1-8.7-26.7-17.9c-5.1-8.3-6.8-18.3-8.1-27.7c-3.1-22.9 12.1-47.5 36.6-49.2c15.7-1.1 32.2 1.1 46.3 7.3c6.9 3 13.8 10.1 18.8 16" stroke="#007b52" transform="translate(198.4,131.4) translate(0,0) translate(-198.4,-183.4)"/><path id="Greentangle-2" d="M201 280.5c5.8-10.3 8.3-51.1 6.9-63.1c-3.1-25.2 .3-52.2-15.3-50.6c-31.2 3.2-27 35.6-24.1 40.5c6.2 10.5 17.3 2.3 20.4 1.3c13.5-4.3 41.4-20.2 52.5-6.2c7.6 9.5-18.5 21.8-23.1 32.7c-10.6 24.9 31 24.9 37.8 22.9c21.2-6.4 39.1-32.7 46.5-53c7.2-19.6 11.8-45.7-1.6-63.4c-8.1-10.7-33.2-21.9-42.7-6.4c-5.7 9.2 4 13.3 11.8 10.8c26.3-8.4 29-38.1 11.7-56.4c-29-30.5-89.5-16.3-117 8.6c-31.1 28.2-17.7 96.3 27 102.5c7 .9 14 0 20.8-2c9.7-2.9 27.5-16.3 34.9-4.6c6.7 10.7-7 30.5-12.7 40.3c-14.8 25.6-44.9 39.6-74.6 37.2c-30.6-2.6-59.4-16.3-67.5-47c-1.7-6.6-3.3-13.7-1.4-20.4c5-18.6 23.2-31.5 29.5-50.2c8.3-24.8 4.1-54.1-25.6-59.4c-4.2-0.8-8.5-1.1-12.7-0.5c-38.8 5.2-60.7 57.6-36 88.8c7.8 9.9 19.7 13.3 31.3 16.5c27.5 7.6 68.7 14.4 70.8 49.4c.3 6.1-2.9 16.3-5 22.1c-2.6 6.9-7.8 9.7-12.7 15.2c-7.4 8.3-16.5 16.4-27.4 19.4c-40.9 11.3-85.1-35.9-88.6-73.8c-1.6-18.1 3.4-37.8 6.7-55.3c5.9-30.9-0.4-65.3 18.5-92.3c6.7-9.6 18-22.2 28.1-27.9c13.2-7.6 30-5.6 44.1 .7c31.5 14 23.8 46.9 17.6 73.6c-11 48-29 104.3 3.2 148c4.8 6.5 10.4 16.4 16.6 21.5c38.7 31.4 85.3 2.5 111.6-32.9c12.7-17.2 29.1-62.1 7-79.2c-19.2-14.9-47.2 1.8-61.8 15.5c-33.2 31.1-59.9 106.2-6.9 133.9c34.2 17.8 79.5 4.2 110.9-12.3c14.2-7.4 28.6-17 37.9-30.4c18.8-27.1 19-66.9 17.5-98.8c-0.8-17.8-3.6-33.7-8.6-50.8c-2.6-8.8-4.9-18.4-12.5-24.3c-28-21.7-63.5 8.1-74.6 33.2c-10.9 24.7-11.1 52.1-17.5 78.1c-9.1 37.7-28.4 80.1-54.9 109.1c-18.5 20.2-46.3 44.1-74 24.5c-18.3-12.9-31.8-41.1-28-62.7c3.9-22.3 19.7-36.9 43.9-32.8c33.4 5.6 50 38.1 64.4 63.7c17.2 30.4 50.9 59.4 86.9 50.3c10.3-2.6 19.4-7.1 27.7-13.6c12.7-9.9 25.7-21.4 35.3-34.1c11.4-15.1 20.3-30.5 26.5-48.3c4.2-12.3 9.6-28.9 8.6-42c-2.9-35.2-26.9-62.6-61.4-71.7c-23.5-6.3-46.1-9.4-69.2-17.2c-9.9-3.3-19.4-5.5-25.1-14.7c-5-8.3-8-15.2-9.3-24.6c-3.1-22.9 10.7-46.9 35.2-48.6c15.7-1.1 29.7 2.1 43.8 8.2c6.9 3 15 6.2 20 12.1" stroke="#007b52" opacity="0" transform="translate(198.4,131.4) translate(0,0) translate(-198.4,-183.4)"/><path id="Bluetangle-1" d="M47.5 235.5c-4.3-14.1-4.8-37.6 4.4-49.8c15.9-21.3 45.2-16.6 58.4 9.2c7.2 14.1 5.9 57.8-15 55c-20.7-2.9-16.4-30-10.1-45.9c12.3-30.7 39.9-54.3 71-36.8c19 10.7 11.5 40.2 6.9 57c-11.6 41.9-23.3 83 25.1 100.4c8.9 3.2 19.7 4.5 28.9 3.3c55.6-7.7 89.2-74.5 88.2-131.8c-0.7-43.1-26.1-86.5-69.8-71.8c-26.6 9-31.2 43.7-12.8 62.8c33.7 35 104.1 4.6 98.6-48.2c-6.4-62.3-83.9-81-129.7-74.4c-18.5 2.6-42.8 12.3-51.9 32.4c-7.9 17.7 1.6 35.7 13 48.6c19.6 22.3 58.1 42 61 76.7c2.1 23.8-20.7 47.2-40 51.5c-39.3 8.8-101.6-17.3-98.5-68.7c2.5-43 55.5-93.7 93.2-97.1c37.5-3.4 74.4 29 70.8 73c-1.2 15.1-6.9 29.1-13.2 42.4c-4.6 9.8-10.1 16.6-17.1 24.5c-21 23.9-58 24.7-80.4 5.1c-34.7-30.2-56.6-94-111.1-55.1c-20.3 14.5-15.8 42.4-5.8 63.5c18.4 38.9 67.5 78.2 102.5 38c6.1-7 11.3-13.2 14.6-22.1c6.9-18.6 14.2-43.6 6.4-63.1c-18.6-46.2-97.9-87.8-57.3-152.5c38.6-61.4 141.2-50.9 171.6 15.3c32.6 70.9-53.1 141.2-12.3 209.9c18.9 31.6 57.3 31.9 86.2 17.8c39.6-19.3 65.8-64.4 61.6-111.5c-2.5-28.1-39.3-47.4-56.9-26c-37.4 45.6-19.9 141.5-96.8 145.7c-31.3 1.7-73.1-2.7-97.2-26.4c-20.4-20-23.2-48.9 1.5-64.9c38.4-25 52.4 29.7 23.2 52.4c-52.5 40.8-123-21.7-137.7-78.5c-22.6-87 71.6-129.9 136.5-109.4c55.6 17.6 20.3 108.3 77.9 120.1c33.5 6.8 56.6-30.9 66-61.3c6.2-20.3-10.6-54-44.2-55.3c-31-1.2-65.4 4.4-78.4 35.5c-2.6 6.2-4.3 12.8-5.2 19.6c-2.2 18.2 22.2 38.5 20.2 66.5" stroke="#007cbf" transform="translate(204.1,172.6) translate(0,0) translate(-204.1,-172.6)"/><path id="Bluetangle-2" d="M49.9 236.5c-4.4-14-5.2-31.5 4-43.7c15.9-21.3 47.7-23.3 60.9 2.5c7.2 14.2 3.7 58.4-17.2 55.6c-20.6-2.9-19.7-29.2-13.4-45.1c12.3-30.7 44.3-56.8 75.4-39.2c19 10.7 10.5 41.8 5.8 58.6c-11.6 41.9-22.1 81.4 26.3 98.8c8.9 3.2 17.7 4.1 26.9 2.8c55.7-7.6 93.5-73.6 92.5-130.8c-0.7-43.2-32.2-87.5-76-72.8c-26.6 9-28.5 45.8-10.1 64.9c33.7 35 100.8 4.4 95.4-48.4c-6.4-62.3-81-77.2-126.8-70.7c-18.6 2.7-42.5 8.8-51.5 28.9c-8 17.7 1.5 35.7 12.9 48.6c19.6 22.3 60.5 42.6 63.5 77.4c2 23.7-23.3 45-42.5 49.3c-39.3 8.8-98.5-16.1-95.4-67.6c2.5-43 52.2-88.6 89.9-92.1c37.5-3.4 74.6 24.4 71 68.4c-1.2 15.1-6.8 29.2-13.1 42.4c-4.6 9.8-9.8 19.8-16.8 27.8c-20.9 23.9-58.4 21.4-80.8 1.9c-34.6-30.3-56.5-94.1-111-55.2c-20.3 14.5-18 42.8-8 63.9c18.4 38.9 70.7 80 105.7 39.7c6.1-7 10.2-15.3 13.5-24.2c7-18.6 13.1-40.7 5.2-60.2c-18.5-46.2-99.2-91.5-58.5-156.2c38.5-61.5 146.7-50.8 177.1 15.3c32.6 70.9-58.4 143.9-17.5 212.5c18.8 31.7 59 33.9 87.9 19.8c39.6-19.3 66.3-68.2 62.1-115.3c-2.5-28-39.1-43.1-56.7-21.7c-37.4 45.6-20.5 139.7-97.5 143.9c-31.2 1.8-72.7-5.2-96.8-28.9c-20.3-19.9-20.7-52.9 4-68.9c38.5-25 48.9 31.6 19.7 54.2c-52.5 40.8-124.8-19.9-139.6-76.7c-22.6-87 76.2-132.5 141.1-112c55.6 17.6 18.6 111.3 76.2 123.1c33.5 6.8 57.7-28.9 67.1-59.2c6.3-20.4-14.3-57.7-47.9-59c-31.1-1.2-62.8 6-75.8 37.1c-2.6 6.2-4.3 12.9-5.1 19.6c-2.3 18.2 29.1 32.5 18.3 71.7" stroke="#007cbf" opacity="0" transform="translate(204.1,172.6) translate(0,0) translate(-204.1,-172.6)"/><path id="Redtangle-1" d="M220.9 254.7c-12.4-14.7-17.9-36.4-18.2-52.6c-0.8-39.1 26.2-77 63.5-40.1c7.3 7.2 12.8 15.9 17.1 25.1c25.1 54-8.6 86.9-52.5 115.5c-24 15.6-54 26.8-78.5 5.7c-32.4-27.7-40.4-91.2-20.5-127.6c13.5-24.7 37.3-42.7 56.9-62.3c16.4-16.4 50.3-66.9 77.7-59.5c16.3 4.5 7.5 44.5 4.7 56.6c-6.4 27.4-44.5 76.4-14.2 101c27.7 22.5 96.9-35.9 108 21.1c1 5.5 .8 11.1-0.5 16.5c-7.9 31-61.4 44.8-91.8 45.5c-17.4 .5-20.7-0.7-25.6-19.1c-8.6-32 28.4-66.5 43.2-91.4c4.1-7 9.1-14.8 10.1-23c3.5-28-28.7-71.8-41.4-94.9c-18.8-34.1-49.4 .5-90.9 17.9c-10.3 4.3-66.9 15-71.6 21.1c-37.9 48.5 55.1 54.1 73 91.5c10.8 22.6 .1 43.4-11.5 62.9c-5.4 9.1-10.7 18.2-19.8 24.2c-19.9 12.9-46.7 5.7-59.5-13.5c-18.9-28.1-24.4-70.2-30.2-103.2c-1.8-9.9 1.6-46.5-14-46.1c-17.4 .5-26.5 25.8-27.7 39.5c-3.1 34.2 14.5 78.2 46.2 94.6c26.8 13.9 33.5-24.3 36.1-42.7c6.9-48.1 13.2-95.3 43.3-135.5c9.6-12.8 29.3-35.2 48.2-29.2c29.4 9.4 15.5 68 8.5 87c-4.5 12.3-10 24.2-16.1 35.8c-4.9 9.5-10.3 18.8-15.8 27.9c-23.4 38.9-72.7 111.5-15.9 146.2c29.5 18.1 77.8 2.5 91.6-29.4c6-13.8 6.6-30.1 1.9-44.3c-3.6-10.7-11.3-21.6-9-33.4c6.8-34.8 41-42.7 66.3-59.5c9.4-6.2 17.2-14.6 24.5-23c9.3-10.8 20.4-33.7 35.8-36.6c13-2.6 17.6 15.3 19.7 24.6c6.9 30.8 3.5 65.4-1.1 96.3c-0.6 4.2-4.9 34.1-10.8 33.3c-4.4-0.5-6.4-10.7-7.2-13.8c-3.7-13.5-6-27.4-8.1-41.2c-6.3-42.4-0.9-110.5-13.5-119.7c-18-13.3-37.5 14.9-38.8 36.8c-3.5 59.1 17.7 91.6 18.2 150.2c.2 25-9.8 54.8-36.6 62.5c-39.2 11.1-83.7-9.9-116.5-29.8c-65.1-39.6-137.3-92.8-121.8-179.4c2.6-14.6 8.5-28.2 16.2-40.8c8-13.2 18.3-25.4 30.7-34.6c36.4-26.8 78.2-8.3 90 34c12.5 44.3-5.3 90.2-11.8 133.9c-2.3 15.4-6.8 40.3 3.7 53.9c10.7 13.9 34.2 26.4 50.3 27.3c37.8 2.2 130 .5 120.2-30.8c-2.1-6.6-57.3-18.9-78-20.1c-58.7-3.3-108.4 49.5-167.2 56c-65.7 7.2-44.3-145.7-15.2-167.4" stroke="#f65c1b" stroke-linecap="butt" stroke-linejoin="miter" stroke-miterlimit="4" transform="translate(199.1,124.8) translate(0,0) translate(-191.1,-147.8)"/><path id="Redtangle-2" d="M220.9 254.7c-12.4-14.7-17.9-36.4-18.2-52.6c-0.8-39.1 26.2-77 63.5-40.1c7.3 7.2 12.8 15.9 17.1 25.1c25.1 54-8.6 86.9-52.5 115.5c-24 15.6-54 26.8-78.5 5.7c-32.4-27.7-40.4-91.2-20.5-127.6c13.5-24.7 37.3-42.7 56.9-62.3c16.4-16.4 50.3-66.9 77.7-59.5c16.3 4.5 7.5 44.5 4.7 56.6c-6.4 27.4-44.5 76.4-14.2 101c27.7 22.5 96.9-35.9 108 21.1c1 5.5 .8 11.1-0.5 16.5c-7.9 31-61.4 44.8-91.8 45.5c-17.4 .5-20.7-0.7-25.6-19.1c-8.6-32 28.4-66.5 43.2-91.4c4.1-7 9.1-14.8 10.1-23c3.5-28-28.7-71.8-41.4-94.9c-18.8-34.1-49.4 .5-90.9 17.9c-10.3 4.3-66.9 15-71.6 21.1c-37.9 48.5 55.1 54.1 73 91.5c10.8 22.6 .1 43.4-11.5 62.9c-5.4 9.1-10.7 18.2-19.8 24.2c-19.9 12.9-46.7 5.7-59.5-13.5c-18.9-28.1-24.4-70.2-30.2-103.2c-1.8-9.9 1.6-46.5-14-46.1c-17.4 .5-26.5 25.8-27.7 39.5c-3.1 34.2 14.5 78.2 46.2 94.6c26.8 13.9 33.5-24.3 36.1-42.7c6.9-48.1 13.2-95.3 43.3-135.5c9.6-12.8 29.3-35.2 48.2-29.2c29.4 9.4 15.5 68 8.5 87c-4.5 12.3-10 24.2-16.1 35.8c-4.9 9.5-10.3 18.8-15.8 27.9c-23.4 38.9-72.7 111.5-15.9 146.2c29.5 18.1 77.8 2.5 91.6-29.4c6-13.8 6.6-30.1 1.9-44.3c-3.6-10.7-11.3-21.6-9-33.4c6.8-34.8 41-42.7 66.3-59.5c9.4-6.2 17.2-14.6 24.5-23c9.3-10.8 20.4-33.7 35.8-36.6c13-2.6 17.6 15.3 19.7 24.6c6.9 30.8 3.5 65.4-1.1 96.3c-0.6 4.2-4.9 34.1-10.8 33.3c-4.4-0.5-6.4-10.7-7.2-13.8c-3.7-13.5-6-27.4-8.1-41.2c-6.3-42.4-0.9-110.5-13.5-119.7c-18-13.3-37.5 14.9-38.8 36.8c-3.5 59.1 17.7 91.6 18.2 150.2c.2 25-9.8 54.8-36.6 62.5c-39.2 11.1-83.7-9.9-116.5-29.8c-65.1-39.6-137.3-92.8-121.8-179.4c2.6-14.6 8.5-28.2 16.2-40.8c8-13.2 18.3-25.4 30.7-34.6c36.4-26.8 78.2-8.3 90 34c12.5 44.3-5.3 90.2-11.8 133.9c-2.3 15.4-6.8 40.3 3.7 53.9c10.7 13.9 34.2 26.4 50.3 27.3c37.8 2.2 130 .5 120.2-30.8c-2.1-6.6-57.3-18.9-78-20.1c-58.7-3.3-108.4 49.5-167.2 56c-65.7 7.2-44.3-145.7-15.2-167.4" stroke="#f65c1b" stroke-linecap="butt" stroke-linejoin="miter" stroke-miterlimit="4" opacity="0" transform="translate(200.1,121.8) translate(0,0) translate(-191.1,-147.8)"/><path id="Darktangle-1" d="M186.5 225.7c12.5-23.3 .5-63.2-26.3-68.2c-14.7-2.7-27.9 3.5-42.2 4.9c-4.6 .4-15.4 1.1-20.1 .9c-13-0.7-8.9-12.7 4.1-14.2c13.5-1.5 35.4 11.2 38.4 28.2c5.8 32-28.9 69.7-57.5 55.4c-23.9-12.1-38.8-60.6-23.6-85.7c14-23.3 52.6-34.2 77.1-25.1c36.1 13.3 2.2 74.3 2.2 105.3c0 23.1 24.1 40 44.4 37.9c4.7-0.4 10.5-4.2 14.4-7c12.1-8.5 20.5-27.2 18.4-43.3c-2.7-20.9-32.9-48.4 .2-58.2c4.9-1.4 10-1.7 15-1.3c6.7 .6 13.5 3.6 19 7.7c54.6 40.3-24.6 83-15.2 124.4c4.2 18.6 23.6 18.9 38.8 17c19.9-2.6 39.9-28.4 48.9-46.5c4.5-9 6.9-18 6.1-27.8c-3.1-34.3-40.6-40.9-64.3-29.2c-53.2 26.5-55.7 118.4-132.5 102.4c-8.8-1.8-18.3-3.1-26.5-7.6c-9.1-5.1-19.7-8.9-27.5-16.2c-3.4-3.3-6.8-7.7-9.7-11.5c-14.6-18.9-6.9-29.3 14.8-35.3c25.3-7 52.3-8.4 77.7-1.9c9.1 2.3 16.7 15.1 14.9 26c-2.8 17.2-20 31-32.2 40.2c-13.1 9.8-27.8 17.6-44.2 18.9c-46.8 3.7-88.9-40.9-91.2-90.1c-1.7-37.5 7.3-73.8 40-93c9.7-5.7 21.1-7.1 31.6-9c16.6-3.1 34-11.1 48.3-21c21.4-14.9 54.5-47.9 34.9-78.9c-17.6-27.8-66.9-16.5-82.6 7.8c-10.6 16.4 .6 44.6 11 58.6c15.8 21.5 39.7 22.9 59.1 6.7c31.9-26.4 72.5-61.4 113.3-29.2c16.2 12.9 19.7 34.4 3.5 48.3c-10.7 9.2-24.8 12.4-35.3 21.6c-21.3 18.9-32.9 55.1-21.7 84.1c14.8 38.1 62.3 14.7 83.5-1.2c5.4-4.1 26.5-38.4 40.3-24.9c18.2 17.7-34.3 38.2-45.3 47.1c-7.2 5.8-14.5 9.7-22.7 13c-21.6 8.5-127.5 45.3-62.8 79.2c8.6 4.5 18.4 9.3 27.9 10.9c38 6.5 81.5-26.7 102.8-59.8c6.9-10.7 19.3-35.2 10.4-48.4c-10.5-15.5-35.7-10.9-49.5-4.4c-42.5 19.9-77.3 34.2-124.8 28c-28.5-3.7-45.2-63.9-35.7-89.1c7-18.7 29.7-33.2 45.6-41.3c20.6-10.5 32-3.8 52.2 2.4c13 4.1 28.2 2.9 40.5 9.3c15.5 8.2 24.3 22.6 42.8 24c24.7 2 23.6-18.9 39.2-27.5" stroke="#2a4059" transform="translate(199.9,156.2) translate(0,0) translate(-175.2,-155.5)"/><path id="Darktangle-2" d="M186.3 228c12.4-23.3-0.8-59.3-27.7-64.3c-14.7-2.8-27.2 3-41.5 4.3c-4.7 .4-15.5 1.2-20.1 1c-13.1-0.8-8.9-12.8 4.1-14.2c13.5-1.5 36 7.8 39.1 24.8c5.8 32-29 69.7-57.5 55.4c-23.9-12.1-36.5-58.3-21.3-83.4c14-23.3 50.2-36.5 74.8-27.4c36.1 13.3 6.9 72.8 6.9 103.8c0 23.1 19.3 41.5 39.7 39.4c4.7-0.4 10.4-4.2 14.4-7c12-8.5 20.4-27.2 18.4-43.3c-2.7-20.9-31.4-50.7 1.7-60.4c4.9-1.5 9.9-1.7 15-1.3c6.6 .6 13.5 3.6 18.9 7.6c54.7 40.4-26 85.3-16.6 126.7c4.2 18.6 22.1 22.4 37.3 20.4c20-2.6 44.6-30.4 53.6-48.4c4.5-9 3.7-19.4 2.8-29.3c-3.1-34.3-38.5-37.9-62.1-26.1c-53.2 26.5-57.8 115.3-134.6 99.3c-8.8-1.8-18.4-3.1-26.5-7.6c-9.1-5-17.6-11.8-25.3-19.1c-3.4-3.3-6.8-7.7-9.8-11.5c-14.6-18.8-9.1-26.4 12.7-32.4c25.2-7 51.7-5.2 77.1 1.2c9 2.4 17.3 12 15.5 23c-2.8 17.2-20 30.9-32.2 40.1c-13.1 9.8-29.1 21.6-45.5 22.9c-46.8 3.7-86.9-48.8-89.1-98c-1.7-37.6 5.2-73.8 37.9-93c9.7-5.7 22.4-3.2 32.8-5.1c16.7-3.1 34.1-11.1 48.3-21c21.4-14.9 57.6-50.5 38-81.5c-17.6-27.8-69.9-13.9-85.6 10.4c-10.6 16.4-3 46.9 7.4 60.9c15.8 21.5 43.2 20.6 62.7 4.5c31.9-26.5 74.9-64.7 115.6-32.5c16.3 12.9 17.4 37.6 1.2 51.6c-10.7 9.2-24.9 12.3-35.3 21.5c-21.4 18.9-32.9 55.2-21.7 84.2c14.8 38.1 62.3 14.6 83.4-1.3c5.5-4.1 26.6-38.3 40.4-24.9c18.1 17.7-33.9 42.7-45 51.6c-7.1 5.8-14.7 9.5-23 12.8c-21.5 8.5-126.2 39.3-61.5 73.2c8.6 4.5 16.9 7.9 26.4 9.5c38 6.5 81.7-23.6 103-56.6c6.9-10.7 19.3-35.3 10.4-48.4c-10.6-15.5-35.7-10.9-49.5-4.5c-42.5 19.9-77.3 34.2-124.9 28c-28.4-3.7-45.1-63.9-35.6-89.1c7-18.7 27.8-34.6 43.7-42.7c20.6-10.5 33.8-2.4 54.1 3.9c13 4 26.8 6.2 39.1 12.7c15.5 8.2 24 22.1 42.6 23.5c24.6 2 25.2-21.9 40.8-30.5" stroke="#2a4059" opacity="0" transform="translate(199.9,156.2) translate(0,0) translate(-175.2,-155.5)"/><path id="YellowIllos" d="M181.8 166.6c-17.2-17.9-13-39.2-1.6-59.5c3.4-6.2 7.9-11.3 12.6-16.2c4.4-4.7 9.1-9.2 13.3-14.3c5.9-7.2 10.6-15.5 13.4-24.4c3.1-9.7 4-20 1.8-30.1c-1.5-7-4.8-13.9-9.7-20.4c-4.2-5.5-9.4-10.7-15.5-15.2c-5.8-4.2-12.4-7.9-19.6-10.6c-5.6-2.1-11.5-3.7-17.7-4.6c-6.6-0.9-13.4-1-20.4-0.2c-6.1 .7-12.1 11.4-14.7 24.1c-2.1 10-2.1 21.2 1.6 30.1c2.4 6 6.6 10.9 12.9 13.5c7.1 3 14.4 1.4 21.5-1.2c5-1.8 9.9-4.1 14.6-5.6c23.1-7.5 60-4.3 69.6 19.1c2.1 5.1 2.9 11.2 2 18.3c-0.9 7-4.1 13.9-7.2 20.2c-4 7.8-9 17.1-16.6 22.1c-5.8 3.8-12.4 4.9-18.9 3.9c-15.9-2.4-31.5-16.6-34.7-30.6c-2.8-12.3 .9-24 8-33.5c8.1-10.8 20.7-18.8 33.4-21.8c5.7-1.4 10.7-1.5 15.2-0.5c6.1 1.3 11.3 4.6 15.8 9c4.8 4.7 8.9 10.7 12.8 17.2c3 4.9 5.8 10 8.7 15c5.9 10.4 12.2 20.2 20.5 26.1c11.8 8.4 29 12.9 43.7 9.5c7.7-1.8 14.7-5.8 19.8-12.5c3.7-4.7 6.9-11 9.5-17.9c2.8-7.8 4.6-16.3 5-24.6c.4-10.3-1.4-20.2-6.7-27.5c-6.8-9.5-18.2-15.9-29.4-17.1c-12.4-1.4-24.5 3.6-30 17.8c-3.6 9.2-4 18.6-2.4 28c.9 6.1 2.7 12.2 4.9 18.1c2.4 6.6 5.3 13 8.1 19.3c3.3 7.3 6.7 14.3 9.2 21c8.2 21.1 7.6 42.4-0.9 61.3c-4.2 9.2-10.2 17.8-18.1 25.6c-3.3 3.2-6.9 6.1-10.6 8.6c-11.4 7.6-24.4 11.7-38 13.1c-25.5 2.5-52.7-4.6-73.9-16.7c-8-4.4-15.9-9.1-22.2-15c-7.2-6.6-12.4-14.7-13.6-25.7c-1.1-11.2 2.6-19.8 9.2-25.7c8.5-7.5 21.6-10.5 34.6-8.4c8.4 1.4 16.3 5.1 22.7 10.4c8.7 7.1 14.9 17.1 16.6 28.5c1.6 10.9-0.8 19.3-5.7 25.8c-9.7 13-29.2 18.7-46.1 22.6c-7.6 1.8-15.6 2.3-23.7 1.7c-12.7-1.1-25.7-4.8-38.1-10.4c-5.1-2.3-10.2-5-15.1-7.8c-9.6-5.7-18.8-12.4-26.9-19.6c-8.7-7.7-16.3-16-22.2-24.2c-4.5-6.2-8.9-12.9-11.5-20.2c-3.4-9.2-3.5-17.6-1.4-25.4c1.5-5.4 4.1-10.5 7.4-15.3c3.1-4.5 6.9-8.8 10.9-13c4.1-4.1 8.5-8 12.9-11.8c6.2-5.3 12.4-10.4 17.8-15.3c5-4.6 11-9.5 17.3-14.9c6.7-5.6 13.7-11.7 20.3-18.4c5-4.9 9.7-10.2 13.9-15.8c3.7-4.9 7-10.1 9.6-15.6c3.5-7.3 5.7-15.1 6.3-23.4c.5-7.7-0.4-15.8-3.2-24.4c-3.4-10.1-9.7-16.7-17.5-20.7c-12.4-6.3-28.6-6.1-43.3-2.4c-12 2.9-23 8.2-29.9 14c-7.1 5.9-11.7 13.9-14.5 22.7c-4 12.8-4.3 27.4-3.3 40c1 11.7 3.6 22.8 7.6 32.9c3.7 9.2 8.7 17.5 14.7 24.6c4.7 5.6 10 10.3 15.9 14.3c8.6 5.7 18.5 9.5 29.4 11.2c6.9 .9 14.1 1.1 21.7 .2c4.5-0.5 9.2-1.4 14-2.7c9.4-2.5 18-6.5 25.5-11.8c17.1-11.9 29.2-30 35.9-50.1c3.3-9.6 5.3-19.7 6-29.8c.8-12.7-1.4-33.1-9.7-43.7c-3.8-4.7-19.3-8-21.7 .4c-3.2 11 6.9 14.2 17.1 14.2c6.6 .1 13.3-1.3 16.4-2.7c7.9-3.6 15.3-8.2 22.9-12.3c8-4.3 16.3-8.1 25.5-9.6c8.1-1.4 16.7-1.5 25.2-0.5c8.5 1.1 17 3.4 25 6.8c6.2 2.6 12.2 5.9 17.6 9.9c4.4 3.2 8.4 6.8 12 10.9c5.9 6.6 10.5 14.3 13.3 23c4.9 15.3-2.5 25.8-13 34.5c-7.8 6.3-17.2 11.6-24.5 17.1c-10.7 8-19.7 18-25.8 29.6c-3.1 5.8-5.5 12-7 18.6c-3.3 14.5-0.3 26.4 6.7 35.5c5.9 7.7 14.6 13.4 24.5 17.1c8.2 3.1 17.3 4.7 26.5 4.8c26.6 .5 23.6 36.4 10.5 47c-5.1 4.2-10.5 7.8-16 10.9c-7.7 4.4-15.8 7.8-24.1 10.7c-5.7 1.9-11.4 3.6-17.2 5.1c-6.8 1.8-13.7 3.4-20.7 4.9c-21.5 4.8-40.1 9.5-60.1-2.3c-9.4-5.6-17.8-12.4-24.6-20.4c-7-8.1-12.3-17.3-15.3-27.7c-1.9-6.8-2.9-14.1-2.7-21.8c.3-9.4 2.4-19 3.8-28.7c1.9-12.4 2.8-24.8-1.9-36.5c-4.7-11.7-13.7-18.9-24.4-22.6c-8.8-3.1-18.8-3.7-28.6-2.4c-11.3 1.6-22.3 5.8-30.7 11.9c-7.7 5.7-12.9 12.8-16.3 20.8c-4.1 10.1-5.4 21.5-4.9 32.9c.2 7.3 1.3 14.9 3.2 22.4c2.9 12.1 7.8 24.1 14.4 35c11.5 19 28.2 34.5 48.8 40.3c18.8 5.2 38.6-1 56.2-7.6c19.7-7.3 39.8-15.7 56.6-28.7c4.7-3.7 9.5-8.3 14.2-13.4c4-4.4 8-9.1 11.8-14c4.5-5.7 8.9-11.6 13.1-17.3c5.7-7.8 11.1-15.2 16-21.4" stroke="#ff8f00" stroke-dashoffset="4400" stroke-dasharray="4860" opacity="0" transform="translate(184,269.9) translate(-183,-269.6)"/><path id="GreenIllos" d="M171.5-227.2c-2.3 4.2-4.6 13.5-6.5 23.9c-1.5 8.2-2.7 17.1-3.3 24.7c-0.6 6.7-0.7 12.4-0.3 15.8c.5 4.7 1.1 9.5 1.6 14.2c.6 5 1.3 9.9 2.1 14.4c1 5.1 2.1 9.6 3.7 13.3c2.7 6.4 6.7 10.1 12.7 9.5c4.2-0.4 7.8-1.4 10.8-2.9c3.9-1.9 6.7-4.5 8.9-7.5c4.6-6.6 5.5-15 5.1-21.7c-0.3-5-1.4-9-2.3-10.5c-2.3-3.9-5.4-5.9-8.6-6.7c-5.4-1.4-10.9 .2-12.9 .9c-6 1.9-14.6 7-23.4 10.8c-3.3 1.5-6.6 2.8-9.8 3.6c-4.1 1.2-8 1.6-11.4 .7c-2.6-0.6-4.9-2-6.8-4.4c-4.4-5.6 3.4-12.6 11.6-19.7c2.5-2.1 5-4.2 7.1-6.3c3-2.8 5.4-5.5 6.5-8.1c2.1-4.9 2-8.7 .4-11.6c-2.7-5-10-7.3-17.7-8.1c-10.2-1.1-21.2 .3-24.3 1.2c-6.8 2.1-13.3 5.4-19.1 9.7c-3.7 2.7-7.2 5.7-10.3 9.1c-2.4 2.5-4.7 5.2-6.7 8c-2 2.8-3.8 5.6-5.4 8.5c-1.9 3.4-3.5 6.8-4.7 10.4c-0.9 2.2-1.6 4.6-2.3 7.1c-1 3.4-1.8 7.1-2.5 10.9c-0.7 4.4-1.2 8.9-1.4 13.5c-0.3 8.9 .7 17.9 3.6 25.7c1.4 3.8 3.2 7.4 5.6 10.5c2 2.7 5 5.3 8.5 7.6c5.4 3.4 12 6 18.2 6.4c2.9 .2 5.8-0.1 8.3-1.1c3.1-1.2 5.7-3.2 7.7-6.5c2.4-3.8 2.1-6.7 .4-8.7c-2.4-2.7-7.6-3.5-12.2-2.1c-4.4 1.4-8.2 3.5-11.3 6c-2.5 1.9-4.6 4.2-6.3 6.7c-2.3 3.5-3.8 7.3-4.5 11.3c-0.6 3.3-0.7 6.8-0.3 10.2c.6 4.5 2 9.1 4.3 13.3c1.7 3.2 3.8 6.2 6.4 9c3.9 4 8.2 7.2 13 9.6c4.5 2.3 9.3 4 14.4 5.1c7.3 1.5 15 1.9 22.9 1.2c4.2-0.3 8.6-1 12.8-1.9c4.4-0.9 8.6-2 12.8-3.4c4.1-1.3 8.1-2.8 11.9-4.5c3.1-1.4 6-2.8 8.9-4.4c3.2-1.7 6.2-3.5 9.1-5.5c3.8-2.5 7.3-5.2 10.3-8c2.8-2.5 5.2-5.3 7.3-8.3c2.3-3.3 4.1-6.8 5.6-10.6c1.4-3.5 2.5-7.2 3.2-11c1.1-5.9 1.4-11.9 .9-17.9c-0.4-4.2-1.1-8.3-2.2-12.2c-1.4-5.5-3.6-10.6-6.3-15.4c-1.9-3.2-4-6.2-6.5-8.9c-2.6-2.9-5.6-5.6-9-7.8c-2.6-1.8-5.4-3.2-8.3-4.4c-3.4-1.3-6.9-2.3-10.8-2.8c-3.8-0.6-7.6-0.5-11.4-0.1c-3.1 .4-6.3 1.1-9.4 2c-9.7 2.9-27.5 16.3-34.9 4.6c-2.5-4.1-2.6-9.7-1.3-15.6c1.2-6 3.8-12.3 6.4-17.6c1.6-3.3 3.2-6.3 4.6-8.6c2.5-4.4 5.6-8.6 9.1-12.4c3.7-4 7.8-7.7 12.3-10.9c5.2-3.8 10.9-7.1 16.9-9.7c5.3-2.3 10.8-4.1 16.4-5.3c7.5-1.7 15.2-2.3 22.7-1.7c4.2 .4 8.3 1 12.4 1.9c6.6 1.5 13 3.8 19 6.7c4.2 2.1 8.1 4.4 11.7 7.1c3.6 2.7 6.9 5.7 9.9 8.9c2.9 3.1 5.4 6.4 7.6 10.1c3.1 5 5.5 10.6 7.1 16.7c1.7 6.5 3.3 13.6 1.5 20.3c-1.5 5.4-4 10.3-7.1 15c-3.8 5.9-8.4 11.5-12.6 17.3c-4 5.6-7.7 11.4-9.9 17.9c-1.2 3.7-2.2 7.6-2.8 11.5c-1.7 9.7-1.2 19.5 2.2 27.7c2.3 5.9 6.2 11 11.8 14.7c3.9 2.6 8.7 4.5 14.4 5.6c4.2 .7 8.5 1 12.7 .4c4.4-0.6 8.6-1.7 12.5-3.4c4.9-2.2 9.4-5.1 13.4-8.6c3-2.6 5.7-5.6 8.1-8.8c2.8-3.8 5.2-7.9 7.2-12.2c1.8-4.2 3.2-8.6 4.1-13.1c.8-3.8 1.2-7.8 1.2-11.7c0-6.4-1.2-12.8-3.5-18.7c-1.7-4.4-4-8.5-7-12.3c-4.5-5.6-10.3-9.2-16.6-11.8c-4.7-1.9-9.7-3.3-14.6-4.7c-8.9-2.4-18.9-4.8-28.3-8.1c-6.9-2.4-13.6-5.3-19.4-9.1c-5.4-3.4-10-7.6-13.4-12.8c-1.8-2.7-3.3-5.6-4.4-8.9c-1-3.3-1.7-6.8-1.9-10.8c-0.4-6.1 .5-12.4 2.6-18.1c2.6-7 6.8-13.4 11.7-18.9c2.3-2.6 4.8-5.2 7.4-7.6c2.8-2.5 5.8-4.9 8.9-6.8c3.5-2.2 7.1-3.9 11-5c7.2-2 14.5-2.1 21.6-0.9c6.5 1.1 13 3.5 19.1 6.8c7 3.7 13.5 8.6 19.4 14.2c5.7 5.5 10.8 11.6 15 18.1c3.9 5.9 7.1 12.1 9.4 18.3c2.2 5.8 3.6 11.7 4.1 17.4c.4 4.8 .3 9.7-0.2 14.5c-0.8 8-2.5 15.9-4.4 23.8c-1.1 5-2.3 10-3.2 15c-1.2 5.9-1.9 12.1-2.5 18.5c-0.5 4.6-0.8 9.3-1.2 14c-0.5 6.1-1 12.2-1.8 18.2c-0.5 4.1-1.1 8.2-1.9 12.3c-1.1 5.4-2.5 10.7-4.4 15.8c-2.1 5.8-4.9 11.4-8.5 16.6c-3 4.2-6.6 8.1-10.6 11.6c-5 4.5-10.5 8.3-16.2 11.5c-3.6 2.1-7.4 3.7-11.2 4.8c-4.8 1.4-9.6 2.1-14.5 2c-5.6-0.2-11.3-1.4-16.7-3.8c-4.9-2.2-8.8-4.9-11.8-7.9c-2.7-2.6-4.6-5.4-6.1-8.5c-1.4-2.9-2.3-6-2.9-9.3c-0.9-4.9-0.9-10.1-0.4-15.4c.3-3.7 .9-7.5 1.6-11.2c1-4.9 2.1-9.8 3.2-14.5c.6-2.5 1.2-4.9 1.7-7.3c2.3-9.8 4.7-20 6.9-30.2c1-4.9 1.9-9.8 2.8-14.7c.8-4.7 1.5-9.3 2-14c.6-4.8 1.1-9.6 1.3-14.4c.5-8.3 .4-16.5-0.5-24.7c-0.5-4.7-1.3-9.3-2.3-13.9c-1-4.3-2.3-8.5-3.9-12.7c-1.6-4.2-3.5-8.4-5.7-12.4c-2-3.6-4.2-7.1-6.8-10.6c-2.1-2.9-4.4-5.6-6.9-8.2c-3.1-3.2-6.5-6.3-9.9-9.1c-3.8-3-7.6-5.5-11.5-7.6c-6.9-3.6-14-5.7-21.1-6.5c-5-0.5-10.1-0.4-15.1 .4c-3.4 .4-6.8 1.2-10.2 2.2c-4.9 1.5-9.7 3.5-14.4 6c-5.4 2.8-10.7 6.2-15.6 10.1c-2.2 1.6-4.2 3.4-6.2 5.2c-3.2 2.9-6.3 5.9-9.2 9.1c-2.9 3.2-5.5 6.5-8 9.8c-2 2.7-4.1 6-6.1 9.8c-2.4 4.7-4.8 10.1-6.7 15.7c-1.5 4.4-2.8 8.9-3.7 13.4c-1 5.3-1.6 10.6-1.4 15.6c.1 5.2 1 10.1 2.9 14.4c1.7 4 4.3 7.6 7.9 10.4c4.4 3.3 9.1 5 14.1 5.6c3.8 .4 7.7 .1 11.6-0.7c4.3-0.9 8.6-2.5 12.7-4.4c9.1-4.2 17.4-10.4 23.4-16c3.6-3.4 7.1-7.2 10.4-11.4c2.6-3.3 5-6.8 7.4-10.5c1.8-2.9 3.5-5.8 5.1-8.9c1.8-3.3 3.4-6.8 4.9-10.3c1.7-4 3.2-8.1 4.5-12.2c1.1-3.7 2-7.3 2.8-11c1.8-8.9 2.4-17.8 1.4-26.2c-0.8-7.7-3-15.1-6.7-21.8c-3.3-5.9-7.9-11.3-13.9-15.9c-2.7-2.1-5.7-4-9-5.7c-5.8-3.1-11.9-5.2-18.2-6.5c-4.7-1-9.5-1.5-14.4-1.6c-4-0.2-8 0-12 .3c-4.1 .4-8.3 1-12.4 1.7c-4.6 .9-9.3 2-13.8 3.3c-5.2 1.5-10.3 3.3-15.2 5.2c-3.6 1.3-7.1 2.8-10.5 4.3c-4.7 2.1-9.3 4.3-13.6 6.6c-3.3 1.7-6.7 3.6-10.1 5.5c-5.1 2.9-10.1 6-14.7 9.6c-5.3 4.1-10.1 8.8-13.9 14.2c-2.5 3.8-4.8 7.7-6.8 11.9c-2 4.3-3.8 8.8-5.3 13.4c-1.6 4.8-2.9 9.7-4 14.7c-1.3 6-2.2 12-2.9 18c-0.9 8.1-1.4 16.2-1.5 24.1c-0.1 6.4 0 12.6 .3 18.5c.2 4.3 .5 8.5 .9 12.8c.5 4.6 1.2 9.1 2 13.7c.7 4.1 1.5 8.2 2.5 12.3c1 4.5 2.2 9 3.5 13.5c1.2 4.1 2.4 8.1 4.1 11.9c1.9 4.4 4.6 8.5 8.7 11.7c2.1 1.6 4.4 3 6.7 4.1c3.2 1.5 6.6 2.4 9.9 2.8c3.6 .4 7.2 .2 10.8-0.5c2.6-0.5 5.2-1.2 7.8-2.2c3.3-1.2 6.5-2.8 9.6-4.6c2.5-1.5 4.9-3.2 7.2-5c4.5-3.5 8.6-7.4 12.3-11.5c3.5-4 6.5-8.2 9-12.4c1.3-2.2 2.4-4.4 3.4-6.5c2.7-6.1 4.9-12.3 6.7-18.7c1.3-4.6 2.5-9.3 3.6-13.9c1.1-5.1 2.2-10.2 3.2-15.3c1.3-6.6 2.5-13.2 3.8-19.7c.8-3.5 1.6-7.1 2.4-10.6c1.1-4.3 2.2-8.7 3.5-13.1c2.1-7.3 4.4-14.7 7.1-22c1.4-4 2.9-7.9 4.5-11.8c1.4-3.2 2.8-6.4 4.2-9.6c2.7-5.9 5.6-11.8 8.7-17.4c1.7-3.1 3.5-6.2 5.4-9.3c2.2-3.5 4.5-7 6.9-10.4c3.9-5.4 8-10.6 12.4-15.4c2-2.2 4.2-4.5 6.6-6.8c3.2-3.2 6.6-6.3 10.2-9.2c4-3.3 8.3-6.3 12.7-8.9c5-2.9 10.2-5.2 15.5-6.5c4.3-1.1 8.6-1.6 13-1.2c3.1 .2 6.3 .8 9.4 2c3.1 1.1 6.3 2.7 9.4 4.9c6.1 4.4 11.2 10.3 15.2 17.1c2.2 3.9 4.1 7.9 5.6 12.2c1.9 5.3 3.1 10.8 3.7 16.3c.5 5.6 .4 11.2-0.5 16.4c-1.1 6.1-2.9 11.8-5.6 16.7c-3 5.7-7.1 10.4-12.2 13.7c-2.3 1.5-4.9 2.7-7.7 3.5c-5 1.6-10.8 1.9-17.2 .9c-9.7-1.7-18-6.1-25.1-12.2c-3.9-3.3-7.5-7.1-10.8-11.2c-1.8-2.2-3.5-4.5-5.1-6.9c-3.5-5.1-6.8-10.5-9.8-15.9c-1.5-2.6-2.9-5.1-4.3-7.7c-1.4-2.7-2.9-5.4-4.3-8c-1.4-2.7-2.8-5.2-4.2-7.7c-2.2-3.9-4.7-7.7-7.4-11.3c-3.4-4.5-7.2-8.7-11.2-12.5c-3.3-3.1-6.9-6-10.5-8.5c-3.5-2.4-7.1-4.6-10.8-6.4c-4.2-2.1-8.5-3.8-12.9-5.1c-5.2-1.5-10.6-2.4-16-2.6c-6.2-0.3-12.5 .3-18.9 1.9c-4.9 1.2-9.6 2.9-14.1 5.1c-4.8 2.3-9.3 5.2-13.6 8.5c-3.2 2.6-6.3 5.3-9.3 8.1c-2.4 2.3-4.7 4.6-7 7.1c-3.2 3.4-6.4 7.1-9.4 10.8c-2.5 3.1-5 6.2-7.4 9.4c-3.2 4.2-6.1 8.5-8.9 12.9c-1.7 2.7-3.3 5.5-4.9 8.2c-1.8 3.3-3.6 6.7-5.2 10.2c-2.8 5.9-5.3 12-7.5 18.2c-1.4 3.9-2.7 8-3.8 12.1c-1.1 3.9-2 7.9-2.6 11.9c-0.7 4.9-1 9.9-0.6 14.8c.3 3.6 .8 7.1 1.4 10.6c.7 3.4 1.5 6.8 2.5 10.1c1.3 4 2.7 7.7 4.5 11.3c1.9 4.1 4.2 8 6.7 11.6c3.7 5.1 8 9.8 12.9 13.8c3.9 3.3 8.2 6.2 12.9 8.6c5.1 2.7 10.7 4.9 16.7 6.5c3.5 .9 7 1.6 10.5 2.3c2.8 .5 5.6 1 8.5 1.4c5.8 .9 11.6 1.6 17.4 2.3c3.8 .5 7.7 1.1 11.6 1.7c3.6 .5 7.2 1.2 10.7 2c4.4 .9 8.7 2 12.9 3.5c4.3 1.4 8.8 3.2 13 5.6c5.5 3.1 10.5 7.1 13.7 12.3c2.3 3.8 3.9 8 5.1 12.2c1.4 5.1 2.2 10.4 2.9 15.5c.9 6.1 .4 12.2-1.2 18.1c-1 3.8-2.5 7.5-4.4 10.9c-2.3 4-5.2 7.6-8.6 10.7c-3 2.6-6.3 4.8-10.1 6.5c-3.7 1.6-7.8 2.7-12.2 3c-3.4 .2-6.9 .3-10.3 .2c-4.4-0.1-8.7-0.5-13-1.1c-4-0.6-7.9-1.4-11.7-2.4c-3.9-1.1-7.7-2.4-11.4-4c-4.3-1.8-8.5-5.3-12.4-9.1c-2.3-2.3-4.5-4.7-6.4-6.9" stroke="#007b52" stroke-dashoffset="4400" stroke-dasharray="4400" opacity="0" transform="translate(209.6,469.6) translate(-196.8,-246.6)"/><path id="BlueIllos" d="M305.4 229.6c4.4 14 5.1 31.5-4 43.7c-5.4 7.2-12.6 12.2-20.3 14.7c-8 2.5-16.4 2.3-23.9-1c-4.3-1.8-8.2-4.7-11.6-8.6c-1.9-2.2-3.6-4.7-5.1-7.6c-1.8-3.5-2.9-8.9-3.3-14.9c-0.4-6.2 0-13.1 1.4-19.4c.9-4.3 2.2-8.5 4-11.9c1.9-3.5 4.3-6.3 7.2-8c2.2-1.2 4.9-1.8 7.8-1.4c3.9 .6 7 1.9 9.4 3.8c2.8 2.2 4.7 5.1 6 8.5c1.6 4.1 2.2 8.9 2 13.8c-0.1 4.4-0.9 8.8-2 13c-0.5 2.1-1.2 4.1-2 6c-0.5 1.2-1 2.5-1.6 3.7c-1.1 2.5-2.4 5-3.8 7.5c-2.2 3.8-4.7 7.4-7.5 10.8c-3.6 4.4-7.6 8.3-11.9 11.7c-4.8 3.7-9.9 6.7-15.4 8.6c-1.9 .7-3.8 1.2-5.7 1.7c-2 .4-4 .7-6 .8c-3 .2-6 .1-9.1-0.4c-2.6-0.5-5.2-1.1-7.8-2.1c-2.2-0.8-4.3-1.8-6.5-3.1c-12.6-7-13.1-23-10.7-37.9c.7-4.3 1.7-8.6 2.7-12.5c.7-3 1.5-5.8 2.2-8.2c2.6-9.5 5.1-18.8 7-27.7c2.1-10.3 3.2-20.1 2.5-29.1c-0.5-6-1.8-11.5-4.3-16.7c-5-10.6-14.7-19.3-31.6-25.3c-5.6-2.1-11.3-3.2-17.1-3.4c-2.1 0-4.3 0-6.4 .2c-1.1 .1-2.3 .2-3.4 .3c-8.3 1.2-16.2 3.6-23.6 7.2c-12.8 6-24.2 15.2-33.9 26.5c-13 15.2-22.9 34-28.8 53.9c-4.2 14.3-6.4 29.1-6.1 43.3c.1 5.2 .6 10.3 1.5 15.4c1.2 6.3 3 12.5 5.3 18.4c1.2 2.9 2.5 5.6 3.9 8.3c3 5.9 6.7 11.2 11 15.9c5.1 5.6 11 10.2 17.6 13.2c1.7 .9 3.5 1.6 5.4 2.2c2.9 .9 5.9 1.6 9.1 2c3.5 .4 7.2 .4 11-0.1c3.6-0.4 7.3-1.2 11.1-2.5c1.8-0.6 3.4-1.3 4.9-2.1c3.6-1.9 6.6-4.4 9.1-7.3c2.4-2.8 4.3-6 5.6-9.5c1.4-3.7 2.3-7.6 2.6-11.6c.2-3.4 .1-6.8-0.4-10.3c-0.6-3.8-1.6-7.6-3.2-11.1c-0.8-2.1-1.9-4.1-3-6c-1.6-2.5-3.4-4.9-5.4-7c-9.9-10.3-22.6-14.9-35.5-15c-16.1-0.1-32.6 6.8-44.2 18.6c-10.9 11.2-17.6 26.7-15.7 44.8c.5 5 1.5 9.7 2.8 14.1c1.4 4.5 3.1 8.6 5.2 12.4c1.6 3 3.5 5.9 5.5 8.5c1.8 2.5 3.8 4.8 6 6.9c1 1.1 2.2 2.2 3.3 3.3c2.7 2.3 5.4 4.5 8.4 6.5c4.5 3.1 9.3 5.8 14.3 8.1c3 1.4 6.1 2.6 9.3 3.8c2.8 1 5.7 1.9 8.6 2.7c3.5 1 7.1 1.9 10.7 2.6c18.3 3.7 37.2 4 52.7 1.8c18.6-2.7 42.4-8.8 51.5-29c7.9-17.6-1.6-35.6-12.9-48.5c-10.6-12-27.4-23.5-41-36.9c-11.7-11.5-21.2-24.4-22.5-40.5c-2.1-23.7 23.2-45 42.5-49.3c21.8-4.9 49.8 .7 69.8 15.4c16 11.7 26.9 29.3 25.6 52.2c-0.1 1.3-0.2 2.5-0.4 3.8c-0.4 3.2-1 6.4-1.9 9.6c-1 3.6-2.2 7.2-3.7 10.8c-1.4 3.2-3 6.3-4.7 9.4c-1.8 3.2-3.7 6.2-5.8 9.2c-2.4 3.5-5.1 6.8-7.8 10.1c-3.7 4.3-7.8 8.4-12 12.2c-6.2 5.6-12.9 10.6-19.8 14.7c-11.3 6.8-23 11.3-33.8 12.2c-9.3 .9-18.7-0.2-27.4-3c-3.3-1-6.5-2.4-9.6-3.9c-2-1-3.9-2.1-5.8-3.3c-1-0.6-2-1.3-3-2c-16.5-11.8-27.3-31.4-25.2-56.1c1.2-15.1 6.8-29.2 13.1-42.5c4.6-9.7 9.7-19.7 16.7-27.7c9.2-10.4 21.4-15.8 34.2-17c16.5-1.5 34 4.1 46.7 15.1c34.6 30.3 56.5 94.1 111 55.2c20.3-14.5 18-42.8 8-63.9c-3.1-6.6-7.2-13.3-12.1-19.6c-2.8-3.7-5.8-7.2-9-10.6c-4.5-4.6-9.3-8.8-14.4-12.5c-3.3-2.4-6.6-4.5-10-6.3c-4.7-2.4-9.4-4.4-14.2-5.6c-2.2-0.6-4.4-1-6.5-1.3c-3.3-0.4-6.5-0.5-9.8-0.2c-3 .3-6 .9-8.9 1.9c-3.1 1-6.2 2.4-9.2 4.3c-4 2.5-7.9 5.9-11.6 10.2c-6.1 7-10.2 15.3-13.6 24.2c-0.7 1.8-1.4 3.8-2 5.7c-1.6 4.6-3.1 9.4-4.3 14.3c-1.3 5.4-2.2 10.9-2.5 16.4c-0.2 3.9 0 7.8 .5 11.7c.5 4.1 1.5 8.1 3.1 12.1c1.1 2.6 2.3 5.2 3.7 7.8c3.9 7.1 8.9 14.2 14.5 21.4c10.6 13.4 23 27.1 33.1 41.6c8.2 11.9 14.8 24.2 17.4 37.3c2.9 14.9 .7 30.8-10.1 48.1c-3.6 5.8-7.8 10.9-12.5 15.4c-6 5.7-12.7 10.4-20 14.1c-7.1 3.7-14.8 6.5-22.7 8.3c-11.3 2.6-23.1 3.5-34.8 2.5c-11.4-0.8-22.7-3.3-33.3-7.4c-7.7-2.9-15-6.7-21.8-11.2c-7.3-4.9-14-10.8-19.6-17.5c-5-5.8-9.1-12.3-12.4-19.5c-13.4-29.1-6-58.6 4.7-87.9c11.2-31.1 25.9-62.1 23.3-92.4c-1-10.9-4.1-21.6-10.5-32.2c-5.1-8.6-11.8-15-19.4-19.6c-2.6-1.5-5.3-2.8-8.1-4c-3.7-1.4-7.6-2.5-11.5-3.3c-6-1.1-12.1-1.4-18.2-1c-10.7 .6-21.3 3.5-30.7 8.1c-10.7 5.2-20.4 12.5-28.8 21.3c-6.3 6.7-11.9 14.2-16.7 22.4c-12.4 21.2-18.8 46.7-16.6 71.6c2.5 28 39.1 43.1 56.7 21.7c15.6-19 21.7-46.5 29.2-72.3c10.4-36.1 23.3-69.1 68.2-71.6c15-0.9 32.4 .3 49.1 4.4c9.1 2.2 18 5.3 26.2 9.4c8 4 15.4 9 21.6 15.1c11.1 10.9 16.2 25.7 14.6 39.5c-1.4 11.4-7.5 22.1-18.7 29.4c-38.4 25-48.9-31.6-19.7-54.2c22.3-17.4 48.2-16.4 71.7-5.2c18.5 8.8 35.6 24 48.3 41.6c5.8 8 10.7 16.5 14.4 25.2c2.2 5 3.9 10.1 5.3 15.1c1.9 7.4 2.9 14.5 3.2 21.3c.2 5.4-0.1 10.7-0.9 15.7c-1.1 7.7-3.3 14.9-6.4 21.6c-14 30.1-45.9 49.5-79.6 55.9c-19.6 3.8-39.7 3.1-57.4-2.5c-23.6-7.5-30.5-28.6-35.1-51.4c-6.2-30.9-8-64.9-41.2-71.7c-13.5-2.7-25.5 1.4-35.6 9.3c-4.3 3.4-8.3 7.5-11.9 12.1c-4.7 5.8-8.7 12.3-12 19.1c-3.1 6.2-5.6 12.6-7.6 18.7c-6.2 20.3 14.4 57.7 48 59c31.1 1.2 62.8-6.1 75.8-37.1c.1-0.4 .3-0.9 .5-1.3c.5-1.3 1-2.6 1.4-3.8c.5-1.5 .9-3 1.3-4.5c.4-1.4 .7-2.8 1-4.3c.3-1.9 .7-3.8 .9-5.7c.2-2 .4-4.1 .5-6.1c.1-2.2 .1-4.4 0-6.6c-0.1-3.3-0.4-6.6-0.8-9.8c-1.5-10.9-4.8-21.6-9.2-31.6c-4.1-9.2-18.6-40.9-7.7-80" stroke="#007cbf" stroke-dashoffset="4900" stroke-dasharray="5500" opacity="0" transform="translate(164.5,78) translate(-145.2,-303.5)"/><path id="RedIllos" d="M178.9-213.8c12.4 14.7 17.9 36.4 18.2 52.6c.8 39-26.1 77-63.5 40.1c-7.2-7.2-12.8-16-17-25.1c-25.2-54 8.5-86.9 52.4-115.5c24.1-15.7 54-26.8 78.6-5.8c32.3 27.7 40.3 91.3 20.5 127.7c-13.5 24.7-37.4 42.7-57 62.3c-16.4 16.3-50.2 66.9-77.6 59.4c-16.4-4.4-7.6-44.4-4.8-56.6c6.4-27.3 44.5-76.3 14.2-100.9c-27.7-22.5-96.9 35.9-107.9-21.1c-1.1-5.5-0.9-11.1 .5-16.6c7.8-30.9 61.3-44.7 91.8-45.5c17.4-0.4 20.6 .8 25.5 19.1c8.6 32.1-28.3 66.5-43.2 91.5c-4.1 7-9.1 14.7-10.1 23c-3.5 28 28.7 71.7 41.4 94.8c18.8 34.2 49.4-0.4 91-17.8c10.2-4.3 66.9-15.1 71.5-21.1c37.9-48.6-55-54.1-73-91.5c-10.8-22.6-0.1-43.5 11.5-63c5.4-9 10.7-18.2 19.8-24.1c19.9-12.9 46.7-5.8 59.6 13.4c18.8 28.2 24.3 70.3 30.2 103.3c1.7 9.9-1.7 46.5 13.9 46.1c17.4-0.5 26.5-25.8 27.7-39.5c3.1-34.3-14.5-78.3-46.1-94.7c-26.9-13.9-33.6 24.4-36.2 42.8c-6.8 48.1-13.2 95.3-43.3 135.5c-9.6 12.8-29.3 35.2-48.1 29.2c-29.5-9.4-15.6-68-8.6-87c4.5-12.3 10-24.3 16.1-35.9c4.9-9.5 10.3-18.7 15.9-27.9c23.4-38.8 72.7-111.4 15.9-146.1c-29.6-18.1-77.8-2.5-91.7 29.3c-6 13.8-6.5 30.2-1.8 44.4c3.5 10.7 11.3 21.6 9 33.3c-6.8 34.9-41.1 42.8-66.4 59.6c-9.3 6.2-17.1 14.6-24.4 23c-9.4 10.7-20.5 33.7-35.8 36.6c-13 2.5-17.7-15.3-19.8-24.6c-6.9-30.9-3.5-65.4 1.1-96.3c.6-4.2 4.9-34.1 10.8-33.3c4.4 .5 6.4 10.7 7.3 13.8c3.6 13.5 6 27.4 8 41.2c6.3 42.3 .9 110.4 13.5 119.7c18.1 13.2 37.5-14.9 38.8-36.9c3.6-59-17.7-91.5-18.2-150.1c-0.2-25.1 9.8-54.9 36.6-62.5c39.2-11.2 83.8 9.9 116.5 29.8c65.1 39.6 137.3 92.8 121.8 179.4c-2.6 14.6-8.5 28.2-16.2 40.8c-8 13.2-18.2 25.4-30.7 34.6c-36.3 26.8-78.2 8.3-90-34c-12.5-44.3 5.3-90.2 11.8-133.9c2.3-15.4 6.8-40.3-3.7-53.9c-10.7-14-34.2-26.4-50.2-27.3c-37.8-2.2-130.1-0.5-120.2 30.8c2 6.5 57.2 18.9 77.9 20.1c58.7 3.3 108.4-49.6 167.3-56c65.6-7.2 44.2 145.7 15.1 167.3" stroke="#f65c1b" stroke-dashoffset="5300" stroke-dasharray="5300" opacity="0" transform="translate(184.6,474.9) translate(0,0) translate(-191.8,-252)"/><path id="DarkIllos" d="M182.5 129.1c-3.4 6.5-4.9 13.9-4.6 21.4c.2 5.4 1.2 10.8 3.1 15.8c2.8 7.8 7.5 14.9 13.7 19.9c4.5 3.6 9.7 6.2 15.5 7.2c14.8 2.8 27.3-2.9 41.6-4.3c4.6-0.4 15.4-1.1 20.1-0.9c13 .7 8.9 12.7-4.1 14.2c-6.3 .7-14.7-1-22-4.8c-8.4-4.2-15.5-11.1-17.1-20.1c-1.3-7.1-0.6-14.6 1.6-21.7c2.9-9 8.2-17.4 14.8-23.9c6.9-6.8 15.3-11.5 24-12.6c5.7-0.8 11.5 0 17.1 2.9c6.3 3.1 11.9 8.8 16.3 15.7c3 4.7 5.4 9.9 7.3 15.5c2.3 6.7 3.7 14 4.1 21.1c.4 5.5 .1 10.9-0.9 16c-1 5.5-2.8 10.6-5.5 15.1c-4.2 6.8-10.2 12.8-17.4 17.6c-8.6 5.8-18.9 9.9-29.1 11.6c-9.9 1.7-19.8 1.3-28.3-1.9c-6-2.2-10.2-5.7-13.1-10.1c-2.6-4.1-4-8.9-4.6-14.3c-0.9-8 0-17.3 1.6-26.7c1.2-7 2.8-14.2 4.3-21.1c1.2-5.6 2.4-11 3.2-16.1c1-5.6 1.7-10.8 1.7-15.4c0-3.4-0.4-6.6-1.2-9.6c-4.4-18.4-21.1-31.7-38.5-29.9c-4.7 .5-10.5 4.2-14.4 7c-12.1 8.5-20.5 27.2-18.4 43.3c1.4 11.2 10.3 24.9 13.2 36.8c2.5 10.2 .5 19.1-14.9 23.7c-4.9 1.4-10 1.7-15 1.2c-6.7-0.5-13.5-3.6-19-7.6c-10-7.4-15.5-14.9-17.8-22.6c-4-13.2 1.5-26.7 9.2-40.3c12.1-21.5 30-43.1 25.3-63.8c-2.7-11.8-10.8-17.6-20.3-19.8c-5.5-1.3-11.5-1.3-17.1-0.6c-6.2 .8-12.9 4.1-19.4 8.7c-5 3.6-10 8.1-14.5 12.8c-8.5 8.9-15.6 18.9-19.6 26.9c-4.5 9.1-3.8 19.5-2.9 29.3c.9 9.8 4.4 17 9.5 22.2c6.7 6.8 16.3 9.9 26.3 10c9 .1 18.3-2.1 26.4-6.1c6.2-3.1 11.8-7.1 17-11.7c4.8-4.4 9.2-9.2 13.4-14.4c3.5-4.3 6.8-8.9 10-13.5c2.6-3.7 5.1-7.4 7.6-11.1c4.3-6.3 8.6-12.6 13.1-18.4c2.7-3.5 5.5-6.8 8.4-9.9c5.1-5.4 10.5-10.2 16.7-13.9c5.4-3.2 11.3-5.6 17.9-7c8.8-1.8 18.8-1.8 30.5 .6c8.8 1.8 18.3 3.1 26.4 7.6c3.9 2.2 7.7 4.6 11.4 7.3c4.9 3.6 9.5 7.6 14 11.8c3.4 3.3 6.8 7.7 9.7 11.5c9 11.6 10.4 18.9 5 24.3c-3.3 3.3-9.3 5.8-17.6 8.2c-3.3 .9-6.6 1.6-9.9 2.2c-3.3 .7-6.7 1.1-10 1.5c-8.8 .9-17.7 .9-26.6 .2c-10.3-0.8-20.5-2.6-30.6-5.2c-9.1-2.3-17.3-12-15.5-22.9c1.4-8.9 6.7-16.9 13.1-23.7c6.1-6.5 13.2-12 19.1-16.5c8.1-6.1 17.3-12.9 27.1-17.6c6-2.8 12.1-4.8 18.3-5.3c5.5-0.4 10.8-0.1 16 .9c7.6 1.5 14.8 4.3 21.6 8.2c5 2.9 9.7 6.4 14.2 10.4c2.4 2.1 4.6 4.3 6.8 6.7c2.7 2.8 5.2 5.8 7.5 9c4.9 6.5 9.2 13.7 12.7 21.3c2.3 5 4.2 10.2 5.8 15.5c2.6 8.6 4.2 17.4 4.6 26.1c.4 9.1 .3 18.1-0.5 26.8c-0.3 2.9-0.7 5.8-1.1 8.6c-0.6 3.6-1.4 7.1-2.3 10.6c-0.9 3.6-2 7-3.3 10.4c-2.9 7.5-6.9 14.5-12.1 20.8c-5 6-11.1 11.3-18.7 15.7c-9.6 5.7-22.3 3.2-32.8 5.1c-8.3 1.6-16.8 4.3-25 7.9c-8.2 3.7-16.1 8.1-23.3 13.1c-8.3 5.8-18.8 14.7-27.4 25.2c-5.1 6.3-9.6 13.1-12.5 20.2c-1.2 2.9-2.2 5.8-2.8 8.8c-0.8 3.6-1.1 7.3-0.8 11c.3 3.7 1.2 7.4 2.7 11c.8 1.8 1.7 3.6 2.8 5.3c2.5 3.9 5.6 6.9 9.1 9.3c5.4 3.4 11.8 5.3 18.6 5.9c4 .3 8.2 .2 12.4-0.3c2.5-0.3 5.1-0.8 7.7-1.4c2.6-0.6 5.1-1.4 7.6-2.2c4.4-1.6 8.6-3.5 12.5-5.7c4.4-2.6 8.5-5.6 11.8-8.8c2.3-2.3 4.3-4.7 5.9-7.2c2.1-3.2 3.5-7 4.3-11.1c1.1-5.7 1.1-11.9 .2-18.2c-1.6-12.1-6.3-24.1-11.8-31.6c-6.2-8.3-14-13.2-22.5-15.3c-13.4-3.2-28.3 1-40.2 10.9c-3.6 2.9-7.3 6-11.2 9.2c-1.8 1.5-3.6 3-5.5 4.5c-1.9 1.5-3.9 3-5.8 4.6c-3.4 2.5-6.8 5-10.3 7.4c-8.3 5.8-17.1 10.8-26 14.3c-3.1 1.2-6.3 2.2-9.5 3c-4.3 1-8.6 1.6-12.9 1.7c-3.6 .1-7.1-0.2-10.7-0.9c-2.5-0.5-5-1.2-7.5-2.1c-1.9-0.7-3.8-1.5-5.7-2.5c-3.6-1.8-7.1-4-10.6-6.8c-3.7-2.9-6.6-6.4-8.7-10.3c-1.6-2.9-2.7-6.1-3.4-9.3c-1-5.2-0.9-10.6 .6-15.7c1.7-6.1 5.1-11.7 10.4-16.2c3.5-3.1 7.5-5.5 11.5-7.7c2-1 3.9-1.9 5.8-2.9c2.8-1.4 5.6-2.8 8.4-4.3c3.3-2 6.6-4.1 9.5-6.7c10.2-9 18.1-21.8 22.4-35.9c.9-2.8 1.6-5.7 2.2-8.6c.9-4.7 1.4-9.4 1.5-14.1c.1-5.5-0.4-11-1.6-16.3c-0.7-3.1-1.6-6.2-2.8-9.2c-0.7-1.9-1.5-3.6-2.3-5.1c-1.4-2.5-2.9-4.6-4.6-6.5c-5.5-5.9-12.6-8.6-20.4-9c-9.2-0.5-19.4 2.2-28.9 6.2c-10.5 4.4-20.3 10.4-27.2 15.6c-1.8 1.4-5.3 6.1-9.7 11.2c-3.7 4.3-8 8.9-12.4 12.2c-6.3 4.7-12.8 6.8-18.2 1.5c-7.2-7-3.4-15.2 4.6-23.1c2.9-2.8 6.2-5.5 9.8-8.2c4.5-3.3 9.3-6.5 13.8-9.4c7.2-4.5 13.6-8.4 16.7-10.9c4.9-3.9 10-6.9 15.4-9.5c2.5-1.1 5-2.2 7.6-3.2c4.9-2 14-5 24.4-9c6.4-2.4 13.2-5.2 19.9-8.2c6.7-3.1 13.3-6.5 19.1-10.1c6-3.8 11.1-7.8 14.5-12.1c4.4-5.5 5.9-11.4 3-17.5c-2.6-5.3-8.7-10.8-19.3-16.3c-2.9-1.5-5.7-2.9-8.5-4.1c-5.7-2.5-11.6-4.4-18-5.5c-8.7-1.5-17.7-1-26.6 .9c-3.4 .7-6.7 1.7-10.1 2.8c-8.8 3-17.5 7.4-25.7 12.7c-5.2 3.4-10.2 7.2-14.9 11.2c-5.2 4.5-10.1 9.3-14.5 14.3c-4.1 4.8-7.9 9.7-11.2 14.8c-4 6.2-9.9 17.3-12.3 28c-1.7 7.5-1.7 14.9 2 20.4c10.5 15.5 35.7 10.9 49.5 4.4c8.4-4 16.6-7.7 24.6-11.1c13.2-5.6 26-10.3 39.2-13.5c18.9-4.7 38.5-6.3 61-3.4c6.2 .8 11.8 4.2 16.7 9.4c11.3 11.9 18.9 32.8 21 51.6c.6 4.7 .8 9.2 .6 13.4c-0.2 5.6-1.1 10.6-2.6 14.7c-7.1 18.7-27.9 34.6-43.7 42.7c-4.4 2.2-8.5 3.6-12.3 4.4c-6.7 1.3-12.8 .6-19.1-0.9c-7-1.8-14.3-4.7-22.7-7.3c-5.9-1.9-12-3.3-18-5c-7.3-2-14.4-4.2-21.1-7.8c-8.5-4.4-14.9-10.6-22-15.6c-5.9-4-12.2-7.3-20.6-7.9c-12.8-1-19.1 4.9-24.4 12c-1 1.3-1.9 2.7-2.8 4.1c-1 1.4-2 2.9-3.1 4.3c-1.3 1.8-2.7 3.6-4.2 5.2c-1.9 1.9-3.9 3.6-6.4 4.9" stroke="#2a4059" stroke-dashoffset="6000" stroke-dasharray="6000" transform="translate(221.8,259.9) translate(-197,-259.3)"/></g><g id="End-Tangles" clip-rule="evenodd" fill-rule="evenodd" stroke-linecap="round" stroke-linejoin="round" stroke-miterlimit="1.5" opacity="0" transform="translate(213.7,593.8) translate(-193.7,-440.5)"><path id="Purpletangle-End" d="M259 2c-2.4 15.9-14.9 35.8 25.3 143c40.2 107.2 46.4 220.2 14.3 295.9c-11.3 26.4-35.5 50.9-55.1 66.1c-16.8 13.1-36.9 21.4-56.7 28.8c-17.6 6.5-37.3 12.8-56.1 7.5c-39.9-11.2-65-58.6-66.5-97.6c-0.7-20.6 3.9-41 21.3-53.7c24.3-17.8 70.6-19.5 83.7 13.1c8.4 20.8-1.2 43.9-1.9 65.1c-0.9 30.7 17.1 54.8 42.6 69.9c19.9 11.8 38.5 7.1 60.1 2.4c28.2-6.2 55.2-13 78-31.6c13.1-10.6 16-46.6-10.5-47c-33.5-0.6-66.2-20.8-57.7-57.5c4.5-19.7 16.8-36.1 32.8-48.1c17.2-13 46.1-25 37.5-51.6c-12-37-56.6-56.4-93.1-50.2c-18 3.1-32.2 14.5-48.4 21.9c-7.9 3.7-38.8 6.7-33.5-11.5c2.4-8.4 17.9-5.1 21.7-0.3c8.3 10.5 10.5 30.9 9.6 43.6c-2.7 40.6-26.5 81-67.3 91.8c-58.1 15.2-98.8-25-103.3-80.6c-1.7-21.2 .2-48 17.8-62.7c20.7-17.3 77.8-29.8 90.6 9.2c17.5 53.2-37.1 87.7-64.1 112.5c-22.7 20.7-61.1 44.3-47.6 80.8c2.6 7.2 7 13.9 11.5 20.1c25.6 35.6 81.1 71 126 60.4c25.3-6 56.6-15.8 51.8-48.5c-3-19.8-19.7-35.6-39.3-38.8c-23.1-3.8-46.5 8.4-43.8 34c2.2 20.8 18.9 31.3 35.7 40.8c36.4 20.5 90.2 26.9 122.6-5.1c23.8-23.5 31.2-55.4 19-86.9c-10-25.9-31.2-57.1-19.8-86.4c10.5-26.9 45-20.6 59.4-0.6c13.4 18.5 4.8 53.5-7.8 69.9c-15 19.7-45.5 15.8-63.5 3c-26.4-18.8-32-76.5-73-66.8c-24 5.7-47.3 29-41.4 55.4c4.5 19.8 33.8 39.8 53.6 26.7c7.5-5.1 12.6-14.4 16.5-22.2c3.2-6.3 6.4-13.1 7.3-20.2c5.2-39.8-43.5-46.4-71.6-37.3c-11.2 3.6-24.1 11.9-36.1 6.8c-27.6-11.6-13.9-66.1 .2-67.7c41.1-4.9 77 23.3 82.9 50.9c4.2 19.4-2.9 39.5-15.3 54.6c-8.6 10.5-19.1 18.3-25.9 30.4c-11.3 20.3-15.5 41.7 1.7 59.5" fill="none" stroke="#a654a0" stroke-width="4px" stroke-dashoffset="4235" stroke-dasharray="4235" transform="translate(196,274.8) translate(-196,-274.8)"/><path id="Greentangle-End" d="M84.9 14c30.3 87.6 61.1 80.4 77.2 234.9c17.2 165.5 164.9 70.9 154.2 34.3c-3.1-10.6-11.5-17.5-18.4-20.5c-14.2-6.1-30.6-8.3-46.3-7.2c-24.5 1.7-39.7 26.2-36.6 49.1c1.3 9.5 3 19.5 8 27.7c5.7 9.2 16.9 14.7 26.7 18c23.2 7.8 48.1 7 71.6 13.2c34.5 9.1 54.8 37.3 57.6 72.5c1.1 13.1-2.7 26.5-7 38.7c-6.1 17.9-15.1 34.4-26.5 49.5c-9.6 12.8-20.4 25.5-33.1 35.4c-8.3 6.5-17.4 11.1-27.6 13.6c-36.1 9.1-70.7-14-87.8-44.4c-14.4-25.6-30.2-64-63.6-69.6c-24.2-4.1-38.8 12.4-42.7 34.7c-3.7 21.7 5.8 49.1 24.1 62c27.7 19.6 58.3-5.5 76.8-25.7c26.4-29 43.4-71.3 52.6-109c6.3-26 8.8-53.5 19.8-78.2c11.1-25 48.6-57.4 76.7-35.7c7.5 5.8 10.1 14.7 12.7 23.5c5 17.1 8.2 34.5 9 52.3c1.4 31.9-1.5 73.5-20.3 100.6c-9.3 13.4-24.5 22-38.7 29.4c-31.4 16.4-75.9 31.2-110.1 13.3c-53-27.7-26.3-102.8 6.9-133.9c14.6-13.7 42.6-30.3 61.8-15.5c22.1 17.1 5.7 62-7 79.2c-26.3 35.4-72.6 60.2-111.4 28.7c-6.2-5-12-10.8-16.8-17.3c-32.2-43.6-17.2-99.5-6.2-147.5c6.1-26.7 16.9-60.1-14.6-74.1c-14.1-6.3-29.3-4.6-42.5 2.9c-10.1 5.8-20 13.6-26.7 23.2c-19 26.9-14.5 64.5-20.3 95.4c-3.4 17.5-9.5 35.3-7.9 53.3c3.5 38 47.7 85.1 88.6 73.8c10.9-3 20-11.1 27.4-19.4c4.9-5.5 9-11.9 11.6-18.8c2.1-5.8 3-12.1 2.7-18.2c-2.1-35-39.9-42.1-67.4-49.7c-11.6-3.2-23.5-6.6-31.2-16.4c-24.8-31.3-2.9-83.6 35.9-88.9c4.3-0.6 8.5-0.3 12.8 .5c29.6 5.4 33.8 34.6 25.5 59.5c-6.3 18.7-24.5 31.5-29.5 50.1c-1.8 6.7-0.3 13.8 1.5 20.4c8 30.7 37 48.8 67.7 51.3c29.7 2.5 62.5-14.3 77.3-39.9c5.7-9.8 16.4-31.1 9.7-41.9c-7.4-11.7-25.2 1.7-34.9 4.6c-6.8 2-13.8 3-20.8 2c-44.6-6.2-57.2-71.2-26.1-99.4c27.5-24.9 87.1-42.2 116.1-11.7c17.3 18.3 14.6 48-11.7 56.4c-7.8 2.5-17.4-1.5-11.8-10.8c9.5-15.4 34.6-4.3 42.7 6.4c13.4 17.7 10.2 48.3 3.1 67.8c-7.5 20.3-25.1 39.3-46.2 45.6c-6.8 2.1-52.3 6.4-41.6-18.5c4.6-10.9 32.7-24.6 25.1-34.1c-11.1-14-37.9 6.5-51.4 10.8c-3.1 1-15.3 4.7-21.5-5.9c-2.9-4.8-8.6-39.4 22.5-42.6c15.7-1.6 17.1 26.3 20.2 51.4c1.4 12.1-4.4 54.1-10.2 64.4" fill="none" stroke="#007b52" stroke-width="4px" stroke-dashoffset="4838" stroke-dasharray="4838" transform="translate(193.7,294.6) translate(-193.7,-294.6)"/></g></g><g transform="translate(250,304.9) translate(-210,-95.1)"/></svg>