<svg width="396" height="46" viewBox="0 0 396 46" fill="none" xmlns="http://www.w3.org/2000/svg">
<mask id="path-1-inside-1" fill="white">
<path fill-rule="evenodd" clip-rule="evenodd" d="M355.117 25.6358L355.116 25.6408C355.112 25.6646 355.096 25.7751 355.022 25.9928C354.929 26.2671 354.773 26.6293 354.537 27.0832C354.065 27.9937 353.346 29.1288 352.41 30.4352C350.541 33.0423 347.947 36.1312 345.134 39.1263C344.27 40.0473 343.392 40.9516 342.515 41.8234C341.307 43.0254 339.625 43.7122 337.832 43.7786C283.126 45.8035 203.343 46 193.397 46C179.157 46 43.6107 44.8203 24.7025 42.4898C10.462 40.7347 6.08032 30.2041 6.08032 23.1837C6.08032 13.5306 15.9391 9.14284 29.0842 7.38774C40.3651 5.88153 112.336 3 198.874 3C217.601 3.51032 241.346 3.86848 261.1 4.16645L261.1 4.16645C269.067 4.28662 276.384 4.39699 282.462 4.50361C305.437 4.90666 317.77 5.25601 333.819 5.87755C335.418 5.93947 336.95 6.49634 338.134 7.4721C340.733 9.61314 343.47 11.9826 345.989 14.3483C348.697 16.8923 351.077 19.3604 352.758 21.4896C354.559 23.7719 355.11 25.1239 355.117 25.6358ZM85.8964 8.42107C116.058 7.51418 155.615 6.79481 198.811 6.79412C217.559 7.30434 241.326 7.66285 261.067 7.96063L261.067 7.96063L261.068 7.96064C269.023 8.08065 276.325 8.19079 282.381 8.29702C305.33 8.69962 317.63 9.04818 333.64 9.66821C334.289 9.69331 334.88 9.918 335.32 10.2799C337.867 12.3791 340.536 14.6903 342.977 16.9833C345.621 19.4662 347.844 21.7833 349.354 23.6973C350.005 24.5218 350.425 25.1509 350.684 25.5941C350.315 26.2817 349.727 27.2145 348.9 28.3676C347.154 30.8032 344.677 33.7599 341.948 36.667C341.113 37.5563 340.266 38.4285 339.422 39.2679C338.994 39.6929 338.379 39.961 337.662 39.9876C283.05 42.009 203.343 42.2059 193.397 42.2059C186.312 42.2059 148.892 41.9114 110.871 41.3253C91.864 41.0323 72.7254 40.6667 57.1651 40.2291C41.485 39.7883 29.7259 39.2799 25.2663 38.7303C19.3209 37.9975 15.6976 35.5119 13.4815 32.6376C11.1801 29.6526 10.2655 26.0583 10.2655 23.1837C10.2655 19.7853 11.8777 17.3829 15.0003 15.4651C18.3421 13.4126 23.3636 11.9866 29.694 11.1414C35.045 10.4269 55.5793 9.33265 85.8964 8.42107ZM363.326 20.2754C362.514 18.7172 361.462 17.2493 360.47 15.9912C359.154 14.3247 357.586 12.5934 355.9 10.8751C356.827 10.9192 357.691 10.9641 358.445 11.0098C358.451 11.0135 358.459 11.0187 358.468 11.0256C359.236 11.6132 360.018 12.1974 360.794 12.7777L360.795 12.7778C363.018 14.439 365.198 16.0683 366.889 17.6527C369.262 19.8767 370.342 21.208 371.836 23.2132C372.452 24.039 372.875 24.8603 373.136 25.5336C373.329 26.0285 373.396 26.343 373.42 26.4619C373.396 26.5489 373.339 26.7367 373.203 27.0398C372.954 27.5939 372.514 28.3749 371.792 29.3846C370.395 31.3397 368.334 33.6211 365.873 35.9897C365.085 36.7485 364.272 37.5007 363.448 38.2379C363.044 38.5986 362.496 38.8197 361.896 38.8459C360.65 38.9004 359.233 38.9537 357.768 39.0063C358.721 37.8259 359.609 36.6665 360.406 35.5556C361.5 34.0295 362.502 32.4809 363.258 31.0255C363.899 29.7928 364.822 27.791 364.822 25.6458C364.822 23.6625 364.124 21.8053 363.326 20.2754ZM368.92 38.5907C371.477 36.1294 373.72 33.6638 375.304 31.4477C376.955 29.1387 377.617 27.4689 377.617 26.4872C377.617 25.5503 376.965 23.3184 375.304 21.0893C373.711 18.9507 372.48 17.4357 369.897 15.0147C368.027 13.262 365.571 11.4278 363.298 9.72967C362.56 9.17829 361.841 8.64125 361.167 8.12599C360.49 7.60767 359.658 7.28113 358.773 7.22712C356.875 7.11122 354.291 7.00111 351.788 6.89631L351.651 6.89058L351.34 6.87759L350.655 6.84894C350.201 6.82989 349.753 6.81102 349.317 6.79232C348.02 6.73672 347.315 8.19319 348.23 9.02919C348.541 9.3135 348.85 9.59837 349.156 9.88346C349.299 10.0167 349.442 10.15 349.583 10.2833C349.672 10.3667 349.761 10.4502 349.849 10.5337L349.937 10.617C352.644 13.1783 355.17 15.7973 357.066 18.1989C358.911 20.5368 360.636 23.2416 360.636 25.6458C360.636 26.901 360.07 28.2571 359.472 29.4093C358.826 30.6525 357.933 32.0427 356.897 33.488C355.615 35.2764 354.06 37.2246 352.358 39.198L352.331 39.2293C352.189 39.3947 352.045 39.5602 351.9 39.7259C351.566 40.1086 351.227 40.4917 350.884 40.8744C350.109 41.7372 350.823 43.0523 352.049 43.0067C352.58 42.9869 353.131 42.967 353.694 42.947L354.393 42.9223L354.441 42.9205L355.543 42.8819L355.544 42.8819C357.829 42.8018 360.172 42.7198 362.098 42.6356C363.71 42.5652 365.238 41.9666 366.387 40.9392C367.245 40.1716 368.094 39.3859 368.92 38.5907ZM383.29 20.7727C382.567 19.3036 381.632 17.9196 380.749 16.7334C379.579 15.1621 378.184 13.5298 376.685 11.9097C377.509 11.9513 378.277 11.9936 378.948 12.0367C378.953 12.0402 378.96 12.0451 378.968 12.0516C379.651 12.6052 380.346 13.1555 381.036 13.7023L381.038 13.7036C383.015 15.2698 384.955 16.8061 386.458 18.2999C388.569 20.3968 389.529 21.6521 390.858 23.5426C391.406 24.3212 391.782 25.0956 392.015 25.7304C392.186 26.197 392.246 26.4935 392.267 26.6056C392.246 26.6877 392.195 26.8648 392.074 27.1505C391.853 27.6729 391.461 28.4093 390.819 29.3613C389.576 31.2047 387.743 33.3556 385.555 35.5889C384.854 36.3043 384.131 37.0135 383.398 37.7086C383.039 38.0486 382.551 38.2571 382.017 38.2818C380.909 38.3332 379.649 38.3835 378.345 38.4331C379.193 37.3201 379.984 36.227 380.692 35.1796C381.665 33.7407 382.557 32.2807 383.229 30.9084C383.798 29.7462 384.619 27.8588 384.619 25.8362C384.619 23.9663 383.999 22.2152 383.29 20.7727ZM388.265 38.0413C390.539 35.7206 392.534 33.3959 393.943 31.3065C395.411 29.1295 396 27.5551 396 26.6295C396 25.7462 395.42 23.6418 393.943 21.5401C392.525 19.5238 391.431 18.0953 389.134 15.8127C387.47 14.1602 385.286 12.4309 383.264 10.8298C382.608 10.3099 381.968 9.80355 381.369 9.31774C380.766 8.82904 380.027 8.52116 379.24 8.47024C377.552 8.36096 375.253 8.25715 373.027 8.15834L372.905 8.15294L372.628 8.14069L372.02 8.11368C371.615 8.09572 371.217 8.07792 370.829 8.0603C369.676 8.00787 369.049 9.38109 369.862 10.1693C370.139 10.4374 370.414 10.706 370.686 10.9748C370.813 11.1004 370.94 11.2261 371.066 11.3518C371.145 11.4304 371.224 11.5091 371.303 11.5878L371.381 11.6663C373.788 14.0813 376.035 16.5506 377.721 18.8149C379.362 21.0192 380.897 23.5694 380.897 25.8362C380.897 27.0196 380.393 28.2982 379.861 29.3846C379.287 30.5567 378.492 31.8675 377.571 33.2302C376.43 34.9163 375.047 36.7532 373.534 38.6138L373.51 38.6433C373.384 38.7993 373.256 38.9554 373.127 39.1115C372.83 39.4723 372.528 39.8336 372.223 40.1944C371.534 41.0079 372.169 42.2478 373.259 42.2048C373.732 42.1862 374.222 42.1674 374.723 42.1485L375.344 42.1252L375.387 42.1236L376.366 42.0872C378.399 42.0117 380.484 41.9343 382.197 41.8549C383.63 41.7885 384.989 41.2242 386.012 40.2554C386.775 39.5318 387.53 38.791 388.265 38.0413Z"/>
</mask>
<path fill-rule="evenodd" clip-rule="evenodd" d="M349.536 22.6358L349.535 22.6408C349.532 22.6646 349.516 22.7751 349.442 22.9928C349.349 23.2671 349.193 23.6293 348.957 24.0832C348.484 24.9937 347.766 26.1288 346.829 27.4352C344.96 30.0423 342.367 33.1312 339.554 36.1263C338.689 37.0473 337.811 37.9516 336.935 38.8234C335.727 40.0254 334.044 40.7122 332.252 40.7786C277.546 42.8035 197.762 43 187.817 43C173.576 43 38.0304 41.8203 19.1221 39.4898C4.88166 37.7347 0.5 27.2041 0.5 20.1837C0.5 10.5306 10.3588 6.14284 23.5038 4.38774C34.7847 2.88153 106.756 0 193.294 0C212.021 0.510323 235.766 0.868483 255.52 1.16645L255.52 1.16645C263.486 1.28662 270.804 1.39699 276.881 1.50361C299.857 1.90666 312.189 2.25601 328.239 2.87755C329.838 2.93947 331.37 3.49634 332.554 4.4721C335.153 6.61314 337.889 8.98264 340.408 11.3483C343.117 13.8923 345.497 16.3604 347.178 18.4896C348.979 20.7719 349.529 22.1239 349.536 22.6358ZM80.3161 5.42107C110.478 4.51418 150.035 3.79481 193.231 3.79412C211.978 4.30434 235.746 4.66285 255.486 4.96063L255.487 4.96063L255.487 4.96064C263.443 5.08065 270.745 5.19079 276.8 5.29702C299.75 5.69962 312.049 6.04818 328.06 6.66821C328.708 6.69331 329.3 6.918 329.739 7.27988C332.287 9.37908 334.955 11.6903 337.397 13.9833C340.041 16.4662 342.263 18.7833 343.774 20.6973C344.425 21.5218 344.844 22.1509 345.103 22.5941C344.735 23.2817 344.147 24.2145 343.32 25.3676C341.574 27.8032 339.097 30.7599 336.367 33.667C335.532 34.5563 334.685 35.4285 333.841 36.2679C333.414 36.6929 332.799 36.961 332.081 36.9876C277.47 39.009 197.763 39.2059 187.817 39.2059C180.731 39.2059 143.312 38.9114 105.291 38.3253C86.2837 38.0323 67.1451 37.6667 51.5848 37.2291C35.9047 36.7883 24.1456 36.2799 19.6859 35.7303C13.7406 34.9975 10.1172 32.5119 7.90123 29.6376C5.59977 26.6526 4.68519 23.0583 4.68519 20.1837C4.68519 16.7853 6.2974 14.3829 9.41995 12.4651C12.7617 10.4126 17.7833 8.98658 24.1137 8.14136C29.4646 7.42691 49.999 6.33265 80.3161 5.42107ZM357.746 17.2754C356.933 15.7172 355.882 14.2493 354.889 12.9912C353.574 11.3247 352.006 9.59341 350.32 7.87508C351.246 7.91919 352.11 7.96405 352.865 8.00981C352.871 8.01352 352.879 8.01867 352.888 8.02563C353.656 8.61316 354.437 9.19737 355.214 9.77769C357.437 11.4389 359.618 13.0683 361.309 14.6527C363.682 16.8767 364.762 18.208 366.256 20.2132C366.871 21.039 367.294 21.8603 367.556 22.5336C367.748 23.0285 367.816 23.343 367.839 23.4619C367.816 23.5489 367.759 23.7367 367.623 24.0398C367.374 24.5939 366.933 25.3749 366.212 26.3846C364.814 28.3397 362.753 30.6211 360.293 32.9897C359.505 33.7485 358.692 34.5007 357.868 35.2379C357.464 35.5986 356.916 35.8197 356.316 35.8459C355.069 35.9004 353.653 35.9537 352.187 36.0063C353.141 34.8259 354.029 33.6665 354.825 32.5556C355.92 31.0295 356.922 29.4809 357.678 28.0255C358.318 26.7928 359.241 24.791 359.241 22.6458C359.241 20.6625 358.544 18.8053 357.746 17.2754ZM363.34 35.5907C365.897 33.1294 368.14 30.6638 369.724 28.4477C371.374 26.1387 372.037 24.4689 372.037 23.4872C372.037 22.5503 371.385 20.3184 369.724 18.0893C368.13 15.9507 366.9 14.4357 364.317 12.0147C362.447 10.262 359.991 8.42784 357.717 6.72967C356.979 6.17829 356.26 5.64125 355.587 5.12599C354.909 4.60767 354.077 4.28113 353.193 4.22712C351.295 4.11122 348.711 4.00111 346.207 3.89631L346.07 3.89058L345.759 3.87759L345.075 3.84894C344.62 3.82989 344.173 3.81102 343.737 3.79232C342.44 3.73672 341.735 5.19319 342.649 6.02919C342.96 6.3135 343.269 6.59837 343.575 6.88346C343.719 7.01671 343.861 7.15002 344.003 7.28333C344.092 7.36671 344.181 7.45016 344.269 7.53368L344.357 7.61697C347.064 10.1783 349.59 12.7973 351.486 15.1989C353.331 17.5368 355.056 20.2416 355.056 22.6458C355.056 23.901 354.49 25.2571 353.892 26.4093C353.246 27.6525 352.353 29.0427 351.316 30.488C350.034 32.2764 348.479 34.2246 346.778 36.198L346.751 36.2293C346.608 36.3947 346.465 36.5602 346.32 36.7259C345.986 37.1086 345.647 37.4917 345.303 37.8744C344.529 38.7372 345.243 40.0523 346.469 40.0067C347 39.9869 347.551 39.967 348.114 39.947L348.812 39.9223L348.861 39.9205L349.962 39.8819L349.964 39.8819C352.249 39.8018 354.592 39.7198 356.517 39.6356C358.129 39.5652 359.657 38.9666 360.806 37.9392C361.665 37.1716 362.514 36.3859 363.34 35.5907ZM377.709 17.7727C376.986 16.3036 376.052 14.9196 375.168 13.7334C373.999 12.1621 372.604 10.5298 371.105 8.9097C371.929 8.95129 372.697 8.99359 373.368 9.03673C373.373 9.04023 373.38 9.04509 373.388 9.05164C374.071 9.60516 374.766 10.1555 375.456 10.7023L375.457 10.7036C377.435 12.2698 379.374 13.8061 380.878 15.2999C382.989 17.3968 383.949 18.6521 385.278 20.5426C385.825 21.3212 386.202 22.0956 386.434 22.7304C386.606 23.197 386.665 23.4935 386.686 23.6056C386.666 23.6877 386.615 23.8648 386.494 24.1505C386.273 24.6729 385.881 25.4093 385.239 26.3613C383.996 28.2047 382.163 30.3556 379.975 32.5889C379.274 33.3043 378.551 34.0135 377.817 34.7086C377.459 35.0486 376.971 35.2571 376.437 35.2818C375.329 35.3332 374.069 35.3835 372.765 35.4331C373.613 34.3201 374.403 33.227 375.112 32.1796C376.085 30.7407 376.977 29.2807 377.649 27.9084C378.218 26.7462 379.039 24.8588 379.039 22.8362C379.039 20.9663 378.419 19.2152 377.709 17.7727ZM382.685 35.0413C384.958 32.7206 386.954 30.3959 388.363 28.3065C389.83 26.1295 390.42 24.5551 390.42 23.6295C390.42 22.7462 389.84 20.6418 388.363 18.5401C386.945 16.5238 385.851 15.0953 383.553 12.8127C381.89 11.1602 379.706 9.43086 377.684 7.82976C377.027 7.30989 376.388 6.80355 375.789 6.31774C375.186 5.82904 374.446 5.52116 373.66 5.47024C371.972 5.36096 369.673 5.25715 367.447 5.15834L367.325 5.15294L367.048 5.14069L366.439 5.11368C366.035 5.09572 365.637 5.07792 365.249 5.0603C364.096 5.00787 363.469 6.38109 364.282 7.16931C364.559 7.43737 364.833 7.70596 365.106 7.97476C365.233 8.1004 365.36 8.22608 365.486 8.35177C365.565 8.43038 365.644 8.50907 365.723 8.58781L365.801 8.66634C368.208 11.0813 370.455 13.5506 372.141 15.8149C373.782 18.0192 375.317 20.5694 375.317 22.8362C375.317 24.0196 374.813 25.2982 374.281 26.3846C373.707 27.5567 372.912 28.8675 371.991 30.2302C370.85 31.9163 369.467 33.7532 367.954 35.6138L367.93 35.6433C367.803 35.7993 367.676 35.9554 367.547 36.1115C367.25 36.4723 366.948 36.8336 366.643 37.1944C365.954 38.0079 366.589 39.2478 367.679 39.2048C368.151 39.1862 368.642 39.1674 369.142 39.1485L369.763 39.1252L369.807 39.1236L370.786 39.0872C372.819 39.0117 374.904 38.9343 376.617 38.8549C378.05 38.7885 379.409 38.2242 380.431 37.2554C381.195 36.5318 381.95 35.791 382.685 35.0413Z" fill="#A3297C"/>
</svg>
