<svg xmlns="http://www.w3.org/2000/svg" xmlns:xlink="http://www.w3.org/1999/xlink" width="100%" height="100%" viewBox="0 0 500 800"><defs><filter id="Filter-0" color-interpolation-filters="sRGB"><feGaussianBlur in="SourceAlpha"/><feOffset dx="2" dy="3" result="offsetblur"/><feFlood flood-color="#003f83" flood-opacity="0.2"/><feComposite in2="offsetblur" operator="in"/><feMerge><feMergeNode/><feMergeNode in="SourceGraphic"/></feMerge></filter><filter id="Filter-1" color-interpolation-filters="sRGB"><feGaussianBlur in="SourceAlpha"/><feOffset dx="2" dy="3" result="offsetblur"/><feFlood flood-color="#003f83" flood-opacity="0.2"/><feComposite in2="offsetblur" operator="in"/><feMerge><feMergeNode/><feMergeNode in="SourceGraphic"/></feMerge></filter><filter id="Filter-2" color-interpolation-filters="sRGB"><feGaussianBlur in="SourceAlpha"/><feOffset dx="2" dy="3" result="offsetblur"/><feFlood flood-color="#003f83" flood-opacity="0.2"/><feComposite in2="offsetblur" operator="in"/><feMerge><feMergeNode/><feMergeNode in="SourceGraphic"/></feMerge></filter><filter id="Filter-3" color-interpolation-filters="sRGB"><feGaussianBlur in="SourceAlpha"/><feOffset dx="2" dy="3" result="offsetblur"/><feFlood flood-color="#003f83" flood-opacity="0.2"/><feComposite in2="offsetblur" operator="in"/><feMerge><feMergeNode/><feMergeNode in="SourceGraphic"/></feMerge></filter><filter id="Filter-4" color-interpolation-filters="sRGB"><feGaussianBlur in="SourceAlpha"/><feOffset dx="2" dy="3" result="offsetblur"/><feFlood flood-color="#003f83" flood-opacity="0.2"/><feComposite in2="offsetblur" operator="in"/><feMerge><feMergeNode/><feMergeNode in="SourceGraphic"/></feMerge></filter><filter id="Filter-5" color-interpolation-filters="sRGB"><feGaussianBlur in="SourceAlpha"/><feOffset dx="6" dy="8" result="offsetblur"/><feFlood flood-color="#003f83" flood-opacity="0.2"/><feComposite in2="offsetblur" operator="in"/><feMerge><feMergeNode/><feMergeNode in="SourceGraphic"/></feMerge></filter><filter id="Filter-6" color-interpolation-filters="sRGB"><feGaussianBlur in="SourceAlpha"/><feOffset dx="6" dy="8" result="offsetblur"/><feFlood flood-color="#003f83" flood-opacity="0.2"/><feComposite in2="offsetblur" operator="in"/><feMerge><feMergeNode/><feMergeNode in="SourceGraphic"/></feMerge></filter><filter id="Filter-7" color-interpolation-filters="sRGB"><feGaussianBlur in="SourceAlpha"/><feOffset dx="6" dy="8" result="offsetblur"/><feFlood flood-color="#003f83" flood-opacity="0.2"/><feComposite in2="offsetblur" operator="in"/><feMerge><feMergeNode/><feMergeNode in="SourceGraphic"/></feMerge></filter><filter id="Filter-8" color-interpolation-filters="sRGB"><feGaussianBlur in="SourceAlpha"/><feOffset dx="6" dy="8" result="offsetblur"/><feFlood flood-color="#003f83" flood-opacity="0.2"/><feComposite in2="offsetblur" operator="in"/><feMerge><feMergeNode/><feMergeNode in="SourceGraphic"/></feMerge></filter><filter id="Filter-9" color-interpolation-filters="sRGB"><feGaussianBlur in="SourceAlpha"/><feOffset dx="6" dy="8" result="offsetblur"/><feFlood flood-color="#003f83" flood-opacity="0.2"/><feComposite in2="offsetblur" operator="in"/><feMerge><feMergeNode/><feMergeNode in="SourceGraphic"/></feMerge></filter><clipPath id="ClipPath-1"><rect width="500" height="800" transform="translate(400,398.8) translate(-250,-398.8)"/></clipPath></defs><g transform="translate(250,198.6) translate(-210,-419.9)"><g id="Tangles" fill="none" stroke-width="4" fill-rule="evenodd" clip-rule="evenodd" stroke-linecap="round" stroke-linejoin="round" stroke-miterlimit="1.5" transform="translate(210,621.3) translate(0,0) translate(-193.8,-176.1)"><path id="Purpletangle" d="M47.9 220c-4.4-12.9-5.2-29 4-40.1c16-19.6 47.7-21.4 60.9 2.3c7.2 13 3.7 53.7-17.2 51c-20.6-2.6-19.7-26.7-13.4-41.4c12.3-28.2 44.3-52.1 75.4-36c19 9.8 10.5 38.5 5.8 53.9c-11.6 38.4-22.1 74.8 26.3 90.8c8.9 2.9 17.7 3.7 27 2.6c55.6-7.1 93.4-67.7 92.4-120.3c-0.7-39.7-32.2-80.4-76-66.9c-26.6 8.3-28.5 42.1-10.1 59.7c33.7 32.1 100.8 4 95.4-44.5c-6.4-57.3-81-71-126.8-65c-18.6 2.5-42.6 8.1-51.6 26.6c-8 16.3 1.5 32.8 12.9 44.6c19.6 20.5 60.5 39.2 63.5 71.1c2 21.9-23.3 41.4-42.5 45.4c-39.3 8-98.5-14.9-95.4-62.1c2.5-39.6 52.2-81.5 89.9-84.6c37.5-3.2 74.6 22.3 71 62.8c-1.8 13.7-6.3 27-13.1 39c-4.6 9-9.8 18.2-16.8 25.5c-21 22-58.4 19.7-80.8 1.7c-34.6-27.8-56.5-86.5-111-50.7c-20.3 13.3-18 39.3-8 58.7c18.4 35.7 70.7 73.5 105.7 36.5c6.1-6.4 10.2-14 13.5-22.2c7-17.2 13-37.5 5.2-55.4c-18.5-42.4-99.2-84-58.5-143.5c38.5-56.5 146.7-46.7 177.1 14c32.6 65.2-58.4 132.3-17.5 195.4c18.8 29 59 31 87.9 18.1c40.6-19.2 65.2-61.3 62-106c-2.4-25.7-39-39.5-56.6-19.9c-37.4 42-20.5 128.4-97.5 132.3c-31.2 1.6-72.7-4.8-96.8-26.6c-20.3-18.3-20.7-48.6 4-63.3c38.5-23 49 29 19.7 49.8c-52.5 37.5-124.8-18.3-139.6-70.5c-22.6-80 76.2-121.7 141-102.9c55.7 16.2 18.7 102.3 76.3 113c33.5 6.4 57.7-26.4 67.1-54.3c6.3-18.7 6-36.2-13.6-46.3" stroke="#a654a0" filter="url(#Filter-0)" transform="translate(193.8,162.8) translate(0,0) translate(-193.8,-162.8)"/><path id="Greentangle" d="M183.4 197c6.6-10.5 11.1-22.3 13-34.6c.3-3 1.4-11-1.9-13.3c-6.7-4.7-14.5 8.8-13.4 14.3c1.3 6.5 12.8 2 15.9 1c13.5-4.3 31.7-12.2 42.8 1.8c7.5 9.5 8.5 24.8 5 36.2c-1.3 3.8-3.6 7.2-6.8 9.7c-1.4 1.1-2.8 2.1-4.3 3c-0.6 .3-2.3 .5-1.9 1c5.2 6.7 17.6 4.7 24.4 2.7c21.5-7.5 38.5-24.2 46.2-45.6c7.1-19.6 10.3-50.1-3-67.8c-8.1-10.7-33.3-21.9-42.8-6.4c-5.6 9.2 4 13.3 11.8 10.8c26.3-8.4 29-38.2 11.7-56.4c-29-30.6-88.6-13.3-116 11.7c-31.1 28.2-18.6 93.1 26 99.3c7 1 14 .1 20.8-2c9.8-2.8 23.2-10.7 30.6 1c6.7 10.8 .3 26.6-5.3 36.3c-16.6 26.5-46.2 41.8-77.4 40c-30.7-2.6-59.7-20.7-67.7-51.4c-2.2-6.5-2.8-13.5-1.5-20.3c5-18.6 23.2-31.5 29.5-50.2c8.4-24.8 4.2-54-25.5-59.5c-4.2-0.7-8.5-1-12.8-0.4c-38.8 5.2-60.7 57.5-36 88.8c7.8 9.8 19.7 13.3 31.3 16.5c27.5 7.6 65.3 14.7 67.4 49.7c.3 6-0.6 12.4-2.7 18.1c-2.5 7-6.7 13.4-11.6 19c-7.1 8.9-16.6 15.6-27.4 19.3c-40.9 11.3-85-35.9-88.5-73.8c-1.7-18 4.4-35.9 7.8-53.4c5.9-30.9 1.4-68.4 20.3-95.4c7.1-9.5 16.2-17.4 26.6-23.1c12.8-7.8 28.7-9 42.5-3c31.5 14 20.7 47.5 14.6 74.1c-11 48-26 104 6.2 147.6c4.9 6.5 10.6 12.3 16.9 17.3c38.7 31.4 85 6.7 111.3-28.7c12.8-17.3 29.2-62.2 7-79.3c-19.2-14.8-47.2 1.9-61.8 15.6c-33.2 31-59.9 106.2-6.9 133.9c34.2 17.8 78.7 3 110.1-13.4c14.2-7.4 29.4-15.9 38.7-29.3c18.8-27.1 21.7-68.7 20.3-100.6c-0.8-17.9-4-35.2-9-52.3c-2.6-8.8-5.2-17.7-12.7-23.5c-28-21.8-65.6 10.6-76.7 35.7c-11 24.7-13.4 52.2-19.8 78.2c-9.2 37.7-26.1 80-52.6 109c-18.5 20.2-49 45.3-76.8 25.7c-18.3-13-27.8-40.4-24-62c3.8-22.3 18.4-38.8 42.6-34.8c33.4 5.7 49.2 44 63.6 69.6c17.2 30.4 51.8 53.6 87.8 44.5c10.1-2.5 19.5-7.2 27.7-13.6c12.5-10.3 23.6-22.2 33-35.4c11.4-15.1 20.4-31.6 26.6-49.5c4.2-12.2 8-25.7 7-38.8c-2.9-35.2-23.2-63.3-57.7-72.5c-23.4-6.2-48.4-5.4-71.5-13.1c-9.9-3.3-21-8.8-26.7-18c-4.5-8.6-7.3-18-8-27.7c-3.2-23 12-47.5 36.5-49.2c15.7-1 31.1 5.3 45.3 11.4c6.9 3 14.8 6 19.8 11.9c3.8 4.4 5.6 10 8 15.3" stroke="#007b52" filter="url(#Filter-1)" transform="translate(198.4,183.4) translate(0,0) translate(-198.4,-183.4)"/><path d="M294.4 53.6c18.4 16.3 34.5 34.8 40.3 59.3c2.6 11 3.3 25.5-3 35.5c-3.5 5.4-10.7 7.2-16.6 6.2c-13.2-2.2-29.3-10.4-33.2-24.3c-5.1-18.1 19.6-41.4 36.8-38.6c19.4 3.2 33.5 22 40.1 39.2c15.5 40-14 69.1-45.3 88.2c-12.6 7.6-35.7 18-49.3 7c-12.9-10.6-9.4-25.2 6.6-30.3c8-2.5 18.3 1.4 25.7-2c5.6-2.5 6.3-10.8 6.3-16.1c-0.5-13.8-6.1-26.9-15.8-36.8c-24.9-24.6-62.3 2.6-78.7 23.2c-4.4 5.5-8.2 11.5-11.4 17.8c-2.5 5-4.3 10.5-5.2 16.1c-6.8 43.6 51.8 35.6 76.6 48.9c16.3 8.8 30.7 25 24.5 44.7c-3.8 12.1-15 17.9-26.2 21.6c-19.6 6.7-42.7 11.2-62.9 4.8c-10.1-3.2-26.3-9-26-22c0-4.3 .9-7.8 2.2-11.9c4.7-14.4 17.6-25.3 4-39.4c-2-2-4.4-3.8-7.1-4.6c-20-5.2-27.7 27.7-38.3 38.3c-6 6-14 9-22.3 9.9c-7 .7-14.2 .3-21.2 0c-18.1-0.7-46.2 .1-56.9-18c-8.4-14.4-1.6-30.1 9.2-40.9c11-10.5 22.4-20.6 34.3-30.2c7.2-6 16-11.7 21.2-19.6c11.3-17.2 8.4-42.3-10.2-53.9c-16.6-10.3-50.4 6-58.3 21.7c-9.7 19 3.9 46.7 20.8 56.6c7.9 4.5 16.9 6.7 26 6.4c10.4-0.3 20.7-4 29.5-9.2c10.5-6.3 19.6-14.8 26.4-25c21.5-31.8 12.8-88.6-18.8-111c-6.4-4.2-13.5-7-21-8.3c-8.4-1.7-16.4-0.3-22.5-7.3c-14.6-16.8-0.9-34 18.9-34.9c19.5-1 38.1 5.5 56 12.4c19.4 7.5 39 16 57.4 25.7c1 .5 18 9.8 18 11.6c-0.8 14.8-26 26-36 31.8l-8.4 4.8c-12.9 7.5-26.2 15.1-34.6 27.8c-18.9 28.4-18.2 76.5 13.9 96c20.7 12.4 43.1 6.3 53.2-16.1c15.3-34 9.1-78.8 38.4-106c18.8-17.3 50-18.8 72.7-9c9.2 4.1 20.4 10.1 23.8 20.4c8.7 25.9-17 52.6-37.8 63c-35.4 17.5-77.8 10.7-115.2 21.5c-16 4.6-34.8 11.8-44.2 26.6c-16.6 26-1.6 73.3 22.4 89.7c20.7 14.1 46.6 15.4 70.8 15.6c19.3 .2 39.2-0.3 56.6-9.7c17.5-9.6 26.9-25 38.8-40.2c4.4-5.8 12.5-12.5 12.6-20.3c0-6-6.1-11.3-10.5-14.4c-9.6-6.9-21.5-11.9-27.7-22.5c-3.2-5.6-4.4-12.2-3.4-18.6c.7-4.7 2.3-9.3 4.5-13.5c13-25.8 38.7-20.7 62.3-20.2" stroke="#007cbf" filter="url(#Filter-2)" transform="translate(204.1,172.6) translate(-204.1,-172.6)"/><path id="Redtangle" d="M141.6 58.3c-29.4 6.4-32.7 56.6-5.2 68.1c12 5.1 24.9-3.2 36-6.8c28.2-9 77-2.4 71.7 37.4c-1 7-4 13.9-7.2 20.2c-4 7.8-9 17-16.6 22.1c-19.8 13.2-49.1-6.9-53.6-26.7c-5.9-26.3 17.4-49.6 41.4-55.3c41-9.8 46.6 48 73 66.8c18 12.8 48.5 16.6 63.5-3c12.6-16.4 21.2-51.4 7.8-70c-14.4-20-48.9-26.3-59.4 .7c-11.4 29.3 9.8 60.4 19.8 86.4c12.3 30.1 4.7 64.7-19 86.9c-32.4 32-86.2 25.6-122.5 5c-16.8-9.4-33.6-20-35.8-40.7c-2.6-25.7 20.7-37.8 43.8-34c20 3.2 35.8 18.8 39.3 38.8c4.8 32.6-26.5 42.5-51.8 48.4c-44.9 10.6-100.4-24.7-126-60.3c-4.5-6.2-8.8-13-11.5-20.2c-13.5-36.4 24.9-60 47.6-80.8c27-24.7 53.9-55.9 62.5-92.4c1.7-6.5 2.3-13.3 1.7-20c-5.2-40.9-70.1-26.7-90.7-9.3c-17.6 14.8-19.4 41.6-17.8 62.8c4.5 55.6 45.4 95.8 103.4 80.5c40.8-10.7 64.6-51 67.4-91.7c.8-12.7-0.1-29.3-9-39.5c-2.8-3.4-20-12.2-22.4-3.8c-5.3 18.1 25.6 15.1 33.6 11.5c16.1-7.4 30.4-18.9 48.3-22c36.5-6.1 81.1 13.2 93.1 50.2c8.6 26.6-20.2 38.7-37.5 51.6c-16.3 11.7-27.9 28.8-32.8 48.2c-8.5 36.6 24.3 59.6 57.7 57.4c14.2-0.9 37.2-18.4 37.3 4c0 18-13.7 32.4-26.7 43c-22.9 18.6-50 25.4-78.1 31.6c-21.5 4.8-40.1 9.5-60-2.3c-25.6-15.1-43.6-39.2-42.6-70c.6-21.2 10.2-44.2 1.8-65c-13.1-32.6-59.4-31-83.7-13.1c-17.4 12.7-22 33.1-21.2 53.6c1.5 39.1 26.5 86.5 66.5 97.7c18.7 5.2 38.5-1 56-7.6c20.2-6.7 39.4-16.3 56.7-28.7c19.7-15.2 33.3-36.2 48.5-55.5" stroke="#f65c1b" stroke-linecap="butt" stroke-linejoin="miter" stroke-miterlimit="4" filter="url(#Filter-3)" transform="translate(199.1,155.4) translate(0,0) translate(-199.1,-155.4)"/><path id="Darktangle" d="M91 148.1c-13.1-0.6-8.9-11.5 4.1-12.8c13.5-1.3 36.1 7.1 39.1 22.4c5.8 29-29 63.1-57.5 50.1c-23.9-10.9-36.4-52.6-21.3-75.4c14-21 50.3-32.9 74.8-24.7c36.1 12 6.9 65.8 6.9 93.8c0 20.9 19.3 37.5 39.7 35.6c4.7-0.4 10.4-3.8 14.4-6.3c12-7.7 20.5-24.6 18.4-39.1c-2.7-18.9-31.4-45.8 1.7-54.7c4.9-1.3 9.9-1.5 15-1.1c6.6 .5 13.5 3.2 19 6.9c54.6 36.4-26.1 77-16.7 114.5c4.2 16.8 22.1 20.2 37.4 18.4c19.9-2.4 44.5-27.5 53.5-43.7c4.5-8.2 3.7-17.6 2.8-26.5c-3.1-31-38.4-34.2-62.1-23.6c-53.2 24-57.8 104.2-134.6 89.8c-8.8-1.7-18.4-2.9-26.5-6.9c-9.1-4.6-17.6-10.7-25.3-17.3c-3.4-3-6.8-6.9-9.8-10.4c-14.6-17-9.1-23.9 12.7-29.3c25.3-6.3 51.7-4.7 77.1 1.1c9 2.1 17.3 10.9 15.5 20.8c-2.8 15.5-20 27.9-32.2 36.2c-13.1 8.9-29.1 19.5-45.5 20.7c-46.8 3.4-86.9-44.1-89.1-88.6c-1.7-33.9 5.2-66.6 37.9-84c9.7-5.1 22.4-2.8 32.8-4.6c16.7-2.8 34.1-10 48.4-19c21.3-13.4 57.5-45.6 37.9-73.6c-17.6-25.1-69.9-12.6-85.6 9.4c-10.6 14.8-3 42.4 7.4 55c15.9 19.4 43.2 18.6 62.7 4.1c31.9-24 74.9-58.5 115.6-29.4c16.3 11.6 17.4 34 1.2 46.6c-10.7 8.3-24.8 11.1-35.3 19.5c-21.3 17.1-32.9 49.8-21.7 76c14.8 34.5 62.3 13.3 83.4-1.1c5.5-3.7 25.3-19.6 27.1-17.9c2.3 2.4-2.4 10.7-3.5 12.7c-6.6 12.2-17.1 21.3-28.2 29.3c-7.1 5.2-14.7 8.6-23 11.5c-21.5 7.7-119.1 12.3-54.5 43c8.7 4.1 17 7.1 26.5 8.6c38 5.8 22.2-12.7 43.5-42.6c6.9-9.7 71.7-17.2 62.8-29.1c-10.5-14-35.7-9.9-49.5-4c-42.5 18-77.3 30.9-124.8 25.3c-28.5-3.4-45.2-57.8-35.7-80.6c7-16.8 27.8-31.2 43.7-38.5c20.6-9.5 33.9-2.2 54.1 3.4c13 3.7 26.8 5.7 39.1 11.6c15.5 7.4 24.1 19.9 42.6 21.2c24.6 1.8 25.2-19.8 40.8-27.6" stroke="#2a4059" stroke-width="4px" filter="url(#Filter-4)" transform="translate(199.9,156.2) translate(0,0) translate(-175.2,-155.5)"/><path id="PurpleIllos" d="M47.9 220c-4.4-12.9-5.2-29 4-40.1c16-19.6 47.7-21.4 60.9 2.3c7.2 13 3.7 53.7-17.2 51c-20.6-2.6-19.7-26.7-13.4-41.4c12.3-28.2 44.3-52.1 75.4-36c19 9.8 10.5 38.5 5.8 53.9c-8.3 27.5-16.1 54-1.9 72.7c5.5 7.4 14.5 13.6 28.2 18.1c8.9 2.9 17.7 3.7 27 2.6c25.3-3.2 46.9-17.5 62.9-37.1c19.1-23.5 30-54.5 29.5-83.2c-0.7-39.7-32.2-80.4-76-66.9c-26.6 8.3-28.5 42.1-10.1 59.7c33.7 32.1 100.8 4 95.4-44.5c-6.4-57.3-81-71-126.8-65c-18.6 2.5-42.6 8.1-51.6 26.6c-8 16.3 1.5 32.8 12.9 44.6c11 11.5 28.6 22.4 42.5 35.3c11 10.2 19.7 21.7 21 35.8c2 21.9-23.3 41.4-42.5 45.4c-39.3 8-98.5-14.9-95.4-62.1c1.3-20.9 15.8-42.5 34.7-58.6c16.9-14.4 37.4-24.5 55.2-26c37.5-3.2 74.6 22.3 71 62.8c-1.8 13.7-6.3 27-13.1 39c-4.6 9-9.8 18.2-16.8 25.5c-21 22-58.4 19.7-80.8 1.7c-34.6-27.8-56.5-86.5-111-50.7c-20.3 13.3-18 39.3-8 58.7c9.1 17.7 26.6 35.9 46.2 45.3c19.8 9.5 41.9 9.8 59.5-8.8c6.1-6.4 10.2-14 13.5-22.2c7-17.2 13-37.5 5.2-55.4c-9.9-22.7-37.7-45.2-55.1-70.4c-15-21.7-22.3-45.5-3.4-73.1c18.1-26.6 51.7-38.5 85.4-37.3c21 .7 42.1 6.6 59.4 17.2c13.8 8.4 25.2 19.9 32.3 34.1c32.6 65.2-58.4 132.3-17.5 195.4c8.8 13.6 22.3 21.2 37.1 24.2c16.9 3.4 35.4 .8 50.8-6.1c20.6-9.8 37.2-25.4 48-44.4c10.4-18.3 15.6-39.6 14-61.6c-2.4-25.7-39-39.5-56.6-19.9c-29.9 33.6-25.1 95.5-61.2 121c-9.1 6.4-20.8 10.5-36.3 11.3c-31.2 1.6-72.7-4.8-96.8-26.6c-20.3-18.3-20.7-48.6 4-63.3c38.5-23 49 29 19.7 49.8c-32.8 23.4-73.4 10.4-102.8-15.4c-17.6-15.4-31.2-35.5-36.8-55.1c-7.9-27.9-1-51.2 14.1-68.8c14.2-16.6 35.7-28.3 58.9-34.2c22.7-5.7 47.1-6 68 .1c55.7 16.2 18.7 102.3 76.3 113c33.5 6.4 57.7-26.4 67.1-54.3c6.3-18.7 6-36.2-13.6-46.3" stroke="#a654a0" stroke-dashoffset="4400" stroke-dasharray="4860" opacity="0" filter="url(#Filter-5)" transform="translate(199,265.4) translate(0,0) translate(-183,-269.6)"/><path id="DarkIllos" d="M126.1 144.6c-13-0.7-9-11.6 4.1-12.9c13.5-1.3 36 7.2 39.1 22.5c5.8 29-62.9 65.7-91.4 52.7c-24-10.8-36.4-52.6-21.3-75.3c14-21 50.3-33 74.8-24.8c36.1 12 6.9 65.8 6.9 93.8c.2 10.1 4.6 19.6 12.1 26.4c5.8 5.1 13 8.3 20.6 9.2c2.3 .2 4.6 .3 7 .1c3-0.3 6.5-1.9 9.7-3.6c1.7-1 3.3-1.9 4.7-2.8c3.5-2.4 6.5-5.3 9.1-8.5c3.5-4.3 6.1-9.2 7.7-14.5c1.5-5.1 2.1-10.5 1.6-16c-0.4-2.9-1.4-5.9-2.7-9c-1.8-4.4-4.2-8.9-6.3-13.4c-3.3-7.2-6.1-14.2-4.8-20c.8-4.1 3.6-7.6 9.5-10.2c1.7-0.8 3.7-1.5 6-2.1c3-0.8 6.1-1.3 9.1-1.4c8.8-0.3 17.5 2.1 24.9 7.2c3.4 2.3 6.3 4.6 8.7 6.9c5.1 4.8 8 9.7 9.4 14.7c2.4 8.5 .1 17.3-4.3 26.1c-1.9 3.8-4.2 7.7-6.8 11.5c-6.6 10.3-14.5 20.6-19.5 30.7c-3 6.1-5 12.1-5 18.1c0 2.1 .2 4.3 .8 6.4c.8 3.4 2.2 6.2 4 8.5c3 3.9 7.1 6.5 11.7 8.1c4.3 1.5 9 2.2 13.8 2.2c2.6 0 5.3-0.1 7.9-0.4c3.8-0.5 7.8-1.7 11.8-3.6c6.5-3.1 13.1-7.7 19.1-13c5.4-4.8 10.3-10.1 14.4-15.2c3.4-4.2 6.2-8.3 8.2-11.9c1.9-3.4 2.8-7.1 3.2-10.8c.6-5.2 .1-10.5-0.4-15.7c-0.4-3.6-1.2-6.8-2.3-9.7c-4.7-11.7-15.4-17.5-27.6-19c-6.7-0.8-14-0.3-20.8 1.3c-4 .9-7.8 2.2-11.3 3.8c-7.5 3.4-14 7.8-19.9 13c-8.6 7.5-15.8 16.4-22.8 25.5c-9.1 12-17.7 24.2-28 33.9c-6.3 5.9-13.2 10.8-21.2 14.2c-6.6 2.8-14.1 4.5-22.6 4.9c-6.1 .2-12.8-0.3-20.2-1.7c-4.1-0.8-8.4-1.5-12.6-2.4c-4.8-1.1-9.6-2.4-13.9-4.6c-4.3-2.2-8.3-4.6-12.3-7.2c-4.5-3.1-8.9-6.4-13-10c-3.4-3-6.8-7-9.8-10.3c-8.4-9.8-10.2-16.3-5.9-21c3.1-3.5 9.4-6.1 18.6-8.4c5.3-1.2 10.7-2.1 16.2-2.8c10.1-1.2 20.3-1.5 30.5-0.8c10.2 .6 20.3 2.2 30.3 4.8c4.7 1 9.2 3.9 12.2 7.8c2.8 3.6 4.2 8.1 3.4 12.9c-1.2 6.7-5.1 12.8-10.1 18.2c-4 4.4-8.8 8.4-13.5 11.9c-3 2.2-5.9 4.3-8.6 6.1c-13 9-29 19.6-45.5 20.7c-14.8 1.1-28.9-2.9-41.3-10.2c-9.8-5.8-18.6-13.7-25.9-22.9c-6.2-7.8-11.3-16.5-15.1-25.7c-3.9-9.7-6.3-19.8-6.8-29.8c-0.6-12.1-0.1-24.1 2.2-35.3c1.9-8.7 4.9-16.9 9.4-24.3c4.4-7.2 10.3-13.8 18-19.3c2.6-1.8 5.4-3.5 8.4-5.1c5.1-2.7 11.2-3.3 17.3-3.6c5.2-0.2 10.6-0.2 15.4-1c5.7-0.9 11.4-2.4 17.1-4.3c5.7-1.8 11.3-4.1 16.7-6.7c5.1-2.4 10-5.1 14.6-8c5.8-3.7 12.9-8.8 19.5-14.9c4.5-4.1 8.8-8.6 12.5-13.3c6.4-8.4 11.1-17.5 11.5-26.7c.3-6.3-1.3-12.6-5.5-18.7c-8.1-11.5-23.4-15.1-39.1-13.6c-18.7 1.9-38.1 11-46.6 23c-3.2 4.4-4.7 10-5.1 16c-0.4 8 1.3 16.8 4.3 24.4c2.2 5.7 5.1 10.8 8.2 14.6c4.9 6 10.9 10.1 17.4 12.4c14.6 5.2 31.9 1.7 45.3-8.4c3.3-2.5 6.7-5.1 10.3-7.7c7.5-5.6 15.5-11.3 23.8-16.3c9.3-5.7 19-10.5 28.9-13.4c9.3-2.7 18.7-3.8 28.1-2.3c8.2 1.4 16.4 4.6 24.5 10.4c3.5 2.3 6.5 5.4 8.6 9c2.6 4.2 4 9 4.1 14c.2 5.6-1.4 11.1-4.3 15.8c-1.8 3-4.3 5.6-7.2 7.8c-4.8 3.8-10.4 6.4-15.9 8.9c-6.8 3.1-13.7 6-19.4 10.6c-7.9 6.3-14.4 14.7-19 24.2c-4.8 10-7.4 21-7 32c.2 6.7 1.6 13.5 4.3 19.8c5 11.8 13.9 17.1 24.3 18.3c12.7 1.6 27.7-2.9 40.5-8.9c7.1-3.3 13.6-7.1 18.6-10.5c5.5-3.7 25.3-19.6 27-17.8c2.4 2.3-2.3 10.6-3.4 12.6c-7.1 11.8-16.7 21.8-28.2 29.4c-7.1 4.9-14.8 8.8-23 11.5c-8.6 3-30.2 9.3-49.2 17.6c-21.6 9.5-39.8 21.7-30.8 35c2.9 4.4 8.8 8.9 18.5 13.5c8.6 4.1 16.9 7.2 26.4 8.7c9.4 1.4 19.2 .8 29-1.3c12.9-2.9 25.6-8.6 37.2-15.9c14.8-9.4 27.8-21.5 36.8-34.1c2.8-3.9 6.6-10 9.4-16.5c4.1-9.5 6.2-20.2 1-27.2c-10.5-14-35.7-9.8-49.5-4c-25.3 10.7-47.9 19.6-72 23.9c-16.4 2.9-33.6 3.7-52.8 1.4c-3.1-0.4-6-1.3-8.7-2.7c-7.6-3.9-14-11.4-18.9-20.5c-2.2-3.9-4-8.2-5.5-12.5c-2.4-6.7-4-13.8-4.8-20.4c-0.4-3.5 33.4-9.6 33.5-12.8c.1-5.4 1-10.4 2.6-14.3c1.3-3.1 3-6.2 5.2-9.1c2.7-3.8-27.8-4.7-24.1-8.1c6.4-5.8 13.8-10.8 20.9-14.7c2.7-1.5 5.3-2.8 7.8-4c2.6-1.2 5.1-2.2 7.6-2.9c5.3-1.5 10.2-1.9 14.9-1.6c5.9 .4 11.6 1.9 17.7 3.8c4.3 1.3 8.8 2.8 13.8 4.2c2.8 .8 5.7 1.5 8.7 2.2c5.9 1.4 12 2.7 17.8 4.5c4.4 1.3 8.6 2.8 12.7 4.8c4.5 2.2 8.5 4.8 12.3 7.5c4.3 3 8.5 6.1 13.1 8.6c4.9 2.7 10.4 4.7 17.2 5.2c2.2 .1 4.2 .1 6-0.1c3-0.3 5.5-1 7.7-2c2.8-1.3 5.1-3.1 7.2-5.1c1.9-1.8 3.5-3.8 5.1-5.8c1.5-2 3-4 4.6-6c1.2-1.5 2.5-2.9 4-4.2c1.8-1.7 3.8-3.2 6.2-4.4" stroke="#2a4059" stroke-dashoffset="6000" stroke-dasharray="6000" filter="url(#Filter-6)" transform="translate(221.8,259.9) translate(0,0) translate(-197,-259.3)"/><path id="GreenIllos" d="M170.9-25.6c6.6-10.5 11.1-22.3 13-34.6c.3-3 1.4-11-1.9-13.3c-6.7-4.7-14.5 8.8-13.4 14.3c1.3 6.5 12.8 2 15.9 1c13.5-4.3 31.7-12.2 42.8 1.8c7.5 9.5 8.5 24.8 5 36.2c-1.3 3.9-3.6 7.2-6.8 9.7c-1.4 1.1-2.8 2.1-4.3 3c-0.6 .3-2.3 .5-1.9 1c5.2 6.7 17.6 4.7 24.4 2.7c21.5-7.4 38.5-24.2 46.2-45.6c7.1-19.6 10.3-50.1-3-67.8c-8.1-10.7-33.3-21.9-42.8-6.4c-5.6 9.2 4 13.3 11.8 10.8c26.3-8.4 29-38.2 11.7-56.4c-29-30.6-88.6-13.3-116 11.7c-31.1 28.2-18.6 93.1 26 99.3c7 1 14 .1 20.8-2c9.8-2.8 23.2-10.7 30.6 1c6.7 10.8 .3 26.6-5.3 36.3c-16.6 26.5-46.2 41.8-77.4 40c-30.7-2.6-59.7-20.7-67.7-51.4c-2.2-6.5-2.8-13.5-1.5-20.3c5-18.6 23.2-31.5 29.5-50.2c8.4-24.8 4.2-54-25.5-59.5c-4.2-0.7-8.5-1-12.8-0.4c-38.8 5.2-60.7 57.5-36 88.8c7.8 9.8 19.7 13.3 31.3 16.5c27.5 7.6 65.3 14.7 67.4 49.7c.3 6-0.6 12.4-2.7 18.1c-2.5 7-6.7 13.4-11.6 19c-7.1 8.9-16.6 15.6-27.4 19.3c-40.9 11.3-85-35.9-88.5-73.8c-1.7-18 4.4-35.9 7.8-53.4c5.9-30.9 1.4-68.4 20.3-95.4c7.1-9.5 16.2-17.4 26.6-23.1c12.8-7.8 28.7-8.9 42.5-3c31.5 14 20.7 47.5 14.6 74.1c-11 48-26 104 6.2 147.6c4.9 6.5 10.6 12.3 16.9 17.3c38.7 31.4 85 6.7 111.3-28.7c12.8-17.3 29.2-62.2 7-79.3c-19.2-14.8-47.2 1.9-61.8 15.6c-33.2 31-59.9 106.2-6.9 133.9c34.2 17.8 78.7 3 110.1-13.4c14.2-7.4 29.4-15.9 38.7-29.3c18.8-27.1 21.7-68.7 20.3-100.6c-0.8-17.9-4-35.2-9-52.3c-2.6-8.8-5.2-17.7-12.7-23.5c-28-21.8-65.6 10.6-76.7 35.7c-11 24.7-13.4 52.2-19.8 78.2c-9.2 37.7-26.1 80-52.6 109c-18.5 20.2-49 45.3-76.8 25.7c-18.3-13-27.8-40.4-24-62c3.8-22.3 18.4-38.8 42.6-34.8c33.4 5.7 49.2 44 63.6 69.6c17.2 30.4 51.8 53.6 87.8 44.5c10.1-2.5 19.5-7.1 27.7-13.6c12.5-10.3 23.6-22.2 33-35.4c11.4-15.1 20.4-31.6 26.6-49.5c4.2-12.2 8-25.7 7-38.8c-2.9-35.2-23.2-63.3-57.7-72.5c-23.4-6.2-48.4-5.4-71.5-13.1c-9.9-3.3-21-8.8-26.7-18c-4.5-8.6-7.3-18-8-27.7c-3.2-23 12-47.5 36.5-49.2c15.7-1 31.1 5.3 45.3 11.4c6.9 3 14.8 6 19.8 11.9c3.8 4.4 5.6 10 8 15.3" stroke="#007b52" stroke-dashoffset="3615" stroke-dasharray="7800" filter="url(#Filter-7)" transform="translate(209.6,469.6) translate(0,0) translate(-196.8,-246.6)"/><path id="RedIllos" d="M148-164.1c-29.4 6.4-32.7 56.6-5.2 68.1c12 5.1 24.9-3.2 36-6.8c28.2-9 77-2.4 71.7 37.4c-1 7-4 13.9-7.2 20.2c-4 7.8-9 17-16.6 22.1c-19.8 13.2-49.1-6.9-53.6-26.7c-5.9-26.3 17.4-49.6 41.4-55.3c41-9.8 46.6 48 73 66.8c18 12.8 48.5 16.6 63.5-3c12.6-16.4 21.2-51.4 7.8-70c-14.4-20-48.9-26.3-59.4 .7c-11.4 29.3 9.8 60.4 19.8 86.4c12.3 30.1 4.7 64.7-19 86.9c-32.4 32-86.2 25.6-122.5 5c-16.8-9.4-33.6-20-35.8-40.7c-2.6-25.7 20.7-37.8 43.8-34c20 3.2 35.8 18.8 39.3 38.8c4.8 32.6-26.5 42.5-51.8 48.4c-44.9 10.6-100.4-24.7-126-60.3c-4.5-6.2-8.8-13-11.5-20.2c-13.5-36.4 24.9-60 47.6-80.8c27-24.7 53.9-55.9 62.5-92.4c1.7-6.5 2.3-13.3 1.7-20c-5.2-40.9-70.1-26.7-90.7-9.3c-17.6 14.8-19.4 41.6-17.8 62.8c4.5 55.6 45.4 95.8 103.4 80.5c40.8-10.7 64.6-51 67.4-91.7c.8-12.7-0.1-29.3-9-39.5c-2.8-3.4-20-12.2-22.4-3.8c-5.3 18.1 25.6 15.1 33.6 11.5c16.1-7.4 30.4-18.9 48.3-22c36.5-6.1 81.1 13.2 93.1 50.2c8.6 26.6-20.2 38.7-37.5 51.6c-16.3 11.7-27.9 28.8-32.8 48.2c-8.5 36.6 24.3 59.6 57.7 57.4c14.2-0.9 37.2-18.4 37.3 4c0 18-13.7 32.4-26.7 43c-22.9 18.6-50 25.4-78.1 31.6c-21.5 4.8-40.1 9.5-60-2.3c-25.6-15.1-43.6-39.2-42.6-70c.6-21.2 10.2-44.2 1.8-65c-13.1-32.6-59.4-31-83.7-13.1c-17.4 12.7-22 33.1-21.2 53.6c1.5 39.1 26.5 86.5 66.5 97.7c18.7 5.2 38.5-1 56-7.6c20.2-6.6 39.4-16.3 56.7-28.7c19.7-15.2 33.3-36.2 48.5-55.5" stroke="#f65c1b" stroke-dashoffset="3550" stroke-dasharray="3550" filter="url(#Filter-8)" transform="translate(184.6,474.9) translate(0,0) translate(-191.8,-252)"/><path id="BlueIllos" d="M276.6 279.4c18.4 16.3 34.5 34.8 40.3 59.3c2.6 11 3.3 25.5-3 35.5c-3.5 5.4-10.7 7.2-16.6 6.2c-13.2-2.2-29.3-10.4-33.2-24.3c-5.1-18.1 19.6-41.4 36.8-38.6c19.4 3.2 33.5 22 40.1 39.2c15.5 40-14 69.1-45.3 88.2c-12.6 7.6-35.7 18-49.3 7c-12.9-10.6-9.4-25.2 6.6-30.3c8-2.5 18.3 1.4 25.7-2c5.6-2.5 6.3-10.8 6.3-16.1c-0.5-13.8-6.1-26.9-15.8-36.8c-24.9-24.6-62.3 2.6-78.7 23.2c-4.4 5.5-8.3 11.5-11.4 17.8c-2.5 5-4.3 10.5-5.2 16.1c-6.8 43.6 51.8 35.6 76.6 48.9c16.3 8.8 30.7 25 24.5 44.7c-3.8 12.1-15 17.9-26.2 21.6c-19.6 6.7-42.7 11.2-62.9 4.8c-10.1-3.2-26.3-9-26-22c0-4.3 .9-7.8 2.2-11.9c4.7-14.4 17.6-25.3 4-39.4c-2-2-4.4-3.8-7.1-4.6c-20-5.2-27.7 27.7-38.3 38.3c-6 6-14 9-22.3 9.9c-7 .7-14.2 .3-21.2 0c-18.1-0.7-46.2 .1-56.9-18c-8.4-14.4-1.6-30.1 9.2-40.9c11-10.5 22.4-20.6 34.3-30.2c7.2-6 16-11.7 21.2-19.6c11.3-17.2 8.4-42.3-10.2-53.9c-16.6-10.3-50.4 6-58.3 21.7c-9.7 19 3.9 46.7 20.8 56.6c7.9 4.5 16.9 6.8 26 6.4c10.4-0.3 20.7-4 29.5-9.2c10.5-6.2 19.5-14.8 26.4-25c21.5-31.8 12.8-88.6-18.8-111c-6.4-4.2-13.5-7-21-8.3c-8.4-1.7-16.4-0.3-22.5-7.3c-14.6-16.8-0.9-34 18.9-34.9c19.5-1 38.1 5.5 56 12.4c19.4 7.5 39 16 57.4 25.7c1 .5 18 9.8 18 11.6c-0.8 14.8-26 26-36 31.8l-8.4 4.8c-12.9 7.5-26.2 15.1-34.6 27.8c-18.9 28.4-18.2 76.5 13.9 96c20.7 12.4 43.1 6.3 53.2-16.1c15.3-34 9.1-78.8 38.4-106c18.8-17.3 50-18.8 72.7-9c9.2 4.1 20.4 10.1 23.8 20.4c8.7 25.9-17 52.6-37.8 63c-35.4 17.5-77.8 10.7-115.2 21.5c-16 4.6-34.8 11.8-44.2 26.6c-16.6 26-1.6 73.3 22.4 89.7c20.7 14.1 46.6 15.4 70.8 15.6c19.3 .2 39.2-0.3 56.6-9.7c17.5-9.6 26.9-25 38.8-40.2c4.4-5.8 12.5-12.5 12.6-20.3c0-6-6.1-11.3-10.5-14.4c-9.6-6.9-21.5-11.9-27.7-22.5c-3.3-5.6-4.5-12.2-3.4-18.6c.7-4.7 2.3-9.3 4.5-13.5c13-25.8 38.7-20.7 62.3-20.2" stroke="#007cbf" stroke-dashoffset="4000" stroke-dasharray="4000" filter="url(#Filter-9)" transform="translate(162.4,78) translate(-145.2,-303.5)"/></g></g><g transform="translate(250,304.9) translate(-210,-95.1)"/></svg>