<svg xmlns="http://www.w3.org/2000/svg" xmlns:xlink="http://www.w3.org/1999/xlink" width="100%" height="100%" viewBox="0 0 500 1500"><g clip-rule="evenodd" fill-rule="evenodd" stroke-linecap="round" stroke-linejoin="round" stroke-miterlimit="1.5" transform="translate(250,801.4) translate(-210,-799.3)"><g transform="translate(210,805) translate(-212,-807.1)"><path id="BlueStringJank" d="M216.3 242.9c5.8-10.3 8.4-51.2 6.9-63.2c-3.1-25.1 .3-52.1-15.3-50.5c-31.1 3.1-26.9 35.6-24.1 40.5c6.2 10.5 17.3 2.2 20.4 1.2c13.5-4.2 41.5-20.1 52.6-6.1c7.5 9.5-18.5 21.8-23.2 32.7c-10.6 24.9 31.1 24.9 37.9 22.8c21.1-6.3 39-32.7 46.5-53c7.1-19.5 11.7-45.6-1.6-63.3c-8.1-10.8-33.3-21.9-42.8-6.5c-5.6 9.3 4 13.4 11.8 10.9c26.3-8.4 29.1-38.2 11.7-56.5c-28.9-30.5-89.5-16.2-117 8.7c-31 28.2-17.6 96.2 27 102.4c7.1 1 14 .1 20.8-1.9c9.8-2.9 27.5-16.3 34.9-4.6c6.8 10.7-7 30.5-12.6 40.2c-14.9 25.7-44.9 39.7-74.6 37.2c-30.7-2.5-59.5-16.3-67.5-47c-1.7-6.6-3.3-13.6-1.5-20.3c5-18.6 23.2-31.5 29.5-50.2c8.4-24.8 4.2-54.1-25.5-59.5c-4.2-0.7-8.5-1-12.8-0.4c-38.8 5.2-60.7 57.5-35.9 88.8c7.7 9.8 19.6 13.3 31.2 16.5c27.5 7.6 68.8 14.4 70.8 49.4c.4 6.1-2.9 16.3-5 22c-2.6 7-7.8 9.8-12.7 15.3c-7.3 8.3-16.5 16.4-27.4 19.4c-40.9 11.3-85.1-35.9-88.5-73.9c-1.7-18 3.3-37.8 6.6-55.3c5.9-30.9-0.4-65.3 18.5-92.2c6.8-9.6 18-22.2 28.2-28c13.2-7.5 29.9-5.5 44 .7c31.5 14.1 23.8 47 17.7 73.7c-11.1 48-29.1 104.3 3.1 148c4.8 6.5 10.4 16.4 16.6 21.4c38.8 31.5 85.4 2.6 111.6-32.8c12.8-17.3 29.2-62.2 7-79.3c-19.2-14.8-47.2 1.9-61.8 15.5c-33.2 31.2-59.9 106.3-6.9 133.9c34.2 17.9 79.6 4.2 111-12.2c14.1-7.4 28.5-17 37.8-30.5c18.8-27.1 19-66.8 17.5-98.7c-0.8-17.9-3.6-33.7-8.6-50.9c-2.6-8.8-4.9-18.4-12.4-24.2c-28.1-21.7-63.5 8.1-74.6 33.2c-11 24.7-11.2 52.1-17.5 78.1c-9.2 37.7-28.4 80.1-54.9 109c-18.5 20.3-46.4 44.1-74.1 24.5c-18.2-12.8-31.7-41.1-28-62.7c3.9-22.3 19.7-36.8 43.9-32.8c33.4 5.6 50.1 38.2 64.5 63.7c17.1 30.5 50.9 59.5 86.9 50.4c10.2-2.6 19.4-7.1 27.7-13.7c12.6-9.9 25.6-21.3 35.3-34.1c11.4-15.1 20.2-30.4 26.4-48.3c4.3-12.2 9.7-28.8 8.6-41.9c-2.9-35.2-26.9-62.6-61.4-71.8c-23.4-6.2-46-9.4-69.2-17.1c-9.8-3.3-19.4-5.6-25-14.8c-5.1-8.2-8.1-15.1-9.4-24.6c-3.1-22.9 10.7-46.9 35.2-48.6c15.8-1 29.7 2.1 43.9 8.3c6.9 2.9 14.9 6.2 19.9 12.1" fill="none" stroke="#007cbf" stroke-width="4px" opacity="0" transform="translate(217.2,180.9) translate(-217.2,-180.9)"/><path id="BlueString1" d="M13.3 1575.3c0 0 98-194 175.4-304c31.7-45.1 246.6-411.3 141.3-592.6c-112.4-193.5-113.7-379.1-109.3-424.1c4.3-45.1 7.3-51.1 5.8-76.1c-3.1-25.1-4.5-53-20.1-51.4c-31.2 3.2-25.4 37.7-22.6 42.6c6.2 10.5 18.4 6.8 21.5 5.8c13.5-4.2 40.4-24.7 51.5-10.7c7.5 9.5-20.6 23.1-25.2 34.1c-10.6 24.8 34.8 20.5 41.6 18.5c21.1-6.4 38.8-25.4 46.2-45.7c7.1-19.5 10.3-50-3-67.7c-8.1-10.8-33.3-21.9-42.8-6.5c-5.6 9.3 4 13.4 11.8 10.9c26.3-8.4 29.1-38.2 11.7-56.5c-28.9-30.5-88.6-13.2-116.1 11.8c-31 28.2-18.5 93.1 26.1 99.3c7.1 1 14 .1 20.8-1.9c9.8-2.9 27.5-16.3 34.9-4.6c6.8 10.7-4 32.1-9.6 41.8c-14.9 25.7-47.7 42.4-77.4 40c-30.7-2.6-59.7-20.7-67.7-51.4c-1.7-6.6-3.3-13.6-1.5-20.3c5-18.6 23.2-31.5 29.5-50.2c8.4-24.8 4.2-54.1-25.5-59.5c-4.2-0.7-8.5-1-12.8-0.4c-38.8 5.2-60.7 57.5-35.9 88.8c7.7 9.8 19.6 13.3 31.2 16.5c27.5 7.6 65.3 14.7 67.4 49.7c.3 6.1-0.6 12.4-2.7 18.1c-2.5 7-6.7 13.4-11.6 18.9c-7.3 8.3-16.5 16.4-27.4 19.4c-40.9 11.3-85.1-35.9-88.5-73.9c-1.7-18 4.4-35.8 7.8-53.3c5.9-30.9 1.4-68.4 20.3-95.4c6.7-9.6 16.6-17.4 26.7-23.1c13.2-7.5 28.4-9.2 42.5-3c31.5 14.1 20.7 47.4 14.6 74.1c-11 48-26 103.9 6.2 147.6c4.8 6.5 10.6 12.2 16.9 17.3c38.7 31.4 85.1 6.7 111.3-28.7c12.8-17.3 29.2-62.2 7-79.3c-19.2-14.8-47.2 1.9-61.8 15.5c-33.2 31.2-59.9 106.3-6.9 133.9c34.2 17.9 78.7 3.1 110.1-13.3c14.2-7.4 29.4-15.9 38.7-29.4c18.8-27.1 21.7-68.6 20.3-100.5c-0.8-17.9-4-35.2-9-52.3c-2.6-8.8-5.2-17.7-12.7-23.6c-28-21.7-65.6 10.7-76.7 35.8c-11 24.7-13.4 52.2-19.8 78.2c-9.2 37.7-26.1 80-52.6 108.9c-18.5 20.3-49.1 45.3-76.8 25.7c-18.3-12.8-27.8-40.3-24-61.9c3.8-22.3 18.4-38.8 42.6-34.8c33.4 5.6 49.2 44.1 63.6 69.6c17.2 30.4 51.8 53.6 87.8 44.5c10.2-2.6 19.4-7.1 27.7-13.7c12.6-9.8 23.4-22.6 33-35.3c11.4-15.1 20.4-31.6 26.6-49.5c4.2-12.3 8-25.7 7-38.8c-2.9-35.2-23.2-63.3-57.7-72.5c-23.4-6.2-48.4-5.4-71.5-13.2c-9.9-3.3-21.1-8.7-26.7-17.9c-5.1-8.3-6.8-18.3-8.1-27.7c-3.1-22.9 12.1-47.5 36.6-49.2c15.7-1.1 32.2 1.2 46.3 7.3c6.9 3 13.8 10.1 18.8 16" fill="none" stroke="#007cbf" stroke-width="4px" stroke-dashoffset="4500" stroke-dasharray="4500 10000" transform="translate(226,344.8) translate(-226,-344.8)"/></g></g></svg>